<svg width="358" height="20" viewBox="0 0 358 20" fill="none" xmlns="http://www.w3.org/2000/svg">
<path d="M254.057 13.5V4.77273H259.29V5.71023H255.114V8.65909H258.898V9.59659H255.114V13.5H254.057ZM263.142 13.6364C262.551 13.6364 262.033 13.4957 261.587 13.2145C261.143 12.9332 260.797 12.5398 260.547 12.0341C260.3 11.5284 260.176 10.9375 260.176 10.2614C260.176 9.57955 260.3 8.98437 260.547 8.47585C260.797 7.96733 261.143 7.57244 261.587 7.29119C262.033 7.00994 262.551 6.86932 263.142 6.86932C263.733 6.86932 264.25 7.00994 264.693 7.29119C265.139 7.57244 265.486 7.96733 265.733 8.47585C265.983 8.98437 266.108 9.57955 266.108 10.2614C266.108 10.9375 265.983 11.5284 265.733 12.0341C265.486 12.5398 265.139 12.9332 264.693 13.2145C264.25 13.4957 263.733 13.6364 263.142 13.6364ZM263.142 12.733C263.591 12.733 263.96 12.6179 264.25 12.3878C264.54 12.1577 264.754 11.8551 264.893 11.4801C265.033 11.1051 265.102 10.6989 265.102 10.2614C265.102 9.82386 265.033 9.41619 264.893 9.03835C264.754 8.66051 264.54 8.35511 264.25 8.12216C263.96 7.8892 263.591 7.77273 263.142 7.77273C262.693 7.77273 262.324 7.8892 262.034 8.12216C261.744 8.35511 261.53 8.66051 261.391 9.03835C261.251 9.41619 261.182 9.82386 261.182 10.2614C261.182 10.6989 261.251 11.1051 261.391 11.4801C261.53 11.8551 261.744 12.1577 262.034 12.3878C262.324 12.6179 262.693 12.733 263.142 12.733ZM267.643 13.5V6.95455H268.615V7.94318H268.683C268.802 7.61932 269.018 7.35653 269.331 7.15483C269.643 6.95312 269.995 6.85227 270.387 6.85227C270.461 6.85227 270.554 6.85369 270.664 6.85653C270.775 6.85937 270.859 6.86364 270.916 6.86932V7.89205C270.882 7.88352 270.804 7.87074 270.681 7.85369C270.562 7.83381 270.436 7.82386 270.302 7.82386C269.984 7.82386 269.7 7.89062 269.45 8.02415C269.203 8.15483 269.007 8.33665 268.862 8.5696C268.72 8.79972 268.649 9.0625 268.649 9.35795V13.5H267.643ZM274.551 16.0909C274.065 16.0909 273.647 16.0284 273.298 15.9034C272.949 15.7812 272.657 15.6193 272.424 15.4176C272.194 15.2188 272.011 15.0057 271.875 14.7784L272.676 14.2159C272.767 14.3352 272.882 14.4716 273.021 14.625C273.16 14.7812 273.35 14.9162 273.592 15.0298C273.836 15.1463 274.156 15.2045 274.551 15.2045C275.079 15.2045 275.515 15.0767 275.859 14.821C276.203 14.5653 276.375 14.1648 276.375 13.6193V12.2898H276.289C276.216 12.4091 276.11 12.5568 275.974 12.733C275.841 12.9062 275.647 13.0611 275.395 13.1974C275.145 13.331 274.806 13.3977 274.38 13.3977C273.852 13.3977 273.377 13.2727 272.957 13.0227C272.539 12.7727 272.208 12.4091 271.964 11.9318C271.723 11.4545 271.602 10.875 271.602 10.1932C271.602 9.52273 271.72 8.93892 271.956 8.44176C272.191 7.94176 272.52 7.5554 272.94 7.28267C273.36 7.0071 273.846 6.86932 274.397 6.86932C274.824 6.86932 275.162 6.94034 275.412 7.08239C275.664 7.22159 275.858 7.38068 275.991 7.55966C276.127 7.7358 276.233 7.88068 276.306 7.99432H276.409V6.95455H277.38V13.6875C277.38 14.25 277.252 14.7074 276.997 15.0597C276.744 15.4148 276.403 15.6747 275.974 15.8395C275.548 16.0071 275.074 16.0909 274.551 16.0909ZM274.517 12.4943C274.92 12.4943 275.261 12.402 275.539 12.2173C275.818 12.0327 276.029 11.767 276.174 11.4205C276.319 11.0739 276.392 10.6591 276.392 10.1761C276.392 9.70455 276.321 9.28835 276.179 8.92756C276.037 8.56676 275.826 8.28409 275.548 8.07955C275.27 7.875 274.926 7.77273 274.517 7.77273C274.091 7.77273 273.735 7.88068 273.451 8.09659C273.17 8.3125 272.958 8.60227 272.816 8.96591C272.677 9.32955 272.608 9.73295 272.608 10.1761C272.608 10.6307 272.679 11.0327 272.821 11.3821C272.966 11.7287 273.179 12.0014 273.46 12.2003C273.744 12.3963 274.096 12.4943 274.517 12.4943ZM281.966 13.6364C281.335 13.6364 280.791 13.4972 280.333 13.2188C279.879 12.9375 279.528 12.5455 279.281 12.0426C279.037 11.5369 278.914 10.9489 278.914 10.2784C278.914 9.60795 279.037 9.01705 279.281 8.50568C279.528 7.99148 279.872 7.59091 280.312 7.30398C280.755 7.0142 281.272 6.86932 281.863 6.86932C282.204 6.86932 282.541 6.92614 282.873 7.03977C283.206 7.15341 283.508 7.33807 283.781 7.59375C284.054 7.84659 284.271 8.18182 284.433 8.59943C284.595 9.01705 284.676 9.53125 284.676 10.142V10.5682H279.63V9.69886H283.653C283.653 9.32955 283.579 9 283.431 8.71023C283.287 8.42045 283.079 8.19176 282.809 8.02415C282.542 7.85653 282.227 7.77273 281.863 7.77273C281.463 7.77273 281.116 7.87216 280.824 8.07102C280.534 8.26705 280.311 8.52273 280.154 8.83807C279.998 9.15341 279.92 9.49148 279.92 9.85227V10.4318C279.92 10.9261 280.005 11.3452 280.176 11.6889C280.349 12.0298 280.589 12.2898 280.896 12.4688C281.203 12.6449 281.559 12.733 281.966 12.733C282.23 12.733 282.468 12.696 282.681 12.6222C282.897 12.5455 283.083 12.4318 283.24 12.2812C283.396 12.1278 283.517 11.9375 283.602 11.7102L284.574 11.983C284.471 12.3125 284.299 12.6023 284.058 12.8523C283.816 13.0994 283.518 13.2926 283.163 13.4318C282.808 13.5682 282.409 13.6364 281.966 13.6364ZM289.052 6.95455V7.80682H285.66V6.95455H289.052ZM286.649 5.38636H287.654V11.625C287.654 11.9091 287.696 12.1222 287.778 12.2642C287.863 12.4034 287.971 12.4972 288.102 12.5455C288.235 12.5909 288.376 12.6136 288.524 12.6136C288.635 12.6136 288.725 12.608 288.797 12.5966C288.868 12.5824 288.924 12.571 288.967 12.5625L289.172 13.4659C289.103 13.4915 289.008 13.517 288.886 13.5426C288.764 13.571 288.609 13.5852 288.422 13.5852C288.137 13.5852 287.859 13.5241 287.586 13.402C287.316 13.2798 287.092 13.0938 286.913 12.8438C286.737 12.5938 286.649 12.2784 286.649 11.8977V5.38636ZM294.076 13.5V4.77273H297.025C297.71 4.77273 298.27 4.89631 298.704 5.14347C299.142 5.38778 299.466 5.71875 299.676 6.13636C299.886 6.55398 299.991 7.01989 299.991 7.53409C299.991 8.0483 299.886 8.51562 299.676 8.93608C299.468 9.35653 299.147 9.69176 298.713 9.94176C298.278 10.1889 297.721 10.3125 297.042 10.3125H294.929V9.375H297.008C297.477 9.375 297.853 9.29403 298.137 9.1321C298.422 8.97017 298.627 8.75142 298.755 8.47585C298.886 8.19744 298.951 7.88352 298.951 7.53409C298.951 7.18466 298.886 6.87216 298.755 6.59659C298.627 6.32102 298.42 6.10511 298.133 5.94886C297.846 5.78977 297.466 5.71023 296.991 5.71023H295.133V13.5H294.076ZM303.483 13.6534C303.069 13.6534 302.692 13.5753 302.354 13.419C302.016 13.2599 301.748 13.0312 301.549 12.733C301.35 12.4318 301.25 12.0682 301.25 11.642C301.25 11.267 301.324 10.9631 301.472 10.7301C301.62 10.4943 301.817 10.3097 302.064 10.1761C302.311 10.0426 302.584 9.94318 302.882 9.87784C303.184 9.80966 303.486 9.75568 303.79 9.71591C304.188 9.66477 304.51 9.62642 304.757 9.60085C305.007 9.57244 305.189 9.52557 305.303 9.46023C305.419 9.39489 305.478 9.28125 305.478 9.11932V9.08523C305.478 8.66477 305.363 8.33807 305.132 8.10511C304.905 7.87216 304.56 7.75568 304.097 7.75568C303.617 7.75568 303.24 7.8608 302.968 8.07102C302.695 8.28125 302.503 8.50568 302.392 8.74432L301.438 8.40341C301.608 8.00568 301.836 7.69602 302.12 7.47443C302.407 7.25 302.719 7.09375 303.057 7.00568C303.398 6.91477 303.733 6.86932 304.063 6.86932C304.273 6.86932 304.515 6.89489 304.787 6.94602C305.063 6.99432 305.328 7.09517 305.584 7.24858C305.843 7.40199 306.057 7.63352 306.228 7.94318C306.398 8.25284 306.483 8.66761 306.483 9.1875V13.5H305.478V12.6136H305.426C305.358 12.7557 305.245 12.9077 305.086 13.0696C304.926 13.2315 304.715 13.3693 304.451 13.483C304.186 13.5966 303.864 13.6534 303.483 13.6534ZM303.637 12.75C304.034 12.75 304.37 12.6719 304.642 12.5156C304.918 12.3594 305.125 12.1577 305.265 11.9105C305.407 11.6634 305.478 11.4034 305.478 11.1307V10.2102C305.435 10.2614 305.341 10.3082 305.196 10.3509C305.054 10.3906 304.89 10.4261 304.702 10.4574C304.517 10.4858 304.337 10.5114 304.161 10.5341C303.988 10.554 303.847 10.571 303.739 10.5852C303.478 10.6193 303.233 10.6747 303.006 10.7514C302.782 10.8253 302.6 10.9375 302.461 11.0881C302.324 11.2358 302.256 11.4375 302.256 11.6932C302.256 12.0426 302.385 12.3068 302.644 12.4858C302.905 12.6619 303.236 12.75 303.637 12.75ZM312.955 8.42045L312.052 8.67614C311.995 8.52557 311.911 8.37926 311.8 8.23722C311.692 8.09233 311.545 7.97301 311.357 7.87926C311.17 7.78551 310.93 7.73864 310.637 7.73864C310.237 7.73864 309.903 7.83097 309.636 8.01562C309.371 8.19744 309.239 8.42898 309.239 8.71023C309.239 8.96023 309.33 9.15767 309.512 9.30256C309.694 9.44744 309.978 9.56818 310.364 9.66477L311.336 9.90341C311.921 10.0455 312.357 10.2628 312.644 10.5554C312.931 10.8452 313.075 11.2187 313.075 11.6761C313.075 12.0511 312.967 12.3864 312.751 12.6818C312.538 12.9773 312.239 13.2102 311.856 13.3807C311.472 13.5511 311.026 13.6364 310.518 13.6364C309.85 13.6364 309.298 13.4915 308.86 13.2017C308.423 12.9119 308.146 12.4886 308.029 11.9318L308.984 11.6932C309.075 12.0455 309.246 12.3097 309.499 12.4858C309.755 12.6619 310.089 12.75 310.501 12.75C310.969 12.75 311.342 12.6506 311.617 12.4517C311.896 12.25 312.035 12.0085 312.035 11.7273C312.035 11.5 311.955 11.3097 311.796 11.1562C311.637 11 311.393 10.8835 311.063 10.8068L309.972 10.5511C309.373 10.4091 308.933 10.1889 308.651 9.89062C308.373 9.58949 308.234 9.21307 308.234 8.76136C308.234 8.39205 308.337 8.06534 308.545 7.78125C308.755 7.49716 309.04 7.27415 309.401 7.11222C309.765 6.95028 310.177 6.86932 310.637 6.86932C311.285 6.86932 311.793 7.01136 312.163 7.29545C312.535 7.57955 312.799 7.95455 312.955 8.42045ZM319.225 8.42045L318.321 8.67614C318.265 8.52557 318.181 8.37926 318.07 8.23722C317.962 8.09233 317.814 7.97301 317.627 7.87926C317.439 7.78551 317.199 7.73864 316.907 7.73864C316.506 7.73864 316.172 7.83097 315.905 8.01562C315.641 8.19744 315.509 8.42898 315.509 8.71023C315.509 8.96023 315.6 9.15767 315.782 9.30256C315.963 9.44744 316.248 9.56818 316.634 9.66477L317.605 9.90341C318.191 10.0455 318.627 10.2628 318.914 10.5554C319.201 10.8452 319.344 11.2187 319.344 11.6761C319.344 12.0511 319.236 12.3864 319.02 12.6818C318.807 12.9773 318.509 13.2102 318.125 13.3807C317.742 13.5511 317.296 13.6364 316.787 13.6364C316.12 13.6364 315.567 13.4915 315.13 13.2017C314.692 12.9119 314.415 12.4886 314.299 11.9318L315.253 11.6932C315.344 12.0455 315.516 12.3097 315.769 12.4858C316.025 12.6619 316.358 12.75 316.77 12.75C317.239 12.75 317.611 12.6506 317.887 12.4517C318.165 12.25 318.304 12.0085 318.304 11.7273C318.304 11.5 318.225 11.3097 318.066 11.1562C317.907 11 317.662 10.8835 317.333 10.8068L316.242 10.5511C315.642 10.4091 315.202 10.1889 314.921 9.89062C314.642 9.58949 314.503 9.21307 314.503 8.76136C314.503 8.39205 314.607 8.06534 314.814 7.78125C315.025 7.49716 315.31 7.27415 315.671 7.11222C316.034 6.95028 316.446 6.86932 316.907 6.86932C317.554 6.86932 318.063 7.01136 318.432 7.29545C318.804 7.57955 319.069 7.95455 319.225 8.42045ZM322.341 13.5L320.347 6.95455H321.403L322.818 11.9659H322.886L324.284 6.95455H325.358L326.739 11.9489H326.807L328.222 6.95455H329.278L327.284 13.5H326.295L324.864 8.47159H324.761L323.33 13.5H322.341ZM333.044 13.6364C332.453 13.6364 331.935 13.4957 331.489 13.2145C331.046 12.9332 330.699 12.5398 330.449 12.0341C330.202 11.5284 330.078 10.9375 330.078 10.2614C330.078 9.57955 330.202 8.98437 330.449 8.47585C330.699 7.96733 331.046 7.57244 331.489 7.29119C331.935 7.00994 332.453 6.86932 333.044 6.86932C333.635 6.86932 334.152 7.00994 334.596 7.29119C335.042 7.57244 335.388 7.96733 335.635 8.47585C335.885 8.98437 336.01 9.57955 336.01 10.2614C336.01 10.9375 335.885 11.5284 335.635 12.0341C335.388 12.5398 335.042 12.9332 334.596 13.2145C334.152 13.4957 333.635 13.6364 333.044 13.6364ZM333.044 12.733C333.493 12.733 333.863 12.6179 334.152 12.3878C334.442 12.1577 334.657 11.8551 334.796 11.4801C334.935 11.1051 335.005 10.6989 335.005 10.2614C335.005 9.82386 334.935 9.41619 334.796 9.03835C334.657 8.66051 334.442 8.35511 334.152 8.12216C333.863 7.8892 333.493 7.77273 333.044 7.77273C332.596 7.77273 332.226 7.8892 331.936 8.12216C331.647 8.35511 331.432 8.66051 331.293 9.03835C331.154 9.41619 331.084 9.82386 331.084 10.2614C331.084 10.6989 331.154 11.1051 331.293 11.4801C331.432 11.8551 331.647 12.1577 331.936 12.3878C332.226 12.6179 332.596 12.733 333.044 12.733ZM337.545 13.5V6.95455H338.517V7.94318H338.585C338.705 7.61932 338.92 7.35653 339.233 7.15483C339.545 6.95312 339.898 6.85227 340.29 6.85227C340.364 6.85227 340.456 6.85369 340.567 6.85653C340.678 6.85937 340.761 6.86364 340.818 6.86932V7.89205C340.784 7.88352 340.706 7.87074 340.584 7.85369C340.464 7.83381 340.338 7.82386 340.205 7.82386C339.886 7.82386 339.602 7.89062 339.352 8.02415C339.105 8.15483 338.909 8.33665 338.764 8.5696C338.622 8.79972 338.551 9.0625 338.551 9.35795V13.5H337.545ZM344.283 13.6364C343.737 13.6364 343.256 13.4986 342.838 13.223C342.42 12.9446 342.094 12.5526 341.858 12.0469C341.622 11.5384 341.504 10.9375 341.504 10.2443C341.504 9.55682 341.622 8.96023 341.858 8.45455C342.094 7.94886 342.422 7.55824 342.842 7.28267C343.263 7.0071 343.749 6.86932 344.3 6.86932C344.726 6.86932 345.063 6.94034 345.31 7.08239C345.56 7.22159 345.75 7.38068 345.881 7.55966C346.014 7.7358 346.118 7.88068 346.192 7.99432H346.277V4.77273H347.283V13.5H346.311V12.4943H346.192C346.118 12.6136 346.013 12.7642 345.876 12.946C345.74 13.125 345.545 13.2855 345.293 13.4276C345.04 13.5668 344.703 13.6364 344.283 13.6364ZM344.419 12.733C344.822 12.733 345.163 12.6278 345.442 12.4176C345.72 12.2045 345.932 11.9105 346.077 11.5355C346.222 11.1577 346.294 10.7216 346.294 10.2273C346.294 9.73864 346.223 9.31108 346.081 8.9446C345.939 8.57528 345.729 8.28835 345.45 8.08381C345.172 7.87642 344.828 7.77273 344.419 7.77273C343.993 7.77273 343.638 7.8821 343.354 8.10085C343.072 8.31676 342.861 8.6108 342.719 8.98295C342.58 9.35227 342.51 9.76705 342.51 10.2273C342.51 10.6932 342.581 11.1165 342.723 11.4972C342.868 11.875 343.081 12.1761 343.362 12.4006C343.646 12.6222 343.999 12.733 344.419 12.733ZM353.952 11.0455V10.9943C353.957 10.4517 354.014 10.0199 354.122 9.69886C354.23 9.37784 354.384 9.1179 354.582 8.91903C354.781 8.72017 355.02 8.53693 355.298 8.36932C355.466 8.26705 355.616 8.14631 355.75 8.0071C355.884 7.86506 355.989 7.7017 356.065 7.51705C356.145 7.33239 356.185 7.12784 356.185 6.90341C356.185 6.625 356.119 6.38352 355.989 6.17898C355.858 5.97443 355.683 5.81676 355.464 5.70597C355.246 5.59517 355.003 5.53977 354.736 5.53977C354.503 5.53977 354.278 5.58807 354.062 5.68466C353.847 5.78125 353.666 5.93324 353.521 6.14062C353.376 6.34801 353.293 6.61932 353.27 6.95455H352.196C352.219 6.47159 352.344 6.05824 352.571 5.71449C352.801 5.37074 353.104 5.10795 353.479 4.92614C353.857 4.74432 354.276 4.65341 354.736 4.65341C355.236 4.65341 355.67 4.75284 356.04 4.9517C356.412 5.15057 356.699 5.4233 356.901 5.76989C357.105 6.11648 357.207 6.51136 357.207 6.95455C357.207 7.26705 357.159 7.54972 357.062 7.80256C356.969 8.0554 356.832 8.28125 356.653 8.48011C356.477 8.67898 356.264 8.85511 356.014 9.00852C355.764 9.16477 355.564 9.32955 355.413 9.50284C355.263 9.6733 355.153 9.87642 355.085 10.1122C355.017 10.348 354.98 10.642 354.974 10.9943V11.0455H353.952ZM354.497 13.5682C354.287 13.5682 354.107 13.4929 353.956 13.3423C353.805 13.1918 353.73 13.0114 353.73 12.8011C353.73 12.5909 353.805 12.4105 353.956 12.2599C354.107 12.1094 354.287 12.0341 354.497 12.0341C354.707 12.0341 354.888 12.1094 355.038 12.2599C355.189 12.4105 355.264 12.5909 355.264 12.8011C355.264 12.9403 355.229 13.0682 355.158 13.1847C355.089 13.3011 354.997 13.3949 354.881 13.4659C354.767 13.5341 354.639 13.5682 354.497 13.5682Z" fill="white"/>
<line x1="255" y1="18" x2="358" y2="18.0001" stroke="white"/>
</svg>
