<svg width="186" height="115" viewBox="0 0 186 115" fill="none" xmlns="http://www.w3.org/2000/svg">
<rect x="41" y="16" width="104" height="39" rx="10" fill="#B86E13"/>
<path d="M58.625 32.4205C58.5644 31.8826 58.3144 31.4659 57.875 31.1705C57.4356 30.8712 56.8826 30.7216 56.2159 30.7216C55.7386 30.7216 55.3258 30.7973 54.9773 30.9489C54.6288 31.0966 54.358 31.3011 54.1648 31.5625C53.9754 31.8201 53.8807 32.1136 53.8807 32.4432C53.8807 32.7197 53.9451 32.9583 54.0739 33.1591C54.2064 33.3598 54.3788 33.5284 54.5909 33.6648C54.8068 33.7973 55.0379 33.9091 55.2841 34C55.5303 34.0871 55.767 34.1591 55.9943 34.2159L57.1307 34.5114C57.5019 34.6023 57.8826 34.7254 58.2727 34.8807C58.6629 35.036 59.0246 35.2405 59.358 35.4943C59.6913 35.7481 59.9602 36.0625 60.1648 36.4375C60.3731 36.8125 60.4773 37.2614 60.4773 37.7841C60.4773 38.4432 60.3068 39.0284 59.9659 39.5398C59.6288 40.0511 59.1383 40.4545 58.4943 40.75C57.8542 41.0455 57.0795 41.1932 56.1705 41.1932C55.2992 41.1932 54.5455 41.0549 53.9091 40.7784C53.2727 40.5019 52.7746 40.1098 52.4148 39.6023C52.0549 39.0909 51.8561 38.4848 51.8182 37.7841H53.5795C53.6136 38.2045 53.75 38.5549 53.9886 38.8352C54.2311 39.1117 54.5398 39.3182 54.9148 39.4545C55.2936 39.5871 55.7083 39.6534 56.1591 39.6534C56.6553 39.6534 57.0966 39.5758 57.483 39.4205C57.8731 39.2614 58.1799 39.0417 58.4034 38.7614C58.6269 38.4773 58.7386 38.1458 58.7386 37.767C58.7386 37.4223 58.6402 37.1402 58.4432 36.9205C58.25 36.7008 57.9867 36.5189 57.6534 36.375C57.3239 36.2311 56.9508 36.1042 56.5341 35.9943L55.1591 35.6193C54.2273 35.3655 53.4886 34.9924 52.9432 34.5C52.4015 34.0076 52.1307 33.3561 52.1307 32.5455C52.1307 31.875 52.3125 31.2898 52.6761 30.7898C53.0398 30.2898 53.5322 29.9015 54.1534 29.625C54.7746 29.3447 55.4754 29.2045 56.2557 29.2045C57.0436 29.2045 57.7386 29.3428 58.3409 29.6193C58.947 29.8958 59.4242 30.2765 59.7727 30.7614C60.1212 31.2424 60.303 31.7955 60.3182 32.4205H58.625ZM66.5128 32.2727V33.6364H61.7457V32.2727H66.5128ZM63.0241 30.1818H64.723V38.4375C64.723 38.767 64.7723 39.0152 64.8707 39.1818C64.9692 39.3447 65.0961 39.4564 65.2514 39.517C65.4105 39.5739 65.5829 39.6023 65.7685 39.6023C65.9048 39.6023 66.0241 39.5928 66.1264 39.5739C66.2287 39.5549 66.3082 39.5398 66.3651 39.5284L66.6719 40.9318C66.5734 40.9697 66.4332 41.0076 66.2514 41.0455C66.0696 41.0871 65.8423 41.1098 65.5696 41.1136C65.1226 41.1212 64.706 41.0417 64.3196 40.875C63.9332 40.7083 63.6207 40.4508 63.3821 40.1023C63.1435 39.7538 63.0241 39.3163 63.0241 38.7898V30.1818ZM70.9318 41.1932C70.3788 41.1932 69.8788 41.0909 69.4318 40.8864C68.9848 40.678 68.6307 40.3769 68.3693 39.983C68.1117 39.589 67.983 39.1061 67.983 38.5341C67.983 38.0417 68.0777 37.6364 68.267 37.3182C68.4564 37 68.7121 36.7481 69.0341 36.5625C69.3561 36.3769 69.7159 36.2367 70.1136 36.142C70.5114 36.0473 70.9167 35.9754 71.3295 35.9261C71.8523 35.8655 72.2765 35.8163 72.6023 35.7784C72.928 35.7367 73.1648 35.6705 73.3125 35.5795C73.4602 35.4886 73.5341 35.3409 73.5341 35.1364V35.0966C73.5341 34.6004 73.3939 34.2159 73.1136 33.9432C72.8371 33.6705 72.4242 33.5341 71.875 33.5341C71.303 33.5341 70.8523 33.661 70.5227 33.9148C70.197 34.1648 69.9716 34.4432 69.8466 34.75L68.25 34.3864C68.4394 33.8561 68.7159 33.428 69.0795 33.1023C69.447 32.7727 69.8693 32.5341 70.3466 32.3864C70.8239 32.2348 71.3258 32.1591 71.8523 32.1591C72.2008 32.1591 72.5701 32.2008 72.9602 32.2841C73.3542 32.3636 73.7216 32.5114 74.0625 32.7273C74.4072 32.9432 74.6894 33.2519 74.9091 33.6534C75.1288 34.0511 75.2386 34.5682 75.2386 35.2045V41H73.5795V39.8068H73.5114C73.4015 40.0265 73.2367 40.2424 73.017 40.4545C72.7973 40.6667 72.5152 40.8428 72.1705 40.983C71.8258 41.1231 71.4129 41.1932 70.9318 41.1932ZM71.3011 39.8295C71.7708 39.8295 72.1723 39.7367 72.5057 39.5511C72.8428 39.3655 73.0985 39.1231 73.2727 38.8239C73.4508 38.5208 73.5398 38.197 73.5398 37.8523V36.7273C73.4792 36.7879 73.3617 36.8447 73.1875 36.8977C73.017 36.947 72.822 36.9905 72.6023 37.0284C72.3826 37.0625 72.1686 37.0947 71.9602 37.125C71.7519 37.1515 71.5777 37.1742 71.4375 37.1932C71.108 37.2348 70.8068 37.3049 70.5341 37.4034C70.2652 37.5019 70.0492 37.6439 69.8864 37.8295C69.7273 38.0114 69.6477 38.2538 69.6477 38.5568C69.6477 38.9773 69.803 39.2955 70.1136 39.5114C70.4242 39.7235 70.8201 39.8295 71.3011 39.8295ZM77.5014 41V32.2727H79.1435V33.6591H79.2344C79.3935 33.1894 79.6738 32.8201 80.0753 32.5511C80.4806 32.2784 80.9389 32.142 81.4503 32.142C81.5563 32.142 81.6813 32.1458 81.8253 32.1534C81.973 32.161 82.0885 32.1705 82.1719 32.1818V33.8068C82.1037 33.7879 81.9825 33.767 81.8082 33.7443C81.634 33.7178 81.4598 33.7045 81.2855 33.7045C80.884 33.7045 80.526 33.7898 80.2116 33.9602C79.901 34.1269 79.6548 34.3598 79.473 34.6591C79.2912 34.9545 79.2003 35.2917 79.2003 35.6705V41H77.5014ZM88.2315 32.2727V33.6364H83.4645V32.2727H88.2315ZM84.7429 30.1818H86.4418V38.4375C86.4418 38.767 86.491 39.0152 86.5895 39.1818C86.688 39.3447 86.8149 39.4564 86.9702 39.517C87.1293 39.5739 87.3016 39.6023 87.4872 39.6023C87.6236 39.6023 87.7429 39.5928 87.8452 39.5739C87.9474 39.5549 88.027 39.5398 88.0838 39.5284L88.3906 40.9318C88.2921 40.9697 88.152 41.0076 87.9702 41.0455C87.7884 41.0871 87.5611 41.1098 87.2884 41.1136C86.8414 41.1212 86.4247 41.0417 86.0384 40.875C85.652 40.7083 85.3395 40.4508 85.1009 40.1023C84.8622 39.7538 84.7429 39.3163 84.7429 38.7898V30.1818ZM99.8736 37.3807V32.2727H101.578V41H99.9077V39.4886H99.8168C99.616 39.9545 99.294 40.3428 98.8509 40.6534C98.4115 40.9602 97.8641 41.1136 97.2088 41.1136C96.6482 41.1136 96.152 40.9905 95.7202 40.7443C95.2921 40.4943 94.955 40.125 94.7088 39.6364C94.4664 39.1477 94.3452 38.5436 94.3452 37.8239V32.2727H96.044V37.6193C96.044 38.214 96.2088 38.6875 96.5384 39.0398C96.8679 39.392 97.2959 39.5682 97.8224 39.5682C98.1406 39.5682 98.4569 39.4886 98.7713 39.3295C99.0895 39.1705 99.3527 38.9299 99.5611 38.608C99.7732 38.286 99.8774 37.8769 99.8736 37.3807ZM110.401 34.4034L108.861 34.6761C108.796 34.4792 108.694 34.2917 108.554 34.1136C108.418 33.9356 108.232 33.7898 107.997 33.6761C107.762 33.5625 107.469 33.5057 107.116 33.5057C106.635 33.5057 106.234 33.6136 105.912 33.8295C105.59 34.0417 105.429 34.3163 105.429 34.6534C105.429 34.9451 105.537 35.1799 105.753 35.358C105.969 35.536 106.317 35.6818 106.798 35.7955L108.185 36.1136C108.988 36.2992 109.586 36.5852 109.98 36.9716C110.374 37.358 110.571 37.8598 110.571 38.4773C110.571 39 110.42 39.4659 110.116 39.875C109.817 40.2803 109.399 40.5985 108.861 40.8295C108.327 41.0606 107.707 41.1761 107.003 41.1761C106.026 41.1761 105.228 40.9678 104.611 40.5511C103.993 40.1307 103.615 39.5341 103.474 38.7614L105.116 38.5114C105.219 38.9394 105.429 39.2633 105.747 39.483C106.065 39.6989 106.48 39.8068 106.991 39.8068C107.548 39.8068 107.993 39.6913 108.327 39.4602C108.66 39.2254 108.827 38.9394 108.827 38.6023C108.827 38.3295 108.724 38.1004 108.52 37.9148C108.319 37.7292 108.01 37.589 107.594 37.4943L106.116 37.1705C105.302 36.9848 104.7 36.6894 104.31 36.2841C103.923 35.8788 103.73 35.3655 103.73 34.7443C103.73 34.2292 103.874 33.7784 104.162 33.392C104.45 33.0057 104.848 32.7045 105.355 32.4886C105.863 32.2689 106.444 32.1591 107.099 32.1591C108.043 32.1591 108.785 32.3636 109.327 32.7727C109.868 33.178 110.226 33.7216 110.401 34.4034ZM112.439 41V32.2727H114.138V41H112.439ZM113.297 30.9261C113.001 30.9261 112.748 30.8277 112.536 30.6307C112.327 30.4299 112.223 30.1913 112.223 29.9148C112.223 29.6345 112.327 29.3958 112.536 29.1989C112.748 28.9981 113.001 28.8977 113.297 28.8977C113.592 28.8977 113.844 28.9981 114.053 29.1989C114.265 29.3958 114.371 29.6345 114.371 29.9148C114.371 30.1913 114.265 30.4299 114.053 30.6307C113.844 30.8277 113.592 30.9261 113.297 30.9261ZM118.122 35.8182V41H116.423V32.2727H118.054V33.6932H118.162C118.363 33.2311 118.677 32.8598 119.105 32.5795C119.537 32.2992 120.08 32.1591 120.736 32.1591C121.33 32.1591 121.851 32.2841 122.298 32.5341C122.745 32.7803 123.092 33.1477 123.338 33.6364C123.584 34.125 123.707 34.7292 123.707 35.4489V41H122.009V35.6534C122.009 35.0208 121.844 34.5265 121.514 34.1705C121.185 33.8106 120.732 33.6307 120.156 33.6307C119.762 33.6307 119.412 33.7159 119.105 33.8864C118.802 34.0568 118.562 34.3068 118.384 34.6364C118.209 34.9621 118.122 35.3561 118.122 35.8182ZM129.645 44.4545C128.952 44.4545 128.355 44.3636 127.855 44.1818C127.359 44 126.954 43.7595 126.639 43.4602C126.325 43.161 126.09 42.8333 125.935 42.4773L127.395 41.875C127.497 42.0417 127.634 42.2178 127.804 42.4034C127.978 42.5928 128.213 42.7538 128.509 42.8864C128.808 43.0189 129.192 43.0852 129.662 43.0852C130.306 43.0852 130.838 42.928 131.259 42.6136C131.679 42.303 131.889 41.8068 131.889 41.125V39.4091H131.781C131.679 39.5947 131.531 39.8011 131.338 40.0284C131.149 40.2557 130.887 40.4527 130.554 40.6193C130.221 40.786 129.787 40.8693 129.253 40.8693C128.563 40.8693 127.942 40.7083 127.389 40.3864C126.84 40.0606 126.404 39.5814 126.082 38.9489C125.764 38.3125 125.605 37.5303 125.605 36.6023C125.605 35.6742 125.762 34.8788 126.077 34.2159C126.395 33.553 126.83 33.0455 127.384 32.6932C127.937 32.3371 128.563 32.1591 129.264 32.1591C129.806 32.1591 130.243 32.25 130.577 32.4318C130.91 32.6098 131.17 32.8182 131.355 33.0568C131.545 33.2955 131.69 33.5057 131.793 33.6875H131.918V32.2727H133.582V41.1932C133.582 41.9432 133.408 42.5587 133.06 43.0398C132.711 43.5208 132.24 43.8769 131.645 44.108C131.054 44.339 130.387 44.4545 129.645 44.4545ZM129.628 39.4602C130.116 39.4602 130.529 39.3466 130.866 39.1193C131.207 38.8883 131.465 38.5587 131.639 38.1307C131.817 37.6989 131.906 37.1818 131.906 36.5795C131.906 35.9924 131.819 35.4754 131.645 35.0284C131.471 34.5814 131.215 34.233 130.878 33.983C130.541 33.7292 130.124 33.6023 129.628 33.6023C129.116 33.6023 128.69 33.7348 128.349 34C128.009 34.2614 127.751 34.6174 127.577 35.0682C127.406 35.5189 127.321 36.0227 127.321 36.5795C127.321 37.1515 127.408 37.6534 127.582 38.0852C127.757 38.517 128.014 38.8542 128.355 39.0966C128.7 39.339 129.124 39.4602 129.628 39.4602Z" fill="black"/>
<path d="M1.23846 76V67.2727H4.2896C4.89755 67.2727 5.39897 67.3778 5.79386 67.5881C6.18874 67.7955 6.48278 68.0753 6.67596 68.4276C6.86914 68.777 6.96573 69.1648 6.96573 69.5909C6.96573 69.9659 6.89897 70.2756 6.76545 70.5199C6.63477 70.7642 6.46147 70.9574 6.24556 71.0994C6.03249 71.2415 5.80096 71.3466 5.55096 71.4148V71.5C5.818 71.517 6.08647 71.6108 6.35636 71.7812C6.62624 71.9517 6.8521 72.196 7.03391 72.5142C7.21573 72.8324 7.30664 73.2216 7.30664 73.6818C7.30664 74.1193 7.20721 74.5128 7.00835 74.8622C6.80948 75.2116 6.49556 75.4886 6.06658 75.6932C5.63761 75.8977 5.07937 76 4.39187 76H1.23846ZM2.29528 75.0625H4.39187C5.08221 75.0625 5.57227 74.929 5.86204 74.6619C6.15465 74.392 6.30096 74.0653 6.30096 73.6818C6.30096 73.3864 6.22567 73.1136 6.07511 72.8636C5.92454 72.6108 5.71005 72.4091 5.43164 72.2585C5.15323 72.1051 4.82369 72.0284 4.443 72.0284H2.29528V75.0625ZM2.29528 71.108H4.2555C4.57369 71.108 4.86062 71.0455 5.1163 70.9205C5.37482 70.7955 5.57937 70.6193 5.72994 70.392C5.88335 70.1648 5.96005 69.8977 5.96005 69.5909C5.96005 69.2074 5.82653 68.8821 5.55948 68.6151C5.29244 68.3452 4.86914 68.2102 4.2896 68.2102H2.29528V71.108ZM9.55451 78.4545C9.38406 78.4545 9.23207 78.4403 9.09854 78.4119C8.96502 78.3864 8.87269 78.3608 8.82156 78.3352L9.07724 77.4489C9.32156 77.5114 9.53746 77.5341 9.72496 77.517C9.91246 77.5 10.0787 77.4162 10.2235 77.2656C10.3713 77.1179 10.5062 76.8778 10.6284 76.5455L10.8159 76.0341L8.39542 69.4545H9.48633L11.2931 74.6705H11.3613L13.1681 69.4545H14.2591L11.4806 76.9545C11.3556 77.2926 11.2008 77.5724 11.0162 77.794C10.8315 78.0185 10.617 78.1847 10.3727 78.2926C10.1312 78.4006 9.85849 78.4545 9.55451 78.4545ZM21.6206 76.1364C21.0069 76.1364 20.4785 75.9915 20.0353 75.7017C19.5922 75.4119 19.2512 75.0128 19.0126 74.5043C18.774 73.9957 18.6547 73.4148 18.6547 72.7614C18.6547 72.0966 18.7768 71.5099 19.0211 71.0014C19.2683 70.4901 19.612 70.0909 20.0524 69.804C20.4956 69.5142 21.0126 69.3693 21.6035 69.3693C22.0637 69.3693 22.4785 69.4545 22.8478 69.625C23.2172 69.7955 23.5197 70.0341 23.7555 70.3409C23.9913 70.6477 24.1376 71.0057 24.1944 71.4148H23.1887C23.112 71.1165 22.9416 70.8523 22.6774 70.6222C22.416 70.3892 22.0637 70.2727 21.6206 70.2727C21.2285 70.2727 20.8848 70.375 20.5893 70.5795C20.2967 70.7812 20.068 71.0668 19.9032 71.4361C19.7413 71.8026 19.6603 72.233 19.6603 72.7273C19.6603 73.233 19.7399 73.6733 19.899 74.0483C20.0609 74.4233 20.2882 74.7145 20.5808 74.9219C20.8762 75.1293 21.2228 75.233 21.6206 75.233C21.8819 75.233 22.1191 75.1875 22.3322 75.0966C22.5453 75.0057 22.7257 74.875 22.8734 74.7045C23.0211 74.5341 23.1262 74.3295 23.1887 74.0909H24.1944C24.1376 74.4773 23.997 74.8253 23.7725 75.1349C23.551 75.4418 23.2569 75.6861 22.8904 75.8679C22.5268 76.0469 22.1035 76.1364 21.6206 76.1364ZM26.6703 67.2727V76H25.6646V67.2727H26.6703ZM28.5123 76V69.4545H29.5179V76H28.5123ZM29.0236 68.3636C28.8276 68.3636 28.6586 68.2969 28.5165 68.1634C28.3773 68.0298 28.3077 67.8693 28.3077 67.6818C28.3077 67.4943 28.3773 67.3338 28.5165 67.2003C28.6586 67.0668 28.8276 67 29.0236 67C29.2196 67 29.3873 67.0668 29.5265 67.2003C29.6685 67.3338 29.7395 67.4943 29.7395 67.6818C29.7395 67.8693 29.6685 68.0298 29.5265 68.1634C29.3873 68.2969 29.2196 68.3636 29.0236 68.3636ZM34.019 76.1364C33.4054 76.1364 32.877 75.9915 32.4338 75.7017C31.9906 75.4119 31.6497 75.0128 31.411 74.5043C31.1724 73.9957 31.0531 73.4148 31.0531 72.7614C31.0531 72.0966 31.1752 71.5099 31.4196 71.0014C31.6667 70.4901 32.0105 70.0909 32.4508 69.804C32.894 69.5142 33.411 69.3693 34.002 69.3693C34.4622 69.3693 34.877 69.4545 35.2463 69.625C35.6156 69.7955 35.9181 70.0341 36.1539 70.3409C36.3897 70.6477 36.536 71.0057 36.5929 71.4148H35.5872C35.5105 71.1165 35.34 70.8523 35.0758 70.6222C34.8145 70.3892 34.4622 70.2727 34.019 70.2727C33.627 70.2727 33.2832 70.375 32.9877 70.5795C32.6951 70.7812 32.4664 71.0668 32.3017 71.4361C32.1397 71.8026 32.0588 72.233 32.0588 72.7273C32.0588 73.233 32.1383 73.6733 32.2974 74.0483C32.4593 74.4233 32.6866 74.7145 32.9792 74.9219C33.2747 75.1293 33.6213 75.233 34.019 75.233C34.2804 75.233 34.5176 75.1875 34.7306 75.0966C34.9437 75.0057 35.1241 74.875 35.2718 74.7045C35.4196 74.5341 35.5247 74.3295 35.5872 74.0909H36.5929C36.536 74.4773 36.3954 74.8253 36.171 75.1349C35.9494 75.4418 35.6554 75.6861 35.2889 75.8679C34.9252 76.0469 34.502 76.1364 34.019 76.1364ZM39.0005 73.6136L38.9835 72.3693H39.188L42.0517 69.4545H43.296L40.2449 72.5398H40.1596L39.0005 73.6136ZM38.063 76V67.2727H39.0687V76H38.063ZM42.2221 76L39.6653 72.7614L40.3812 72.0625L43.5005 76H42.2221ZM45.5961 72.0625V76H44.5904V69.4545H45.562V70.4773H45.6472C45.8006 70.1449 46.0336 69.8778 46.3461 69.6761C46.6586 69.4716 47.062 69.3693 47.5563 69.3693C47.9995 69.3693 48.3873 69.4602 48.7196 69.642C49.052 69.821 49.3105 70.0938 49.4952 70.4602C49.6799 70.8239 49.7722 71.2841 49.7722 71.8409V76H48.7665V71.9091C48.7665 71.3949 48.633 70.9943 48.3659 70.7074C48.0989 70.4176 47.7324 70.2727 47.2665 70.2727C46.9455 70.2727 46.6586 70.3423 46.4057 70.4815C46.1557 70.6207 45.9583 70.8239 45.8134 71.0909C45.6685 71.358 45.5961 71.6818 45.5961 72.0625ZM54.252 78.5909C53.7662 78.5909 53.3485 78.5284 52.9991 78.4034C52.6497 78.2812 52.3585 78.1193 52.1255 77.9176C51.8954 77.7188 51.7122 77.5057 51.5758 77.2784L52.377 76.7159C52.4679 76.8352 52.5829 76.9716 52.7221 77.125C52.8613 77.2812 53.0517 77.4162 53.2931 77.5298C53.5375 77.6463 53.8571 77.7045 54.252 77.7045C54.7804 77.7045 55.2164 77.5767 55.5602 77.321C55.9039 77.0653 56.0758 76.6648 56.0758 76.1193V74.7898H55.9906C55.9167 74.9091 55.8116 75.0568 55.6752 75.233C55.5417 75.4062 55.3485 75.5611 55.0957 75.6974C54.8457 75.831 54.5076 75.8977 54.0815 75.8977C53.5531 75.8977 53.0787 75.7727 52.6582 75.5227C52.2406 75.2727 51.9096 74.9091 51.6653 74.4318C51.4238 73.9545 51.3031 73.375 51.3031 72.6932C51.3031 72.0227 51.421 71.4389 51.6568 70.9418C51.8926 70.4418 52.2207 70.0554 52.6412 69.7827C53.0616 69.5071 53.5474 69.3693 54.0985 69.3693C54.5247 69.3693 54.8627 69.4403 55.1127 69.5824C55.3656 69.7216 55.5588 69.8807 55.6923 70.0597C55.8287 70.2358 55.9338 70.3807 56.0076 70.4943H56.1099V69.4545H57.0815V76.1875C57.0815 76.75 56.9537 77.2074 56.698 77.5597C56.4451 77.9148 56.1042 78.1747 55.6752 78.3395C55.2491 78.5071 54.7747 78.5909 54.252 78.5909ZM54.2179 74.9943C54.6213 74.9943 54.9622 74.902 55.2406 74.7173C55.519 74.5327 55.7306 74.267 55.8755 73.9205C56.0204 73.5739 56.0929 73.1591 56.0929 72.6761C56.0929 72.2045 56.0218 71.7884 55.8798 71.4276C55.7377 71.0668 55.5275 70.7841 55.2491 70.5795C54.9707 70.375 54.627 70.2727 54.2179 70.2727C53.7917 70.2727 53.4366 70.3807 53.1525 70.5966C52.8713 70.8125 52.6596 71.1023 52.5176 71.4659C52.3784 71.8295 52.3088 72.233 52.3088 72.6761C52.3088 73.1307 52.3798 73.5327 52.5218 73.8821C52.6667 74.2287 52.8798 74.5014 53.161 74.7003C53.4451 74.8963 53.7974 74.9943 54.2179 74.9943ZM67.2065 69.4545C67.1554 69.0227 66.948 68.6875 66.5843 68.4489C66.2207 68.2102 65.7747 68.0909 65.2463 68.0909C64.8599 68.0909 64.5218 68.1534 64.2321 68.2784C63.9451 68.4034 63.7207 68.5753 63.5588 68.794C63.3997 69.0128 63.3201 69.2614 63.3201 69.5398C63.3201 69.7727 63.3755 69.973 63.4863 70.1406C63.6 70.3054 63.7449 70.4432 63.921 70.554C64.0971 70.6619 64.2818 70.7514 64.475 70.8224C64.6681 70.8906 64.8457 70.946 65.0076 70.9886L65.894 71.2273C66.1213 71.2869 66.3741 71.3693 66.6525 71.4744C66.9338 71.5795 67.2022 71.723 67.4579 71.9048C67.7164 72.0838 67.9295 72.3139 68.0971 72.5952C68.2647 72.8764 68.3485 73.2216 68.3485 73.6307C68.3485 74.1023 68.225 74.5284 67.9778 74.9091C67.7335 75.2898 67.3755 75.5923 66.9039 75.8168C66.4352 76.0412 65.8656 76.1534 65.1951 76.1534C64.5701 76.1534 64.0289 76.0526 63.5716 75.8509C63.117 75.6491 62.7591 75.3679 62.4977 75.0071C62.2392 74.6463 62.0929 74.2273 62.0588 73.75H63.1497C63.1781 74.0795 63.2889 74.3523 63.4821 74.5682C63.6781 74.7812 63.9252 74.9403 64.2235 75.0455C64.5247 75.1477 64.8485 75.1989 65.1951 75.1989C65.5985 75.1989 65.9608 75.1335 66.2818 75.0028C66.6028 74.8693 66.8571 74.6847 67.0446 74.4489C67.2321 74.2102 67.3258 73.9318 67.3258 73.6136C67.3258 73.3239 67.2449 73.0881 67.0829 72.9062C66.921 72.7244 66.7079 72.5767 66.4437 72.4631C66.1795 72.3494 65.894 72.25 65.5872 72.1648L64.5133 71.858C63.8315 71.6619 63.2917 71.3821 62.894 71.0185C62.4963 70.6548 62.2974 70.179 62.2974 69.5909C62.2974 69.1023 62.4295 68.6761 62.6937 68.3125C62.9608 67.946 63.3187 67.6619 63.7676 67.4602C64.2193 67.2557 64.7235 67.1534 65.2804 67.1534C65.8429 67.1534 66.3429 67.2543 66.7804 67.456C67.2179 67.6548 67.5645 67.9276 67.8201 68.2741C68.0787 68.6207 68.215 69.0142 68.2292 69.4545H67.2065ZM72.7963 69.4545V70.3068H69.4043V69.4545H72.7963ZM70.3929 67.8864H71.3986V74.125C71.3986 74.4091 71.4398 74.6222 71.5222 74.7642C71.6074 74.9034 71.7154 74.9972 71.8461 75.0455C71.9796 75.0909 72.1202 75.1136 72.2679 75.1136C72.3787 75.1136 72.4696 75.108 72.5407 75.0966C72.6117 75.0824 72.6685 75.071 72.7111 75.0625L72.9157 75.9659C72.8475 75.9915 72.7523 76.017 72.6301 76.0426C72.508 76.071 72.3532 76.0852 72.1657 76.0852C71.8816 76.0852 71.6032 76.0241 71.3304 75.902C71.0605 75.7798 70.8361 75.5938 70.6571 75.3438C70.481 75.0938 70.3929 74.7784 70.3929 74.3977V67.8864ZM76.2353 76.1534C75.8205 76.1534 75.4441 76.0753 75.106 75.919C74.7679 75.7599 74.4995 75.5312 74.3006 75.233C74.1017 74.9318 74.0023 74.5682 74.0023 74.142C74.0023 73.767 74.0762 73.4631 74.2239 73.2301C74.3716 72.9943 74.5691 72.8097 74.8162 72.6761C75.0634 72.5426 75.3361 72.4432 75.6344 72.3778C75.9355 72.3097 76.2381 72.2557 76.5421 72.2159C76.9398 72.1648 77.2623 72.1264 77.5094 72.1009C77.7594 72.0724 77.9412 72.0256 78.0549 71.9602C78.1713 71.8949 78.2296 71.7812 78.2296 71.6193V71.5852C78.2296 71.1648 78.1145 70.8381 77.8844 70.6051C77.6571 70.3722 77.312 70.2557 76.8489 70.2557C76.3688 70.2557 75.9924 70.3608 75.7196 70.571C75.4469 70.7812 75.2551 71.0057 75.1444 71.2443L74.1898 70.9034C74.3603 70.5057 74.5875 70.196 74.8716 69.9744C75.1586 69.75 75.4711 69.5937 75.8091 69.5057C76.15 69.4148 76.4853 69.3693 76.8148 69.3693C77.025 69.3693 77.2665 69.3949 77.5392 69.446C77.8148 69.4943 78.0804 69.5952 78.3361 69.7486C78.5946 69.902 78.8091 70.1335 78.9796 70.4432C79.15 70.7528 79.2353 71.1676 79.2353 71.6875V76H78.2296V75.1136H78.1784C78.1103 75.2557 77.9966 75.4077 77.8375 75.5696C77.6784 75.7315 77.4668 75.8693 77.2026 75.983C76.9384 76.0966 76.6159 76.1534 76.2353 76.1534ZM76.3887 75.25C76.7864 75.25 77.1216 75.1719 77.3944 75.0156C77.6699 74.8594 77.8773 74.6577 78.0165 74.4105C78.1586 74.1634 78.2296 73.9034 78.2296 73.6307V72.7102C78.187 72.7614 78.0932 72.8082 77.9483 72.8509C77.8063 72.8906 77.6415 72.9261 77.454 72.9574C77.2694 72.9858 77.089 73.0114 76.9128 73.0341C76.7395 73.054 76.5989 73.071 76.4909 73.0852C76.2296 73.1193 75.9853 73.1747 75.758 73.2514C75.5336 73.3253 75.3517 73.4375 75.2125 73.5881C75.0762 73.7358 75.008 73.9375 75.008 74.1932C75.008 74.5426 75.1373 74.8068 75.3958 74.9858C75.6571 75.1619 75.9881 75.25 76.3887 75.25ZM81.0708 76V69.4545H82.0424V70.4432H82.1106C82.2299 70.1193 82.4458 69.8565 82.7583 69.6548C83.0708 69.4531 83.4231 69.3523 83.8152 69.3523C83.889 69.3523 83.9814 69.3537 84.0922 69.3565C84.2029 69.3594 84.2868 69.3636 84.3436 69.3693V70.392C84.3095 70.3835 84.2314 70.3707 84.1092 70.3537C83.9899 70.3338 83.8635 70.3239 83.7299 70.3239C83.4118 70.3239 83.1277 70.3906 82.8777 70.5241C82.6305 70.6548 82.4345 70.8366 82.2896 71.0696C82.1475 71.2997 82.0765 71.5625 82.0765 71.858V76H81.0708ZM88.7924 69.4545V70.3068H85.4004V69.4545H88.7924ZM86.389 67.8864H87.3947V74.125C87.3947 74.4091 87.4359 74.6222 87.5183 74.7642C87.6035 74.9034 87.7115 74.9972 87.8422 75.0455C87.9757 75.0909 88.1163 75.1136 88.264 75.1136C88.3748 75.1136 88.4657 75.108 88.5368 75.0966C88.6078 75.0824 88.6646 75.071 88.7072 75.0625L88.9118 75.9659C88.8436 75.9915 88.7484 76.017 88.6262 76.0426C88.5041 76.071 88.3493 76.0852 88.1618 76.0852C87.8777 76.0852 87.5993 76.0241 87.3265 75.902C87.0566 75.7798 86.8322 75.5938 86.6532 75.3438C86.4771 75.0938 86.389 74.7784 86.389 74.3977V67.8864ZM94.3279 78.4545C94.1575 78.4545 94.0055 78.4403 93.872 78.4119C93.7385 78.3864 93.6461 78.3608 93.595 78.3352L93.8507 77.4489C94.095 77.5114 94.3109 77.5341 94.4984 77.517C94.6859 77.5 94.8521 77.4162 94.997 77.2656C95.1447 77.1179 95.2797 76.8778 95.4018 76.5455L95.5893 76.0341L93.1689 69.4545H94.2598L96.0666 74.6705H96.1348L97.9416 69.4545H99.0325L96.2541 76.9545C96.1291 77.2926 95.9743 77.5724 95.7896 77.794C95.6049 78.0185 95.3904 78.1847 95.1461 78.2926C94.9047 78.4006 94.6319 78.4545 94.3279 78.4545ZM102.785 76.1364C102.194 76.1364 101.675 75.9957 101.229 75.7145C100.786 75.4332 100.439 75.0398 100.189 74.5341C99.9423 74.0284 99.8187 73.4375 99.8187 72.7614C99.8187 72.0795 99.9423 71.4844 100.189 70.9759C100.439 70.4673 100.786 70.0724 101.229 69.7912C101.675 69.5099 102.194 69.3693 102.785 69.3693C103.376 69.3693 103.893 69.5099 104.336 69.7912C104.782 70.0724 105.128 70.4673 105.376 70.9759C105.626 71.4844 105.751 72.0795 105.751 72.7614C105.751 73.4375 105.626 74.0284 105.376 74.5341C105.128 75.0398 104.782 75.4332 104.336 75.7145C103.893 75.9957 103.376 76.1364 102.785 76.1364ZM102.785 75.233C103.233 75.233 103.603 75.1179 103.893 74.8878C104.182 74.6577 104.397 74.3551 104.536 73.9801C104.675 73.6051 104.745 73.1989 104.745 72.7614C104.745 72.3239 104.675 71.9162 104.536 71.5384C104.397 71.1605 104.182 70.8551 103.893 70.6222C103.603 70.3892 103.233 70.2727 102.785 70.2727C102.336 70.2727 101.966 70.3892 101.677 70.6222C101.387 70.8551 101.172 71.1605 101.033 71.5384C100.894 71.9162 100.824 72.3239 100.824 72.7614C100.824 73.1989 100.894 73.6051 101.033 73.9801C101.172 74.3551 101.387 74.6577 101.677 74.8878C101.966 75.1179 102.336 75.233 102.785 75.233ZM111.411 73.3239V69.4545H112.416V76H111.411V74.892H111.343C111.189 75.2244 110.95 75.5071 110.627 75.7401C110.303 75.9702 109.894 76.0852 109.399 76.0852C108.99 76.0852 108.627 75.9957 108.308 75.8168C107.99 75.6349 107.74 75.3622 107.558 74.9986C107.377 74.6321 107.286 74.1705 107.286 73.6136V69.4545H108.291V73.5455C108.291 74.0227 108.425 74.4034 108.692 74.6875C108.962 74.9716 109.306 75.1136 109.723 75.1136C109.973 75.1136 110.227 75.0497 110.486 74.9219C110.747 74.794 110.966 74.598 111.142 74.3338C111.321 74.0696 111.411 73.733 111.411 73.3239ZM119.559 76.1534C119.145 76.1534 118.768 76.0753 118.43 75.919C118.092 75.7599 117.824 75.5312 117.625 75.233C117.426 74.9318 117.327 74.5682 117.327 74.142C117.327 73.767 117.4 73.4631 117.548 73.2301C117.696 72.9943 117.893 72.8097 118.14 72.6761C118.388 72.5426 118.66 72.4432 118.959 72.3778C119.26 72.3097 119.562 72.2557 119.866 72.2159C120.264 72.1648 120.586 72.1264 120.834 72.1009C121.084 72.0724 121.265 72.0256 121.379 71.9602C121.496 71.8949 121.554 71.7812 121.554 71.6193V71.5852C121.554 71.1648 121.439 70.8381 121.209 70.6051C120.981 70.3722 120.636 70.2557 120.173 70.2557C119.693 70.2557 119.317 70.3608 119.044 70.571C118.771 70.7812 118.579 71.0057 118.469 71.2443L117.514 70.9034C117.684 70.5057 117.912 70.196 118.196 69.9744C118.483 69.75 118.795 69.5937 119.133 69.5057C119.474 69.4148 119.809 69.3693 120.139 69.3693C120.349 69.3693 120.591 69.3949 120.863 69.446C121.139 69.4943 121.405 69.5952 121.66 69.7486C121.919 69.902 122.133 70.1335 122.304 70.4432C122.474 70.7528 122.559 71.1676 122.559 71.6875V76H121.554V75.1136H121.503C121.434 75.2557 121.321 75.4077 121.162 75.5696C121.003 75.7315 120.791 75.8693 120.527 75.983C120.263 76.0966 119.94 76.1534 119.559 76.1534ZM119.713 75.25C120.111 75.25 120.446 75.1719 120.719 75.0156C120.994 74.8594 121.202 74.6577 121.341 74.4105C121.483 74.1634 121.554 73.9034 121.554 73.6307V72.7102C121.511 72.7614 121.417 72.8082 121.273 72.8509C121.131 72.8906 120.966 72.9261 120.778 72.9574C120.594 72.9858 120.413 73.0114 120.237 73.0341C120.064 73.054 119.923 73.071 119.815 73.0852C119.554 73.1193 119.309 73.1747 119.082 73.2514C118.858 73.3253 118.676 73.4375 118.537 73.5881C118.4 73.7358 118.332 73.9375 118.332 74.1932C118.332 74.5426 118.461 74.8068 118.72 74.9858C118.981 75.1619 119.312 75.25 119.713 75.25ZM127.037 78.5909C126.551 78.5909 126.134 78.5284 125.784 78.4034C125.435 78.2812 125.144 78.1193 124.911 77.9176C124.681 77.7188 124.497 77.5057 124.361 77.2784L125.162 76.7159C125.253 76.8352 125.368 76.9716 125.507 77.125C125.646 77.2812 125.837 77.4162 126.078 77.5298C126.323 77.6463 126.642 77.7045 127.037 77.7045C127.566 77.7045 128.002 77.5767 128.345 77.321C128.689 77.0653 128.861 76.6648 128.861 76.1193V74.7898H128.776C128.702 74.9091 128.597 75.0568 128.46 75.233C128.327 75.4062 128.134 75.5611 127.881 75.6974C127.631 75.831 127.293 75.8977 126.867 75.8977C126.338 75.8977 125.864 75.7727 125.443 75.5227C125.026 75.2727 124.695 74.9091 124.45 74.4318C124.209 73.9545 124.088 73.375 124.088 72.6932C124.088 72.0227 124.206 71.4389 124.442 70.9418C124.678 70.4418 125.006 70.0554 125.426 69.7827C125.847 69.5071 126.333 69.3693 126.884 69.3693C127.31 69.3693 127.648 69.4403 127.898 69.5824C128.151 69.7216 128.344 69.8807 128.477 70.0597C128.614 70.2358 128.719 70.3807 128.793 70.4943H128.895V69.4545H129.867V76.1875C129.867 76.75 129.739 77.2074 129.483 77.5597C129.23 77.9148 128.889 78.1747 128.46 78.3395C128.034 78.5071 127.56 78.5909 127.037 78.5909ZM127.003 74.9943C127.406 74.9943 127.747 74.902 128.026 74.7173C128.304 74.5327 128.516 74.267 128.661 73.9205C128.806 73.5739 128.878 73.1591 128.878 72.6761C128.878 72.2045 128.807 71.7884 128.665 71.4276C128.523 71.0668 128.313 70.7841 128.034 70.5795C127.756 70.375 127.412 70.2727 127.003 70.2727C126.577 70.2727 126.222 70.3807 125.938 70.5966C125.656 70.8125 125.445 71.1023 125.303 71.4659C125.164 71.8295 125.094 72.233 125.094 72.6761C125.094 73.1307 125.165 73.5327 125.307 73.8821C125.452 74.2287 125.665 74.5014 125.946 74.7003C126.23 74.8963 126.583 74.9943 127.003 74.9943ZM131.708 76V69.4545H132.679V70.4432H132.747C132.867 70.1193 133.083 69.8565 133.395 69.6548C133.708 69.4531 134.06 69.3523 134.452 69.3523C134.526 69.3523 134.618 69.3537 134.729 69.3565C134.84 69.3594 134.923 69.3636 134.98 69.3693V70.392C134.946 70.3835 134.868 70.3707 134.746 70.3537C134.627 70.3338 134.5 70.3239 134.367 70.3239C134.048 70.3239 133.764 70.3906 133.514 70.5241C133.267 70.6548 133.071 70.8366 132.926 71.0696C132.784 71.2997 132.713 71.5625 132.713 71.858V76H131.708ZM138.718 76.1364C138.087 76.1364 137.543 75.9972 137.085 75.7188C136.631 75.4375 136.28 75.0455 136.033 74.5426C135.789 74.0369 135.666 73.4489 135.666 72.7784C135.666 72.108 135.789 71.517 136.033 71.0057C136.28 70.4915 136.624 70.0909 137.064 69.804C137.507 69.5142 138.024 69.3693 138.615 69.3693C138.956 69.3693 139.293 69.4261 139.625 69.5398C139.958 69.6534 140.26 69.8381 140.533 70.0938C140.806 70.3466 141.023 70.6818 141.185 71.0994C141.347 71.517 141.428 72.0312 141.428 72.642V73.0682H136.382V72.1989H140.405C140.405 71.8295 140.331 71.5 140.183 71.2102C140.039 70.9205 139.831 70.6918 139.561 70.5241C139.294 70.3565 138.979 70.2727 138.615 70.2727C138.215 70.2727 137.868 70.3722 137.575 70.571C137.286 70.767 137.063 71.0227 136.906 71.3381C136.75 71.6534 136.672 71.9915 136.672 72.3523V72.9318C136.672 73.4261 136.757 73.8452 136.928 74.1889C137.101 74.5298 137.341 74.7898 137.648 74.9688C137.955 75.1449 138.311 75.233 138.718 75.233C138.982 75.233 139.22 75.196 139.433 75.1222C139.649 75.0455 139.835 74.9318 139.992 74.7812C140.148 74.6278 140.269 74.4375 140.354 74.2102L141.325 74.483C141.223 74.8125 141.051 75.1023 140.81 75.3523C140.568 75.5994 140.27 75.7926 139.915 75.9318C139.56 76.0682 139.161 76.1364 138.718 76.1364ZM145.702 76.1364C145.071 76.1364 144.527 75.9972 144.07 75.7188C143.615 75.4375 143.264 75.0455 143.017 74.5426C142.773 74.0369 142.651 73.4489 142.651 72.7784C142.651 72.108 142.773 71.517 143.017 71.0057C143.264 70.4915 143.608 70.0909 144.048 69.804C144.492 69.5142 145.009 69.3693 145.6 69.3693C145.941 69.3693 146.277 69.4261 146.61 69.5398C146.942 69.6534 147.244 69.8381 147.517 70.0938C147.79 70.3466 148.007 70.6818 148.169 71.0994C148.331 71.517 148.412 72.0312 148.412 72.642V73.0682H143.367V72.1989H147.389C147.389 71.8295 147.316 71.5 147.168 71.2102C147.023 70.9205 146.816 70.6918 146.546 70.5241C146.279 70.3565 145.963 70.2727 145.6 70.2727C145.199 70.2727 144.852 70.3722 144.56 70.571C144.27 70.767 144.047 71.0227 143.891 71.3381C143.735 71.6534 143.656 71.9915 143.656 72.3523V72.9318C143.656 73.4261 143.742 73.8452 143.912 74.1889C144.085 74.5298 144.325 74.7898 144.632 74.9688C144.939 75.1449 145.296 75.233 145.702 75.233C145.966 75.233 146.205 75.196 146.418 75.1222C146.634 75.0455 146.82 74.9318 146.976 74.7812C147.132 74.6278 147.253 74.4375 147.338 74.2102L148.31 74.483C148.208 74.8125 148.036 75.1023 147.794 75.3523C147.553 75.5994 147.254 75.7926 146.899 75.9318C146.544 76.0682 146.145 76.1364 145.702 76.1364ZM156.164 69.4545V70.3068H152.771V69.4545H156.164ZM153.76 67.8864H154.766V74.125C154.766 74.4091 154.807 74.6222 154.889 74.7642C154.975 74.9034 155.083 74.9972 155.213 75.0455C155.347 75.0909 155.487 75.1136 155.635 75.1136C155.746 75.1136 155.837 75.108 155.908 75.0966C155.979 75.0824 156.036 75.071 156.078 75.0625L156.283 75.9659C156.215 75.9915 156.119 76.017 155.997 76.0426C155.875 76.071 155.72 76.0852 155.533 76.0852C155.249 76.0852 154.97 76.0241 154.698 75.902C154.428 75.7798 154.203 75.5938 154.024 75.3438C153.848 75.0938 153.76 74.7784 153.76 74.3977V67.8864ZM160.265 76.1364C159.674 76.1364 159.156 75.9957 158.71 75.7145C158.267 75.4332 157.92 75.0398 157.67 74.5341C157.423 74.0284 157.299 73.4375 157.299 72.7614C157.299 72.0795 157.423 71.4844 157.67 70.9759C157.92 70.4673 158.267 70.0724 158.71 69.7912C159.156 69.5099 159.674 69.3693 160.265 69.3693C160.856 69.3693 161.373 69.5099 161.816 69.7912C162.262 70.0724 162.609 70.4673 162.856 70.9759C163.106 71.4844 163.231 72.0795 163.231 72.7614C163.231 73.4375 163.106 74.0284 162.856 74.5341C162.609 75.0398 162.262 75.4332 161.816 75.7145C161.373 75.9957 160.856 76.1364 160.265 76.1364ZM160.265 75.233C160.714 75.233 161.083 75.1179 161.373 74.8878C161.663 74.6577 161.877 74.3551 162.017 73.9801C162.156 73.6051 162.225 73.1989 162.225 72.7614C162.225 72.3239 162.156 71.9162 162.017 71.5384C161.877 71.1605 161.663 70.8551 161.373 70.6222C161.083 70.3892 160.714 70.2727 160.265 70.2727C159.816 70.2727 159.447 70.3892 159.157 70.6222C158.867 70.8551 158.653 71.1605 158.514 71.5384C158.374 71.9162 158.305 72.3239 158.305 72.7614C158.305 73.1989 158.374 73.6051 158.514 73.9801C158.653 74.3551 158.867 74.6577 159.157 74.8878C159.447 75.1179 159.816 75.233 160.265 75.233ZM170.8 76.1364C170.209 76.1364 169.691 75.9957 169.245 75.7145C168.802 75.4332 168.455 75.0398 168.205 74.5341C167.958 74.0284 167.834 73.4375 167.834 72.7614C167.834 72.0795 167.958 71.4844 168.205 70.9759C168.455 70.4673 168.802 70.0724 169.245 69.7912C169.691 69.5099 170.209 69.3693 170.8 69.3693C171.391 69.3693 171.908 69.5099 172.351 69.7912C172.797 70.0724 173.144 70.4673 173.391 70.9759C173.641 71.4844 173.766 72.0795 173.766 72.7614C173.766 73.4375 173.641 74.0284 173.391 74.5341C173.144 75.0398 172.797 75.4332 172.351 75.7145C171.908 75.9957 171.391 76.1364 170.8 76.1364ZM170.8 75.233C171.249 75.233 171.618 75.1179 171.908 74.8878C172.198 74.6577 172.412 74.3551 172.552 73.9801C172.691 73.6051 172.76 73.1989 172.76 72.7614C172.76 72.3239 172.691 71.9162 172.552 71.5384C172.412 71.1605 172.198 70.8551 171.908 70.6222C171.618 70.3892 171.249 70.2727 170.8 70.2727C170.351 70.2727 169.982 70.3892 169.692 70.6222C169.403 70.8551 169.188 71.1605 169.049 71.5384C168.91 71.9162 168.84 72.3239 168.84 72.7614C168.84 73.1989 168.91 73.6051 169.049 73.9801C169.188 74.3551 169.403 74.6577 169.692 74.8878C169.982 75.1179 170.351 75.233 170.8 75.233ZM179.426 73.3239V69.4545H180.432V76H179.426V74.892H179.358C179.205 75.2244 178.966 75.5071 178.642 75.7401C178.318 75.9702 177.909 76.0852 177.415 76.0852C177.006 76.0852 176.642 75.9957 176.324 75.8168C176.006 75.6349 175.756 75.3622 175.574 74.9986C175.392 74.6321 175.301 74.1705 175.301 73.6136V69.4545H176.307V73.5455C176.307 74.0227 176.441 74.4034 176.708 74.6875C176.977 74.9716 177.321 75.1136 177.739 75.1136C177.989 75.1136 178.243 75.0497 178.502 74.9219C178.763 74.794 178.982 74.598 179.158 74.3338C179.337 74.0696 179.426 73.733 179.426 73.3239ZM182.274 76V69.4545H183.246V70.4432H183.314C183.433 70.1193 183.649 69.8565 183.961 69.6548C184.274 69.4531 184.626 69.3523 185.018 69.3523C185.092 69.3523 185.184 69.3537 185.295 69.3565C185.406 69.3594 185.49 69.3636 185.547 69.3693V70.392C185.513 70.3835 185.434 70.3707 185.312 70.3537C185.193 70.3338 185.067 70.3239 184.933 70.3239C184.615 70.3239 184.331 70.3906 184.081 70.5241C183.834 70.6548 183.638 70.8366 183.493 71.0696C183.351 71.2997 183.28 71.5625 183.28 71.858V76H182.274ZM24.6056 94V85.2727H27.5545C28.2392 85.2727 28.7988 85.3963 29.2335 85.6435C29.671 85.8878 29.9949 86.2188 30.2051 86.6364C30.4153 87.054 30.5204 87.5199 30.5204 88.0341C30.5204 88.5483 30.4153 89.0156 30.2051 89.4361C29.9977 89.8565 29.6767 90.1918 29.242 90.4418C28.8074 90.6889 28.2505 90.8125 27.5716 90.8125H25.4579V89.875H27.5375C28.0062 89.875 28.3826 89.794 28.6667 89.6321C28.9508 89.4702 29.1568 89.2514 29.2846 88.9759C29.4153 88.6974 29.4806 88.3835 29.4806 88.0341C29.4806 87.6847 29.4153 87.3722 29.2846 87.0966C29.1568 86.821 28.9494 86.6051 28.6625 86.4489C28.3755 86.2898 27.9949 86.2102 27.5204 86.2102H25.6625V94H24.6056ZM32.0865 94V87.4545H33.0581V88.4432H33.1262C33.2456 88.1193 33.4615 87.8565 33.774 87.6548C34.0865 87.4531 34.4387 87.3523 34.8308 87.3523C34.9047 87.3523 34.997 87.3537 35.1078 87.3565C35.2186 87.3594 35.3024 87.3636 35.3592 87.3693V88.392C35.3251 88.3835 35.247 88.3707 35.1248 88.3537C35.0055 88.3338 34.8791 88.3239 34.7456 88.3239C34.4274 88.3239 34.1433 88.3906 33.8933 88.5241C33.6461 88.6548 33.4501 88.8366 33.3052 89.0696C33.1632 89.2997 33.0922 89.5625 33.0922 89.858V94H32.0865ZM36.5513 94V87.4545H37.557V94H36.5513ZM37.0627 86.3636C36.8667 86.3636 36.6976 86.2969 36.5556 86.1634C36.4164 86.0298 36.3468 85.8693 36.3468 85.6818C36.3468 85.4943 36.4164 85.3338 36.5556 85.2003C36.6976 85.0668 36.8667 85 37.0627 85C37.2587 85 37.4263 85.0668 37.5655 85.2003C37.7076 85.3338 37.7786 85.4943 37.7786 85.6818C37.7786 85.8693 37.7076 86.0298 37.5655 86.1634C37.4263 86.2969 37.2587 86.3636 37.0627 86.3636ZM44.7512 87.4545L42.3308 94H41.3081L38.8876 87.4545H39.9785L41.7853 92.6705H41.8535L43.6603 87.4545H44.7512ZM47.8056 94.1534C47.3908 94.1534 47.0144 94.0753 46.6763 93.919C46.3382 93.7599 46.0698 93.5312 45.8709 93.233C45.6721 92.9318 45.5726 92.5682 45.5726 92.142C45.5726 91.767 45.6465 91.4631 45.7942 91.2301C45.9419 90.9943 46.1394 90.8097 46.3865 90.6761C46.6337 90.5426 46.9064 90.4432 47.2047 90.3778C47.5059 90.3097 47.8084 90.2557 48.1124 90.2159C48.5101 90.1648 48.8326 90.1264 49.0797 90.1009C49.3297 90.0724 49.5115 90.0256 49.6252 89.9602C49.7417 89.8949 49.7999 89.7812 49.7999 89.6193V89.5852C49.7999 89.1648 49.6848 88.8381 49.4547 88.6051C49.2275 88.3722 48.8823 88.2557 48.4192 88.2557C47.9391 88.2557 47.5627 88.3608 47.29 88.571C47.0172 88.7812 46.8255 89.0057 46.7147 89.2443L45.7601 88.9034C45.9306 88.5057 46.1578 88.196 46.4419 87.9744C46.7289 87.75 47.0414 87.5937 47.3794 87.5057C47.7203 87.4148 48.0556 87.3693 48.3851 87.3693C48.5953 87.3693 48.8368 87.3949 49.1096 87.446C49.3851 87.4943 49.6507 87.5952 49.9064 87.7486C50.165 87.902 50.3794 88.1335 50.5499 88.4432C50.7203 88.7528 50.8056 89.1676 50.8056 89.6875V94H49.7999V93.1136H49.7488C49.6806 93.2557 49.5669 93.4077 49.4078 93.5696C49.2488 93.7315 49.0371 93.8693 48.7729 93.983C48.5087 94.0966 48.1863 94.1534 47.8056 94.1534ZM47.959 93.25C48.3567 93.25 48.6919 93.1719 48.9647 93.0156C49.2402 92.8594 49.4476 92.6577 49.5868 92.4105C49.7289 92.1634 49.7999 91.9034 49.7999 91.6307V90.7102C49.7573 90.7614 49.6635 90.8082 49.5186 90.8509C49.3766 90.8906 49.2118 90.9261 49.0243 90.9574C48.8397 90.9858 48.6593 91.0114 48.4831 91.0341C48.3098 91.054 48.1692 91.071 48.0613 91.0852C47.7999 91.1193 47.5556 91.1747 47.3283 91.2514C47.1039 91.3253 46.9221 91.4375 46.7828 91.5881C46.6465 91.7358 46.5783 91.9375 46.5783 92.1932C46.5783 92.5426 46.7076 92.8068 46.9661 92.9858C47.2275 93.1619 47.5584 93.25 47.959 93.25ZM55.3002 94.1364C54.6866 94.1364 54.1582 93.9915 53.715 93.7017C53.2718 93.4119 52.9309 93.0128 52.6923 92.5043C52.4537 91.9957 52.3343 91.4148 52.3343 90.7614C52.3343 90.0966 52.4565 89.5099 52.7008 89.0014C52.948 88.4901 53.2917 88.0909 53.7321 87.804C54.1752 87.5142 54.6923 87.3693 55.2832 87.3693C55.7434 87.3693 56.1582 87.4545 56.5275 87.625C56.8968 87.7955 57.1994 88.0341 57.4352 88.3409C57.671 88.6477 57.8173 89.0057 57.8741 89.4148H56.8684C56.7917 89.1165 56.6213 88.8523 56.3571 88.6222C56.0957 88.3892 55.7434 88.2727 55.3002 88.2727C54.9082 88.2727 54.5645 88.375 54.269 88.5795C53.9764 88.7812 53.7477 89.0668 53.5829 89.4361C53.421 89.8026 53.34 90.233 53.34 90.7273C53.34 91.233 53.4196 91.6733 53.5787 92.0483C53.7406 92.4233 53.9679 92.7145 54.2605 92.9219C54.5559 93.1293 54.9025 93.233 55.3002 93.233C55.5616 93.233 55.7988 93.1875 56.0119 93.0966C56.225 93.0057 56.4054 92.875 56.5531 92.7045C56.7008 92.5341 56.8059 92.3295 56.8684 92.0909H57.8741C57.8173 92.4773 57.6767 92.8253 57.4522 93.1349C57.2306 93.4418 56.9366 93.6861 56.5701 93.8679C56.2065 94.0469 55.7832 94.1364 55.3002 94.1364ZM59.992 96.4545C59.8216 96.4545 59.6696 96.4403 59.536 96.4119C59.4025 96.3864 59.3102 96.3608 59.2591 96.3352L59.5147 95.4489C59.7591 95.5114 59.975 95.5341 60.1625 95.517C60.35 95.5 60.5162 95.4162 60.661 95.2656C60.8088 95.1179 60.9437 94.8778 61.0659 94.5455L61.2534 94.0341L58.8329 87.4545H59.9238L61.7306 92.6705H61.7988L63.6056 87.4545H64.6966L61.9181 94.9545C61.7931 95.2926 61.6383 95.5724 61.4537 95.794C61.269 96.0185 61.0545 96.1847 60.8102 96.2926C60.5687 96.4006 60.296 96.4545 59.992 96.4545ZM69.399 96.4545V87.4545H70.3706V88.4943H70.4899C70.5637 88.3807 70.666 88.2358 70.7967 88.0597C70.9302 87.8807 71.1206 87.7216 71.3677 87.5824C71.6177 87.4403 71.9558 87.3693 72.3819 87.3693C72.9331 87.3693 73.4189 87.5071 73.8393 87.7827C74.2598 88.0582 74.5879 88.4489 74.8237 88.9545C75.0595 89.4602 75.1774 90.0568 75.1774 90.7443C75.1774 91.4375 75.0595 92.0384 74.8237 92.5469C74.5879 93.0526 74.2612 93.4446 73.8436 93.723C73.426 93.9986 72.9444 94.1364 72.399 94.1364C71.9785 94.1364 71.6419 94.0668 71.389 93.9276C71.1362 93.7855 70.9416 93.625 70.8052 93.446C70.6689 93.2642 70.5637 93.1136 70.4899 92.9943H70.4047V96.4545H69.399ZM70.3876 90.7273C70.3876 91.2216 70.46 91.6577 70.6049 92.0355C70.7498 92.4105 70.9615 92.7045 71.2399 92.9176C71.5183 93.1278 71.8592 93.233 72.2626 93.233C72.6831 93.233 73.0339 93.1222 73.3152 92.9006C73.5993 92.6761 73.8123 92.375 73.9544 91.9972C74.0993 91.6165 74.1717 91.1932 74.1717 90.7273C74.1717 90.267 74.1007 89.8523 73.9586 89.483C73.8194 89.1108 73.6078 88.8168 73.3237 88.6009C73.0424 88.3821 72.6887 88.2727 72.2626 88.2727C71.8535 88.2727 71.5098 88.3764 71.2314 88.5838C70.9529 88.7884 70.7427 89.0753 70.6007 89.4446C70.4586 89.8111 70.3876 90.2386 70.3876 90.7273ZM79.3706 94.1364C78.7797 94.1364 78.2612 93.9957 77.8152 93.7145C77.372 93.4332 77.0254 93.0398 76.7754 92.5341C76.5282 92.0284 76.4047 91.4375 76.4047 90.7614C76.4047 90.0795 76.5282 89.4844 76.7754 88.9759C77.0254 88.4673 77.372 88.0724 77.8152 87.7912C78.2612 87.5099 78.7797 87.3693 79.3706 87.3693C79.9615 87.3693 80.4785 87.5099 80.9217 87.7912C81.3677 88.0724 81.7143 88.4673 81.9615 88.9759C82.2115 89.4844 82.3365 90.0795 82.3365 90.7614C82.3365 91.4375 82.2115 92.0284 81.9615 92.5341C81.7143 93.0398 81.3677 93.4332 80.9217 93.7145C80.4785 93.9957 79.9615 94.1364 79.3706 94.1364ZM79.3706 93.233C79.8194 93.233 80.1887 93.1179 80.4785 92.8878C80.7683 92.6577 80.9828 92.3551 81.122 91.9801C81.2612 91.6051 81.3308 91.1989 81.3308 90.7614C81.3308 90.3239 81.2612 89.9162 81.122 89.5384C80.9828 89.1605 80.7683 88.8551 80.4785 88.6222C80.1887 88.3892 79.8194 88.2727 79.3706 88.2727C78.9217 88.2727 78.5524 88.3892 78.2626 88.6222C77.9728 88.8551 77.7583 89.1605 77.6191 89.5384C77.4799 89.9162 77.4103 90.3239 77.4103 90.7614C77.4103 91.1989 77.4799 91.6051 77.6191 91.9801C77.7583 92.3551 77.9728 92.6577 78.2626 92.8878C78.5524 93.1179 78.9217 93.233 79.3706 93.233ZM84.8773 85.2727V94H83.8716V85.2727H84.8773ZM86.7193 94V87.4545H87.725V94H86.7193ZM87.2306 86.3636C87.0346 86.3636 86.8656 86.2969 86.7235 86.1634C86.5843 86.0298 86.5147 85.8693 86.5147 85.6818C86.5147 85.4943 86.5843 85.3338 86.7235 85.2003C86.8656 85.0668 87.0346 85 87.2306 85C87.4267 85 87.5943 85.0668 87.7335 85.2003C87.8755 85.3338 87.9466 85.4943 87.9466 85.6818C87.9466 85.8693 87.8755 86.0298 87.7335 86.1634C87.5943 86.2969 87.4267 86.3636 87.2306 86.3636ZM92.226 94.1364C91.6124 94.1364 91.084 93.9915 90.6408 93.7017C90.1976 93.4119 89.8567 93.0128 89.6181 92.5043C89.3794 91.9957 89.2601 91.4148 89.2601 90.7614C89.2601 90.0966 89.3823 89.5099 89.6266 89.0014C89.8738 88.4901 90.2175 88.0909 90.6578 87.804C91.101 87.5142 91.6181 87.3693 92.209 87.3693C92.6692 87.3693 93.084 87.4545 93.4533 87.625C93.8226 87.7955 94.1252 88.0341 94.361 88.3409C94.5968 88.6477 94.7431 89.0057 94.7999 89.4148H93.7942C93.7175 89.1165 93.5471 88.8523 93.2828 88.6222C93.0215 88.3892 92.6692 88.2727 92.226 88.2727C91.834 88.2727 91.4902 88.375 91.1948 88.5795C90.9022 88.7812 90.6735 89.0668 90.5087 89.4361C90.3468 89.8026 90.2658 90.233 90.2658 90.7273C90.2658 91.233 90.3453 91.6733 90.5044 92.0483C90.6664 92.4233 90.8936 92.7145 91.1863 92.9219C91.4817 93.1293 91.8283 93.233 92.226 93.233C92.4874 93.233 92.7246 93.1875 92.9377 93.0966C93.1507 93.0057 93.3311 92.875 93.4789 92.7045C93.6266 92.5341 93.7317 92.3295 93.7942 92.0909H94.7999C94.7431 92.4773 94.6025 92.8253 94.378 93.1349C94.1564 93.4418 93.8624 93.6861 93.4959 93.8679C93.1323 94.0469 92.709 94.1364 92.226 94.1364ZM96.9178 96.4545C96.7473 96.4545 96.5953 96.4403 96.4618 96.4119C96.3283 96.3864 96.236 96.3608 96.1848 96.3352L96.4405 95.4489C96.6848 95.5114 96.9007 95.5341 97.0882 95.517C97.2757 95.5 97.4419 95.4162 97.5868 95.2656C97.7346 95.1179 97.8695 94.8778 97.9917 94.5455L98.1792 94.0341L95.7587 87.4545H96.8496L98.6564 92.6705H98.7246L100.531 87.4545H101.622L98.8439 94.9545C98.7189 95.2926 98.5641 95.5724 98.3794 95.794C98.1948 96.0185 97.9803 96.1847 97.736 96.2926C97.4945 96.4006 97.2218 96.4545 96.9178 96.4545ZM108.251 94.1534C107.836 94.1534 107.46 94.0753 107.122 93.919C106.784 93.7599 106.515 93.5312 106.316 93.233C106.117 92.9318 106.018 92.5682 106.018 92.142C106.018 91.767 106.092 91.4631 106.24 91.2301C106.387 90.9943 106.585 90.8097 106.832 90.6761C107.079 90.5426 107.352 90.4432 107.65 90.3778C107.951 90.3097 108.254 90.2557 108.558 90.2159C108.955 90.1648 109.278 90.1264 109.525 90.1009C109.775 90.0724 109.957 90.0256 110.07 89.9602C110.187 89.8949 110.245 89.7812 110.245 89.6193V89.5852C110.245 89.1648 110.13 88.8381 109.9 88.6051C109.673 88.3722 109.328 88.2557 108.865 88.2557C108.384 88.2557 108.008 88.3608 107.735 88.571C107.463 88.7812 107.271 89.0057 107.16 89.2443L106.205 88.9034C106.376 88.5057 106.603 88.196 106.887 87.9744C107.174 87.75 107.487 87.5937 107.825 87.5057C108.166 87.4148 108.501 87.3693 108.83 87.3693C109.041 87.3693 109.282 87.3949 109.555 87.446C109.83 87.4943 110.096 87.5952 110.352 87.7486C110.61 87.902 110.825 88.1335 110.995 88.4432C111.166 88.7528 111.251 89.1676 111.251 89.6875V94H110.245V93.1136H110.194C110.126 93.2557 110.012 93.4077 109.853 93.5696C109.694 93.7315 109.482 93.8693 109.218 93.983C108.954 94.0966 108.632 94.1534 108.251 94.1534ZM108.404 93.25C108.802 93.25 109.137 93.1719 109.41 93.0156C109.686 92.8594 109.893 92.6577 110.032 92.4105C110.174 92.1634 110.245 91.9034 110.245 91.6307V90.7102C110.203 90.7614 110.109 90.8082 109.964 90.8509C109.822 90.8906 109.657 90.9261 109.47 90.9574C109.285 90.9858 109.105 91.0114 108.928 91.0341C108.755 91.054 108.615 91.071 108.507 91.0852C108.245 91.1193 108.001 91.1747 107.774 91.2514C107.549 91.3253 107.367 91.4375 107.228 91.5881C107.092 91.7358 107.024 91.9375 107.024 92.1932C107.024 92.5426 107.153 92.8068 107.411 92.9858C107.673 93.1619 108.004 93.25 108.404 93.25ZM114.092 90.0625V94H113.086V87.4545H114.058V88.4773H114.143C114.297 88.1449 114.53 87.8778 114.842 87.6761C115.155 87.4716 115.558 87.3693 116.052 87.3693C116.496 87.3693 116.883 87.4602 117.216 87.642C117.548 87.821 117.807 88.0938 117.991 88.4602C118.176 88.8239 118.268 89.2841 118.268 89.8409V94H117.263V89.9091C117.263 89.3949 117.129 88.9943 116.862 88.7074C116.595 88.4176 116.229 88.2727 115.763 88.2727C115.442 88.2727 115.155 88.3423 114.902 88.4815C114.652 88.6207 114.454 88.8239 114.309 89.0909C114.165 89.358 114.092 89.6818 114.092 90.0625ZM122.578 94.1364C122.032 94.1364 121.551 93.9986 121.133 93.723C120.715 93.4446 120.389 93.0526 120.153 92.5469C119.917 92.0384 119.799 91.4375 119.799 90.7443C119.799 90.0568 119.917 89.4602 120.153 88.9545C120.389 88.4489 120.717 88.0582 121.137 87.7827C121.558 87.5071 122.044 87.3693 122.595 87.3693C123.021 87.3693 123.357 87.4403 123.605 87.5824C123.855 87.7216 124.045 87.8807 124.176 88.0597C124.309 88.2358 124.413 88.3807 124.487 88.4943H124.572V85.2727H125.578V94H124.606V92.9943H124.487C124.413 93.1136 124.308 93.2642 124.171 93.446C124.035 93.625 123.84 93.7855 123.588 93.9276C123.335 94.0668 122.998 94.1364 122.578 94.1364ZM122.714 93.233C123.117 93.233 123.458 93.1278 123.737 92.9176C124.015 92.7045 124.227 92.4105 124.372 92.0355C124.517 91.6577 124.589 91.2216 124.589 90.7273C124.589 90.2386 124.518 89.8111 124.376 89.4446C124.234 89.0753 124.024 88.7884 123.745 88.5838C123.467 88.3764 123.123 88.2727 122.714 88.2727C122.288 88.2727 121.933 88.3821 121.649 88.6009C121.367 88.8168 121.156 89.1108 121.014 89.483C120.874 89.8523 120.805 90.267 120.805 90.7273C120.805 91.1932 120.876 91.6165 121.018 91.9972C121.163 92.375 121.376 92.6761 121.657 92.9006C121.941 93.1222 122.294 93.233 122.714 93.233ZM133.781 87.4545V88.3068H130.389V87.4545H133.781ZM131.377 85.8864H132.383V92.125C132.383 92.4091 132.424 92.6222 132.507 92.7642C132.592 92.9034 132.7 92.9972 132.83 93.0455C132.964 93.0909 133.105 93.1136 133.252 93.1136C133.363 93.1136 133.454 93.108 133.525 93.0966C133.596 93.0824 133.653 93.071 133.695 93.0625L133.9 93.9659C133.832 93.9915 133.737 94.017 133.615 94.0426C133.492 94.071 133.338 94.0852 133.15 94.0852C132.866 94.0852 132.588 94.0241 132.315 93.902C132.045 93.7798 131.82 93.5938 131.642 93.3438C131.465 93.0938 131.377 92.7784 131.377 92.3977V85.8864ZM137.968 94.1364C137.337 94.1364 136.793 93.9972 136.335 93.7188C135.881 93.4375 135.53 93.0455 135.283 92.5426C135.039 92.0369 134.916 91.4489 134.916 90.7784C134.916 90.108 135.039 89.517 135.283 89.0057C135.53 88.4915 135.874 88.0909 136.314 87.804C136.757 87.5142 137.274 87.3693 137.865 87.3693C138.206 87.3693 138.543 87.4261 138.875 87.5398C139.208 87.6534 139.51 87.8381 139.783 88.0938C140.056 88.3466 140.273 88.6818 140.435 89.0994C140.597 89.517 140.678 90.0312 140.678 90.642V91.0682H135.632V90.1989H139.655C139.655 89.8295 139.581 89.5 139.433 89.2102C139.289 88.9205 139.081 88.6918 138.811 88.5241C138.544 88.3565 138.229 88.2727 137.865 88.2727C137.465 88.2727 137.118 88.3722 136.825 88.571C136.536 88.767 136.313 89.0227 136.156 89.3381C136 89.6534 135.922 89.9915 135.922 90.3523V90.9318C135.922 91.4261 136.007 91.8452 136.178 92.1889C136.351 92.5298 136.591 92.7898 136.898 92.9688C137.205 93.1449 137.561 93.233 137.968 93.233C138.232 93.233 138.47 93.196 138.683 93.1222C138.899 93.0455 139.085 92.9318 139.242 92.7812C139.398 92.6278 139.519 92.4375 139.604 92.2102L140.575 92.483C140.473 92.8125 140.301 93.1023 140.06 93.3523C139.818 93.5994 139.52 93.7926 139.165 93.9318C138.81 94.0682 138.411 94.1364 137.968 94.1364ZM142.208 94V87.4545H143.179V88.4432H143.247C143.367 88.1193 143.583 87.8565 143.895 87.6548C144.208 87.4531 144.56 87.3523 144.952 87.3523C145.026 87.3523 145.118 87.3537 145.229 87.3565C145.34 87.3594 145.423 87.3636 145.48 87.3693V88.392C145.446 88.3835 145.368 88.3707 145.246 88.3537C145.127 88.3338 145 88.3239 144.867 88.3239C144.548 88.3239 144.264 88.3906 144.014 88.5241C143.767 88.6548 143.571 88.8366 143.426 89.0696C143.284 89.2997 143.213 89.5625 143.213 89.858V94H142.208ZM146.672 94V87.4545H147.644V88.4773H147.729C147.866 88.1278 148.086 87.8565 148.39 87.6634C148.694 87.4673 149.059 87.3693 149.485 87.3693C149.917 87.3693 150.276 87.4673 150.563 87.6634C150.853 87.8565 151.079 88.1278 151.241 88.4773H151.309C151.476 88.1392 151.728 87.8707 152.063 87.6719C152.398 87.4702 152.8 87.3693 153.269 87.3693C153.854 87.3693 154.333 87.5526 154.705 87.919C155.077 88.2827 155.263 88.8494 155.263 89.6193V94H154.258V89.6193C154.258 89.1364 154.126 88.7912 153.861 88.5838C153.597 88.3764 153.286 88.2727 152.928 88.2727C152.468 88.2727 152.111 88.4119 151.858 88.6903C151.606 88.9659 151.479 89.3153 151.479 89.7386V94H150.456V89.517C150.456 89.1449 150.336 88.8452 150.094 88.6179C149.853 88.3878 149.542 88.2727 149.161 88.2727C148.9 88.2727 148.655 88.3423 148.428 88.4815C148.204 88.6207 148.022 88.8139 147.883 89.0611C147.746 89.3054 147.678 89.5881 147.678 89.9091V94H146.672ZM161.738 88.9205L160.835 89.1761C160.778 89.0256 160.694 88.8793 160.584 88.7372C160.476 88.5923 160.328 88.473 160.14 88.3793C159.953 88.2855 159.713 88.2386 159.42 88.2386C159.02 88.2386 158.686 88.331 158.419 88.5156C158.155 88.6974 158.023 88.929 158.023 89.2102C158.023 89.4602 158.113 89.6577 158.295 89.8026C158.477 89.9474 158.761 90.0682 159.148 90.1648L160.119 90.4034C160.704 90.5455 161.14 90.7628 161.427 91.0554C161.714 91.3452 161.858 91.7187 161.858 92.1761C161.858 92.5511 161.75 92.8864 161.534 93.1818C161.321 93.4773 161.023 93.7102 160.639 93.8807C160.256 94.0511 159.809 94.1364 159.301 94.1364C158.633 94.1364 158.081 93.9915 157.643 93.7017C157.206 93.4119 156.929 92.9886 156.812 92.4318L157.767 92.1932C157.858 92.5455 158.03 92.8097 158.282 92.9858C158.538 93.1619 158.872 93.25 159.284 93.25C159.753 93.25 160.125 93.1506 160.4 92.9517C160.679 92.75 160.818 92.5085 160.818 92.2273C160.818 92 160.738 91.8097 160.579 91.6562C160.42 91.5 160.176 91.3835 159.846 91.3068L158.756 91.0511C158.156 90.9091 157.716 90.6889 157.434 90.3906C157.156 90.0895 157.017 89.7131 157.017 89.2614C157.017 88.892 157.121 88.5653 157.328 88.2812C157.538 87.9972 157.824 87.7741 158.184 87.6122C158.548 87.4503 158.96 87.3693 159.42 87.3693C160.068 87.3693 160.577 87.5114 160.946 87.7955C161.318 88.0795 161.582 88.4545 161.738 88.9205Z" fill="white"/>
</svg>
