<svg width="308" height="73" viewBox="0 0 308 73" fill="none" xmlns="http://www.w3.org/2000/svg">
<path d="M0.958807 12V3.27273H6.4304V4.40625H2.27557V7.06534H6.14489V8.1946H2.27557V10.8665H6.48153V12H0.958807ZM9.36115 8.11364V12H8.087V5.45455H9.31001V6.51989H9.39098C9.54155 6.1733 9.77734 5.89489 10.0984 5.68466C10.4222 5.47443 10.8299 5.36932 11.3214 5.36932C11.7674 5.36932 12.158 5.46307 12.4933 5.65057C12.8285 5.83523 13.0884 6.1108 13.2731 6.47727C13.4577 6.84375 13.5501 7.29687 13.5501 7.83665V12H12.2759V7.99006C12.2759 7.51562 12.1523 7.14489 11.9052 6.87784C11.658 6.60795 11.3185 6.47301 10.8867 6.47301C10.5913 6.47301 10.3285 6.53693 10.0984 6.66477C9.87109 6.79261 9.6907 6.98011 9.55717 7.22727C9.42649 7.47159 9.36115 7.76705 9.36115 8.11364ZM18.3143 5.45455V6.47727H14.739V5.45455H18.3143ZM15.6978 3.88636H16.9719V10.0781C16.9719 10.3253 17.0089 10.5114 17.0827 10.6364C17.1566 10.7585 17.2518 10.8423 17.3683 10.8878C17.4876 10.9304 17.6168 10.9517 17.756 10.9517C17.8583 10.9517 17.9478 10.9446 18.0245 10.9304C18.1012 10.9162 18.1609 10.9048 18.2035 10.8963L18.4336 11.9489C18.3597 11.9773 18.2546 12.0057 18.1183 12.0341C17.9819 12.0653 17.8114 12.0824 17.6069 12.0852C17.2717 12.0909 16.9592 12.0312 16.6694 11.9062C16.3796 11.7812 16.1452 11.5881 15.9663 11.3267C15.7873 11.0653 15.6978 10.7372 15.6978 10.3423V3.88636ZM22.4744 12.1321C21.8295 12.1321 21.2741 11.9943 20.8082 11.7188C20.3452 11.4403 19.9872 11.0497 19.7344 10.5469C19.4844 10.0412 19.3594 9.44886 19.3594 8.76989C19.3594 8.09943 19.4844 7.50852 19.7344 6.99716C19.9872 6.4858 20.3395 6.08665 20.7912 5.79972C21.2457 5.51278 21.777 5.36932 22.3849 5.36932C22.7543 5.36932 23.1122 5.4304 23.4588 5.55256C23.8054 5.67472 24.1165 5.86648 24.392 6.12784C24.6676 6.3892 24.8849 6.72869 25.044 7.14631C25.2031 7.56108 25.2827 8.06534 25.2827 8.65909V9.1108H20.0795V8.15625H24.0341C24.0341 7.82102 23.9659 7.52415 23.8295 7.26562C23.6932 7.00426 23.5014 6.7983 23.2543 6.64773C23.0099 6.49716 22.723 6.42188 22.3935 6.42188C22.0355 6.42188 21.723 6.50994 21.456 6.68608C21.1918 6.85937 20.9872 7.08665 20.8423 7.3679C20.7003 7.64631 20.6293 7.94886 20.6293 8.27557V9.02131C20.6293 9.45881 20.706 9.83097 20.8594 10.1378C21.0156 10.4446 21.233 10.679 21.5114 10.8409C21.7898 11 22.1151 11.0795 22.4872 11.0795C22.7287 11.0795 22.9489 11.0455 23.1477 10.9773C23.3466 10.9062 23.5185 10.8011 23.6634 10.6619C23.8082 10.5227 23.919 10.3509 23.9957 10.1463L25.2017 10.3636C25.1051 10.7187 24.9318 11.0298 24.6818 11.2969C24.4347 11.5611 24.1236 11.767 23.7486 11.9148C23.3764 12.0597 22.9517 12.1321 22.4744 12.1321ZM26.6964 12V5.45455H27.9279V6.49432H27.9961C28.1154 6.14205 28.3256 5.86506 28.6268 5.66335C28.9308 5.45881 29.2745 5.35653 29.658 5.35653C29.7376 5.35653 29.8313 5.35937 29.9393 5.36506C30.0501 5.37074 30.1367 5.37784 30.1992 5.38636V6.60511C30.1481 6.59091 30.0572 6.57528 29.9265 6.55824C29.7958 6.53835 29.6651 6.52841 29.5344 6.52841C29.2333 6.52841 28.9648 6.59233 28.729 6.72017C28.4961 6.84517 28.3114 7.01989 28.1751 7.24432C28.0387 7.46591 27.9705 7.71875 27.9705 8.00284V12H26.6964ZM35.283 14.4545C35.0927 14.4545 34.9194 14.4389 34.7631 14.4077C34.6069 14.3793 34.4904 14.348 34.4137 14.3139L34.7205 13.2699C34.9535 13.3324 35.1609 13.3594 35.3427 13.3509C35.5245 13.3423 35.685 13.2741 35.8242 13.1463C35.9663 13.0185 36.0913 12.8097 36.1992 12.5199L36.3569 12.0852L33.962 5.45455H35.3256L36.9833 10.5341H37.0515L38.7092 5.45455H40.0771L37.3796 12.8736C37.2546 13.2145 37.0955 13.5028 36.9023 13.7386C36.7092 13.9773 36.479 14.1563 36.212 14.2756C35.945 14.3949 35.6353 14.4545 35.283 14.4545ZM43.8089 12.1321C43.1953 12.1321 42.6598 11.9915 42.2024 11.7102C41.745 11.429 41.3899 11.0355 41.1371 10.5298C40.8842 10.0241 40.7578 9.43324 40.7578 8.7571C40.7578 8.07812 40.8842 7.48437 41.1371 6.97585C41.3899 6.46733 41.745 6.07244 42.2024 5.79119C42.6598 5.50994 43.1953 5.36932 43.8089 5.36932C44.4226 5.36932 44.9581 5.50994 45.4155 5.79119C45.8729 6.07244 46.228 6.46733 46.4808 6.97585C46.7337 7.48437 46.8601 8.07812 46.8601 8.7571C46.8601 9.43324 46.7337 10.0241 46.4808 10.5298C46.228 11.0355 45.8729 11.429 45.4155 11.7102C44.9581 11.9915 44.4226 12.1321 43.8089 12.1321ZM43.8132 11.0625C44.2109 11.0625 44.5405 10.9574 44.8018 10.7472C45.0632 10.5369 45.2564 10.2571 45.3814 9.90767C45.5092 9.55824 45.5732 9.1733 45.5732 8.75284C45.5732 8.33523 45.5092 7.9517 45.3814 7.60227C45.2564 7.25 45.0632 6.96733 44.8018 6.75426C44.5405 6.54119 44.2109 6.43466 43.8132 6.43466C43.4126 6.43466 43.0803 6.54119 42.8161 6.75426C42.5547 6.96733 42.3601 7.25 42.2322 7.60227C42.1072 7.9517 42.0447 8.33523 42.0447 8.75284C42.0447 9.1733 42.1072 9.55824 42.2322 9.90767C42.3601 10.2571 42.5547 10.5369 42.8161 10.7472C43.0803 10.9574 43.4126 11.0625 43.8132 11.0625ZM52.4286 9.28551V5.45455H53.707V12H52.4542V10.8665H52.386C52.2354 11.2159 51.994 11.5071 51.6616 11.7401C51.332 11.9702 50.9215 12.0852 50.43 12.0852C50.0096 12.0852 49.6374 11.9929 49.3136 11.8082C48.9925 11.6207 48.7397 11.3438 48.555 10.9773C48.3732 10.6108 48.2823 10.1577 48.2823 9.6179V5.45455H49.5565V9.46449C49.5565 9.91051 49.68 10.2656 49.9272 10.5298C50.1744 10.794 50.4954 10.9261 50.8903 10.9261C51.1289 10.9261 51.3661 10.8665 51.6019 10.7472C51.8406 10.6278 52.038 10.4474 52.1942 10.206C52.3533 9.96449 52.4315 9.65767 52.4286 9.28551ZM55.419 12V5.45455H56.6506V6.49432H56.7188C56.8381 6.14205 57.0483 5.86506 57.3494 5.66335C57.6534 5.45881 57.9972 5.35653 58.3807 5.35653C58.4602 5.35653 58.554 5.35937 58.6619 5.36506C58.7727 5.37074 58.8594 5.37784 58.9219 5.38636V6.60511C58.8707 6.59091 58.7798 6.57528 58.6491 6.55824C58.5185 6.53835 58.3878 6.52841 58.2571 6.52841C57.956 6.52841 57.6875 6.59233 57.4517 6.72017C57.2188 6.84517 57.0341 7.01989 56.8977 7.24432C56.7614 7.46591 56.6932 7.71875 56.6932 8.00284V12H55.419ZM66.4783 12V3.27273H71.9499V4.40625H67.7951V7.06534H71.6644V8.1946H67.7951V10.8665H72.0011V12H66.4783ZM73.6065 12V5.45455H74.8295V6.51989H74.9105C75.0469 6.15909 75.2699 5.87784 75.5795 5.67614C75.8892 5.47159 76.2599 5.36932 76.6918 5.36932C77.1293 5.36932 77.4957 5.47159 77.7912 5.67614C78.0895 5.88068 78.3097 6.16193 78.4517 6.51989H78.5199C78.6761 6.17045 78.9247 5.89205 79.2656 5.68466C79.6065 5.47443 80.0128 5.36932 80.4844 5.36932C81.0781 5.36932 81.5625 5.5554 81.9375 5.92756C82.3153 6.29972 82.5043 6.8608 82.5043 7.6108V12H81.2301V7.73011C81.2301 7.28693 81.1094 6.96591 80.8679 6.76705C80.6264 6.56818 80.3381 6.46875 80.0028 6.46875C79.5881 6.46875 79.2656 6.59659 79.0355 6.85227C78.8054 7.10511 78.6903 7.4304 78.6903 7.82812V12H77.4205V7.64915C77.4205 7.29403 77.3097 7.00852 77.0881 6.79261C76.8665 6.5767 76.5781 6.46875 76.223 6.46875C75.9815 6.46875 75.7585 6.53267 75.554 6.66051C75.3523 6.78551 75.1889 6.96023 75.0639 7.18466C74.9418 7.40909 74.8807 7.66903 74.8807 7.96449V12H73.6065ZM86.1168 12.1449C85.7021 12.1449 85.3271 12.0682 84.9918 11.9148C84.6566 11.7585 84.391 11.5327 84.195 11.2372C84.0018 10.9418 83.9052 10.5795 83.9052 10.1506C83.9052 9.78125 83.9762 9.47727 84.1183 9.23864C84.2603 9 84.4521 8.81108 84.6935 8.67188C84.935 8.53267 85.2049 8.42756 85.5032 8.35653C85.8015 8.28551 86.1055 8.23153 86.4151 8.1946C86.8072 8.14915 87.1254 8.11222 87.3697 8.08381C87.614 8.05256 87.7915 8.00284 87.9023 7.93466C88.0131 7.86648 88.0685 7.75568 88.0685 7.60227V7.57244C88.0685 7.20028 87.9634 6.91193 87.7532 6.70739C87.5458 6.50284 87.2362 6.40057 86.8242 6.40057C86.3952 6.40057 86.0572 6.49574 85.81 6.68608C85.5657 6.87358 85.3967 7.08239 85.3029 7.3125L84.1055 7.03977C84.2475 6.64205 84.4549 6.32102 84.7276 6.0767C85.0032 5.82955 85.32 5.65057 85.6779 5.53977C86.0359 5.42614 86.4123 5.36932 86.8072 5.36932C87.0685 5.36932 87.3455 5.40057 87.6381 5.46307C87.9336 5.52273 88.2092 5.63352 88.4648 5.79545C88.7234 5.95739 88.935 6.18892 89.0998 6.49006C89.2646 6.78835 89.3469 7.17614 89.3469 7.65341V12H88.1026V11.1051H88.0515C87.9691 11.2699 87.8455 11.4318 87.6808 11.5909C87.516 11.75 87.3043 11.8821 87.0458 11.9872C86.7873 12.0923 86.4776 12.1449 86.1168 12.1449ZM86.3938 11.1222C86.7461 11.1222 87.0472 11.0526 87.2972 10.9134C87.5501 10.7741 87.7418 10.5923 87.8725 10.3679C88.006 10.1406 88.0728 9.89773 88.0728 9.6392V8.79545C88.0273 8.84091 87.9393 8.88352 87.8086 8.9233C87.6808 8.96023 87.5344 8.9929 87.3697 9.02131C87.2049 9.04687 87.0444 9.07102 86.8881 9.09375C86.7319 9.11364 86.6012 9.13068 86.4961 9.14489C86.2489 9.17614 86.0231 9.22869 85.8185 9.30256C85.6168 9.37642 85.4549 9.48295 85.3327 9.62216C85.2134 9.75852 85.1538 9.94034 85.1538 10.1676C85.1538 10.483 85.2702 10.7216 85.5032 10.8835C85.7362 11.0426 86.033 11.1222 86.3938 11.1222ZM91.044 12V5.45455H92.3182V12H91.044ZM91.6875 4.4446C91.4659 4.4446 91.2756 4.37074 91.1165 4.22301C90.9602 4.07244 90.8821 3.89347 90.8821 3.68608C90.8821 3.47585 90.9602 3.29687 91.1165 3.14915C91.2756 2.99858 91.4659 2.9233 91.6875 2.9233C91.9091 2.9233 92.098 2.99858 92.2543 3.14915C92.4134 3.29687 92.4929 3.47585 92.4929 3.68608C92.4929 3.89347 92.4134 4.07244 92.2543 4.22301C92.098 4.37074 91.9091 4.4446 91.6875 4.4446ZM95.3065 3.27273V12H94.0323V3.27273H95.3065ZM102.101 12.1449C101.686 12.1449 101.311 12.0682 100.976 11.9148C100.641 11.7585 100.375 11.5327 100.179 11.2372C99.9862 10.9418 99.8896 10.5795 99.8896 10.1506C99.8896 9.78125 99.9606 9.47727 100.103 9.23864C100.245 9 100.436 8.81108 100.678 8.67188C100.919 8.53267 101.189 8.42756 101.488 8.35653C101.786 8.28551 102.09 8.23153 102.4 8.1946C102.792 8.14915 103.11 8.11222 103.354 8.08381C103.598 8.05256 103.776 8.00284 103.887 7.93466C103.998 7.86648 104.053 7.75568 104.053 7.60227V7.57244C104.053 7.20028 103.948 6.91193 103.738 6.70739C103.53 6.50284 103.221 6.40057 102.809 6.40057C102.38 6.40057 102.042 6.49574 101.794 6.68608C101.55 6.87358 101.381 7.08239 101.287 7.3125L100.09 7.03977C100.232 6.64205 100.439 6.32102 100.712 6.0767C100.988 5.82955 101.304 5.65057 101.662 5.53977C102.02 5.42614 102.397 5.36932 102.792 5.36932C103.053 5.36932 103.33 5.40057 103.623 5.46307C103.918 5.52273 104.194 5.63352 104.449 5.79545C104.708 5.95739 104.919 6.18892 105.084 6.49006C105.249 6.78835 105.331 7.17614 105.331 7.65341V12H104.087V11.1051H104.036C103.953 11.2699 103.83 11.4318 103.665 11.5909C103.5 11.75 103.289 11.8821 103.03 11.9872C102.772 12.0923 102.462 12.1449 102.101 12.1449ZM102.378 11.1222C102.73 11.1222 103.032 11.0526 103.282 10.9134C103.534 10.7741 103.726 10.5923 103.857 10.3679C103.99 10.1406 104.057 9.89773 104.057 9.6392V8.79545C104.012 8.84091 103.924 8.88352 103.793 8.9233C103.665 8.96023 103.519 8.9929 103.354 9.02131C103.189 9.04687 103.029 9.07102 102.873 9.09375C102.716 9.11364 102.586 9.13068 102.48 9.14489C102.233 9.17614 102.007 9.22869 101.803 9.30256C101.601 9.37642 101.439 9.48295 101.317 9.62216C101.198 9.75852 101.138 9.94034 101.138 10.1676C101.138 10.483 101.255 10.7216 101.488 10.8835C101.721 11.0426 102.017 11.1222 102.378 11.1222ZM109.479 12.1278C108.95 12.1278 108.479 11.9929 108.064 11.723C107.652 11.4503 107.328 11.0625 107.092 10.5597C106.859 10.054 106.743 9.44744 106.743 8.74006C106.743 8.03267 106.861 7.42756 107.097 6.92472C107.335 6.42187 107.662 6.03693 108.077 5.76989C108.491 5.50284 108.962 5.36932 109.487 5.36932C109.893 5.36932 110.22 5.4375 110.467 5.57386C110.717 5.70739 110.911 5.86364 111.047 6.04261C111.186 6.22159 111.294 6.37926 111.371 6.51562H111.447V3.27273H112.722V12H111.477V10.9815H111.371C111.294 11.1207 111.183 11.2798 111.038 11.4588C110.896 11.6378 110.7 11.794 110.45 11.9276C110.2 12.0611 109.876 12.1278 109.479 12.1278ZM109.76 11.0412C110.126 11.0412 110.436 10.9446 110.689 10.7514C110.945 10.5554 111.138 10.2841 111.268 9.9375C111.402 9.59091 111.469 9.1875 111.469 8.72727C111.469 8.27273 111.403 7.875 111.273 7.53409C111.142 7.19318 110.95 6.92756 110.697 6.73722C110.445 6.54687 110.132 6.4517 109.76 6.4517C109.376 6.4517 109.057 6.55114 108.801 6.75C108.545 6.94886 108.352 7.22017 108.222 7.56392C108.094 7.90767 108.03 8.29545 108.03 8.72727C108.03 9.16477 108.095 9.55824 108.226 9.90767C108.357 10.2571 108.55 10.5341 108.805 10.7386C109.064 10.9403 109.382 11.0412 109.76 11.0412ZM116.99 12.1278C116.462 12.1278 115.99 11.9929 115.576 11.723C115.164 11.4503 114.84 11.0625 114.604 10.5597C114.371 10.054 114.255 9.44744 114.255 8.74006C114.255 8.03267 114.373 7.42756 114.608 6.92472C114.847 6.42187 115.174 6.03693 115.588 5.76989C116.003 5.50284 116.473 5.36932 116.999 5.36932C117.405 5.36932 117.732 5.4375 117.979 5.57386C118.229 5.70739 118.422 5.86364 118.559 6.04261C118.698 6.22159 118.806 6.37926 118.882 6.51562H118.959V3.27273H120.233V12H118.989V10.9815H118.882C118.806 11.1207 118.695 11.2798 118.55 11.4588C118.408 11.6378 118.212 11.794 117.962 11.9276C117.712 12.0611 117.388 12.1278 116.99 12.1278ZM117.272 11.0412C117.638 11.0412 117.948 10.9446 118.201 10.7514C118.456 10.5554 118.65 10.2841 118.78 9.9375C118.914 9.59091 118.98 9.1875 118.98 8.72727C118.98 8.27273 118.915 7.875 118.784 7.53409C118.654 7.19318 118.462 6.92756 118.209 6.73722C117.956 6.54687 117.644 6.4517 117.272 6.4517C116.888 6.4517 116.569 6.55114 116.313 6.75C116.057 6.94886 115.864 7.22017 115.733 7.56392C115.605 7.90767 115.542 8.29545 115.542 8.72727C115.542 9.16477 115.607 9.55824 115.738 9.90767C115.868 10.2571 116.061 10.5341 116.317 10.7386C116.576 10.9403 116.894 11.0412 117.272 11.0412ZM122.052 12V5.45455H123.283V6.49432H123.352C123.471 6.14205 123.681 5.86506 123.982 5.66335C124.286 5.45881 124.63 5.35653 125.013 5.35653C125.093 5.35653 125.187 5.35937 125.295 5.36506C125.406 5.37074 125.492 5.37784 125.555 5.38636V6.60511C125.504 6.59091 125.413 6.57528 125.282 6.55824C125.151 6.53835 125.021 6.52841 124.89 6.52841C124.589 6.52841 124.32 6.59233 124.085 6.72017C123.852 6.84517 123.667 7.01989 123.531 7.24432C123.394 7.46591 123.326 7.71875 123.326 8.00284V12H122.052ZM129.244 12.1321C128.599 12.1321 128.044 11.9943 127.578 11.7188C127.115 11.4403 126.757 11.0497 126.504 10.5469C126.254 10.0412 126.129 9.44886 126.129 8.76989C126.129 8.09943 126.254 7.50852 126.504 6.99716C126.757 6.4858 127.109 6.08665 127.561 5.79972C128.015 5.51278 128.547 5.36932 129.154 5.36932C129.524 5.36932 129.882 5.4304 130.228 5.55256C130.575 5.67472 130.886 5.86648 131.162 6.12784C131.437 6.3892 131.654 6.72869 131.814 7.14631C131.973 7.56108 132.052 8.06534 132.052 8.65909V9.1108H126.849V8.15625H130.804C130.804 7.82102 130.735 7.52415 130.599 7.26562C130.463 7.00426 130.271 6.7983 130.024 6.64773C129.779 6.49716 129.493 6.42188 129.163 6.42188C128.805 6.42188 128.493 6.50994 128.225 6.68608C127.961 6.85937 127.757 7.08665 127.612 7.3679C127.47 7.64631 127.399 7.94886 127.399 8.27557V9.02131C127.399 9.45881 127.475 9.83097 127.629 10.1378C127.785 10.4446 128.002 10.679 128.281 10.8409C128.559 11 128.885 11.0795 129.257 11.0795C129.498 11.0795 129.718 11.0455 129.917 10.9773C130.116 10.9062 130.288 10.8011 130.433 10.6619C130.578 10.5227 130.689 10.3509 130.765 10.1463L131.971 10.3636C131.875 10.7187 131.701 11.0298 131.451 11.2969C131.204 11.5611 130.893 11.767 130.518 11.9148C130.146 12.0597 129.721 12.1321 129.244 12.1321ZM138.371 7.05256L137.216 7.2571C137.168 7.10937 137.091 6.96875 136.986 6.83523C136.884 6.7017 136.744 6.59233 136.568 6.5071C136.392 6.42187 136.172 6.37926 135.908 6.37926C135.547 6.37926 135.246 6.46023 135.004 6.62216C134.763 6.78125 134.642 6.98722 134.642 7.24006C134.642 7.45881 134.723 7.63494 134.885 7.76847C135.047 7.90199 135.308 8.01136 135.669 8.09659L136.709 8.33523C137.311 8.47443 137.76 8.68892 138.055 8.97869C138.351 9.26847 138.499 9.64489 138.499 10.108C138.499 10.5 138.385 10.8494 138.158 11.1562C137.933 11.4602 137.619 11.6989 137.216 11.8722C136.815 12.0455 136.351 12.1321 135.822 12.1321C135.089 12.1321 134.491 11.9759 134.028 11.6634C133.565 11.348 133.281 10.9006 133.176 10.321L134.408 10.1335C134.484 10.4545 134.642 10.6974 134.881 10.8622C135.119 11.0241 135.43 11.1051 135.814 11.1051C136.232 11.1051 136.565 11.0185 136.815 10.8452C137.065 10.669 137.19 10.4545 137.19 10.2017C137.19 9.99716 137.114 9.82528 136.96 9.68608C136.81 9.54687 136.578 9.44176 136.266 9.37074L135.158 9.12784C134.547 8.98864 134.095 8.76705 133.803 8.46307C133.513 8.15909 133.368 7.77415 133.368 7.30824C133.368 6.92187 133.476 6.58381 133.692 6.29403C133.908 6.00426 134.206 5.77841 134.587 5.61648C134.967 5.4517 135.403 5.36932 135.895 5.36932C136.602 5.36932 137.159 5.52273 137.565 5.82955C137.972 6.13352 138.24 6.54119 138.371 7.05256ZM144.804 7.05256L143.65 7.2571C143.601 7.10937 143.525 6.96875 143.419 6.83523C143.317 6.7017 143.178 6.59233 143.002 6.5071C142.826 6.42187 142.605 6.37926 142.341 6.37926C141.98 6.37926 141.679 6.46023 141.438 6.62216C141.196 6.78125 141.076 6.98722 141.076 7.24006C141.076 7.45881 141.157 7.63494 141.319 7.76847C141.48 7.90199 141.742 8.01136 142.103 8.09659L143.142 8.33523C143.745 8.47443 144.194 8.68892 144.489 8.97869C144.784 9.26847 144.932 9.64489 144.932 10.108C144.932 10.5 144.819 10.8494 144.591 11.1562C144.367 11.4602 144.053 11.6989 143.65 11.8722C143.249 12.0455 142.784 12.1321 142.256 12.1321C141.523 12.1321 140.925 11.9759 140.462 11.6634C139.999 11.348 139.715 10.9006 139.61 10.321L140.841 10.1335C140.918 10.4545 141.076 10.6974 141.314 10.8622C141.553 11.0241 141.864 11.1051 142.248 11.1051C142.665 11.1051 142.999 11.0185 143.249 10.8452C143.499 10.669 143.624 10.4545 143.624 10.2017C143.624 9.99716 143.547 9.82528 143.394 9.68608C143.243 9.54687 143.012 9.44176 142.699 9.37074L141.591 9.12784C140.98 8.98864 140.529 8.76705 140.236 8.46307C139.946 8.15909 139.801 7.77415 139.801 7.30824C139.801 6.92187 139.909 6.58381 140.125 6.29403C140.341 6.00426 140.64 5.77841 141.02 5.61648C141.401 5.4517 141.837 5.36932 142.328 5.36932C143.036 5.36932 143.593 5.52273 143.999 5.82955C144.405 6.13352 144.674 6.54119 144.804 7.05256Z" fill="white"/>
<rect y="23" width="308" height="50" rx="10" fill="white"/>
</svg>
