<svg width="390" height="844" viewBox="0 0 390 844" fill="none" xmlns="http://www.w3.org/2000/svg">
<rect width="390" height="844" fill="black"/>
<path d="M104.875 130V99.4545H125.099V104.779H111.333V112.058H123.757V117.382H111.333V130H104.875ZM129.324 130V107.091H135.677V130H129.324ZM132.515 104.138C131.571 104.138 130.76 103.825 130.084 103.198C129.418 102.562 129.085 101.801 129.085 100.916C129.085 100.041 129.418 99.2905 130.084 98.6641C130.76 98.0277 131.571 97.7095 132.515 97.7095C133.46 97.7095 134.265 98.0277 134.932 98.6641C135.608 99.2905 135.946 100.041 135.946 100.916C135.946 101.801 135.608 102.562 134.932 103.198C134.265 103.825 133.46 104.138 132.515 104.138ZM147.121 99.4545V130H140.767V99.4545H147.121ZM158.564 99.4545V130H152.21V99.4545H158.564ZM177.297 138.591C176.492 138.591 175.736 138.526 175.03 138.397C174.334 138.278 173.757 138.124 173.3 137.935L174.732 133.192C175.477 133.42 176.149 133.545 176.745 133.565C177.352 133.585 177.874 133.445 178.311 133.147C178.759 132.849 179.122 132.342 179.4 131.626L179.773 130.656L171.555 107.091H178.237L182.979 123.915H183.218L188.006 107.091H194.732L185.828 132.476C185.401 133.709 184.819 134.783 184.083 135.697C183.357 136.622 182.438 137.333 181.324 137.83C180.21 138.337 178.868 138.591 177.297 138.591ZM207.596 130.447C205.28 130.447 203.276 129.955 201.586 128.971C199.905 127.977 198.608 126.594 197.693 124.825C196.778 123.045 196.321 120.982 196.321 118.635C196.321 116.268 196.778 114.2 197.693 112.43C198.608 110.651 199.905 109.268 201.586 108.284C203.276 107.29 205.28 106.793 207.596 106.793C209.913 106.793 211.912 107.29 213.592 108.284C215.282 109.268 216.585 110.651 217.5 112.43C218.415 114.2 218.872 116.268 218.872 118.635C218.872 120.982 218.415 123.045 217.5 124.825C216.585 126.594 215.282 127.977 213.592 128.971C211.912 129.955 209.913 130.447 207.596 130.447ZM207.626 125.526C208.68 125.526 209.56 125.227 210.266 124.631C210.972 124.024 211.504 123.199 211.862 122.155C212.23 121.111 212.414 119.923 212.414 118.59C212.414 117.258 212.23 116.07 211.862 115.026C211.504 113.982 210.972 113.156 210.266 112.55C209.56 111.943 208.68 111.64 207.626 111.64C206.562 111.64 205.667 111.943 204.941 112.55C204.226 113.156 203.684 113.982 203.316 115.026C202.958 116.07 202.779 117.258 202.779 118.59C202.779 119.923 202.958 121.111 203.316 122.155C203.684 123.199 204.226 124.024 204.941 124.631C205.667 125.227 206.562 125.526 207.626 125.526ZM237.694 120.246V107.091H244.048V130H237.948V125.839H237.709C237.192 127.181 236.332 128.26 235.129 129.075C233.936 129.891 232.479 130.298 230.759 130.298C229.228 130.298 227.88 129.95 226.717 129.254C225.554 128.558 224.644 127.569 223.988 126.286C223.341 125.004 223.013 123.467 223.003 121.678V107.091H229.357V120.544C229.367 121.896 229.73 122.965 230.446 123.751C231.162 124.536 232.121 124.929 233.324 124.929C234.09 124.929 234.806 124.755 235.472 124.407C236.138 124.049 236.675 123.522 237.083 122.826C237.5 122.13 237.704 121.27 237.694 120.246ZM249.13 130V107.091H255.29V111.088H255.529C255.946 109.666 256.647 108.592 257.632 107.866C258.616 107.131 259.75 106.763 261.032 106.763C261.35 106.763 261.693 106.783 262.061 106.822C262.429 106.862 262.752 106.917 263.031 106.987V112.624C262.733 112.535 262.32 112.455 261.793 112.386C261.266 112.316 260.784 112.281 260.346 112.281C259.411 112.281 258.576 112.485 257.84 112.893C257.115 113.29 256.538 113.847 256.11 114.563C255.693 115.279 255.484 116.104 255.484 117.039V130H249.13ZM66.4261 181V158.091H72.7798V181H66.4261ZM69.6179 155.138C68.6733 155.138 67.8629 154.825 67.1868 154.198C66.5206 153.562 66.1875 152.801 66.1875 151.916C66.1875 151.041 66.5206 150.29 67.1868 149.664C67.8629 149.028 68.6733 148.71 69.6179 148.71C70.5625 148.71 71.3679 149.028 72.0341 149.664C72.7102 150.29 73.0483 151.041 73.0483 151.916C73.0483 152.801 72.7102 153.562 72.0341 154.198C71.3679 154.825 70.5625 155.138 69.6179 155.138ZM84.2232 167.756V181H77.8695V158.091H83.9249V162.133H84.1934C84.7005 160.8 85.5506 159.746 86.7438 158.971C87.937 158.185 89.3837 157.793 91.084 157.793C92.6749 157.793 94.062 158.141 95.2452 158.837C96.4284 159.533 97.3482 160.527 98.0044 161.82C98.6607 163.102 98.9888 164.634 98.9888 166.413V181H92.6351V167.547C92.6451 166.145 92.2871 165.051 91.5613 164.266C90.8354 163.47 89.8361 163.072 88.5634 163.072C87.7083 163.072 86.9526 163.256 86.2963 163.624C85.65 163.992 85.1429 164.529 84.775 165.235C84.4171 165.931 84.2331 166.771 84.2232 167.756ZM116.316 158.091V162.864H102.177V158.091H116.316ZM105.413 181V156.435C105.413 154.775 105.737 153.398 106.383 152.304C107.039 151.21 107.934 150.39 109.067 149.843C110.201 149.296 111.489 149.023 112.93 149.023C113.905 149.023 114.795 149.097 115.6 149.246C116.415 149.396 117.022 149.53 117.42 149.649L116.286 154.422C116.038 154.342 115.729 154.268 115.362 154.198C115.004 154.129 114.636 154.094 114.258 154.094C113.323 154.094 112.672 154.312 112.304 154.75C111.936 155.178 111.752 155.779 111.752 156.555V181H105.413ZM129.728 181.447C127.411 181.447 125.408 180.955 123.718 179.971C122.037 178.977 120.74 177.594 119.825 175.825C118.91 174.045 118.453 171.982 118.453 169.635C118.453 167.268 118.91 165.2 119.825 163.43C120.74 161.651 122.037 160.268 123.718 159.284C125.408 158.29 127.411 157.793 129.728 157.793C132.045 157.793 134.044 158.29 135.724 159.284C137.414 160.268 138.717 161.651 139.632 163.43C140.546 165.2 141.004 167.268 141.004 169.635C141.004 171.982 140.546 174.045 139.632 175.825C138.717 177.594 137.414 178.977 135.724 179.971C134.044 180.955 132.045 181.447 129.728 181.447ZM129.758 176.526C130.812 176.526 131.692 176.227 132.398 175.631C133.104 175.024 133.636 174.199 133.994 173.155C134.362 172.111 134.546 170.923 134.546 169.59C134.546 168.258 134.362 167.07 133.994 166.026C133.636 164.982 133.104 164.156 132.398 163.55C131.692 162.943 130.812 162.64 129.758 162.64C128.694 162.64 127.799 162.943 127.073 163.55C126.357 164.156 125.816 164.982 125.448 166.026C125.09 167.07 124.911 168.258 124.911 169.59C124.911 170.923 125.09 172.111 125.448 173.155C125.816 174.199 126.357 175.024 127.073 175.631C127.799 176.227 128.694 176.526 129.758 176.526ZM145.135 181V158.091H151.295V162.088H151.534C151.951 160.666 152.652 159.592 153.637 158.866C154.621 158.131 155.754 157.763 157.037 157.763C157.355 157.763 157.698 157.783 158.066 157.822C158.434 157.862 158.757 157.917 159.036 157.987V163.624C158.737 163.535 158.325 163.455 157.798 163.386C157.271 163.316 156.789 163.281 156.351 163.281C155.416 163.281 154.581 163.485 153.845 163.893C153.119 164.29 152.543 164.847 152.115 165.563C151.698 166.279 151.489 167.104 151.489 168.039V181H145.135ZM162.321 181V158.091H168.376V162.133H168.645C169.122 160.79 169.917 159.732 171.031 158.956C172.145 158.18 173.477 157.793 175.028 157.793C176.599 157.793 177.936 158.185 179.04 158.971C180.144 159.746 180.88 160.8 181.248 162.133H181.486C181.953 160.82 182.799 159.771 184.022 158.986C185.255 158.19 186.711 157.793 188.392 157.793C190.529 157.793 192.265 158.474 193.597 159.836C194.939 161.188 195.61 163.107 195.61 165.593V181H189.272V166.846C189.272 165.573 188.934 164.619 188.257 163.982C187.581 163.346 186.736 163.028 185.722 163.028C184.569 163.028 183.669 163.396 183.022 164.131C182.376 164.857 182.053 165.817 182.053 167.01V181H175.893V166.712C175.893 165.588 175.57 164.693 174.924 164.027C174.287 163.361 173.447 163.028 172.403 163.028C171.697 163.028 171.061 163.207 170.494 163.565C169.937 163.913 169.495 164.405 169.167 165.041C168.838 165.668 168.674 166.403 168.674 167.249V181H162.321ZM207.162 181.433C205.7 181.433 204.398 181.179 203.254 180.672C202.111 180.155 201.206 179.394 200.54 178.39C199.884 177.376 199.555 176.113 199.555 174.602C199.555 173.329 199.789 172.26 200.256 171.395C200.724 170.53 201.36 169.834 202.165 169.307C202.971 168.78 203.886 168.382 204.91 168.114C205.944 167.845 207.028 167.656 208.161 167.547C209.494 167.408 210.567 167.278 211.383 167.159C212.198 167.03 212.79 166.841 213.158 166.592C213.526 166.344 213.71 165.976 213.71 165.489V165.399C213.71 164.455 213.411 163.724 212.815 163.207C212.228 162.69 211.393 162.431 210.309 162.431C209.165 162.431 208.256 162.685 207.58 163.192C206.903 163.689 206.456 164.315 206.237 165.071L200.361 164.594C200.659 163.202 201.246 161.999 202.121 160.984C202.996 159.96 204.124 159.175 205.506 158.628C206.898 158.071 208.509 157.793 210.339 157.793C211.612 157.793 212.83 157.942 213.993 158.24C215.166 158.538 216.205 159.001 217.11 159.627C218.025 160.254 218.746 161.059 219.273 162.043C219.8 163.018 220.063 164.186 220.063 165.548V181H214.038V177.823H213.859C213.491 178.539 212.999 179.17 212.382 179.717C211.766 180.254 211.025 180.677 210.16 180.985C209.295 181.283 208.295 181.433 207.162 181.433ZM208.982 177.048C209.916 177.048 210.741 176.864 211.457 176.496C212.173 176.118 212.735 175.611 213.143 174.974C213.55 174.338 213.754 173.617 213.754 172.812V170.381C213.555 170.51 213.282 170.629 212.934 170.739C212.596 170.838 212.213 170.933 211.786 171.022C211.358 171.102 210.93 171.176 210.503 171.246C210.075 171.305 209.688 171.36 209.339 171.41C208.594 171.519 207.942 171.693 207.386 171.932C206.829 172.17 206.396 172.494 206.088 172.901C205.78 173.299 205.626 173.796 205.626 174.393C205.626 175.258 205.939 175.919 206.565 176.376C207.202 176.824 208.007 177.048 208.982 177.048ZM237.178 158.091V162.864H223.382V158.091H237.178ZM226.514 152.602H232.868V173.96C232.868 174.547 232.957 175.004 233.136 175.332C233.315 175.651 233.564 175.874 233.882 176.004C234.21 176.133 234.588 176.197 235.015 176.197C235.314 176.197 235.612 176.173 235.91 176.123C236.208 176.063 236.437 176.018 236.596 175.989L237.596 180.717C237.277 180.816 236.83 180.93 236.253 181.06C235.676 181.199 234.975 181.283 234.15 181.313C232.619 181.373 231.277 181.169 230.123 180.702C228.98 180.234 228.09 179.509 227.453 178.524C226.817 177.54 226.504 176.297 226.514 174.795V152.602ZM241.317 181V158.091H247.67V181H241.317ZM244.509 155.138C243.564 155.138 242.754 154.825 242.077 154.198C241.411 153.562 241.078 152.801 241.078 151.916C241.078 151.041 241.411 150.29 242.077 149.664C242.754 149.028 243.564 148.71 244.509 148.71C245.453 148.71 246.259 149.028 246.925 149.664C247.601 150.29 247.939 151.041 247.939 151.916C247.939 152.801 247.601 153.562 246.925 154.198C246.259 154.825 245.453 155.138 244.509 155.138ZM263.111 181.447C260.794 181.447 258.791 180.955 257.1 179.971C255.42 178.977 254.122 177.594 253.208 175.825C252.293 174.045 251.835 171.982 251.835 169.635C251.835 167.268 252.293 165.2 253.208 163.43C254.122 161.651 255.42 160.268 257.1 159.284C258.791 158.29 260.794 157.793 263.111 157.793C265.428 157.793 267.426 158.29 269.107 159.284C270.797 160.268 272.1 161.651 273.014 163.43C273.929 165.2 274.387 167.268 274.387 169.635C274.387 171.982 273.929 174.045 273.014 175.825C272.1 177.594 270.797 178.977 269.107 179.971C267.426 180.955 265.428 181.447 263.111 181.447ZM263.141 176.526C264.195 176.526 265.075 176.227 265.781 175.631C266.487 175.024 267.019 174.199 267.377 173.155C267.744 172.111 267.928 170.923 267.928 169.59C267.928 168.258 267.744 167.07 267.377 166.026C267.019 164.982 266.487 164.156 265.781 163.55C265.075 162.943 264.195 162.64 263.141 162.64C262.077 162.64 261.182 162.943 260.456 163.55C259.74 164.156 259.198 164.982 258.83 166.026C258.472 167.07 258.294 168.258 258.294 169.59C258.294 170.923 258.472 172.111 258.83 173.155C259.198 174.199 259.74 175.024 260.456 175.631C261.182 176.227 262.077 176.526 263.141 176.526ZM284.872 167.756V181H278.518V158.091H284.573V162.133H284.842C285.349 160.8 286.199 159.746 287.392 158.971C288.585 158.185 290.032 157.793 291.732 157.793C293.323 157.793 294.71 158.141 295.894 158.837C297.077 159.533 297.997 160.527 298.653 161.82C299.309 163.102 299.637 164.634 299.637 166.413V181H293.284V167.547C293.294 166.145 292.936 165.051 292.21 164.266C291.484 163.47 290.485 163.072 289.212 163.072C288.357 163.072 287.601 163.256 286.945 163.624C286.298 163.992 285.791 164.529 285.423 165.235C285.066 165.931 284.882 166.771 284.872 167.756Z" fill="#B86E13"/>
<rect x="41" y="261" width="308" height="50" rx="10" fill="white"/>
<path d="M42.1591 248V239.273H47.2216V239.989H42.956V243.274H46.9531V243.99H42.956V247.284H47.3068V248H42.1591ZM49.8849 243.909V248H49.1264V241.455H49.8636V242.482H49.9318C50.0852 242.146 50.3239 241.878 50.6477 241.676C50.9744 241.472 51.3778 241.369 51.858 241.369C52.2983 241.369 52.6847 241.462 53.017 241.646C53.3523 241.828 53.6122 242.097 53.7969 242.452C53.9844 242.807 54.0781 243.243 54.0781 243.76V248H53.3196V243.807C53.3196 243.27 53.169 242.845 52.8679 242.533C52.5696 242.22 52.169 242.064 51.6662 242.064C51.3224 242.064 51.017 242.138 50.75 242.286C50.483 242.433 50.2713 242.646 50.1151 242.925C49.9616 243.2 49.8849 243.528 49.8849 243.909ZM58.6538 241.455V242.115H55.5302V241.455H58.6538ZM56.506 239.886H57.2688V246.291C57.2688 246.564 57.3157 246.778 57.4094 246.935C57.5032 247.088 57.6254 247.197 57.7759 247.263C57.9265 247.325 58.087 247.357 58.2575 247.357C58.3569 247.357 58.4421 247.351 58.5131 247.339C58.5842 247.325 58.6467 247.311 58.7006 247.297L58.8626 247.983C58.7887 248.011 58.6978 248.037 58.5898 248.06C58.4819 248.085 58.3484 248.098 58.1893 248.098C57.9109 248.098 57.6424 248.037 57.3839 247.915C57.1282 247.793 56.918 247.611 56.7532 247.369C56.5884 247.128 56.506 246.828 56.506 246.47V239.886ZM62.9524 248.136C62.3416 248.136 61.8132 247.994 61.3672 247.71C60.9212 247.423 60.576 247.027 60.3317 246.521C60.0902 246.013 59.9695 245.428 59.9695 244.766C59.9695 244.107 60.0902 243.521 60.3317 243.01C60.576 242.496 60.9126 242.094 61.3416 241.804C61.7734 241.511 62.272 241.365 62.8374 241.365C63.1925 241.365 63.5348 241.43 63.8643 241.561C64.1939 241.689 64.4893 241.886 64.7507 242.153C65.0149 242.418 65.2237 242.751 65.3771 243.155C65.5305 243.555 65.6072 244.03 65.6072 244.578V244.953H60.4936V244.284H64.8317C64.8317 243.864 64.7464 243.486 64.576 243.151C64.4084 242.812 64.174 242.545 63.8729 242.349C63.5746 242.153 63.2294 242.055 62.8374 242.055C62.4226 242.055 62.0575 242.166 61.7422 242.388C61.4268 242.609 61.1797 242.902 61.0007 243.266C60.8246 243.629 60.7351 244.027 60.7322 244.459V244.859C60.7322 245.379 60.8217 245.834 61.0007 246.223C61.1825 246.609 61.4396 246.909 61.772 247.122C62.1044 247.335 62.4979 247.442 62.9524 247.442C63.2621 247.442 63.5334 247.393 63.7663 247.297C64.0021 247.2 64.1996 247.071 64.3587 246.909C64.5206 246.744 64.6428 246.564 64.7251 246.368L65.4453 246.602C65.3459 246.878 65.1825 247.132 64.9553 247.365C64.7308 247.598 64.4496 247.786 64.1115 247.928C63.7763 248.067 63.3899 248.136 62.9524 248.136ZM67.2788 248V241.455H68.016V242.46H68.0714C68.2021 242.131 68.4293 241.865 68.7532 241.663C69.0799 241.459 69.4492 241.357 69.8612 241.357C69.9237 241.357 69.9933 241.358 70.07 241.361C70.1467 241.364 70.2106 241.366 70.2617 241.369V242.141C70.2276 242.135 70.168 242.126 70.0827 242.115C69.9975 242.104 69.9052 242.098 69.8058 242.098C69.4648 242.098 69.1609 242.17 68.8938 242.315C68.6296 242.457 68.4208 242.655 68.2674 242.908C68.114 243.161 68.0373 243.449 68.0373 243.773V248H67.2788ZM75.4595 250.455C75.3089 250.455 75.1683 250.44 75.0376 250.412C74.907 250.384 74.8033 250.352 74.7266 250.318L74.9311 249.649C75.1896 249.729 75.4197 249.757 75.6214 249.734C75.8232 249.714 76.0021 249.624 76.1584 249.462C76.3146 249.303 76.4538 249.058 76.576 248.729L76.8146 248.064L74.407 241.455H75.2294L77.1726 246.999H77.2322L79.1754 241.455H79.9979L77.228 249.036C77.1115 249.351 76.968 249.614 76.7976 249.824C76.6271 250.037 76.4297 250.195 76.2053 250.297C75.9837 250.402 75.7351 250.455 75.4595 250.455ZM83.7915 248.136C83.2262 248.136 82.7262 247.993 82.2915 247.706C81.8597 247.419 81.5217 247.023 81.2773 246.517C81.033 246.009 80.9109 245.422 80.9109 244.757C80.9109 244.087 81.033 243.497 81.2773 242.989C81.5217 242.477 81.8597 242.08 82.2915 241.795C82.7262 241.509 83.2262 241.365 83.7915 241.365C84.3569 241.365 84.8555 241.509 85.2873 241.795C85.7191 242.082 86.0572 242.48 86.3015 242.989C86.5487 243.497 86.6722 244.087 86.6722 244.757C86.6722 245.422 86.5501 246.009 86.3058 246.517C86.0614 247.023 85.7219 247.419 85.2873 247.706C84.8555 247.993 84.3569 248.136 83.7915 248.136ZM83.7915 247.442C84.2461 247.442 84.631 247.32 84.9464 247.075C85.2617 246.831 85.5004 246.506 85.6623 246.099C85.8271 245.693 85.9094 245.246 85.9094 244.757C85.9094 244.268 85.8271 243.82 85.6623 243.411C85.5004 243.001 85.2617 242.673 84.9464 242.426C84.631 242.179 84.2461 242.055 83.7915 242.055C83.3398 242.055 82.9549 242.179 82.6367 242.426C82.3214 242.673 82.0813 243.001 81.9165 243.411C81.7546 243.82 81.6737 244.268 81.6737 244.757C81.6737 245.246 81.7546 245.693 81.9165 246.099C82.0813 246.506 82.3214 246.831 82.6367 247.075C82.9521 247.32 83.337 247.442 83.7915 247.442ZM92.4964 245.499V241.455H93.255V248H92.4964V246.913H92.4368C92.2834 247.249 92.0405 247.528 91.7081 247.753C91.3757 247.974 90.9695 248.085 90.4893 248.085C90.0717 248.085 89.701 247.994 89.3771 247.812C89.0533 247.628 88.799 247.358 88.6143 247.003C88.4297 246.648 88.3374 246.212 88.3374 245.695V241.455H89.0959V245.648C89.0959 246.159 89.2464 246.571 89.5476 246.884C89.8487 247.193 90.2351 247.348 90.7067 247.348C91.0021 247.348 91.2862 247.277 91.5589 247.135C91.8317 246.993 92.0561 246.786 92.2322 246.513C92.4084 246.237 92.4964 245.899 92.4964 245.499ZM95.2631 248V241.455H96.0004V242.46H96.0558C96.1864 242.131 96.4137 241.865 96.7376 241.663C97.0643 241.459 97.4336 241.357 97.8455 241.357C97.908 241.357 97.9776 241.358 98.0543 241.361C98.131 241.364 98.195 241.366 98.2461 241.369V242.141C98.212 242.135 98.1523 242.126 98.0671 242.115C97.9819 242.104 97.8896 242.098 97.7901 242.098C97.4492 242.098 97.1452 242.17 96.8782 242.315C96.614 242.457 96.4052 242.655 96.2518 242.908C96.0984 243.161 96.0217 243.449 96.0217 243.773V248H95.2631ZM106.448 248V239.273H111.511V239.989H107.245V243.274H111.242V243.99H107.245V247.284H111.596V248H106.448ZM113.415 248V241.455H114.153V242.46H114.221C114.352 242.122 114.569 241.857 114.873 241.663C115.18 241.467 115.548 241.369 115.977 241.369C116.428 241.369 116.799 241.476 117.089 241.689C117.381 241.899 117.6 242.189 117.745 242.558H117.8C117.948 242.195 118.188 241.906 118.521 241.693C118.856 241.477 119.262 241.369 119.739 241.369C120.347 241.369 120.827 241.561 121.18 241.945C121.532 242.325 121.708 242.882 121.708 243.615V248H120.95V243.615C120.95 243.098 120.817 242.71 120.553 242.452C120.289 242.193 119.941 242.064 119.509 242.064C119.009 242.064 118.624 242.217 118.354 242.524C118.085 242.831 117.95 243.22 117.95 243.692V248H117.174V243.547C117.174 243.104 117.05 242.746 116.803 242.473C116.556 242.2 116.208 242.064 115.759 242.064C115.458 242.064 115.187 242.138 114.945 242.286C114.707 242.433 114.518 242.639 114.379 242.903C114.242 243.165 114.174 243.466 114.174 243.807V248H113.415ZM125.544 248.149C125.15 248.149 124.789 248.072 124.462 247.919C124.135 247.763 123.875 247.538 123.682 247.246C123.489 246.95 123.392 246.592 123.392 246.172C123.392 245.848 123.453 245.575 123.576 245.354C123.698 245.132 123.871 244.95 124.096 244.808C124.32 244.666 124.586 244.554 124.892 244.472C125.199 244.389 125.537 244.325 125.907 244.28C126.273 244.234 126.583 244.195 126.836 244.161C127.091 244.126 127.286 244.072 127.419 243.999C127.553 243.925 127.62 243.805 127.62 243.641V243.487C127.62 243.041 127.486 242.69 127.219 242.435C126.955 242.176 126.574 242.047 126.077 242.047C125.605 242.047 125.221 242.151 124.922 242.358C124.627 242.565 124.419 242.81 124.3 243.091L123.58 242.831C123.728 242.473 123.932 242.187 124.194 241.974C124.455 241.759 124.748 241.604 125.071 241.51C125.395 241.413 125.723 241.365 126.056 241.365C126.306 241.365 126.566 241.398 126.836 241.463C127.108 241.528 127.361 241.642 127.594 241.804C127.827 241.963 128.016 242.186 128.161 242.473C128.306 242.757 128.378 243.118 128.378 243.555V248H127.62V246.964H127.573C127.482 247.158 127.347 247.345 127.168 247.527C126.989 247.709 126.765 247.858 126.495 247.974C126.225 248.091 125.908 248.149 125.544 248.149ZM125.647 247.455C126.05 247.455 126.4 247.365 126.695 247.186C126.99 247.007 127.218 246.77 127.377 246.474C127.539 246.176 127.62 245.848 127.62 245.49V244.544C127.563 244.598 127.468 244.646 127.334 244.689C127.203 244.732 127.051 244.77 126.878 244.804C126.708 244.835 126.537 244.862 126.367 244.885C126.196 244.908 126.043 244.928 125.907 244.945C125.537 244.99 125.222 245.061 124.961 245.158C124.699 245.254 124.499 245.388 124.36 245.558C124.221 245.726 124.151 245.942 124.151 246.206C124.151 246.604 124.293 246.912 124.577 247.131C124.861 247.347 125.218 247.455 125.647 247.455ZM130.404 248V241.455H131.167V248H130.404ZM130.792 240.33C130.636 240.33 130.502 240.277 130.392 240.172C130.281 240.064 130.225 239.935 130.225 239.784C130.225 239.634 130.281 239.506 130.392 239.401C130.502 239.293 130.636 239.239 130.792 239.239C130.949 239.239 131.082 239.293 131.193 239.401C131.304 239.506 131.359 239.634 131.359 239.784C131.359 239.935 131.304 240.064 131.193 240.172C131.082 240.277 130.949 240.33 130.792 240.33ZM133.932 239.273V248H133.173V239.273H133.932ZM141.142 248.149C140.747 248.149 140.386 248.072 140.06 247.919C139.733 247.763 139.473 247.538 139.28 247.246C139.087 246.95 138.99 246.592 138.99 246.172C138.99 245.848 139.051 245.575 139.173 245.354C139.295 245.132 139.469 244.95 139.693 244.808C139.918 244.666 140.183 244.554 140.49 244.472C140.797 244.389 141.135 244.325 141.504 244.28C141.871 244.234 142.18 244.195 142.433 244.161C142.689 244.126 142.884 244.072 143.017 243.999C143.151 243.925 143.217 243.805 143.217 243.641V243.487C143.217 243.041 143.084 242.69 142.817 242.435C142.553 242.176 142.172 242.047 141.675 242.047C141.203 242.047 140.818 242.151 140.52 242.358C140.224 242.565 140.017 242.81 139.898 243.091L139.178 242.831C139.325 242.473 139.53 242.187 139.791 241.974C140.053 241.759 140.345 241.604 140.669 241.51C140.993 241.413 141.321 241.365 141.653 241.365C141.903 241.365 142.163 241.398 142.433 241.463C142.706 241.528 142.959 241.642 143.192 241.804C143.425 241.963 143.614 242.186 143.759 242.473C143.903 242.757 143.976 243.118 143.976 243.555V248H143.217V246.964H143.17C143.08 247.158 142.945 247.345 142.766 247.527C142.587 247.709 142.362 247.858 142.092 247.974C141.822 248.091 141.506 248.149 141.142 248.149ZM141.244 247.455C141.648 247.455 141.997 247.365 142.293 247.186C142.588 247.007 142.815 246.77 142.974 246.474C143.136 246.176 143.217 245.848 143.217 245.49V244.544C143.161 244.598 143.065 244.646 142.932 244.689C142.801 244.732 142.649 244.77 142.476 244.804C142.305 244.835 142.135 244.862 141.964 244.885C141.794 244.908 141.641 244.928 141.504 244.945C141.135 244.99 140.82 245.061 140.558 245.158C140.297 245.254 140.097 245.388 139.957 245.558C139.818 245.726 139.749 245.942 139.749 246.206C139.749 246.604 139.891 246.912 140.175 247.131C140.459 247.347 140.815 247.455 141.244 247.455ZM148.35 248.136C147.813 248.136 147.343 247.994 146.94 247.71C146.536 247.426 146.221 247.03 145.994 246.521C145.769 246.013 145.657 245.42 145.657 244.744C145.657 244.071 145.769 243.482 145.994 242.976C146.221 242.467 146.538 242.072 146.944 241.791C147.35 241.507 147.823 241.365 148.363 241.365C148.761 241.365 149.092 241.436 149.356 241.578C149.62 241.717 149.832 241.891 149.991 242.098C150.15 242.305 150.273 242.507 150.362 242.703H150.43V239.273H151.192V248H150.451V246.786H150.362C150.273 246.984 150.148 247.189 149.987 247.399C149.825 247.607 149.61 247.781 149.343 247.923C149.079 248.065 148.748 248.136 148.35 248.136ZM148.44 247.442C148.863 247.442 149.224 247.327 149.522 247.097C149.82 246.864 150.048 246.544 150.204 246.138C150.363 245.729 150.442 245.26 150.442 244.732C150.442 244.209 150.364 243.747 150.208 243.347C150.052 242.943 149.825 242.628 149.526 242.401C149.228 242.17 148.866 242.055 148.44 242.055C148.002 242.055 147.633 242.175 147.332 242.413C147.033 242.649 146.806 242.969 146.65 243.372C146.496 243.776 146.42 244.229 146.42 244.732C146.42 245.24 146.498 245.699 146.654 246.108C146.81 246.517 147.038 246.842 147.336 247.084C147.637 247.322 148.005 247.442 148.44 247.442ZM155.71 248.136C155.173 248.136 154.702 247.994 154.299 247.71C153.896 247.426 153.58 247.03 153.353 246.521C153.129 246.013 153.016 245.42 153.016 244.744C153.016 244.071 153.129 243.482 153.353 242.976C153.58 242.467 153.897 242.072 154.303 241.791C154.71 241.507 155.183 241.365 155.722 241.365C156.12 241.365 156.451 241.436 156.715 241.578C156.979 241.717 157.191 241.891 157.35 242.098C157.509 242.305 157.633 242.507 157.721 242.703H157.789V239.273H158.552V248H157.81V246.786H157.721C157.633 246.984 157.508 247.189 157.346 247.399C157.184 247.607 156.969 247.781 156.702 247.923C156.438 248.065 156.107 248.136 155.71 248.136ZM155.799 247.442C156.222 247.442 156.583 247.327 156.881 247.097C157.18 246.864 157.407 246.544 157.563 246.138C157.722 245.729 157.802 245.26 157.802 244.732C157.802 244.209 157.724 243.747 157.567 243.347C157.411 242.943 157.184 242.628 156.886 242.401C156.587 242.17 156.225 242.055 155.799 242.055C155.362 242.055 154.992 242.175 154.691 242.413C154.393 242.649 154.165 242.969 154.009 243.372C153.856 243.776 153.779 244.229 153.779 244.732C153.779 245.24 153.857 245.699 154.013 246.108C154.17 246.517 154.397 246.842 154.695 247.084C154.996 247.322 155.364 247.442 155.799 247.442ZM160.712 248V241.455H161.45V242.46H161.505C161.636 242.131 161.863 241.865 162.187 241.663C162.513 241.459 162.883 241.357 163.295 241.357C163.357 241.357 163.427 241.358 163.504 241.361C163.58 241.364 163.644 241.366 163.695 241.369V242.141C163.661 242.135 163.602 242.126 163.516 242.115C163.431 242.104 163.339 242.098 163.239 242.098C162.898 242.098 162.594 242.17 162.327 242.315C162.063 242.457 161.854 242.655 161.701 242.908C161.548 243.161 161.471 243.449 161.471 243.773V248H160.712ZM167.437 248.136C166.826 248.136 166.298 247.994 165.852 247.71C165.406 247.423 165.06 247.027 164.816 246.521C164.575 246.013 164.454 245.428 164.454 244.766C164.454 244.107 164.575 243.521 164.816 243.01C165.06 242.496 165.397 242.094 165.826 241.804C166.258 241.511 166.756 241.365 167.322 241.365C167.677 241.365 168.019 241.43 168.349 241.561C168.678 241.689 168.974 241.886 169.235 242.153C169.499 242.418 169.708 242.751 169.862 243.155C170.015 243.555 170.092 244.03 170.092 244.578V244.953H164.978V244.284H169.316C169.316 243.864 169.231 243.486 169.06 243.151C168.893 242.812 168.658 242.545 168.357 242.349C168.059 242.153 167.714 242.055 167.322 242.055C166.907 242.055 166.542 242.166 166.227 242.388C165.911 242.609 165.664 242.902 165.485 243.266C165.309 243.629 165.219 244.027 165.217 244.459V244.859C165.217 245.379 165.306 245.834 165.485 246.223C165.667 246.609 165.924 246.909 166.256 247.122C166.589 247.335 166.982 247.442 167.437 247.442C167.746 247.442 168.018 247.393 168.251 247.297C168.487 247.2 168.684 247.071 168.843 246.909C169.005 246.744 169.127 246.564 169.21 246.368L169.93 246.602C169.83 246.878 169.667 247.132 169.44 247.365C169.215 247.598 168.934 247.786 168.596 247.928C168.261 248.067 167.874 248.136 167.437 248.136ZM176.161 242.891L175.466 243.087C175.398 242.891 175.301 242.713 175.176 242.554C175.051 242.395 174.888 242.268 174.686 242.175C174.488 242.081 174.24 242.034 173.945 242.034C173.502 242.034 173.138 242.139 172.854 242.349C172.57 242.56 172.428 242.831 172.428 243.163C172.428 243.445 172.525 243.673 172.718 243.849C172.914 244.023 173.215 244.161 173.621 244.263L174.61 244.506C175.158 244.639 175.569 244.851 175.841 245.141C176.117 245.43 176.255 245.794 176.255 246.232C176.255 246.601 176.152 246.929 175.948 247.216C175.743 247.503 175.458 247.729 175.091 247.893C174.728 248.055 174.306 248.136 173.826 248.136C173.186 248.136 172.659 247.993 172.245 247.706C171.83 247.416 171.564 246.999 171.448 246.453L172.176 246.274C172.27 246.663 172.453 246.957 172.726 247.156C173.002 247.355 173.364 247.455 173.813 247.455C174.316 247.455 174.718 247.342 175.019 247.118C175.32 246.891 175.471 246.607 175.471 246.266C175.471 246.001 175.382 245.78 175.206 245.601C175.03 245.419 174.763 245.286 174.405 245.2L173.336 244.945C172.767 244.808 172.347 244.592 172.074 244.297C171.801 244.001 171.665 243.635 171.665 243.197C171.665 242.837 171.763 242.52 171.959 242.247C172.155 241.972 172.425 241.756 172.769 241.599C173.113 241.443 173.505 241.365 173.945 241.365C174.544 241.365 175.023 241.501 175.381 241.774C175.742 242.044 176.002 242.416 176.161 242.891ZM182.313 242.891L181.619 243.087C181.55 242.891 181.454 242.713 181.329 242.554C181.204 242.395 181.04 242.268 180.839 242.175C180.64 242.081 180.393 242.034 180.097 242.034C179.654 242.034 179.29 242.139 179.006 242.349C178.722 242.56 178.58 242.831 178.58 243.163C178.58 243.445 178.677 243.673 178.87 243.849C179.066 244.023 179.367 244.161 179.773 244.263L180.762 244.506C181.31 244.639 181.721 244.851 181.994 245.141C182.269 245.43 182.407 245.794 182.407 246.232C182.407 246.601 182.305 246.929 182.1 247.216C181.896 247.503 181.61 247.729 181.244 247.893C180.88 248.055 180.458 248.136 179.978 248.136C179.339 248.136 178.812 247.993 178.397 247.706C177.982 247.416 177.717 246.999 177.6 246.453L178.329 246.274C178.423 246.663 178.606 246.957 178.879 247.156C179.154 247.355 179.516 247.455 179.965 247.455C180.468 247.455 180.87 247.342 181.171 247.118C181.472 246.891 181.623 246.607 181.623 246.266C181.623 246.001 181.535 245.78 181.359 245.601C181.183 245.419 180.915 245.286 180.558 245.2L179.488 244.945C178.92 244.808 178.499 244.592 178.227 244.297C177.954 244.001 177.817 243.635 177.817 243.197C177.817 242.837 177.915 242.52 178.112 242.247C178.308 241.972 178.577 241.756 178.921 241.599C179.265 241.443 179.657 241.365 180.097 241.365C180.697 241.365 181.175 241.501 181.533 241.774C181.894 242.044 182.154 242.416 182.313 242.891Z" fill="white"/>
<path d="M42.1591 341V332.273H47.2216V332.989H42.956V336.274H46.9531V336.99H42.956V340.284H47.3068V341H42.1591ZM49.8849 336.909V341H49.1264V334.455H49.8636V335.482H49.9318C50.0852 335.146 50.3239 334.878 50.6477 334.676C50.9744 334.472 51.3778 334.369 51.858 334.369C52.2983 334.369 52.6847 334.462 53.017 334.646C53.3523 334.828 53.6122 335.097 53.7969 335.452C53.9844 335.807 54.0781 336.243 54.0781 336.76V341H53.3196V336.807C53.3196 336.27 53.169 335.845 52.8679 335.533C52.5696 335.22 52.169 335.064 51.6662 335.064C51.3224 335.064 51.017 335.138 50.75 335.286C50.483 335.433 50.2713 335.646 50.1151 335.925C49.9616 336.2 49.8849 336.528 49.8849 336.909ZM58.6538 334.455V335.115H55.5302V334.455H58.6538ZM56.506 332.886H57.2688V339.291C57.2688 339.564 57.3157 339.778 57.4094 339.935C57.5032 340.088 57.6254 340.197 57.7759 340.263C57.9265 340.325 58.087 340.357 58.2575 340.357C58.3569 340.357 58.4421 340.351 58.5131 340.339C58.5842 340.325 58.6467 340.311 58.7006 340.297L58.8626 340.983C58.7887 341.011 58.6978 341.037 58.5898 341.06C58.4819 341.085 58.3484 341.098 58.1893 341.098C57.9109 341.098 57.6424 341.037 57.3839 340.915C57.1282 340.793 56.918 340.611 56.7532 340.369C56.5884 340.128 56.506 339.828 56.506 339.47V332.886ZM62.9524 341.136C62.3416 341.136 61.8132 340.994 61.3672 340.71C60.9212 340.423 60.576 340.027 60.3317 339.521C60.0902 339.013 59.9695 338.428 59.9695 337.766C59.9695 337.107 60.0902 336.521 60.3317 336.01C60.576 335.496 60.9126 335.094 61.3416 334.804C61.7734 334.511 62.272 334.365 62.8374 334.365C63.1925 334.365 63.5348 334.43 63.8643 334.561C64.1939 334.689 64.4893 334.886 64.7507 335.153C65.0149 335.418 65.2237 335.751 65.3771 336.155C65.5305 336.555 65.6072 337.03 65.6072 337.578V337.953H60.4936V337.284H64.8317C64.8317 336.864 64.7464 336.486 64.576 336.151C64.4084 335.812 64.174 335.545 63.8729 335.349C63.5746 335.153 63.2294 335.055 62.8374 335.055C62.4226 335.055 62.0575 335.166 61.7422 335.388C61.4268 335.609 61.1797 335.902 61.0007 336.266C60.8246 336.629 60.7351 337.027 60.7322 337.459V337.859C60.7322 338.379 60.8217 338.834 61.0007 339.223C61.1825 339.609 61.4396 339.909 61.772 340.122C62.1044 340.335 62.4979 340.442 62.9524 340.442C63.2621 340.442 63.5334 340.393 63.7663 340.297C64.0021 340.2 64.1996 340.071 64.3587 339.909C64.5206 339.744 64.6428 339.564 64.7251 339.368L65.4453 339.602C65.3459 339.878 65.1825 340.132 64.9553 340.365C64.7308 340.598 64.4496 340.786 64.1115 340.928C63.7763 341.067 63.3899 341.136 62.9524 341.136ZM67.2788 341V334.455H68.016V335.46H68.0714C68.2021 335.131 68.4293 334.865 68.7532 334.663C69.0799 334.459 69.4492 334.357 69.8612 334.357C69.9237 334.357 69.9933 334.358 70.07 334.361C70.1467 334.364 70.2106 334.366 70.2617 334.369V335.141C70.2276 335.135 70.168 335.126 70.0827 335.115C69.9975 335.104 69.9052 335.098 69.8058 335.098C69.4648 335.098 69.1609 335.17 68.8938 335.315C68.6296 335.457 68.4208 335.655 68.2674 335.908C68.114 336.161 68.0373 336.449 68.0373 336.773V341H67.2788ZM75.4595 343.455C75.3089 343.455 75.1683 343.44 75.0376 343.412C74.907 343.384 74.8033 343.352 74.7266 343.318L74.9311 342.649C75.1896 342.729 75.4197 342.757 75.6214 342.734C75.8232 342.714 76.0021 342.624 76.1584 342.462C76.3146 342.303 76.4538 342.058 76.576 341.729L76.8146 341.064L74.407 334.455H75.2294L77.1726 339.999H77.2322L79.1754 334.455H79.9979L77.228 342.036C77.1115 342.351 76.968 342.614 76.7976 342.824C76.6271 343.037 76.4297 343.195 76.2053 343.297C75.9837 343.402 75.7351 343.455 75.4595 343.455ZM83.7915 341.136C83.2262 341.136 82.7262 340.993 82.2915 340.706C81.8597 340.419 81.5217 340.023 81.2773 339.517C81.033 339.009 80.9109 338.422 80.9109 337.757C80.9109 337.087 81.033 336.497 81.2773 335.989C81.5217 335.477 81.8597 335.08 82.2915 334.795C82.7262 334.509 83.2262 334.365 83.7915 334.365C84.3569 334.365 84.8555 334.509 85.2873 334.795C85.7191 335.082 86.0572 335.48 86.3015 335.989C86.5487 336.497 86.6722 337.087 86.6722 337.757C86.6722 338.422 86.5501 339.009 86.3058 339.517C86.0614 340.023 85.7219 340.419 85.2873 340.706C84.8555 340.993 84.3569 341.136 83.7915 341.136ZM83.7915 340.442C84.2461 340.442 84.631 340.32 84.9464 340.075C85.2617 339.831 85.5004 339.506 85.6623 339.099C85.8271 338.693 85.9094 338.246 85.9094 337.757C85.9094 337.268 85.8271 336.82 85.6623 336.411C85.5004 336.001 85.2617 335.673 84.9464 335.426C84.631 335.179 84.2461 335.055 83.7915 335.055C83.3398 335.055 82.9549 335.179 82.6367 335.426C82.3214 335.673 82.0813 336.001 81.9165 336.411C81.7546 336.82 81.6737 337.268 81.6737 337.757C81.6737 338.246 81.7546 338.693 81.9165 339.099C82.0813 339.506 82.3214 339.831 82.6367 340.075C82.9521 340.32 83.337 340.442 83.7915 340.442ZM92.4964 338.499V334.455H93.255V341H92.4964V339.913H92.4368C92.2834 340.249 92.0405 340.528 91.7081 340.753C91.3757 340.974 90.9695 341.085 90.4893 341.085C90.0717 341.085 89.701 340.994 89.3771 340.812C89.0533 340.628 88.799 340.358 88.6143 340.003C88.4297 339.648 88.3374 339.212 88.3374 338.695V334.455H89.0959V338.648C89.0959 339.159 89.2464 339.571 89.5476 339.884C89.8487 340.193 90.2351 340.348 90.7067 340.348C91.0021 340.348 91.2862 340.277 91.5589 340.135C91.8317 339.993 92.0561 339.786 92.2322 339.513C92.4084 339.237 92.4964 338.899 92.4964 338.499ZM95.2631 341V334.455H96.0004V335.46H96.0558C96.1864 335.131 96.4137 334.865 96.7376 334.663C97.0643 334.459 97.4336 334.357 97.8455 334.357C97.908 334.357 97.9776 334.358 98.0543 334.361C98.131 334.364 98.195 334.366 98.2461 334.369V335.141C98.212 335.135 98.1523 335.126 98.0671 335.115C97.9819 335.104 97.8896 335.098 97.7901 335.098C97.4492 335.098 97.1452 335.17 96.8782 335.315C96.614 335.457 96.4052 335.655 96.2518 335.908C96.0984 336.161 96.0217 336.449 96.0217 336.773V341H95.2631ZM112.265 332.273H113.062V338.051C113.062 338.645 112.923 339.176 112.644 339.645C112.366 340.111 111.978 340.479 111.481 340.749C110.987 341.016 110.411 341.149 109.755 341.149C109.102 341.149 108.526 341.014 108.029 340.744C107.532 340.474 107.144 340.107 106.866 339.641C106.587 339.175 106.448 338.645 106.448 338.051V332.273H107.245V337.996C107.245 338.459 107.349 338.872 107.556 339.236C107.763 339.597 108.055 339.881 108.43 340.088C108.808 340.295 109.249 340.399 109.755 340.399C110.261 340.399 110.702 340.295 111.08 340.088C111.458 339.881 111.749 339.597 111.954 339.236C112.161 338.872 112.265 338.459 112.265 337.996V332.273ZM119.618 335.891L118.923 336.087C118.855 335.891 118.759 335.713 118.634 335.554C118.509 335.395 118.345 335.268 118.143 335.175C117.945 335.081 117.697 335.034 117.402 335.034C116.959 335.034 116.595 335.139 116.311 335.349C116.027 335.56 115.885 335.831 115.885 336.163C115.885 336.445 115.982 336.673 116.175 336.849C116.371 337.023 116.672 337.161 117.078 337.263L118.067 337.506C118.615 337.639 119.026 337.851 119.298 338.141C119.574 338.43 119.712 338.794 119.712 339.232C119.712 339.601 119.609 339.929 119.405 340.216C119.2 340.503 118.915 340.729 118.548 340.893C118.185 341.055 117.763 341.136 117.283 341.136C116.643 341.136 116.116 340.993 115.702 340.706C115.287 340.416 115.021 339.999 114.905 339.453L115.634 339.274C115.727 339.663 115.911 339.957 116.183 340.156C116.459 340.355 116.821 340.455 117.27 340.455C117.773 340.455 118.175 340.342 118.476 340.118C118.777 339.891 118.928 339.607 118.928 339.266C118.928 339.001 118.839 338.78 118.663 338.601C118.487 338.419 118.22 338.286 117.862 338.2L116.793 337.945C116.224 337.808 115.804 337.592 115.531 337.297C115.259 337.001 115.122 336.635 115.122 336.197C115.122 335.837 115.22 335.52 115.416 335.247C115.612 334.972 115.882 334.756 116.226 334.599C116.57 334.443 116.962 334.365 117.402 334.365C118.001 334.365 118.48 334.501 118.838 334.774C119.199 335.044 119.459 335.416 119.618 335.891ZM124.019 341.136C123.408 341.136 122.88 340.994 122.434 340.71C121.988 340.423 121.642 340.027 121.398 339.521C121.157 339.013 121.036 338.428 121.036 337.766C121.036 337.107 121.157 336.521 121.398 336.01C121.642 335.496 121.979 335.094 122.408 334.804C122.84 334.511 123.338 334.365 123.904 334.365C124.259 334.365 124.601 334.43 124.931 334.561C125.26 334.689 125.556 334.886 125.817 335.153C126.081 335.418 126.29 335.751 126.444 336.155C126.597 336.555 126.674 337.03 126.674 337.578V337.953H121.56V337.284H125.898C125.898 336.864 125.813 336.486 125.642 336.151C125.475 335.812 125.24 335.545 124.939 335.349C124.641 335.153 124.296 335.055 123.904 335.055C123.489 335.055 123.124 335.166 122.809 335.388C122.493 335.609 122.246 335.902 122.067 336.266C121.891 336.629 121.801 337.027 121.799 337.459V337.859C121.799 338.379 121.888 338.834 122.067 339.223C122.249 339.609 122.506 339.909 122.838 340.122C123.171 340.335 123.564 340.442 124.019 340.442C124.328 340.442 124.6 340.393 124.833 340.297C125.069 340.2 125.266 340.071 125.425 339.909C125.587 339.744 125.709 339.564 125.792 339.368L126.512 339.602C126.412 339.878 126.249 340.132 126.022 340.365C125.797 340.598 125.516 340.786 125.178 340.928C124.843 341.067 124.456 341.136 124.019 341.136ZM128.345 341V334.455H129.082V335.46H129.138C129.268 335.131 129.496 334.865 129.82 334.663C130.146 334.459 130.516 334.357 130.928 334.357C130.99 334.357 131.06 334.358 131.136 334.361C131.213 334.364 131.277 334.366 131.328 334.369V335.141C131.294 335.135 131.234 335.126 131.149 335.115C131.064 335.104 130.972 335.098 130.872 335.098C130.531 335.098 130.227 335.17 129.96 335.315C129.696 335.457 129.487 335.655 129.334 335.908C129.18 336.161 129.104 336.449 129.104 336.773V341H128.345ZM136.756 336.909V341H135.998V334.455H136.735V335.482H136.803C136.956 335.146 137.195 334.878 137.519 334.676C137.846 334.472 138.249 334.369 138.729 334.369C139.169 334.369 139.556 334.462 139.888 334.646C140.223 334.828 140.483 335.097 140.668 335.452C140.855 335.807 140.949 336.243 140.949 336.76V341H140.191V336.807C140.191 336.27 140.04 335.845 139.739 335.533C139.441 335.22 139.04 335.064 138.537 335.064C138.194 335.064 137.888 335.138 137.621 335.286C137.354 335.433 137.142 335.646 136.986 335.925C136.833 336.2 136.756 336.528 136.756 336.909ZM144.775 341.149C144.38 341.149 144.019 341.072 143.692 340.919C143.366 340.763 143.106 340.538 142.913 340.246C142.719 339.95 142.623 339.592 142.623 339.172C142.623 338.848 142.684 338.575 142.806 338.354C142.928 338.132 143.102 337.95 143.326 337.808C143.55 337.666 143.816 337.554 144.123 337.472C144.43 337.389 144.768 337.325 145.137 337.28C145.504 337.234 145.813 337.195 146.066 337.161C146.322 337.126 146.516 337.072 146.65 336.999C146.783 336.925 146.85 336.805 146.85 336.641V336.487C146.85 336.041 146.717 335.69 146.45 335.435C146.185 335.176 145.805 335.047 145.308 335.047C144.836 335.047 144.451 335.151 144.153 335.358C143.857 335.565 143.65 335.81 143.531 336.091L142.81 335.831C142.958 335.473 143.163 335.187 143.424 334.974C143.685 334.759 143.978 334.604 144.302 334.51C144.626 334.413 144.954 334.365 145.286 334.365C145.536 334.365 145.796 334.398 146.066 334.463C146.339 334.528 146.592 334.642 146.825 334.804C147.058 334.963 147.246 335.186 147.391 335.473C147.536 335.757 147.609 336.118 147.609 336.555V341H146.85V339.964H146.803C146.712 340.158 146.577 340.345 146.398 340.527C146.219 340.709 145.995 340.858 145.725 340.974C145.455 341.091 145.138 341.149 144.775 341.149ZM144.877 340.455C145.281 340.455 145.63 340.365 145.925 340.186C146.221 340.007 146.448 339.77 146.607 339.474C146.769 339.176 146.85 338.848 146.85 338.49V337.544C146.793 337.598 146.698 337.646 146.565 337.689C146.434 337.732 146.282 337.77 146.109 337.804C145.938 337.835 145.768 337.862 145.597 337.885C145.427 337.908 145.273 337.928 145.137 337.945C144.768 337.99 144.452 338.061 144.191 338.158C143.93 338.254 143.729 338.388 143.59 338.558C143.451 338.726 143.381 338.942 143.381 339.206C143.381 339.604 143.523 339.912 143.808 340.131C144.092 340.347 144.448 340.455 144.877 340.455ZM149.626 341V334.455H150.364V335.46H150.432C150.563 335.122 150.78 334.857 151.084 334.663C151.391 334.467 151.759 334.369 152.188 334.369C152.639 334.369 153.01 334.476 153.3 334.689C153.592 334.899 153.811 335.189 153.956 335.558H154.011C154.159 335.195 154.399 334.906 154.732 334.693C155.067 334.477 155.473 334.369 155.95 334.369C156.558 334.369 157.038 334.561 157.391 334.945C157.743 335.325 157.919 335.882 157.919 336.615V341H157.161V336.615C157.161 336.098 157.028 335.71 156.764 335.452C156.5 335.193 156.152 335.064 155.72 335.064C155.22 335.064 154.835 335.217 154.565 335.524C154.295 335.831 154.161 336.22 154.161 336.692V341H153.385V336.547C153.385 336.104 153.261 335.746 153.014 335.473C152.767 335.2 152.419 335.064 151.97 335.064C151.669 335.064 151.398 335.138 151.156 335.286C150.918 335.433 150.729 335.639 150.589 335.903C150.453 336.165 150.385 336.466 150.385 336.807V341H149.626ZM162.574 341.136C161.963 341.136 161.434 340.994 160.988 340.71C160.542 340.423 160.197 340.027 159.953 339.521C159.711 339.013 159.591 338.428 159.591 337.766C159.591 337.107 159.711 336.521 159.953 336.01C160.197 335.496 160.534 335.094 160.963 334.804C161.395 334.511 161.893 334.365 162.458 334.365C162.814 334.365 163.156 334.43 163.485 334.561C163.815 334.689 164.11 334.886 164.372 335.153C164.636 335.418 164.845 335.751 164.998 336.155C165.152 336.555 165.228 337.03 165.228 337.578V337.953H160.115V337.284H164.453C164.453 336.864 164.368 336.486 164.197 336.151C164.029 335.812 163.795 335.545 163.494 335.349C163.196 335.153 162.85 335.055 162.458 335.055C162.044 335.055 161.679 335.166 161.363 335.388C161.048 335.609 160.801 335.902 160.622 336.266C160.446 336.629 160.356 337.027 160.353 337.459V337.859C160.353 338.379 160.443 338.834 160.622 339.223C160.804 339.609 161.061 339.909 161.393 340.122C161.725 340.335 162.119 340.442 162.574 340.442C162.883 340.442 163.154 340.393 163.387 340.297C163.623 340.2 163.821 340.071 163.98 339.909C164.142 339.744 164.264 339.564 164.346 339.368L165.066 339.602C164.967 339.878 164.804 340.132 164.576 340.365C164.352 340.598 164.071 340.786 163.733 340.928C163.397 341.067 163.011 341.136 162.574 341.136Z" fill="white"/>
<rect x="41" y="354" width="308" height="50" rx="10" fill="white"/>
<path d="M42.1591 434V425.273H47.2216V425.989H42.956V429.274H46.9531V429.99H42.956V433.284H47.3068V434H42.1591ZM49.8849 429.909V434H49.1264V427.455H49.8636V428.482H49.9318C50.0852 428.146 50.3239 427.878 50.6477 427.676C50.9744 427.472 51.3778 427.369 51.858 427.369C52.2983 427.369 52.6847 427.462 53.017 427.646C53.3523 427.828 53.6122 428.097 53.7969 428.452C53.9844 428.807 54.0781 429.243 54.0781 429.76V434H53.3196V429.807C53.3196 429.27 53.169 428.845 52.8679 428.533C52.5696 428.22 52.169 428.064 51.6662 428.064C51.3224 428.064 51.017 428.138 50.75 428.286C50.483 428.433 50.2713 428.646 50.1151 428.925C49.9616 429.2 49.8849 429.528 49.8849 429.909ZM58.6538 427.455V428.115H55.5302V427.455H58.6538ZM56.506 425.886H57.2688V432.291C57.2688 432.564 57.3157 432.778 57.4094 432.935C57.5032 433.088 57.6254 433.197 57.7759 433.263C57.9265 433.325 58.087 433.357 58.2575 433.357C58.3569 433.357 58.4421 433.351 58.5131 433.339C58.5842 433.325 58.6467 433.311 58.7006 433.297L58.8626 433.983C58.7887 434.011 58.6978 434.037 58.5898 434.06C58.4819 434.085 58.3484 434.098 58.1893 434.098C57.9109 434.098 57.6424 434.037 57.3839 433.915C57.1282 433.793 56.918 433.611 56.7532 433.369C56.5884 433.128 56.506 432.828 56.506 432.47V425.886ZM62.9524 434.136C62.3416 434.136 61.8132 433.994 61.3672 433.71C60.9212 433.423 60.576 433.027 60.3317 432.521C60.0902 432.013 59.9695 431.428 59.9695 430.766C59.9695 430.107 60.0902 429.521 60.3317 429.01C60.576 428.496 60.9126 428.094 61.3416 427.804C61.7734 427.511 62.272 427.365 62.8374 427.365C63.1925 427.365 63.5348 427.43 63.8643 427.561C64.1939 427.689 64.4893 427.886 64.7507 428.153C65.0149 428.418 65.2237 428.751 65.3771 429.155C65.5305 429.555 65.6072 430.03 65.6072 430.578V430.953H60.4936V430.284H64.8317C64.8317 429.864 64.7464 429.486 64.576 429.151C64.4084 428.812 64.174 428.545 63.8729 428.349C63.5746 428.153 63.2294 428.055 62.8374 428.055C62.4226 428.055 62.0575 428.166 61.7422 428.388C61.4268 428.609 61.1797 428.902 61.0007 429.266C60.8246 429.629 60.7351 430.027 60.7322 430.459V430.859C60.7322 431.379 60.8217 431.834 61.0007 432.223C61.1825 432.609 61.4396 432.909 61.772 433.122C62.1044 433.335 62.4979 433.442 62.9524 433.442C63.2621 433.442 63.5334 433.393 63.7663 433.297C64.0021 433.2 64.1996 433.071 64.3587 432.909C64.5206 432.744 64.6428 432.564 64.7251 432.368L65.4453 432.602C65.3459 432.878 65.1825 433.132 64.9553 433.365C64.7308 433.598 64.4496 433.786 64.1115 433.928C63.7763 434.067 63.3899 434.136 62.9524 434.136ZM67.2788 434V427.455H68.016V428.46H68.0714C68.2021 428.131 68.4293 427.865 68.7532 427.663C69.0799 427.459 69.4492 427.357 69.8612 427.357C69.9237 427.357 69.9933 427.358 70.07 427.361C70.1467 427.364 70.2106 427.366 70.2617 427.369V428.141C70.2276 428.135 70.168 428.126 70.0827 428.115C69.9975 428.104 69.9052 428.098 69.8058 428.098C69.4648 428.098 69.1609 428.17 68.8938 428.315C68.6296 428.457 68.4208 428.655 68.2674 428.908C68.114 429.161 68.0373 429.449 68.0373 429.773V434H67.2788ZM75.4595 436.455C75.3089 436.455 75.1683 436.44 75.0376 436.412C74.907 436.384 74.8033 436.352 74.7266 436.318L74.9311 435.649C75.1896 435.729 75.4197 435.757 75.6214 435.734C75.8232 435.714 76.0021 435.624 76.1584 435.462C76.3146 435.303 76.4538 435.058 76.576 434.729L76.8146 434.064L74.407 427.455H75.2294L77.1726 432.999H77.2322L79.1754 427.455H79.9979L77.228 435.036C77.1115 435.351 76.968 435.614 76.7976 435.824C76.6271 436.037 76.4297 436.195 76.2053 436.297C75.9837 436.402 75.7351 436.455 75.4595 436.455ZM83.7915 434.136C83.2262 434.136 82.7262 433.993 82.2915 433.706C81.8597 433.419 81.5217 433.023 81.2773 432.517C81.033 432.009 80.9109 431.422 80.9109 430.757C80.9109 430.087 81.033 429.497 81.2773 428.989C81.5217 428.477 81.8597 428.08 82.2915 427.795C82.7262 427.509 83.2262 427.365 83.7915 427.365C84.3569 427.365 84.8555 427.509 85.2873 427.795C85.7191 428.082 86.0572 428.48 86.3015 428.989C86.5487 429.497 86.6722 430.087 86.6722 430.757C86.6722 431.422 86.5501 432.009 86.3058 432.517C86.0614 433.023 85.7219 433.419 85.2873 433.706C84.8555 433.993 84.3569 434.136 83.7915 434.136ZM83.7915 433.442C84.2461 433.442 84.631 433.32 84.9464 433.075C85.2617 432.831 85.5004 432.506 85.6623 432.099C85.8271 431.693 85.9094 431.246 85.9094 430.757C85.9094 430.268 85.8271 429.82 85.6623 429.411C85.5004 429.001 85.2617 428.673 84.9464 428.426C84.631 428.179 84.2461 428.055 83.7915 428.055C83.3398 428.055 82.9549 428.179 82.6367 428.426C82.3214 428.673 82.0813 429.001 81.9165 429.411C81.7546 429.82 81.6737 430.268 81.6737 430.757C81.6737 431.246 81.7546 431.693 81.9165 432.099C82.0813 432.506 82.3214 432.831 82.6367 433.075C82.9521 433.32 83.337 433.442 83.7915 433.442ZM92.4964 431.499V427.455H93.255V434H92.4964V432.913H92.4368C92.2834 433.249 92.0405 433.528 91.7081 433.753C91.3757 433.974 90.9695 434.085 90.4893 434.085C90.0717 434.085 89.701 433.994 89.3771 433.812C89.0533 433.628 88.799 433.358 88.6143 433.003C88.4297 432.648 88.3374 432.212 88.3374 431.695V427.455H89.0959V431.648C89.0959 432.159 89.2464 432.571 89.5476 432.884C89.8487 433.193 90.2351 433.348 90.7067 433.348C91.0021 433.348 91.2862 433.277 91.5589 433.135C91.8317 432.993 92.0561 432.786 92.2322 432.513C92.4084 432.237 92.4964 431.899 92.4964 431.499ZM95.2631 434V427.455H96.0004V428.46H96.0558C96.1864 428.131 96.4137 427.865 96.7376 427.663C97.0643 427.459 97.4336 427.357 97.8455 427.357C97.908 427.357 97.9776 427.358 98.0543 427.361C98.131 427.364 98.195 427.366 98.2461 427.369V428.141C98.212 428.135 98.1523 428.126 98.0671 428.115C97.9819 428.104 97.8896 428.098 97.7901 428.098C97.4492 428.098 97.1452 428.17 96.8782 428.315C96.614 428.457 96.4052 428.655 96.2518 428.908C96.0984 429.161 96.0217 429.449 96.0217 429.773V434H95.2631ZM109.005 434H106.448V425.273H109.158C109.991 425.273 110.702 425.446 111.293 425.793C111.887 426.139 112.342 426.636 112.657 427.284C112.972 427.932 113.13 428.709 113.13 429.615C113.13 430.53 112.968 431.315 112.644 431.972C112.323 432.625 111.854 433.126 111.238 433.476C110.624 433.825 109.88 434 109.005 434ZM107.245 433.284H108.958C109.708 433.284 110.336 433.136 110.842 432.841C111.347 432.545 111.727 432.124 111.979 431.575C112.232 431.027 112.359 430.374 112.359 429.615C112.356 428.862 112.231 428.214 111.984 427.672C111.739 427.129 111.376 426.713 110.893 426.423C110.413 426.134 109.819 425.989 109.112 425.989H107.245V433.284ZM116.732 434.149C116.337 434.149 115.976 434.072 115.65 433.919C115.323 433.763 115.063 433.538 114.87 433.246C114.676 432.95 114.58 432.592 114.58 432.172C114.58 431.848 114.641 431.575 114.763 431.354C114.885 431.132 115.059 430.95 115.283 430.808C115.507 430.666 115.773 430.554 116.08 430.472C116.387 430.389 116.725 430.325 117.094 430.28C117.461 430.234 117.77 430.195 118.023 430.161C118.279 430.126 118.473 430.072 118.607 429.999C118.74 429.925 118.807 429.805 118.807 429.641V429.487C118.807 429.041 118.674 428.69 118.407 428.435C118.142 428.176 117.762 428.047 117.265 428.047C116.793 428.047 116.408 428.151 116.11 428.358C115.814 428.565 115.607 428.81 115.488 429.091L114.767 428.831C114.915 428.473 115.12 428.187 115.381 427.974C115.642 427.759 115.935 427.604 116.259 427.51C116.583 427.413 116.911 427.365 117.243 427.365C117.493 427.365 117.753 427.398 118.023 427.463C118.296 427.528 118.549 427.642 118.782 427.804C119.015 427.963 119.203 428.186 119.348 428.473C119.493 428.757 119.566 429.118 119.566 429.555V434H118.807V432.964H118.76C118.669 433.158 118.534 433.345 118.355 433.527C118.176 433.709 117.952 433.858 117.682 433.974C117.412 434.091 117.096 434.149 116.732 434.149ZM116.834 433.455C117.238 433.455 117.587 433.365 117.882 433.186C118.178 433.007 118.405 432.77 118.564 432.474C118.726 432.176 118.807 431.848 118.807 431.49V430.544C118.75 430.598 118.655 430.646 118.522 430.689C118.391 430.732 118.239 430.77 118.066 430.804C117.895 430.835 117.725 430.862 117.554 430.885C117.384 430.908 117.23 430.928 117.094 430.945C116.725 430.99 116.409 431.061 116.148 431.158C115.887 431.254 115.686 431.388 115.547 431.558C115.408 431.726 115.338 431.942 115.338 432.206C115.338 432.604 115.48 432.912 115.765 433.131C116.049 433.347 116.405 433.455 116.834 433.455ZM124.162 427.455V428.115H121.038V427.455H124.162ZM122.014 425.886H122.777V432.291C122.777 432.564 122.824 432.778 122.917 432.935C123.011 433.088 123.133 433.197 123.284 433.263C123.434 433.325 123.595 433.357 123.765 433.357C123.865 433.357 123.95 433.351 124.021 433.339C124.092 433.325 124.154 433.311 124.208 433.297L124.37 433.983C124.297 434.011 124.206 434.037 124.098 434.06C123.99 434.085 123.856 434.098 123.697 434.098C123.419 434.098 123.15 434.037 122.892 433.915C122.636 433.793 122.426 433.611 122.261 433.369C122.096 433.128 122.014 432.828 122.014 432.47V425.886ZM128.46 434.136C127.849 434.136 127.321 433.994 126.875 433.71C126.429 433.423 126.084 433.027 125.839 432.521C125.598 432.013 125.477 431.428 125.477 430.766C125.477 430.107 125.598 429.521 125.839 429.01C126.084 428.496 126.42 428.094 126.849 427.804C127.281 427.511 127.78 427.365 128.345 427.365C128.7 427.365 129.043 427.43 129.372 427.561C129.702 427.689 129.997 427.886 130.259 428.153C130.523 428.418 130.732 428.751 130.885 429.155C131.038 429.555 131.115 430.03 131.115 430.578V430.953H126.001V430.284H130.339C130.339 429.864 130.254 429.486 130.084 429.151C129.916 428.812 129.682 428.545 129.381 428.349C129.082 428.153 128.737 428.055 128.345 428.055C127.93 428.055 127.565 428.166 127.25 428.388C126.935 428.609 126.688 428.902 126.509 429.266C126.332 429.629 126.243 430.027 126.24 430.459V430.859C126.24 431.379 126.33 431.834 126.509 432.223C126.69 432.609 126.947 432.909 127.28 433.122C127.612 433.335 128.006 433.442 128.46 433.442C128.77 433.442 129.041 433.393 129.274 433.297C129.51 433.2 129.707 433.071 129.866 432.909C130.028 432.744 130.151 432.564 130.233 432.368L130.953 432.602C130.854 432.878 130.69 433.132 130.463 433.365C130.239 433.598 129.957 433.786 129.619 433.928C129.284 434.067 128.898 434.136 128.46 434.136ZM138.706 434.136C138.14 434.136 137.64 433.993 137.206 433.706C136.774 433.419 136.436 433.023 136.191 432.517C135.947 432.009 135.825 431.422 135.825 430.757C135.825 430.087 135.947 429.497 136.191 428.989C136.436 428.477 136.774 428.08 137.206 427.795C137.64 427.509 138.14 427.365 138.706 427.365C139.271 427.365 139.77 427.509 140.201 427.795C140.633 428.082 140.971 428.48 141.216 428.989C141.463 429.497 141.586 430.087 141.586 430.757C141.586 431.422 141.464 432.009 141.22 432.517C140.975 433.023 140.636 433.419 140.201 433.706C139.77 433.993 139.271 434.136 138.706 434.136ZM138.706 433.442C139.16 433.442 139.545 433.32 139.86 433.075C140.176 432.831 140.414 432.506 140.576 432.099C140.741 431.693 140.824 431.246 140.824 430.757C140.824 430.268 140.741 429.82 140.576 429.411C140.414 429.001 140.176 428.673 139.86 428.426C139.545 428.179 139.16 428.055 138.706 428.055C138.254 428.055 137.869 428.179 137.551 428.426C137.235 428.673 136.995 429.001 136.831 429.411C136.669 429.82 136.588 430.268 136.588 430.757C136.588 431.246 136.669 431.693 136.831 432.099C136.995 432.506 137.235 432.831 137.551 433.075C137.866 433.32 138.251 433.442 138.706 433.442ZM145.945 427.455V428.115H142.727V427.455H145.945ZM143.733 434V426.496C143.733 426.143 143.814 425.847 143.976 425.605C144.141 425.364 144.355 425.18 144.619 425.055C144.884 424.93 145.163 424.868 145.459 424.868C145.658 424.868 145.822 424.885 145.953 424.919C146.087 424.95 146.192 424.982 146.268 425.013L146.047 425.678C145.99 425.661 145.92 425.641 145.838 425.618C145.756 425.595 145.652 425.584 145.527 425.584C145.197 425.584 144.943 425.676 144.764 425.861C144.585 426.045 144.496 426.31 144.496 426.653L144.491 434H143.733ZM150.991 434V425.273H151.754V428.703H151.822C151.907 428.507 152.029 428.305 152.189 428.098C152.35 427.891 152.562 427.717 152.824 427.578C153.088 427.436 153.42 427.365 153.821 427.365C154.358 427.365 154.829 427.507 155.235 427.791C155.642 428.072 155.958 428.467 156.186 428.976C156.413 429.482 156.527 430.071 156.527 430.744C156.527 431.42 156.413 432.013 156.186 432.521C155.961 433.03 155.646 433.426 155.24 433.71C154.836 433.994 154.368 434.136 153.833 434.136C153.436 434.136 153.103 434.065 152.836 433.923C152.572 433.781 152.359 433.607 152.197 433.399C152.035 433.189 151.91 432.984 151.822 432.786H151.728V434H150.991ZM151.741 430.732C151.741 431.26 151.819 431.729 151.975 432.138C152.135 432.544 152.362 432.864 152.657 433.097C152.956 433.327 153.316 433.442 153.74 433.442C154.174 433.442 154.542 433.322 154.843 433.084C155.145 432.842 155.373 432.517 155.529 432.108C155.686 431.699 155.764 431.24 155.764 430.732C155.764 430.229 155.686 429.776 155.529 429.372C155.376 428.969 155.149 428.649 154.848 428.413C154.547 428.175 154.177 428.055 153.74 428.055C153.314 428.055 152.951 428.17 152.653 428.401C152.358 428.628 152.132 428.943 151.975 429.347C151.819 429.747 151.741 430.209 151.741 430.732ZM158.201 434V427.455H158.964V434H158.201ZM158.589 426.33C158.433 426.33 158.299 426.277 158.189 426.172C158.078 426.064 158.022 425.935 158.022 425.784C158.022 425.634 158.078 425.506 158.189 425.401C158.299 425.293 158.433 425.239 158.589 425.239C158.745 425.239 158.879 425.293 158.99 425.401C159.1 425.506 159.156 425.634 159.156 425.784C159.156 425.935 159.1 426.064 158.99 426.172C158.879 426.277 158.745 426.33 158.589 426.33ZM160.97 434V427.455H161.707V428.46H161.763C161.893 428.131 162.121 427.865 162.445 427.663C162.771 427.459 163.141 427.357 163.553 427.357C163.615 427.357 163.685 427.358 163.761 427.361C163.838 427.364 163.902 427.366 163.953 427.369V428.141C163.919 428.135 163.859 428.126 163.774 428.115C163.689 428.104 163.597 428.098 163.497 428.098C163.156 428.098 162.852 428.17 162.585 428.315C162.321 428.457 162.112 428.655 161.959 428.908C161.805 429.161 161.729 429.449 161.729 429.773V434H160.97ZM168.236 427.455V428.115H165.112V427.455H168.236ZM166.088 425.886H166.851V432.291C166.851 432.564 166.898 432.778 166.991 432.935C167.085 433.088 167.207 433.197 167.358 433.263C167.509 433.325 167.669 433.357 167.839 433.357C167.939 433.357 168.024 433.351 168.095 433.339C168.166 433.325 168.229 433.311 168.283 433.297L168.445 433.983C168.371 434.011 168.28 434.037 168.172 434.06C168.064 434.085 167.93 434.098 167.771 434.098C167.493 434.098 167.224 434.037 166.966 433.915C166.71 433.793 166.5 433.611 166.335 433.369C166.17 433.128 166.088 432.828 166.088 432.47V425.886ZM170.858 429.909V434H170.099V425.273H170.858V428.482H170.926C171.079 428.143 171.316 427.874 171.637 427.672C171.961 427.47 172.37 427.369 172.865 427.369C173.308 427.369 173.697 427.46 174.032 427.642C174.368 427.824 174.629 428.092 174.816 428.447C175.004 428.803 175.098 429.24 175.098 429.76V434H174.335V429.807C174.335 429.267 174.184 428.842 173.883 428.533C173.585 428.22 173.181 428.064 172.673 428.064C172.324 428.064 172.012 428.138 171.74 428.286C171.467 428.433 171.251 428.646 171.092 428.925C170.936 429.2 170.858 429.528 170.858 429.909Z" fill="white"/>
<rect x="41" y="447" width="308" height="50" rx="10" fill="white"/>
<path d="M42.1591 527V518.273H47.2216V518.989H42.956V522.274H46.9531V522.99H42.956V526.284H47.3068V527H42.1591ZM49.8849 522.909V527H49.1264V520.455H49.8636V521.482H49.9318C50.0852 521.146 50.3239 520.878 50.6477 520.676C50.9744 520.472 51.3778 520.369 51.858 520.369C52.2983 520.369 52.6847 520.462 53.017 520.646C53.3523 520.828 53.6122 521.097 53.7969 521.452C53.9844 521.807 54.0781 522.243 54.0781 522.76V527H53.3196V522.807C53.3196 522.27 53.169 521.845 52.8679 521.533C52.5696 521.22 52.169 521.064 51.6662 521.064C51.3224 521.064 51.017 521.138 50.75 521.286C50.483 521.433 50.2713 521.646 50.1151 521.925C49.9616 522.2 49.8849 522.528 49.8849 522.909ZM58.6538 520.455V521.115H55.5302V520.455H58.6538ZM56.506 518.886H57.2688V525.291C57.2688 525.564 57.3157 525.778 57.4094 525.935C57.5032 526.088 57.6254 526.197 57.7759 526.263C57.9265 526.325 58.087 526.357 58.2575 526.357C58.3569 526.357 58.4421 526.351 58.5131 526.339C58.5842 526.325 58.6467 526.311 58.7006 526.297L58.8626 526.983C58.7887 527.011 58.6978 527.037 58.5898 527.06C58.4819 527.085 58.3484 527.098 58.1893 527.098C57.9109 527.098 57.6424 527.037 57.3839 526.915C57.1282 526.793 56.918 526.611 56.7532 526.369C56.5884 526.128 56.506 525.828 56.506 525.47V518.886ZM62.9524 527.136C62.3416 527.136 61.8132 526.994 61.3672 526.71C60.9212 526.423 60.576 526.027 60.3317 525.521C60.0902 525.013 59.9695 524.428 59.9695 523.766C59.9695 523.107 60.0902 522.521 60.3317 522.01C60.576 521.496 60.9126 521.094 61.3416 520.804C61.7734 520.511 62.272 520.365 62.8374 520.365C63.1925 520.365 63.5348 520.43 63.8643 520.561C64.1939 520.689 64.4893 520.886 64.7507 521.153C65.0149 521.418 65.2237 521.751 65.3771 522.155C65.5305 522.555 65.6072 523.03 65.6072 523.578V523.953H60.4936V523.284H64.8317C64.8317 522.864 64.7464 522.486 64.576 522.151C64.4084 521.812 64.174 521.545 63.8729 521.349C63.5746 521.153 63.2294 521.055 62.8374 521.055C62.4226 521.055 62.0575 521.166 61.7422 521.388C61.4268 521.609 61.1797 521.902 61.0007 522.266C60.8246 522.629 60.7351 523.027 60.7322 523.459V523.859C60.7322 524.379 60.8217 524.834 61.0007 525.223C61.1825 525.609 61.4396 525.909 61.772 526.122C62.1044 526.335 62.4979 526.442 62.9524 526.442C63.2621 526.442 63.5334 526.393 63.7663 526.297C64.0021 526.2 64.1996 526.071 64.3587 525.909C64.5206 525.744 64.6428 525.564 64.7251 525.368L65.4453 525.602C65.3459 525.878 65.1825 526.132 64.9553 526.365C64.7308 526.598 64.4496 526.786 64.1115 526.928C63.7763 527.067 63.3899 527.136 62.9524 527.136ZM67.2788 527V520.455H68.016V521.46H68.0714C68.2021 521.131 68.4293 520.865 68.7532 520.663C69.0799 520.459 69.4492 520.357 69.8612 520.357C69.9237 520.357 69.9933 520.358 70.07 520.361C70.1467 520.364 70.2106 520.366 70.2617 520.369V521.141C70.2276 521.135 70.168 521.126 70.0827 521.115C69.9975 521.104 69.9052 521.098 69.8058 521.098C69.4648 521.098 69.1609 521.17 68.8938 521.315C68.6296 521.457 68.4208 521.655 68.2674 521.908C68.114 522.161 68.0373 522.449 68.0373 522.773V527H67.2788ZM75.4595 529.455C75.3089 529.455 75.1683 529.44 75.0376 529.412C74.907 529.384 74.8033 529.352 74.7266 529.318L74.9311 528.649C75.1896 528.729 75.4197 528.757 75.6214 528.734C75.8232 528.714 76.0021 528.624 76.1584 528.462C76.3146 528.303 76.4538 528.058 76.576 527.729L76.8146 527.064L74.407 520.455H75.2294L77.1726 525.999H77.2322L79.1754 520.455H79.9979L77.228 528.036C77.1115 528.351 76.968 528.614 76.7976 528.824C76.6271 529.037 76.4297 529.195 76.2053 529.297C75.9837 529.402 75.7351 529.455 75.4595 529.455ZM83.7915 527.136C83.2262 527.136 82.7262 526.993 82.2915 526.706C81.8597 526.419 81.5217 526.023 81.2773 525.517C81.033 525.009 80.9109 524.422 80.9109 523.757C80.9109 523.087 81.033 522.497 81.2773 521.989C81.5217 521.477 81.8597 521.08 82.2915 520.795C82.7262 520.509 83.2262 520.365 83.7915 520.365C84.3569 520.365 84.8555 520.509 85.2873 520.795C85.7191 521.082 86.0572 521.48 86.3015 521.989C86.5487 522.497 86.6722 523.087 86.6722 523.757C86.6722 524.422 86.5501 525.009 86.3058 525.517C86.0614 526.023 85.7219 526.419 85.2873 526.706C84.8555 526.993 84.3569 527.136 83.7915 527.136ZM83.7915 526.442C84.2461 526.442 84.631 526.32 84.9464 526.075C85.2617 525.831 85.5004 525.506 85.6623 525.099C85.8271 524.693 85.9094 524.246 85.9094 523.757C85.9094 523.268 85.8271 522.82 85.6623 522.411C85.5004 522.001 85.2617 521.673 84.9464 521.426C84.631 521.179 84.2461 521.055 83.7915 521.055C83.3398 521.055 82.9549 521.179 82.6367 521.426C82.3214 521.673 82.0813 522.001 81.9165 522.411C81.7546 522.82 81.6737 523.268 81.6737 523.757C81.6737 524.246 81.7546 524.693 81.9165 525.099C82.0813 525.506 82.3214 525.831 82.6367 526.075C82.9521 526.32 83.337 526.442 83.7915 526.442ZM92.4964 524.499V520.455H93.255V527H92.4964V525.913H92.4368C92.2834 526.249 92.0405 526.528 91.7081 526.753C91.3757 526.974 90.9695 527.085 90.4893 527.085C90.0717 527.085 89.701 526.994 89.3771 526.812C89.0533 526.628 88.799 526.358 88.6143 526.003C88.4297 525.648 88.3374 525.212 88.3374 524.695V520.455H89.0959V524.648C89.0959 525.159 89.2464 525.571 89.5476 525.884C89.8487 526.193 90.2351 526.348 90.7067 526.348C91.0021 526.348 91.2862 526.277 91.5589 526.135C91.8317 525.993 92.0561 525.786 92.2322 525.513C92.4084 525.237 92.4964 524.899 92.4964 524.499ZM95.2631 527V520.455H96.0004V521.46H96.0558C96.1864 521.131 96.4137 520.865 96.7376 520.663C97.0643 520.459 97.4336 520.357 97.8455 520.357C97.908 520.357 97.9776 520.358 98.0543 520.361C98.131 520.364 98.195 520.366 98.2461 520.369V521.141C98.212 521.135 98.1523 521.126 98.0671 521.115C97.9819 521.104 97.8896 521.098 97.7901 521.098C97.4492 521.098 97.1452 521.17 96.8782 521.315C96.614 521.457 96.4052 521.655 96.2518 521.908C96.0984 522.161 96.0217 522.449 96.0217 522.773V527H95.2631ZM103.073 527V518.273H105.89C106.509 518.273 107.026 518.392 107.441 518.631C107.859 518.866 108.173 519.188 108.383 519.594C108.596 520 108.702 520.457 108.702 520.966C108.702 521.474 108.597 521.933 108.387 522.342C108.177 522.749 107.864 523.071 107.45 523.31C107.035 523.545 106.519 523.663 105.903 523.663H103.687V522.947H105.881C106.339 522.947 106.718 522.862 107.019 522.692C107.32 522.518 107.545 522.283 107.692 521.984C107.843 521.686 107.918 521.347 107.918 520.966C107.918 520.585 107.843 520.246 107.692 519.947C107.545 519.649 107.319 519.415 107.015 519.244C106.714 519.074 106.332 518.989 105.869 518.989H103.87V527H103.073ZM112.244 527.149C111.849 527.149 111.488 527.072 111.161 526.919C110.835 526.763 110.575 526.538 110.381 526.246C110.188 525.95 110.092 525.592 110.092 525.172C110.092 524.848 110.153 524.575 110.275 524.354C110.397 524.132 110.57 523.95 110.795 523.808C111.019 523.666 111.285 523.554 111.592 523.472C111.898 523.389 112.237 523.325 112.606 523.28C112.972 523.234 113.282 523.195 113.535 523.161C113.79 523.126 113.985 523.072 114.119 522.999C114.252 522.925 114.319 522.805 114.319 522.641V522.487C114.319 522.041 114.185 521.69 113.918 521.435C113.654 521.176 113.273 521.047 112.776 521.047C112.305 521.047 111.92 521.151 111.621 521.358C111.326 521.565 111.119 521.81 110.999 522.091L110.279 521.831C110.427 521.473 110.631 521.187 110.893 520.974C111.154 520.759 111.447 520.604 111.771 520.51C112.094 520.413 112.423 520.365 112.755 520.365C113.005 520.365 113.265 520.398 113.535 520.463C113.808 520.528 114.06 520.642 114.293 520.804C114.526 520.963 114.715 521.186 114.86 521.473C115.005 521.757 115.077 522.118 115.077 522.555V527H114.319V525.964H114.272C114.181 526.158 114.046 526.345 113.867 526.527C113.688 526.709 113.464 526.858 113.194 526.974C112.924 527.091 112.607 527.149 112.244 527.149ZM112.346 526.455C112.749 526.455 113.099 526.365 113.394 526.186C113.69 526.007 113.917 525.77 114.076 525.474C114.238 525.176 114.319 524.848 114.319 524.49V523.544C114.262 523.598 114.167 523.646 114.033 523.689C113.903 523.732 113.751 523.77 113.577 523.804C113.407 523.835 113.237 523.862 113.066 523.885C112.896 523.908 112.742 523.928 112.606 523.945C112.237 523.99 111.921 524.061 111.66 524.158C111.398 524.254 111.198 524.388 111.059 524.558C110.92 524.726 110.85 524.942 110.85 525.206C110.85 525.604 110.992 525.912 111.276 526.131C111.56 526.347 111.917 526.455 112.346 526.455ZM121.493 521.891L120.798 522.087C120.73 521.891 120.634 521.713 120.509 521.554C120.384 521.395 120.22 521.268 120.018 521.175C119.82 521.081 119.572 521.034 119.277 521.034C118.834 521.034 118.47 521.139 118.186 521.349C117.902 521.56 117.76 521.831 117.76 522.163C117.76 522.445 117.857 522.673 118.05 522.849C118.246 523.023 118.547 523.161 118.953 523.263L119.942 523.506C120.49 523.639 120.901 523.851 121.173 524.141C121.449 524.43 121.587 524.794 121.587 525.232C121.587 525.601 121.484 525.929 121.28 526.216C121.075 526.503 120.79 526.729 120.423 526.893C120.06 527.055 119.638 527.136 119.158 527.136C118.518 527.136 117.991 526.993 117.577 526.706C117.162 526.416 116.896 525.999 116.78 525.453L117.509 525.274C117.602 525.663 117.786 525.957 118.058 526.156C118.334 526.355 118.696 526.455 119.145 526.455C119.648 526.455 120.05 526.342 120.351 526.118C120.652 525.891 120.803 525.607 120.803 525.266C120.803 525.001 120.714 524.78 120.538 524.601C120.362 524.419 120.095 524.286 119.737 524.2L118.668 523.945C118.099 523.808 117.679 523.592 117.406 523.297C117.134 523.001 116.997 522.635 116.997 522.197C116.997 521.837 117.095 521.52 117.291 521.247C117.487 520.972 117.757 520.756 118.101 520.599C118.445 520.443 118.837 520.365 119.277 520.365C119.876 520.365 120.355 520.501 120.713 520.774C121.074 521.044 121.334 521.416 121.493 521.891ZM127.645 521.891L126.951 522.087C126.882 521.891 126.786 521.713 126.661 521.554C126.536 521.395 126.373 521.268 126.171 521.175C125.972 521.081 125.725 521.034 125.429 521.034C124.986 521.034 124.623 521.139 124.338 521.349C124.054 521.56 123.912 521.831 123.912 522.163C123.912 522.445 124.009 522.673 124.202 522.849C124.398 523.023 124.699 523.161 125.105 523.263L126.094 523.506C126.642 523.639 127.053 523.851 127.326 524.141C127.601 524.43 127.739 524.794 127.739 525.232C127.739 525.601 127.637 525.929 127.432 526.216C127.228 526.503 126.942 526.729 126.576 526.893C126.212 527.055 125.79 527.136 125.31 527.136C124.671 527.136 124.144 526.993 123.729 526.706C123.314 526.416 123.049 525.999 122.932 525.453L123.661 525.274C123.755 525.663 123.938 525.957 124.211 526.156C124.486 526.355 124.848 526.455 125.297 526.455C125.8 526.455 126.202 526.342 126.503 526.118C126.804 525.891 126.955 525.607 126.955 525.266C126.955 525.001 126.867 524.78 126.691 524.601C126.515 524.419 126.248 524.286 125.89 524.2L124.82 523.945C124.252 523.808 123.831 523.592 123.559 523.297C123.286 523.001 123.15 522.635 123.15 522.197C123.15 521.837 123.248 521.52 123.444 521.247C123.64 520.972 123.909 520.756 124.253 520.599C124.597 520.443 124.989 520.365 125.429 520.365C126.029 520.365 126.507 520.501 126.865 520.774C127.226 521.044 127.486 521.416 127.645 521.891ZM130.853 527L128.876 520.455H129.677L131.228 525.854H131.283L132.83 520.455H133.636L135.17 525.841H135.229L136.781 520.455H137.582L135.604 527H134.82L133.269 521.635H133.188L131.637 527H130.853ZM141.377 527.136C140.812 527.136 140.312 526.993 139.877 526.706C139.446 526.419 139.108 526.023 138.863 525.517C138.619 525.009 138.497 524.422 138.497 523.757C138.497 523.087 138.619 522.497 138.863 521.989C139.108 521.477 139.446 521.08 139.877 520.795C140.312 520.509 140.812 520.365 141.377 520.365C141.943 520.365 142.441 520.509 142.873 520.795C143.305 521.082 143.643 521.48 143.887 521.989C144.135 522.497 144.258 523.087 144.258 523.757C144.258 524.422 144.136 525.009 143.892 525.517C143.647 526.023 143.308 526.419 142.873 526.706C142.441 526.993 141.943 527.136 141.377 527.136ZM141.377 526.442C141.832 526.442 142.217 526.32 142.532 526.075C142.848 525.831 143.086 525.506 143.248 525.099C143.413 524.693 143.495 524.246 143.495 523.757C143.495 523.268 143.413 522.82 143.248 522.411C143.086 522.001 142.848 521.673 142.532 521.426C142.217 521.179 141.832 521.055 141.377 521.055C140.926 521.055 140.541 521.179 140.223 521.426C139.907 521.673 139.667 522.001 139.502 522.411C139.341 522.82 139.26 523.268 139.26 523.757C139.26 524.246 139.341 524.693 139.502 525.099C139.667 525.506 139.907 525.831 140.223 526.075C140.538 526.32 140.923 526.442 141.377 526.442ZM145.923 527V520.455H146.661V521.46H146.716C146.847 521.131 147.074 520.865 147.398 520.663C147.724 520.459 148.094 520.357 148.506 520.357C148.568 520.357 148.638 520.358 148.714 520.361C148.791 520.364 148.855 520.366 148.906 520.369V521.141C148.872 521.135 148.813 521.126 148.727 521.115C148.642 521.104 148.55 521.098 148.45 521.098C148.109 521.098 147.805 521.17 147.538 521.315C147.274 521.457 147.065 521.655 146.912 521.908C146.759 522.161 146.682 522.449 146.682 522.773V527H145.923ZM152.358 527.136C151.821 527.136 151.351 526.994 150.947 526.71C150.544 526.426 150.229 526.03 150.001 525.521C149.777 525.013 149.665 524.42 149.665 523.744C149.665 523.071 149.777 522.482 150.001 521.976C150.229 521.467 150.545 521.072 150.952 520.791C151.358 520.507 151.831 520.365 152.371 520.365C152.768 520.365 153.099 520.436 153.364 520.578C153.628 520.717 153.839 520.891 153.999 521.098C154.158 521.305 154.281 521.507 154.369 521.703H154.438V518.273H155.2V527H154.459V525.786H154.369C154.281 525.984 154.156 526.189 153.994 526.399C153.832 526.607 153.618 526.781 153.351 526.923C153.087 527.065 152.756 527.136 152.358 527.136ZM152.447 526.442C152.871 526.442 153.232 526.327 153.53 526.097C153.828 525.864 154.055 525.544 154.212 525.138C154.371 524.729 154.45 524.26 154.45 523.732C154.45 523.209 154.372 522.747 154.216 522.347C154.06 521.943 153.832 521.628 153.534 521.401C153.236 521.17 152.874 521.055 152.447 521.055C152.01 521.055 151.641 521.175 151.339 521.413C151.041 521.649 150.814 521.969 150.658 522.372C150.504 522.776 150.428 523.229 150.428 523.732C150.428 524.24 150.506 524.699 150.662 525.108C150.818 525.517 151.045 525.842 151.344 526.084C151.645 526.322 152.013 526.442 152.447 526.442Z" fill="white"/>
<rect x="41" y="540" width="308" height="50" rx="10" fill="white"/>
<rect x="41" y="722" width="308" height="50" rx="10" fill="#B86E13"/>
<path d="M170.773 745H169.364C169.28 744.595 169.134 744.239 168.926 743.932C168.722 743.625 168.472 743.367 168.176 743.159C167.884 742.947 167.561 742.788 167.205 742.682C166.848 742.576 166.477 742.523 166.091 742.523C165.386 742.523 164.748 742.701 164.176 743.057C163.608 743.413 163.155 743.938 162.818 744.631C162.485 745.324 162.318 746.174 162.318 747.182C162.318 748.189 162.485 749.04 162.818 749.733C163.155 750.426 163.608 750.951 164.176 751.307C164.748 751.663 165.386 751.841 166.091 751.841C166.477 751.841 166.848 751.788 167.205 751.682C167.561 751.576 167.884 751.419 168.176 751.21C168.472 750.998 168.722 750.739 168.926 750.432C169.134 750.121 169.28 749.765 169.364 749.364H170.773C170.667 749.958 170.473 750.491 170.193 750.96C169.913 751.43 169.564 751.83 169.148 752.159C168.731 752.485 168.263 752.733 167.744 752.903C167.229 753.074 166.678 753.159 166.091 753.159C165.098 753.159 164.216 752.917 163.443 752.432C162.67 751.947 162.063 751.258 161.619 750.364C161.176 749.47 160.955 748.409 160.955 747.182C160.955 745.955 161.176 744.894 161.619 744C162.063 743.106 162.67 742.417 163.443 741.932C164.216 741.447 165.098 741.205 166.091 741.205C166.678 741.205 167.229 741.29 167.744 741.46C168.263 741.631 168.731 741.881 169.148 742.21C169.564 742.536 169.913 742.934 170.193 743.403C170.473 743.869 170.667 744.402 170.773 745ZM176.413 753.182C175.625 753.182 174.934 752.994 174.339 752.619C173.749 752.244 173.286 751.72 172.953 751.045C172.624 750.371 172.459 749.583 172.459 748.682C172.459 747.773 172.624 746.979 172.953 746.301C173.286 745.623 173.749 745.097 174.339 744.722C174.934 744.347 175.625 744.159 176.413 744.159C177.201 744.159 177.891 744.347 178.482 744.722C179.076 745.097 179.538 745.623 179.868 746.301C180.201 746.979 180.368 747.773 180.368 748.682C180.368 749.583 180.201 750.371 179.868 751.045C179.538 751.72 179.076 752.244 178.482 752.619C177.891 752.994 177.201 753.182 176.413 753.182ZM176.413 751.977C177.012 751.977 177.504 751.824 177.891 751.517C178.277 751.21 178.563 750.807 178.749 750.307C178.934 749.807 179.027 749.265 179.027 748.682C179.027 748.098 178.934 747.555 178.749 747.051C178.563 746.547 178.277 746.14 177.891 745.83C177.504 745.519 177.012 745.364 176.413 745.364C175.815 745.364 175.322 745.519 174.936 745.83C174.55 746.14 174.264 746.547 174.078 747.051C173.893 747.555 173.8 748.098 173.8 748.682C173.8 749.265 173.893 749.807 174.078 750.307C174.264 750.807 174.55 751.21 174.936 751.517C175.322 751.824 175.815 751.977 176.413 751.977ZM183.756 747.75V753H182.415V744.273H183.71V745.636H183.824C184.028 745.193 184.339 744.837 184.756 744.568C185.172 744.295 185.71 744.159 186.369 744.159C186.96 744.159 187.477 744.28 187.92 744.523C188.364 744.761 188.708 745.125 188.955 745.614C189.201 746.098 189.324 746.712 189.324 747.455V753H187.983V747.545C187.983 746.86 187.805 746.326 187.449 745.943C187.093 745.557 186.604 745.364 185.983 745.364C185.555 745.364 185.172 745.456 184.835 745.642C184.502 745.828 184.239 746.098 184.045 746.455C183.852 746.811 183.756 747.242 183.756 747.75ZM195.57 744.273V745.409H191.047V744.273H195.57ZM192.365 742.182H193.706V750.5C193.706 750.879 193.761 751.163 193.871 751.352C193.984 751.538 194.128 751.663 194.303 751.727C194.481 751.788 194.668 751.818 194.865 751.818C195.013 751.818 195.134 751.811 195.229 751.795C195.323 751.777 195.399 751.761 195.456 751.75L195.729 752.955C195.638 752.989 195.511 753.023 195.348 753.057C195.185 753.095 194.979 753.114 194.729 753.114C194.35 753.114 193.979 753.032 193.615 752.869C193.255 752.706 192.956 752.458 192.717 752.125C192.482 751.792 192.365 751.371 192.365 750.864V742.182ZM197.587 753V744.273H198.928V753H197.587ZM198.268 742.818C198.007 742.818 197.782 742.729 197.592 742.551C197.407 742.373 197.314 742.159 197.314 741.909C197.314 741.659 197.407 741.445 197.592 741.267C197.782 741.089 198.007 741 198.268 741C198.53 741 198.753 741.089 198.939 741.267C199.128 741.445 199.223 741.659 199.223 741.909C199.223 742.159 199.128 742.373 198.939 742.551C198.753 742.729 198.53 742.818 198.268 742.818ZM202.724 747.75V753H201.384V744.273H202.679V745.636H202.793C202.997 745.193 203.308 744.837 203.724 744.568C204.141 744.295 204.679 744.159 205.338 744.159C205.929 744.159 206.446 744.28 206.889 744.523C207.332 744.761 207.677 745.125 207.923 745.614C208.17 746.098 208.293 746.712 208.293 747.455V753H206.952V747.545C206.952 746.86 206.774 746.326 206.418 745.943C206.062 745.557 205.573 745.364 204.952 745.364C204.524 745.364 204.141 745.456 203.804 745.642C203.471 745.828 203.207 746.098 203.014 746.455C202.821 746.811 202.724 747.242 202.724 747.75ZM216.243 749.432V744.273H217.584V753H216.243V751.523H216.152C215.947 751.966 215.629 752.343 215.197 752.653C214.766 752.96 214.22 753.114 213.561 753.114C213.016 753.114 212.531 752.994 212.107 752.756C211.682 752.513 211.349 752.15 211.107 751.665C210.864 751.176 210.743 750.561 210.743 749.818V744.273H212.084V749.727C212.084 750.364 212.262 750.871 212.618 751.25C212.978 751.629 213.436 751.818 213.993 751.818C214.326 751.818 214.665 751.733 215.01 751.562C215.358 751.392 215.65 751.131 215.885 750.778C216.124 750.426 216.243 749.977 216.243 749.432ZM223.699 753.182C222.858 753.182 222.133 752.996 221.523 752.625C220.917 752.25 220.449 751.727 220.119 751.057C219.794 750.383 219.631 749.598 219.631 748.705C219.631 747.811 219.794 747.023 220.119 746.341C220.449 745.655 220.907 745.121 221.494 744.739C222.085 744.352 222.775 744.159 223.562 744.159C224.017 744.159 224.466 744.235 224.909 744.386C225.352 744.538 225.756 744.784 226.119 745.125C226.483 745.462 226.773 745.909 226.989 746.466C227.205 747.023 227.312 747.708 227.312 748.523V749.091H220.585V747.932H225.949C225.949 747.439 225.85 747 225.653 746.614C225.46 746.227 225.184 745.922 224.824 745.699C224.468 745.475 224.047 745.364 223.562 745.364C223.028 745.364 222.566 745.496 222.176 745.761C221.79 746.023 221.492 746.364 221.284 746.784C221.076 747.205 220.972 747.655 220.972 748.136V748.909C220.972 749.568 221.085 750.127 221.312 750.585C221.544 751.04 221.864 751.386 222.273 751.625C222.682 751.86 223.157 751.977 223.699 751.977C224.051 751.977 224.369 751.928 224.653 751.83C224.941 751.727 225.189 751.576 225.398 751.375C225.606 751.17 225.767 750.917 225.881 750.614L227.176 750.977C227.04 751.417 226.811 751.803 226.489 752.136C226.167 752.466 225.769 752.723 225.295 752.909C224.822 753.091 224.29 753.182 223.699 753.182Z" fill="black"/>
<rect x="18" y="57" width="24" height="21" fill="black"/>
<path d="M20.2929 67.2929C19.9024 67.6834 19.9024 68.3166 20.2929 68.7071L26.6569 75.0711C27.0474 75.4616 27.6805 75.4616 28.0711 75.0711C28.4616 74.6805 28.4616 74.0474 28.0711 73.6569L22.4142 68L28.0711 62.3431C28.4616 61.9526 28.4616 61.3195 28.0711 60.9289C27.6805 60.5384 27.0474 60.5384 26.6569 60.9289L20.2929 67.2929ZM39 68V67H21V68V69H39V68Z" fill="white"/>
</svg>
