<svg width="390" height="844" viewBox="0 0 390 844" fill="none" xmlns="http://www.w3.org/2000/svg">
<rect width="390" height="844" fill="black"/>
<path d="M25.6548 130V99.4545H45.8793V104.779H32.1129V112.058H44.5369V117.382H32.1129V130H25.6548ZM58.7731 130.447C56.4563 130.447 54.4528 129.955 52.7624 128.971C51.082 127.977 49.7844 126.594 48.8697 124.825C47.9549 123.045 47.4975 120.982 47.4975 118.635C47.4975 116.268 47.9549 114.2 48.8697 112.43C49.7844 110.651 51.082 109.268 52.7624 108.284C54.4528 107.29 56.4563 106.793 58.7731 106.793C61.0898 106.793 63.0884 107.29 64.7688 108.284C66.4592 109.268 67.7617 110.651 68.6765 112.43C69.5913 114.2 70.0487 116.268 70.0487 118.635C70.0487 120.982 69.5913 123.045 68.6765 124.825C67.7617 126.594 66.4592 127.977 64.7688 128.971C63.0884 129.955 61.0898 130.447 58.7731 130.447ZM58.8029 125.526C59.8569 125.526 60.7369 125.227 61.4428 124.631C62.1488 124.024 62.6808 123.199 63.0387 122.155C63.4066 121.111 63.5906 119.923 63.5906 118.59C63.5906 117.258 63.4066 116.07 63.0387 115.026C62.6808 113.982 62.1488 113.156 61.4428 112.55C60.7369 111.943 59.8569 111.64 58.8029 111.64C57.739 111.64 56.8441 111.943 56.1183 112.55C55.4023 113.156 54.8604 113.982 54.4925 115.026C54.1346 116.07 53.9556 117.258 53.9556 118.59C53.9556 119.923 54.1346 121.111 54.4925 122.155C54.8604 123.199 55.4023 124.024 56.1183 124.631C56.8441 125.227 57.739 125.526 58.8029 125.526ZM74.18 130V107.091H80.3398V111.088H80.5785C80.9961 109.666 81.6971 108.592 82.6815 107.866C83.6658 107.131 84.7994 106.763 86.082 106.763C86.4002 106.763 86.7433 106.783 87.1112 106.822C87.479 106.862 87.8022 106.917 88.0806 106.987V112.624C87.7823 112.535 87.3697 112.455 86.8427 112.386C86.3157 112.316 85.8335 112.281 85.396 112.281C84.4613 112.281 83.6261 112.485 82.8903 112.893C82.1644 113.29 81.5877 113.847 81.1602 114.563C80.7425 115.279 80.5337 116.104 80.5337 117.039V130H74.18ZM100.62 139.068C98.562 139.068 96.7971 138.785 95.3255 138.218C93.8638 137.661 92.7005 136.901 91.8354 135.936C90.9703 134.972 90.4086 133.888 90.15 132.685L96.0265 131.894C96.2054 132.352 96.4888 132.779 96.8766 133.177C97.2644 133.575 97.7765 133.893 98.4128 134.131C99.0591 134.38 99.8446 134.504 100.769 134.504C102.151 134.504 103.29 134.166 104.185 133.49C105.09 132.824 105.542 131.705 105.542 130.134V125.943H105.274C104.995 126.58 104.578 127.181 104.021 127.748C103.464 128.315 102.748 128.777 101.873 129.135C100.998 129.493 99.954 129.672 98.7409 129.672C97.0208 129.672 95.4547 129.274 94.0428 128.479C92.6408 127.673 91.5222 126.445 90.687 124.795C89.8617 123.134 89.449 121.036 89.449 118.501C89.449 115.906 89.8716 113.738 90.7168 111.998C91.562 110.258 92.6855 108.955 94.0875 108.09C95.4995 107.225 97.0456 106.793 98.726 106.793C100.009 106.793 101.083 107.011 101.948 107.449C102.813 107.876 103.509 108.413 104.036 109.06C104.573 109.696 104.985 110.322 105.274 110.939H105.512V107.091H111.821V130.224C111.821 132.173 111.344 133.803 110.389 135.116C109.435 136.428 108.112 137.413 106.422 138.069C104.742 138.735 102.808 139.068 100.62 139.068ZM100.754 124.899C101.779 124.899 102.644 124.646 103.35 124.138C104.066 123.621 104.612 122.886 104.99 121.931C105.378 120.967 105.572 119.813 105.572 118.471C105.572 117.129 105.383 115.965 105.005 114.981C104.627 113.987 104.08 113.216 103.365 112.669C102.649 112.122 101.779 111.849 100.754 111.849C99.7104 111.849 98.8304 112.132 98.1145 112.699C97.3986 113.256 96.8567 114.031 96.4888 115.026C96.1209 116.02 95.937 117.168 95.937 118.471C95.937 119.793 96.1209 120.937 96.4888 121.901C96.8667 122.856 97.4086 123.597 98.1145 124.124C98.8304 124.641 99.7104 124.899 100.754 124.899ZM127.318 130.447C124.961 130.447 122.933 129.97 121.232 129.016C119.542 128.051 118.24 126.689 117.325 124.929C116.41 123.159 115.953 121.066 115.953 118.65C115.953 116.293 116.41 114.225 117.325 112.445C118.24 110.665 119.527 109.278 121.188 108.284C122.858 107.29 124.817 106.793 127.064 106.793C128.575 106.793 129.982 107.036 131.285 107.523C132.597 108.001 133.741 108.722 134.715 109.686C135.7 110.651 136.465 111.864 137.012 113.325C137.559 114.777 137.833 116.477 137.833 118.426V120.171H118.488V116.234H131.852C131.852 115.319 131.653 114.509 131.255 113.803C130.857 113.097 130.306 112.545 129.6 112.147C128.904 111.739 128.093 111.536 127.169 111.536C126.204 111.536 125.349 111.759 124.603 112.207C123.867 112.644 123.291 113.236 122.873 113.982C122.455 114.717 122.242 115.538 122.232 116.442V120.186C122.232 121.32 122.441 122.299 122.858 123.124C123.286 123.95 123.887 124.586 124.663 125.033C125.438 125.481 126.358 125.705 127.422 125.705C128.128 125.705 128.774 125.605 129.361 125.406C129.948 125.207 130.45 124.909 130.867 124.511C131.285 124.114 131.603 123.626 131.822 123.05L137.698 123.438C137.4 124.849 136.789 126.082 135.864 127.136C134.949 128.18 133.766 128.996 132.314 129.582C130.872 130.159 129.207 130.447 127.318 130.447ZM154.164 107.091V111.864H140.368V107.091H154.164ZM143.5 101.602H149.854V122.96C149.854 123.547 149.943 124.004 150.122 124.332C150.301 124.651 150.55 124.874 150.868 125.004C151.196 125.133 151.574 125.197 152.002 125.197C152.3 125.197 152.598 125.173 152.896 125.123C153.195 125.063 153.423 125.018 153.583 124.989L154.582 129.717C154.264 129.816 153.816 129.93 153.24 130.06C152.663 130.199 151.962 130.283 151.137 130.313C149.605 130.373 148.263 130.169 147.11 129.702C145.966 129.234 145.076 128.509 144.44 127.524C143.803 126.54 143.49 125.297 143.5 123.795V101.602ZM168.143 130V99.4545H180.194C182.511 99.4545 184.485 99.897 186.115 100.782C187.746 101.657 188.989 102.875 189.844 104.436C190.709 105.987 191.142 107.777 191.142 109.805C191.142 111.834 190.704 113.624 189.829 115.175C188.954 116.726 187.686 117.934 186.026 118.799C184.375 119.664 182.377 120.097 180.03 120.097H172.349V114.921H178.986C180.229 114.921 181.253 114.707 182.059 114.28C182.874 113.842 183.48 113.241 183.878 112.475C184.286 111.7 184.49 110.81 184.49 109.805C184.49 108.791 184.286 107.906 183.878 107.151C183.48 106.385 182.874 105.793 182.059 105.376C181.243 104.948 180.209 104.734 178.956 104.734H174.601V130H168.143ZM201.135 130.433C199.673 130.433 198.37 130.179 197.227 129.672C196.083 129.155 195.179 128.394 194.512 127.39C193.856 126.376 193.528 125.113 193.528 123.602C193.528 122.329 193.762 121.26 194.229 120.395C194.696 119.53 195.333 118.834 196.138 118.307C196.944 117.78 197.858 117.382 198.882 117.114C199.917 116.845 201 116.656 202.134 116.547C203.466 116.408 204.54 116.278 205.355 116.159C206.171 116.03 206.762 115.841 207.13 115.592C207.498 115.344 207.682 114.976 207.682 114.489V114.399C207.682 113.455 207.384 112.724 206.787 112.207C206.201 111.69 205.365 111.431 204.282 111.431C203.138 111.431 202.228 111.685 201.552 112.192C200.876 112.689 200.429 113.315 200.21 114.071L194.333 113.594C194.632 112.202 195.218 110.999 196.093 109.984C196.968 108.96 198.097 108.175 199.479 107.628C200.871 107.071 202.482 106.793 204.311 106.793C205.584 106.793 206.802 106.942 207.966 107.24C209.139 107.538 210.178 108.001 211.083 108.627C211.998 109.254 212.718 110.059 213.245 111.043C213.772 112.018 214.036 113.186 214.036 114.548V130H208.01V126.823H207.831C207.463 127.539 206.971 128.17 206.355 128.717C205.738 129.254 204.998 129.677 204.132 129.985C203.267 130.283 202.268 130.433 201.135 130.433ZM202.954 126.048C203.889 126.048 204.714 125.864 205.43 125.496C206.146 125.118 206.708 124.611 207.115 123.974C207.523 123.338 207.727 122.617 207.727 121.812V119.381C207.528 119.51 207.255 119.629 206.907 119.739C206.569 119.838 206.186 119.933 205.758 120.022C205.331 120.102 204.903 120.176 204.475 120.246C204.048 120.305 203.66 120.36 203.312 120.41C202.566 120.519 201.915 120.693 201.358 120.932C200.801 121.17 200.369 121.494 200.061 121.901C199.752 122.299 199.598 122.796 199.598 123.393C199.598 124.258 199.912 124.919 200.538 125.376C201.174 125.824 201.98 126.048 202.954 126.048ZM238.026 113.624L232.21 113.982C232.11 113.484 231.896 113.037 231.568 112.639C231.24 112.232 230.808 111.908 230.271 111.67C229.744 111.421 229.112 111.297 228.376 111.297C227.392 111.297 226.562 111.506 225.886 111.923C225.21 112.331 224.871 112.878 224.871 113.564C224.871 114.111 225.09 114.573 225.528 114.951C225.965 115.329 226.716 115.632 227.78 115.861L231.926 116.696C234.153 117.153 235.814 117.889 236.908 118.903C238.001 119.918 238.548 121.25 238.548 122.901C238.548 124.402 238.106 125.719 237.221 126.853C236.346 127.987 235.143 128.871 233.612 129.508C232.09 130.134 230.335 130.447 228.347 130.447C225.314 130.447 222.898 129.816 221.098 128.553C219.308 127.281 218.259 125.55 217.951 123.363L224.2 123.035C224.389 123.96 224.847 124.665 225.572 125.153C226.298 125.63 227.228 125.869 228.362 125.869C229.475 125.869 230.37 125.655 231.046 125.227C231.732 124.79 232.08 124.228 232.09 123.542C232.08 122.965 231.837 122.493 231.359 122.125C230.882 121.747 230.146 121.459 229.152 121.26L225.185 120.469C222.947 120.022 221.282 119.246 220.188 118.143C219.104 117.039 218.562 115.632 218.562 113.922C218.562 112.45 218.96 111.183 219.756 110.119C220.561 109.055 221.69 108.234 223.141 107.658C224.603 107.081 226.313 106.793 228.272 106.793C231.165 106.793 233.442 107.404 235.103 108.627C236.773 109.85 237.748 111.516 238.026 113.624ZM261.61 113.624L255.794 113.982C255.694 113.484 255.48 113.037 255.152 112.639C254.824 112.232 254.392 111.908 253.855 111.67C253.328 111.421 252.696 111.297 251.96 111.297C250.976 111.297 250.146 111.506 249.47 111.923C248.794 112.331 248.455 112.878 248.455 113.564C248.455 114.111 248.674 114.573 249.112 114.951C249.549 115.329 250.3 115.632 251.364 115.861L255.51 116.696C257.737 117.153 259.398 117.889 260.492 118.903C261.585 119.918 262.132 121.25 262.132 122.901C262.132 124.402 261.69 125.719 260.805 126.853C259.93 127.987 258.727 128.871 257.195 129.508C255.674 130.134 253.919 130.447 251.931 130.447C248.898 130.447 246.482 129.816 244.682 128.553C242.892 127.281 241.843 125.55 241.535 123.363L247.784 123.035C247.973 123.96 248.431 124.665 249.156 125.153C249.882 125.63 250.812 125.869 251.945 125.869C253.059 125.869 253.954 125.655 254.63 125.227C255.316 124.79 255.664 124.228 255.674 123.542C255.664 122.965 255.421 122.493 254.943 122.125C254.466 121.747 253.73 121.459 252.736 121.26L248.769 120.469C246.531 120.022 244.866 119.246 243.772 118.143C242.688 117.039 242.146 115.632 242.146 113.922C242.146 112.45 242.544 111.183 243.34 110.119C244.145 109.055 245.274 108.234 246.725 107.658C248.187 107.081 249.897 106.793 251.856 106.793C254.749 106.793 257.026 107.404 258.687 108.627C260.357 109.85 261.332 111.516 261.61 113.624ZM270.652 130L264.418 107.091H270.846L274.396 122.483H274.605L278.304 107.091H284.613L288.371 122.393H288.565L292.055 107.091H298.468L292.249 130H285.522L281.585 115.592H281.301L277.364 130H270.652ZM311.634 130.447C309.318 130.447 307.314 129.955 305.624 128.971C303.943 127.977 302.646 126.594 301.731 124.825C300.816 123.045 300.359 120.982 300.359 118.635C300.359 116.268 300.816 114.2 301.731 112.43C302.646 110.651 303.943 109.268 305.624 108.284C307.314 107.29 309.318 106.793 311.634 106.793C313.951 106.793 315.95 107.29 317.63 108.284C319.32 109.268 320.623 110.651 321.538 112.43C322.453 114.2 322.91 116.268 322.91 118.635C322.91 120.982 322.453 123.045 321.538 124.825C320.623 126.594 319.32 127.977 317.63 128.971C315.95 129.955 313.951 130.447 311.634 130.447ZM311.664 125.526C312.718 125.526 313.598 125.227 314.304 124.631C315.01 124.024 315.542 123.199 315.9 122.155C316.268 121.111 316.452 119.923 316.452 118.59C316.452 117.258 316.268 116.07 315.9 115.026C315.542 113.982 315.01 113.156 314.304 112.55C313.598 111.943 312.718 111.64 311.664 111.64C310.6 111.64 309.705 111.943 308.98 112.55C308.264 113.156 307.722 113.982 307.354 115.026C306.996 116.07 306.817 117.258 306.817 118.59C306.817 119.923 306.996 121.111 307.354 122.155C307.722 123.199 308.264 124.024 308.98 124.631C309.705 125.227 310.6 125.526 311.664 125.526ZM327.041 130V107.091H333.201V111.088H333.44C333.857 109.666 334.558 108.592 335.543 107.866C336.527 107.131 337.661 106.763 338.943 106.763C339.262 106.763 339.605 106.783 339.972 106.822C340.34 106.862 340.664 106.917 340.942 106.987V112.624C340.644 112.535 340.231 112.455 339.704 112.386C339.177 112.316 338.695 112.281 338.257 112.281C337.323 112.281 336.487 112.485 335.752 112.893C335.026 113.29 334.449 113.847 334.021 114.563C333.604 115.279 333.395 116.104 333.395 117.039V130H327.041ZM351.602 130.373C349.862 130.373 348.286 129.925 346.874 129.031C345.472 128.126 344.359 126.798 343.533 125.048C342.718 123.288 342.31 121.131 342.31 118.575C342.31 115.95 342.733 113.768 343.578 112.028C344.423 110.278 345.547 108.97 346.949 108.105C348.361 107.23 349.907 106.793 351.587 106.793C352.87 106.793 353.939 107.011 354.794 107.449C355.659 107.876 356.355 108.413 356.882 109.06C357.419 109.696 357.827 110.322 358.105 110.939H358.299V99.4545H364.638V130H358.374V126.331H358.105C357.807 126.967 357.384 127.599 356.837 128.225C356.3 128.842 355.599 129.354 354.734 129.761C353.879 130.169 352.835 130.373 351.602 130.373ZM353.616 125.317C354.64 125.317 355.505 125.038 356.211 124.482C356.927 123.915 357.474 123.124 357.852 122.11C358.239 121.096 358.433 119.908 358.433 118.545C358.433 117.183 358.244 116 357.866 114.996C357.489 113.991 356.942 113.216 356.226 112.669C355.51 112.122 354.64 111.849 353.616 111.849C352.572 111.849 351.692 112.132 350.976 112.699C350.26 113.266 349.718 114.051 349.35 115.055C348.982 116.06 348.798 117.223 348.798 118.545C348.798 119.878 348.982 121.056 349.35 122.08C349.728 123.094 350.27 123.89 350.976 124.467C351.692 125.033 352.572 125.317 353.616 125.317Z" fill="#B86E13"/>
<rect x="41" y="195" width="308" height="50" rx="10" fill="white"/>
<path d="M94.8636 223.182C94.0492 223.182 93.3447 222.992 92.75 222.614C92.1553 222.231 91.6951 221.703 91.3693 221.028C91.0473 220.35 90.8864 219.57 90.8864 218.688C90.8864 217.809 91.0473 217.028 91.3693 216.347C91.6951 215.661 92.1439 215.125 92.7159 214.739C93.2917 214.348 93.9564 214.153 94.7102 214.153C95.1837 214.153 95.6402 214.241 96.0795 214.415C96.5189 214.585 96.9129 214.848 97.2614 215.205C97.6136 215.557 97.892 216.002 98.0966 216.54C98.3011 217.074 98.4034 217.706 98.4034 218.438V218.938H91.5852V218.045H97.3693C97.3693 217.485 97.2557 216.981 97.0284 216.534C96.8049 216.083 96.4924 215.727 96.0909 215.466C95.6932 215.205 95.233 215.074 94.7102 215.074C94.1572 215.074 93.6705 215.222 93.25 215.517C92.8295 215.812 92.5 216.203 92.2614 216.688C92.0265 217.172 91.9072 217.703 91.9034 218.278V218.812C91.9034 219.506 92.0227 220.112 92.2614 220.631C92.5038 221.146 92.8466 221.545 93.2898 221.83C93.733 222.114 94.2576 222.256 94.8636 222.256C95.2765 222.256 95.6383 222.191 95.9489 222.062C96.2633 221.934 96.5265 221.761 96.7386 221.545C96.9545 221.326 97.1174 221.085 97.2273 220.824L98.1875 221.136C98.0549 221.504 97.8371 221.843 97.5341 222.153C97.2348 222.464 96.8598 222.714 96.4091 222.903C95.9621 223.089 95.447 223.182 94.8636 223.182ZM101.643 217.545V223H100.632V214.273H101.615V215.642H101.706C101.911 215.195 102.229 214.837 102.661 214.568C103.096 214.295 103.634 214.159 104.274 214.159C104.861 214.159 105.376 214.282 105.82 214.528C106.267 214.771 106.613 215.129 106.859 215.602C107.109 216.076 107.234 216.657 107.234 217.347V223H106.223V217.409C106.223 216.693 106.022 216.127 105.621 215.71C105.223 215.294 104.689 215.085 104.018 215.085C103.56 215.085 103.153 215.184 102.797 215.381C102.441 215.578 102.159 215.862 101.95 216.233C101.746 216.6 101.643 217.038 101.643 217.545ZM113.335 214.273V215.153H109.17V214.273H113.335ZM110.472 212.182H111.489V220.722C111.489 221.085 111.551 221.371 111.676 221.58C111.801 221.784 111.964 221.93 112.165 222.017C112.366 222.1 112.58 222.142 112.807 222.142C112.939 222.142 113.053 222.134 113.148 222.119C113.242 222.1 113.326 222.081 113.398 222.062L113.614 222.977C113.515 223.015 113.394 223.049 113.25 223.08C113.106 223.114 112.928 223.131 112.716 223.131C112.345 223.131 111.987 223.049 111.642 222.886C111.301 222.723 111.021 222.481 110.801 222.159C110.581 221.837 110.472 221.438 110.472 220.96V212.182ZM119.067 223.182C118.252 223.182 117.548 222.992 116.953 222.614C116.358 222.231 115.898 221.703 115.572 221.028C115.25 220.35 115.089 219.57 115.089 218.688C115.089 217.809 115.25 217.028 115.572 216.347C115.898 215.661 116.347 215.125 116.919 214.739C117.495 214.348 118.16 214.153 118.913 214.153C119.387 214.153 119.843 214.241 120.283 214.415C120.722 214.585 121.116 214.848 121.464 215.205C121.817 215.557 122.095 216.002 122.3 216.54C122.504 217.074 122.607 217.706 122.607 218.438V218.938H115.788V218.045H121.572C121.572 217.485 121.459 216.981 121.232 216.534C121.008 216.083 120.696 215.727 120.294 215.466C119.896 215.205 119.436 215.074 118.913 215.074C118.36 215.074 117.874 215.222 117.453 215.517C117.033 215.812 116.703 216.203 116.464 216.688C116.23 217.172 116.11 217.703 116.107 218.278V218.812C116.107 219.506 116.226 220.112 116.464 220.631C116.707 221.146 117.05 221.545 117.493 221.83C117.936 222.114 118.461 222.256 119.067 222.256C119.48 222.256 119.841 222.191 120.152 222.062C120.466 221.934 120.73 221.761 120.942 221.545C121.158 221.326 121.321 221.085 121.43 220.824L122.391 221.136C122.258 221.504 122.04 221.843 121.737 222.153C121.438 222.464 121.063 222.714 120.612 222.903C120.165 223.089 119.65 223.182 119.067 223.182ZM124.835 223V214.273H125.818V215.614H125.892C126.066 215.174 126.369 214.82 126.801 214.551C127.237 214.278 127.729 214.142 128.278 214.142C128.362 214.142 128.455 214.144 128.557 214.148C128.659 214.152 128.744 214.155 128.812 214.159V215.188C128.767 215.18 128.688 215.169 128.574 215.153C128.46 215.138 128.337 215.131 128.205 215.131C127.75 215.131 127.345 215.227 126.989 215.42C126.636 215.61 126.358 215.873 126.153 216.21C125.949 216.547 125.847 216.932 125.847 217.364V223H124.835ZM135.743 226.273C135.542 226.273 135.355 226.254 135.18 226.216C135.006 226.178 134.868 226.136 134.766 226.091L135.038 225.199C135.383 225.305 135.69 225.343 135.959 225.312C136.228 225.286 136.466 225.165 136.675 224.949C136.883 224.737 137.069 224.411 137.232 223.972L137.55 223.085L134.339 214.273H135.436L138.027 221.665H138.107L140.697 214.273H141.794L138.101 224.381C137.946 224.801 137.754 225.152 137.527 225.432C137.3 225.716 137.036 225.926 136.737 226.062C136.442 226.203 136.11 226.273 135.743 226.273ZM146.852 223.182C146.098 223.182 145.432 222.991 144.852 222.608C144.277 222.225 143.826 221.697 143.5 221.023C143.174 220.345 143.011 219.562 143.011 218.676C143.011 217.782 143.174 216.996 143.5 216.318C143.826 215.636 144.277 215.106 144.852 214.727C145.432 214.345 146.098 214.153 146.852 214.153C147.606 214.153 148.271 214.345 148.847 214.727C149.422 215.11 149.873 215.64 150.199 216.318C150.528 216.996 150.693 217.782 150.693 218.676C150.693 219.562 150.53 220.345 150.205 221.023C149.879 221.697 149.426 222.225 148.847 222.608C148.271 222.991 147.606 223.182 146.852 223.182ZM146.852 222.256C147.458 222.256 147.972 222.093 148.392 221.767C148.813 221.441 149.131 221.008 149.347 220.466C149.566 219.924 149.676 219.328 149.676 218.676C149.676 218.025 149.566 217.426 149.347 216.881C149.131 216.335 148.813 215.898 148.392 215.568C147.972 215.239 147.458 215.074 146.852 215.074C146.25 215.074 145.737 215.239 145.312 215.568C144.892 215.898 144.572 216.335 144.352 216.881C144.136 217.426 144.028 218.025 144.028 218.676C144.028 219.328 144.136 219.924 144.352 220.466C144.572 221.008 144.892 221.441 145.312 221.767C145.733 222.093 146.246 222.256 146.852 222.256ZM158.459 219.665V214.273H159.47V223H158.459V221.551H158.379C158.175 221.998 157.851 222.371 157.408 222.67C156.964 222.966 156.423 223.114 155.783 223.114C155.226 223.114 154.732 222.992 154.3 222.75C153.868 222.504 153.529 222.144 153.283 221.67C153.036 221.197 152.913 220.616 152.913 219.926V214.273H153.925V219.864C153.925 220.545 154.125 221.095 154.527 221.511C154.929 221.924 155.444 222.131 156.072 222.131C156.466 222.131 156.845 222.036 157.209 221.847C157.572 221.657 157.872 221.381 158.107 221.017C158.341 220.65 158.459 220.199 158.459 219.665ZM162.148 223V214.273H163.131V215.614H163.205C163.379 215.174 163.682 214.82 164.114 214.551C164.549 214.278 165.042 214.142 165.591 214.142C165.674 214.142 165.767 214.144 165.869 214.148C165.972 214.152 166.057 214.155 166.125 214.159V215.188C166.08 215.18 166 215.169 165.886 215.153C165.773 215.138 165.65 215.131 165.517 215.131C165.063 215.131 164.657 215.227 164.301 215.42C163.949 215.61 163.67 215.873 163.466 216.21C163.261 216.547 163.159 216.932 163.159 217.364V223H162.148ZM172.351 223V214.273H173.334V215.614H173.408C173.582 215.174 173.885 214.82 174.317 214.551C174.752 214.278 175.245 214.142 175.794 214.142C175.877 214.142 175.97 214.144 176.072 214.148C176.175 214.152 176.26 214.155 176.328 214.159V215.188C176.283 215.18 176.203 215.169 176.089 215.153C175.976 215.138 175.853 215.131 175.72 215.131C175.266 215.131 174.86 215.227 174.504 215.42C174.152 215.61 173.874 215.873 173.669 216.21C173.464 216.547 173.362 216.932 173.362 217.364V223H172.351ZM181.317 223.182C180.502 223.182 179.798 222.992 179.203 222.614C178.608 222.231 178.148 221.703 177.822 221.028C177.5 220.35 177.339 219.57 177.339 218.688C177.339 217.809 177.5 217.028 177.822 216.347C178.148 215.661 178.597 215.125 179.169 214.739C179.745 214.348 180.41 214.153 181.163 214.153C181.637 214.153 182.093 214.241 182.533 214.415C182.972 214.585 183.366 214.848 183.714 215.205C184.067 215.557 184.345 216.002 184.55 216.54C184.754 217.074 184.857 217.706 184.857 218.438V218.938H178.038V218.045H183.822C183.822 217.485 183.709 216.981 183.482 216.534C183.258 216.083 182.946 215.727 182.544 215.466C182.146 215.205 181.686 215.074 181.163 215.074C180.61 215.074 180.124 215.222 179.703 215.517C179.283 215.812 178.953 216.203 178.714 216.688C178.48 217.172 178.36 217.703 178.357 218.278V218.812C178.357 219.506 178.476 220.112 178.714 220.631C178.957 221.146 179.3 221.545 179.743 221.83C180.186 222.114 180.711 222.256 181.317 222.256C181.73 222.256 182.091 222.191 182.402 222.062C182.716 221.934 182.98 221.761 183.192 221.545C183.408 221.326 183.571 221.085 183.68 220.824L184.641 221.136C184.508 221.504 184.29 221.843 183.987 222.153C183.688 222.464 183.313 222.714 182.862 222.903C182.415 223.089 181.9 223.182 181.317 223.182ZM190.415 226.455C189.82 226.455 189.299 226.377 188.852 226.222C188.405 226.07 188.028 225.862 187.722 225.597C187.415 225.331 187.176 225.034 187.006 224.705L187.835 224.159C187.96 224.379 188.127 224.595 188.335 224.807C188.547 225.019 188.822 225.195 189.159 225.335C189.5 225.475 189.919 225.545 190.415 225.545C191.188 225.545 191.811 225.352 192.284 224.966C192.761 224.58 193 223.979 193 223.165V221.199H192.909C192.792 221.464 192.623 221.729 192.403 221.994C192.184 222.256 191.896 222.473 191.54 222.648C191.188 222.822 190.75 222.909 190.227 222.909C189.53 222.909 188.911 222.737 188.369 222.392C187.831 222.047 187.407 221.555 187.097 220.915C186.79 220.271 186.636 219.504 186.636 218.614C186.636 217.731 186.786 216.955 187.085 216.284C187.388 215.614 187.811 215.091 188.352 214.716C188.894 214.341 189.525 214.153 190.244 214.153C190.778 214.153 191.222 214.248 191.574 214.438C191.926 214.623 192.208 214.854 192.42 215.131C192.636 215.407 192.805 215.676 192.926 215.938H193.028V214.273H194.017V223.227C194.017 223.966 193.86 224.574 193.545 225.051C193.231 225.528 192.803 225.881 192.261 226.108C191.72 226.339 191.104 226.455 190.415 226.455ZM190.347 221.983C190.907 221.983 191.386 221.848 191.784 221.58C192.182 221.307 192.487 220.917 192.699 220.409C192.911 219.902 193.017 219.297 193.017 218.597C193.017 217.915 192.913 217.311 192.705 216.784C192.496 216.254 192.193 215.837 191.795 215.534C191.402 215.227 190.919 215.074 190.347 215.074C189.763 215.074 189.271 215.231 188.869 215.545C188.468 215.86 188.165 216.284 187.96 216.818C187.756 217.348 187.653 217.941 187.653 218.597C187.653 219.263 187.758 219.852 187.966 220.364C188.174 220.871 188.479 221.269 188.881 221.557C189.282 221.841 189.771 221.983 190.347 221.983ZM196.706 223V214.273H197.723V223H196.706ZM197.223 212.773C197.015 212.773 196.837 212.703 196.689 212.562C196.541 212.419 196.467 212.246 196.467 212.045C196.467 211.845 196.541 211.674 196.689 211.534C196.837 211.39 197.015 211.318 197.223 211.318C197.431 211.318 197.609 211.39 197.757 211.534C197.905 211.674 197.979 211.845 197.979 212.045C197.979 212.246 197.905 212.419 197.757 212.562C197.609 212.703 197.431 212.773 197.223 212.773ZM206.261 216.188L205.335 216.449C205.244 216.187 205.116 215.951 204.949 215.739C204.782 215.527 204.564 215.358 204.295 215.233C204.03 215.108 203.701 215.045 203.307 215.045C202.716 215.045 202.231 215.186 201.852 215.466C201.473 215.746 201.284 216.108 201.284 216.551C201.284 216.926 201.413 217.231 201.67 217.466C201.932 217.697 202.333 217.881 202.875 218.017L204.193 218.341C204.924 218.519 205.472 218.801 205.835 219.188C206.203 219.574 206.386 220.059 206.386 220.642C206.386 221.134 206.25 221.572 205.977 221.955C205.705 222.337 205.324 222.638 204.835 222.858C204.35 223.074 203.788 223.182 203.148 223.182C202.295 223.182 201.593 222.991 201.04 222.608C200.487 222.222 200.133 221.665 199.977 220.938L200.949 220.699C201.074 221.218 201.318 221.61 201.682 221.875C202.049 222.14 202.532 222.273 203.131 222.273C203.801 222.273 204.337 222.123 204.739 221.824C205.14 221.521 205.341 221.142 205.341 220.688C205.341 220.335 205.223 220.04 204.989 219.801C204.754 219.559 204.398 219.381 203.92 219.267L202.494 218.926C201.737 218.744 201.176 218.456 200.812 218.062C200.449 217.669 200.267 217.18 200.267 216.597C200.267 216.116 200.398 215.693 200.659 215.33C200.92 214.962 201.28 214.674 201.739 214.466C202.197 214.258 202.72 214.153 203.307 214.153C204.106 214.153 204.744 214.335 205.222 214.699C205.703 215.059 206.049 215.555 206.261 216.188ZM212.038 214.273V215.153H207.874V214.273H212.038ZM209.175 212.182H210.192V220.722C210.192 221.085 210.254 221.371 210.379 221.58C210.504 221.784 210.667 221.93 210.868 222.017C211.069 222.1 211.283 222.142 211.51 222.142C211.643 222.142 211.756 222.134 211.851 222.119C211.946 222.1 212.029 222.081 212.101 222.062L212.317 222.977C212.218 223.015 212.097 223.049 211.953 223.08C211.809 223.114 211.631 223.131 211.419 223.131C211.048 223.131 210.69 223.049 210.345 222.886C210.004 222.723 209.724 222.481 209.504 222.159C209.285 221.837 209.175 221.438 209.175 220.96V212.182ZM217.77 223.182C216.955 223.182 216.251 222.992 215.656 222.614C215.062 222.231 214.601 221.703 214.276 221.028C213.954 220.35 213.793 219.57 213.793 218.688C213.793 217.809 213.954 217.028 214.276 216.347C214.601 215.661 215.05 215.125 215.622 214.739C216.198 214.348 216.863 214.153 217.616 214.153C218.09 214.153 218.546 214.241 218.986 214.415C219.425 214.585 219.819 214.848 220.168 215.205C220.52 215.557 220.798 216.002 221.003 216.54C221.207 217.074 221.31 217.706 221.31 218.438V218.938H214.491V218.045H220.276C220.276 217.485 220.162 216.981 219.935 216.534C219.711 216.083 219.399 215.727 218.997 215.466C218.599 215.205 218.139 215.074 217.616 215.074C217.063 215.074 216.577 215.222 216.156 215.517C215.736 215.812 215.406 216.203 215.168 216.688C214.933 217.172 214.813 217.703 214.81 218.278V218.812C214.81 219.506 214.929 220.112 215.168 220.631C215.41 221.146 215.753 221.545 216.196 221.83C216.639 222.114 217.164 222.256 217.77 222.256C218.183 222.256 218.545 222.191 218.855 222.062C219.17 221.934 219.433 221.761 219.645 221.545C219.861 221.326 220.024 221.085 220.134 220.824L221.094 221.136C220.961 221.504 220.743 221.843 220.44 222.153C220.141 222.464 219.766 222.714 219.315 222.903C218.868 223.089 218.353 223.182 217.77 223.182ZM223.538 223V214.273H224.521V215.614H224.595C224.769 215.174 225.072 214.82 225.504 214.551C225.94 214.278 226.432 214.142 226.982 214.142C227.065 214.142 227.158 214.144 227.26 214.148C227.362 214.152 227.447 214.155 227.516 214.159V215.188C227.47 215.18 227.391 215.169 227.277 215.153C227.163 215.138 227.04 215.131 226.908 215.131C226.453 215.131 226.048 215.227 225.692 215.42C225.339 215.61 225.061 215.873 224.857 216.21C224.652 216.547 224.55 216.932 224.55 217.364V223H223.538ZM232.504 223.182C231.69 223.182 230.985 222.992 230.391 222.614C229.796 222.231 229.336 221.703 229.01 221.028C228.688 220.35 228.527 219.57 228.527 218.688C228.527 217.809 228.688 217.028 229.01 216.347C229.336 215.661 229.785 215.125 230.357 214.739C230.932 214.348 231.597 214.153 232.351 214.153C232.824 214.153 233.281 214.241 233.72 214.415C234.16 214.585 234.554 214.848 234.902 215.205C235.254 215.557 235.533 216.002 235.737 216.54C235.942 217.074 236.044 217.706 236.044 218.438V218.938H229.226V218.045H235.01C235.01 217.485 234.896 216.981 234.669 216.534C234.446 216.083 234.133 215.727 233.732 215.466C233.334 215.205 232.874 215.074 232.351 215.074C231.798 215.074 231.311 215.222 230.891 215.517C230.47 215.812 230.141 216.203 229.902 216.688C229.667 217.172 229.548 217.703 229.544 218.278V218.812C229.544 219.506 229.663 220.112 229.902 220.631C230.144 221.146 230.487 221.545 230.93 221.83C231.374 222.114 231.898 222.256 232.504 222.256C232.917 222.256 233.279 222.191 233.589 222.062C233.904 221.934 234.167 221.761 234.379 221.545C234.595 221.326 234.758 221.085 234.868 220.824L235.828 221.136C235.696 221.504 235.478 221.843 235.175 222.153C234.875 222.464 234.5 222.714 234.05 222.903C233.603 223.089 233.088 223.182 232.504 223.182ZM241.415 223.182C240.699 223.182 240.072 222.992 239.534 222.614C238.996 222.235 238.576 221.706 238.273 221.028C237.973 220.35 237.824 219.561 237.824 218.659C237.824 217.761 237.973 216.975 238.273 216.301C238.576 215.623 238.998 215.097 239.54 214.722C240.081 214.343 240.712 214.153 241.432 214.153C241.962 214.153 242.403 214.248 242.756 214.438C243.108 214.623 243.39 214.854 243.602 215.131C243.814 215.407 243.979 215.676 244.097 215.938H244.188V211.364H245.205V223H244.216V221.381H244.097C243.979 221.646 243.813 221.919 243.597 222.199C243.381 222.475 243.095 222.708 242.739 222.898C242.386 223.087 241.945 223.182 241.415 223.182ZM241.534 222.256C242.098 222.256 242.58 222.102 242.977 221.795C243.375 221.485 243.678 221.059 243.886 220.517C244.098 219.972 244.205 219.347 244.205 218.642C244.205 217.945 244.1 217.33 243.892 216.795C243.684 216.258 243.381 215.837 242.983 215.534C242.585 215.227 242.102 215.074 241.534 215.074C240.951 215.074 240.458 215.233 240.057 215.551C239.659 215.866 239.356 216.292 239.148 216.83C238.943 217.367 238.841 217.972 238.841 218.642C238.841 219.32 238.945 219.932 239.153 220.477C239.362 221.023 239.665 221.456 240.062 221.778C240.464 222.097 240.955 222.256 241.534 222.256ZM253.597 217.545V223H252.585V214.273H253.568V215.642H253.659C253.864 215.195 254.182 214.837 254.614 214.568C255.049 214.295 255.587 214.159 256.227 214.159C256.814 214.159 257.33 214.282 257.773 214.528C258.22 214.771 258.566 215.129 258.812 215.602C259.062 216.076 259.188 216.657 259.188 217.347V223H258.176V217.409C258.176 216.693 257.975 216.127 257.574 215.71C257.176 215.294 256.642 215.085 255.972 215.085C255.513 215.085 255.106 215.184 254.75 215.381C254.394 215.578 254.112 215.862 253.903 216.233C253.699 216.6 253.597 217.038 253.597 217.545ZM267.396 219.665V214.273H268.408V223H267.396V221.551H267.317C267.112 221.998 266.788 222.371 266.345 222.67C265.902 222.966 265.36 223.114 264.72 223.114C264.163 223.114 263.669 222.992 263.237 222.75C262.805 222.504 262.466 222.144 262.22 221.67C261.974 221.197 261.851 220.616 261.851 219.926V214.273H262.862V219.864C262.862 220.545 263.063 221.095 263.464 221.511C263.866 221.924 264.381 222.131 265.01 222.131C265.404 222.131 265.783 222.036 266.146 221.847C266.51 221.657 266.809 221.381 267.044 221.017C267.279 220.65 267.396 220.199 267.396 219.665ZM271.085 223V214.273H272.068V215.614H272.159C272.333 215.163 272.623 214.809 273.028 214.551C273.438 214.29 273.928 214.159 274.5 214.159C275.102 214.159 275.597 214.301 275.983 214.585C276.373 214.866 276.665 215.252 276.858 215.744H276.932C277.129 215.259 277.449 214.875 277.892 214.591C278.339 214.303 278.881 214.159 279.517 214.159C280.328 214.159 280.968 214.415 281.438 214.926C281.907 215.434 282.142 216.176 282.142 217.153V223H281.131V217.153C281.131 216.464 280.955 215.947 280.602 215.602C280.25 215.258 279.786 215.085 279.21 215.085C278.544 215.085 278.03 215.29 277.67 215.699C277.311 216.108 277.131 216.627 277.131 217.256V223H276.097V217.062C276.097 216.472 275.932 215.994 275.602 215.631C275.273 215.267 274.809 215.085 274.21 215.085C273.809 215.085 273.447 215.184 273.125 215.381C272.807 215.578 272.555 215.852 272.369 216.205C272.188 216.553 272.097 216.955 272.097 217.409V223H271.085ZM285.03 223V211.364H286.047V215.938H286.138C286.251 215.676 286.414 215.407 286.626 215.131C286.842 214.854 287.125 214.623 287.473 214.438C287.825 214.248 288.268 214.153 288.803 214.153C289.518 214.153 290.147 214.343 290.689 214.722C291.231 215.097 291.653 215.623 291.956 216.301C292.259 216.975 292.411 217.761 292.411 218.659C292.411 219.561 292.259 220.35 291.956 221.028C291.657 221.706 291.236 222.235 290.695 222.614C290.157 222.992 289.532 223.182 288.82 223.182C288.289 223.182 287.846 223.087 287.49 222.898C287.138 222.708 286.854 222.475 286.638 222.199C286.422 221.919 286.255 221.646 286.138 221.381H286.013V223H285.03ZM286.03 218.642C286.03 219.347 286.134 219.972 286.342 220.517C286.554 221.059 286.857 221.485 287.251 221.795C287.649 222.102 288.13 222.256 288.695 222.256C289.274 222.256 289.765 222.097 290.166 221.778C290.568 221.456 290.873 221.023 291.081 220.477C291.289 219.932 291.393 219.32 291.393 218.642C291.393 217.972 291.289 217.367 291.081 216.83C290.876 216.292 290.573 215.866 290.172 215.551C289.77 215.233 289.278 215.074 288.695 215.074C288.126 215.074 287.643 215.227 287.246 215.534C286.852 215.837 286.551 216.258 286.342 216.795C286.134 217.33 286.03 217.945 286.03 218.642ZM298.161 223.182C297.346 223.182 296.642 222.992 296.047 222.614C295.452 222.231 294.992 221.703 294.666 221.028C294.344 220.35 294.183 219.57 294.183 218.688C294.183 217.809 294.344 217.028 294.666 216.347C294.992 215.661 295.441 215.125 296.013 214.739C296.589 214.348 297.253 214.153 298.007 214.153C298.481 214.153 298.937 214.241 299.376 214.415C299.816 214.585 300.21 214.848 300.558 215.205C300.911 215.557 301.189 216.002 301.393 216.54C301.598 217.074 301.7 217.706 301.7 218.438V218.938H294.882V218.045H300.666C300.666 217.485 300.553 216.981 300.325 216.534C300.102 216.083 299.789 215.727 299.388 215.466C298.99 215.205 298.53 215.074 298.007 215.074C297.454 215.074 296.967 215.222 296.547 215.517C296.126 215.812 295.797 216.203 295.558 216.688C295.323 217.172 295.204 217.703 295.2 218.278V218.812C295.2 219.506 295.32 220.112 295.558 220.631C295.801 221.146 296.143 221.545 296.587 221.83C297.03 222.114 297.554 222.256 298.161 222.256C298.573 222.256 298.935 222.191 299.246 222.062C299.56 221.934 299.823 221.761 300.036 221.545C300.251 221.326 300.414 221.085 300.524 220.824L301.484 221.136C301.352 221.504 301.134 221.843 300.831 222.153C300.532 222.464 300.157 222.714 299.706 222.903C299.259 223.089 298.744 223.182 298.161 223.182ZM303.929 223V214.273H304.912V215.614H304.986C305.16 215.174 305.463 214.82 305.895 214.551C306.33 214.278 306.823 214.142 307.372 214.142C307.455 214.142 307.548 214.144 307.651 214.148C307.753 214.152 307.838 214.155 307.906 214.159V215.188C307.861 215.18 307.781 215.169 307.668 215.153C307.554 215.138 307.431 215.131 307.298 215.131C306.844 215.131 306.438 215.227 306.082 215.42C305.73 215.61 305.452 215.873 305.247 216.21C305.043 216.547 304.94 216.932 304.94 217.364V223H303.929Z" fill="black"/>
<rect x="110" y="296" width="170" height="50" rx="10" fill="#B86E13"/>
<path d="M175.773 318.273C175.705 317.697 175.428 317.25 174.943 316.932C174.458 316.614 173.864 316.455 173.159 316.455C172.644 316.455 172.193 316.538 171.807 316.705C171.424 316.871 171.125 317.1 170.909 317.392C170.697 317.684 170.591 318.015 170.591 318.386C170.591 318.697 170.665 318.964 170.812 319.188C170.964 319.407 171.157 319.591 171.392 319.739C171.627 319.883 171.873 320.002 172.131 320.097C172.388 320.187 172.625 320.261 172.841 320.318L174.023 320.636C174.326 320.716 174.663 320.826 175.034 320.966C175.409 321.106 175.767 321.297 176.108 321.54C176.453 321.778 176.737 322.085 176.96 322.46C177.184 322.835 177.295 323.295 177.295 323.841C177.295 324.47 177.131 325.038 176.801 325.545C176.475 326.053 175.998 326.456 175.369 326.756C174.744 327.055 173.985 327.205 173.091 327.205C172.258 327.205 171.536 327.07 170.926 326.801C170.32 326.532 169.843 326.157 169.494 325.676C169.15 325.195 168.955 324.636 168.909 324H170.364C170.402 324.439 170.549 324.803 170.807 325.091C171.068 325.375 171.398 325.587 171.795 325.727C172.197 325.864 172.629 325.932 173.091 325.932C173.629 325.932 174.112 325.845 174.54 325.67C174.968 325.492 175.307 325.246 175.557 324.932C175.807 324.614 175.932 324.242 175.932 323.818C175.932 323.432 175.824 323.117 175.608 322.875C175.392 322.633 175.108 322.436 174.756 322.284C174.403 322.133 174.023 322 173.614 321.886L172.182 321.477C171.273 321.216 170.553 320.843 170.023 320.358C169.492 319.873 169.227 319.239 169.227 318.455C169.227 317.803 169.403 317.235 169.756 316.75C170.112 316.261 170.589 315.883 171.188 315.614C171.79 315.341 172.462 315.205 173.205 315.205C173.955 315.205 174.621 315.339 175.205 315.608C175.788 315.873 176.25 316.237 176.591 316.699C176.936 317.161 177.117 317.686 177.136 318.273H175.773ZM184.93 323.432V318.273H186.271V327H184.93V325.523H184.839C184.635 325.966 184.317 326.343 183.885 326.653C183.453 326.96 182.908 327.114 182.249 327.114C181.703 327.114 181.218 326.994 180.794 326.756C180.37 326.513 180.036 326.15 179.794 325.665C179.552 325.176 179.43 324.561 179.43 323.818V318.273H180.771V323.727C180.771 324.364 180.949 324.871 181.305 325.25C181.665 325.629 182.124 325.818 182.68 325.818C183.014 325.818 183.353 325.733 183.697 325.562C184.046 325.392 184.338 325.131 184.572 324.778C184.811 324.426 184.93 323.977 184.93 323.432ZM188.909 327V315.364H190.25V319.659H190.364C190.462 319.508 190.598 319.314 190.773 319.08C190.951 318.841 191.205 318.629 191.534 318.443C191.867 318.254 192.318 318.159 192.886 318.159C193.621 318.159 194.269 318.343 194.83 318.71C195.39 319.078 195.828 319.598 196.142 320.273C196.456 320.947 196.614 321.742 196.614 322.659C196.614 323.583 196.456 324.384 196.142 325.062C195.828 325.737 195.392 326.259 194.835 326.631C194.278 326.998 193.636 327.182 192.909 327.182C192.348 327.182 191.9 327.089 191.562 326.903C191.225 326.714 190.966 326.5 190.784 326.261C190.602 326.019 190.462 325.818 190.364 325.659H190.205V327H188.909ZM190.227 322.636C190.227 323.295 190.324 323.877 190.517 324.381C190.71 324.881 190.992 325.273 191.364 325.557C191.735 325.837 192.189 325.977 192.727 325.977C193.288 325.977 193.756 325.83 194.131 325.534C194.509 325.235 194.794 324.833 194.983 324.33C195.176 323.822 195.273 323.258 195.273 322.636C195.273 322.023 195.178 321.47 194.989 320.977C194.803 320.481 194.521 320.089 194.142 319.801C193.767 319.509 193.295 319.364 192.727 319.364C192.182 319.364 191.723 319.502 191.352 319.778C190.981 320.051 190.701 320.434 190.511 320.926C190.322 321.415 190.227 321.985 190.227 322.636ZM198.665 327V318.273H199.96V319.636H200.074C200.256 319.17 200.549 318.809 200.955 318.551C201.36 318.29 201.847 318.159 202.415 318.159C202.991 318.159 203.47 318.29 203.852 318.551C204.239 318.809 204.54 319.17 204.756 319.636H204.847C205.07 319.186 205.405 318.828 205.852 318.562C206.299 318.294 206.835 318.159 207.46 318.159C208.241 318.159 208.879 318.403 209.375 318.892C209.871 319.377 210.119 320.133 210.119 321.159V327H208.778V321.159C208.778 320.515 208.602 320.055 208.25 319.778C207.898 319.502 207.483 319.364 207.006 319.364C206.392 319.364 205.917 319.549 205.58 319.92C205.242 320.288 205.074 320.754 205.074 321.318V327H203.71V321.023C203.71 320.527 203.549 320.127 203.227 319.824C202.905 319.517 202.491 319.364 201.983 319.364C201.634 319.364 201.309 319.456 201.006 319.642C200.706 319.828 200.464 320.085 200.278 320.415C200.097 320.741 200.006 321.117 200.006 321.545V327H198.665ZM212.571 327V318.273H213.912V327H212.571ZM213.253 316.818C212.991 316.818 212.766 316.729 212.577 316.551C212.391 316.373 212.298 316.159 212.298 315.909C212.298 315.659 212.391 315.445 212.577 315.267C212.766 315.089 212.991 315 213.253 315C213.514 315 213.738 315.089 213.923 315.267C214.113 315.445 214.207 315.659 214.207 315.909C214.207 316.159 214.113 316.373 213.923 316.551C213.738 316.729 213.514 316.818 213.253 316.818ZM220.163 318.273V319.409H215.641V318.273H220.163ZM216.959 316.182H218.3V324.5C218.3 324.879 218.355 325.163 218.464 325.352C218.578 325.538 218.722 325.663 218.896 325.727C219.074 325.788 219.262 325.818 219.459 325.818C219.607 325.818 219.728 325.811 219.822 325.795C219.917 325.777 219.993 325.761 220.05 325.75L220.322 326.955C220.232 326.989 220.105 327.023 219.942 327.057C219.779 327.095 219.572 327.114 219.322 327.114C218.944 327.114 218.572 327.032 218.209 326.869C217.849 326.706 217.55 326.458 217.311 326.125C217.076 325.792 216.959 325.371 216.959 324.864V316.182Z" fill="black"/>
<rect x="41" y="707" width="131" height="50" rx="10" fill="#B86E13"/>
<path d="M112.739 739V725.909H117.156C118.008 725.909 118.717 726.058 119.284 726.357C119.855 726.655 120.283 727.062 120.569 727.577C120.854 728.093 120.997 728.679 120.997 729.335C120.997 729.881 120.906 730.347 120.722 730.735C120.539 731.123 120.29 731.436 119.974 731.675C119.659 731.913 119.308 732.086 118.92 732.192V732.295C119.342 732.325 119.751 732.474 120.147 732.742C120.543 733.006 120.869 733.377 121.125 733.854C121.381 734.332 121.509 734.903 121.509 735.567C121.509 736.228 121.362 736.818 121.067 737.338C120.773 737.854 120.322 738.261 119.712 738.559C119.107 738.853 118.336 739 117.398 739H112.739ZM113.934 737.926H117.398C118.408 737.926 119.154 737.702 119.636 737.255C120.121 736.808 120.364 736.245 120.364 735.567C120.364 735.069 120.243 734.617 120 734.212C119.761 733.803 119.423 733.479 118.984 733.241C118.549 733.002 118.038 732.883 117.45 732.883H113.934V737.926ZM113.934 731.822H117.264C117.78 731.822 118.232 731.715 118.619 731.502C119.007 731.289 119.31 730.995 119.527 730.62C119.744 730.245 119.853 729.817 119.853 729.335C119.853 728.641 119.627 728.076 119.175 727.641C118.724 727.202 118.05 726.983 117.156 726.983H113.934V731.822ZM126.899 739.224C126.306 739.224 125.765 739.109 125.275 738.879C124.785 738.644 124.395 738.308 124.105 737.869C123.816 737.425 123.671 736.888 123.671 736.258C123.671 735.772 123.762 735.363 123.945 735.031C124.129 734.698 124.389 734.425 124.725 734.212C125.062 733.999 125.46 733.831 125.921 733.707C126.381 733.584 126.888 733.488 127.442 733.42C127.992 733.352 128.456 733.292 128.835 733.241C129.219 733.19 129.511 733.109 129.711 732.998C129.911 732.887 130.012 732.708 130.012 732.461V732.231C130.012 731.562 129.811 731.036 129.411 730.652C129.014 730.264 128.443 730.07 127.698 730.07C126.99 730.07 126.413 730.226 125.965 730.537C125.522 730.848 125.211 731.214 125.032 731.636L123.952 731.246C124.173 730.71 124.48 730.281 124.872 729.962C125.264 729.638 125.703 729.406 126.189 729.265C126.675 729.12 127.167 729.048 127.666 729.048C128.041 729.048 128.431 729.097 128.835 729.195C129.244 729.293 129.624 729.463 129.973 729.706C130.323 729.945 130.606 730.279 130.823 730.71C131.041 731.136 131.149 731.677 131.149 732.333V739H130.012V737.447H129.941C129.805 737.737 129.602 738.018 129.334 738.29C129.066 738.563 128.729 738.787 128.324 738.962C127.919 739.136 127.444 739.224 126.899 739.224ZM127.052 738.182C127.657 738.182 128.181 738.048 128.624 737.779C129.068 737.511 129.409 737.155 129.647 736.712C129.89 736.264 130.012 735.772 130.012 735.235V733.816C129.926 733.897 129.784 733.969 129.583 734.033C129.387 734.097 129.159 734.155 128.899 734.206C128.644 734.253 128.388 734.293 128.132 734.327C127.877 734.362 127.646 734.391 127.442 734.417C126.888 734.485 126.415 734.592 126.023 734.737C125.631 734.881 125.33 735.082 125.122 735.337C124.913 735.589 124.808 735.913 124.808 736.309C124.808 736.906 125.021 737.368 125.448 737.696C125.874 738.02 126.409 738.182 127.052 738.182ZM138.011 739.205C137.133 739.205 136.368 738.985 135.716 738.546C135.069 738.107 134.566 737.506 134.208 736.744C133.85 735.981 133.671 735.112 133.671 734.136C133.671 733.151 133.852 732.276 134.214 731.509C134.581 730.741 135.088 730.141 135.736 729.706C136.383 729.267 137.135 729.048 137.992 729.048C138.648 729.048 139.243 729.175 139.775 729.431C140.308 729.683 140.747 730.038 141.092 730.499C141.442 730.955 141.661 731.487 141.751 732.097H140.6C140.481 731.543 140.193 731.07 139.737 730.678C139.285 730.281 138.71 730.083 138.011 730.083C137.385 730.083 136.831 730.254 136.349 730.594C135.868 730.931 135.491 731.402 135.218 732.007C134.949 732.608 134.815 733.305 134.815 734.097C134.815 734.894 134.947 735.599 135.211 736.213C135.476 736.822 135.846 737.3 136.324 737.645C136.805 737.99 137.368 738.163 138.011 738.163C138.446 738.163 138.842 738.082 139.2 737.92C139.562 737.754 139.865 737.519 140.108 737.217C140.355 736.914 140.521 736.554 140.606 736.136H141.757C141.672 736.729 141.461 737.257 141.124 737.722C140.792 738.182 140.359 738.544 139.827 738.808C139.298 739.072 138.693 739.205 138.011 739.205ZM145.231 735.293L145.218 733.803H145.474L150.076 729.182H151.514L146.97 733.733L146.867 733.752L145.231 735.293ZM144.195 739V725.909H145.333V739H144.195ZM150.313 739L146.324 733.957L147.142 733.17L151.77 739H150.313Z" fill="black"/>
<path d="M58.6464 731.646C58.4512 731.842 58.4512 732.158 58.6464 732.354L61.8284 735.536C62.0237 735.731 62.3403 735.731 62.5355 735.536C62.7308 735.34 62.7308 735.024 62.5355 734.828L59.7071 732L62.5355 729.172C62.7308 728.976 62.7308 728.66 62.5355 728.464C62.3403 728.269 62.0237 728.269 61.8284 728.464L58.6464 731.646ZM101 732L101 731.5L59 731.5L59 732L59 732.5L101 732.5L101 732Z" fill="black"/>
</svg>
