<svg width="358" height="39" viewBox="0 0 358 39" fill="none" xmlns="http://www.w3.org/2000/svg">
<rect width="358" height="39" rx="10" fill="#EFAB0B"/>
<path d="M158.011 25V13.3636H160.472V22.9716H165.46V25H158.011ZM170.987 25.1705C170.105 25.1705 169.341 24.983 168.697 24.608C168.057 24.2292 167.563 23.7027 167.214 23.0284C166.866 22.3504 166.692 21.5644 166.692 20.6705C166.692 19.7689 166.866 18.9811 167.214 18.3068C167.563 17.6288 168.057 17.1023 168.697 16.7273C169.341 16.3485 170.105 16.1591 170.987 16.1591C171.87 16.1591 172.631 16.3485 173.271 16.7273C173.915 17.1023 174.411 17.6288 174.76 18.3068C175.108 18.9811 175.283 19.7689 175.283 20.6705C175.283 21.5644 175.108 22.3504 174.76 23.0284C174.411 23.7027 173.915 24.2292 173.271 24.608C172.631 24.983 171.87 25.1705 170.987 25.1705ZM170.999 23.2955C171.4 23.2955 171.735 23.1818 172.004 22.9545C172.273 22.7235 172.476 22.4091 172.612 22.0114C172.752 21.6136 172.822 21.161 172.822 20.6534C172.822 20.1458 172.752 19.6932 172.612 19.2955C172.476 18.8977 172.273 18.5833 172.004 18.3523C171.735 18.1212 171.4 18.0057 170.999 18.0057C170.593 18.0057 170.252 18.1212 169.976 18.3523C169.703 18.5833 169.497 18.8977 169.357 19.2955C169.22 19.6932 169.152 20.1458 169.152 20.6534C169.152 21.161 169.22 21.6136 169.357 22.0114C169.497 22.4091 169.703 22.7235 169.976 22.9545C170.252 23.1818 170.593 23.2955 170.999 23.2955ZM180.788 28.4545C180.004 28.4545 179.332 28.3466 178.771 28.1307C178.214 27.9186 177.771 27.6288 177.442 27.2614C177.112 26.8939 176.898 26.4811 176.8 26.0227L179.038 25.7216C179.107 25.8958 179.214 26.0587 179.362 26.2102C179.51 26.3617 179.705 26.483 179.947 26.5739C180.194 26.6686 180.493 26.7159 180.845 26.7159C181.372 26.7159 181.805 26.5871 182.146 26.3295C182.491 26.0758 182.663 25.6496 182.663 25.0511V23.4545H182.561C182.455 23.697 182.296 23.9261 182.084 24.142C181.872 24.358 181.599 24.5341 181.266 24.6705C180.932 24.8068 180.535 24.875 180.072 24.875C179.417 24.875 178.821 24.7235 178.283 24.4205C177.749 24.1136 177.322 23.6458 177.004 23.017C176.69 22.3845 176.533 21.5852 176.533 20.6193C176.533 19.6307 176.694 18.8049 177.016 18.142C177.338 17.4792 177.766 16.983 178.3 16.6534C178.838 16.3239 179.427 16.1591 180.067 16.1591C180.555 16.1591 180.964 16.2424 181.294 16.4091C181.624 16.572 181.889 16.7765 182.089 17.0227C182.294 17.2652 182.451 17.5038 182.561 17.7386H182.652V16.2727H185.055V25.0852C185.055 25.8277 184.874 26.4489 184.51 26.9489C184.146 27.4489 183.643 27.8239 182.999 28.0739C182.358 28.3277 181.622 28.4545 180.788 28.4545ZM180.839 23.0568C181.23 23.0568 181.559 22.9602 181.828 22.767C182.101 22.5701 182.309 22.2898 182.453 21.9261C182.601 21.5587 182.675 21.1193 182.675 20.608C182.675 20.0966 182.603 19.6534 182.459 19.2784C182.315 18.8996 182.107 18.6061 181.834 18.3977C181.561 18.1894 181.23 18.0852 180.839 18.0852C180.442 18.0852 180.107 18.1932 179.834 18.4091C179.561 18.6212 179.355 18.9167 179.214 19.2955C179.074 19.6742 179.004 20.1117 179.004 20.608C179.004 21.1117 179.074 21.5473 179.214 21.9148C179.358 22.2784 179.565 22.5606 179.834 22.7614C180.107 22.9583 180.442 23.0568 180.839 23.0568ZM186.982 25V16.2727H189.402V25H186.982ZM188.197 15.1477C187.838 15.1477 187.529 15.0284 187.271 14.7898C187.018 14.5473 186.891 14.2576 186.891 13.9205C186.891 13.5871 187.018 13.3011 187.271 13.0625C187.529 12.8201 187.838 12.6989 188.197 12.6989C188.557 12.6989 188.864 12.8201 189.118 13.0625C189.375 13.3011 189.504 13.5871 189.504 13.9205C189.504 14.2576 189.375 14.5473 189.118 14.7898C188.864 15.0284 188.557 15.1477 188.197 15.1477ZM193.761 19.9545V25H191.341V16.2727H193.648V17.8125H193.75C193.943 17.3049 194.267 16.9034 194.722 16.608C195.176 16.3087 195.727 16.1591 196.375 16.1591C196.981 16.1591 197.509 16.2917 197.96 16.5568C198.411 16.822 198.761 17.2008 199.011 17.6932C199.261 18.1818 199.386 18.7652 199.386 19.4432V25H196.966V19.875C196.97 19.3409 196.833 18.9242 196.557 18.625C196.28 18.322 195.9 18.1705 195.415 18.1705C195.089 18.1705 194.801 18.2405 194.551 18.3807C194.305 18.5208 194.112 18.7254 193.972 18.9943C193.835 19.2595 193.765 19.5795 193.761 19.9545Z" fill="white"/>
</svg>
