<svg width="358" height="106" viewBox="0 0 358 106" fill="none" xmlns="http://www.w3.org/2000/svg">
<rect width="358" height="39" rx="10" fill="#B86E13"/>
<path d="M158.778 25V13.3636H160.534V23.4886H165.807V25H158.778ZM171.349 25.1761C170.531 25.1761 169.817 24.9886 169.207 24.6136C168.598 24.2386 168.124 23.714 167.787 23.0398C167.45 22.3655 167.281 21.5777 167.281 20.6761C167.281 19.7708 167.45 18.9792 167.787 18.3011C168.124 17.6231 168.598 17.0966 169.207 16.7216C169.817 16.3466 170.531 16.1591 171.349 16.1591C172.168 16.1591 172.882 16.3466 173.491 16.7216C174.101 17.0966 174.575 17.6231 174.912 18.3011C175.249 18.9792 175.418 19.7708 175.418 20.6761C175.418 21.5777 175.249 22.3655 174.912 23.0398C174.575 23.714 174.101 24.2386 173.491 24.6136C172.882 24.9886 172.168 25.1761 171.349 25.1761ZM171.355 23.75C171.885 23.75 172.325 23.6098 172.673 23.3295C173.022 23.0492 173.279 22.6761 173.446 22.2102C173.616 21.7443 173.702 21.2311 173.702 20.6705C173.702 20.1136 173.616 19.6023 173.446 19.1364C173.279 18.6667 173.022 18.2898 172.673 18.0057C172.325 17.7216 171.885 17.5795 171.355 17.5795C170.821 17.5795 170.378 17.7216 170.026 18.0057C169.677 18.2898 169.418 18.6667 169.247 19.1364C169.08 19.6023 168.997 20.1136 168.997 20.6705C168.997 21.2311 169.08 21.7443 169.247 22.2102C169.418 22.6761 169.677 23.0492 170.026 23.3295C170.378 23.6098 170.821 23.75 171.355 23.75ZM180.973 28.4545C180.28 28.4545 179.683 28.3636 179.183 28.1818C178.687 28 178.282 27.7595 177.967 27.4602C177.653 27.161 177.418 26.8333 177.263 26.4773L178.723 25.875C178.825 26.0417 178.962 26.2178 179.132 26.4034C179.306 26.5928 179.541 26.7538 179.837 26.8864C180.136 27.0189 180.52 27.0852 180.99 27.0852C181.634 27.0852 182.166 26.928 182.587 26.6136C183.007 26.303 183.217 25.8068 183.217 25.125V23.4091H183.109C183.007 23.5947 182.859 23.8011 182.666 24.0284C182.477 24.2557 182.215 24.4527 181.882 24.6193C181.549 24.786 181.115 24.8693 180.581 24.8693C179.892 24.8693 179.27 24.7083 178.717 24.3864C178.168 24.0606 177.732 23.5814 177.411 22.9489C177.092 22.3125 176.933 21.5303 176.933 20.6023C176.933 19.6742 177.09 18.8788 177.405 18.2159C177.723 17.553 178.159 17.0455 178.712 16.6932C179.265 16.3371 179.892 16.1591 180.592 16.1591C181.134 16.1591 181.571 16.25 181.905 16.4318C182.238 16.6098 182.498 16.8182 182.683 17.0568C182.873 17.2955 183.018 17.5057 183.121 17.6875H183.246V16.2727H184.911V25.1932C184.911 25.9432 184.736 26.5587 184.388 27.0398C184.039 27.5208 183.568 27.8769 182.973 28.108C182.382 28.339 181.715 28.4545 180.973 28.4545ZM180.956 23.4602C181.445 23.4602 181.857 23.3466 182.195 23.1193C182.536 22.8883 182.793 22.5587 182.967 22.1307C183.145 21.6989 183.234 21.1818 183.234 20.5795C183.234 19.9924 183.147 19.4754 182.973 19.0284C182.799 18.5814 182.543 18.233 182.206 17.983C181.869 17.7292 181.452 17.6023 180.956 17.6023C180.445 17.6023 180.018 17.7348 179.678 18C179.337 18.2614 179.079 18.6174 178.905 19.0682C178.734 19.5189 178.649 20.0227 178.649 20.5795C178.649 21.1515 178.736 21.6534 178.911 22.0852C179.085 22.517 179.342 22.8542 179.683 23.0966C180.028 23.339 180.452 23.4602 180.956 23.4602ZM187.189 25V16.2727H188.888V25H187.189ZM188.047 14.9261C187.751 14.9261 187.498 14.8277 187.286 14.6307C187.077 14.4299 186.973 14.1913 186.973 13.9148C186.973 13.6345 187.077 13.3958 187.286 13.1989C187.498 12.9981 187.751 12.8977 188.047 12.8977C188.342 12.8977 188.594 12.9981 188.803 13.1989C189.015 13.3958 189.121 13.6345 189.121 13.9148C189.121 14.1913 189.015 14.4299 188.803 14.6307C188.594 14.8277 188.342 14.9261 188.047 14.9261ZM192.872 19.8182V25H191.173V16.2727H192.804V17.6932H192.912C193.113 17.2311 193.427 16.8598 193.855 16.5795C194.287 16.2992 194.83 16.1591 195.486 16.1591C196.08 16.1591 196.601 16.2841 197.048 16.5341C197.495 16.7803 197.842 17.1477 198.088 17.6364C198.334 18.125 198.457 18.7292 198.457 19.4489V25H196.759V19.6534C196.759 19.0208 196.594 18.5265 196.264 18.1705C195.935 17.8106 195.482 17.6307 194.906 17.6307C194.512 17.6307 194.162 17.7159 193.855 17.8864C193.552 18.0568 193.312 18.3068 193.134 18.6364C192.959 18.9621 192.872 19.3561 192.872 19.8182Z" fill="black"/>
<path d="M89.1222 73H87.4602L92.267 59.9091H93.9034L98.7102 73H97.0483L93.1364 61.9801H93.0341L89.1222 73ZM89.7358 67.8864H96.4347V69.2926H89.7358V67.8864ZM102.053 59.9091V73H100.545V59.9091H102.053ZM104.816 73V63.1818H106.274V64.6648H106.376C106.555 64.179 106.879 63.7848 107.347 63.4822C107.816 63.1797 108.345 63.0284 108.933 63.0284C109.044 63.0284 109.182 63.0305 109.348 63.0348C109.514 63.0391 109.64 63.0455 109.725 63.054V64.5881C109.674 64.5753 109.557 64.5561 109.374 64.5305C109.195 64.5007 109.005 64.4858 108.805 64.4858C108.328 64.4858 107.901 64.5859 107.526 64.7862C107.156 64.9822 106.862 65.255 106.644 65.6044C106.431 65.9496 106.325 66.3437 106.325 66.7869V73H104.816ZM115.331 73.2045C114.385 73.2045 113.569 72.9957 112.883 72.5781C112.201 72.1562 111.675 71.5682 111.304 70.8139C110.938 70.0554 110.754 69.1733 110.754 68.1676C110.754 67.1619 110.938 66.2756 111.304 65.5085C111.675 64.7372 112.191 64.1364 112.851 63.706C113.516 63.2713 114.291 63.054 115.178 63.054C115.689 63.054 116.194 63.1392 116.693 63.3097C117.191 63.4801 117.645 63.7571 118.054 64.1406C118.463 64.5199 118.789 65.0227 119.032 65.6491C119.275 66.2756 119.396 67.0469 119.396 67.9631V68.6023H111.828V67.2983H117.862C117.862 66.7443 117.752 66.25 117.53 65.8153C117.313 65.3807 117.002 65.0376 116.597 64.7862C116.196 64.5348 115.723 64.4091 115.178 64.4091C114.577 64.4091 114.057 64.5582 113.618 64.8565C113.183 65.1506 112.849 65.5341 112.615 66.0071C112.38 66.4801 112.263 66.9872 112.263 67.5284V68.3977C112.263 69.1392 112.391 69.7678 112.646 70.2834C112.906 70.7947 113.267 71.1847 113.727 71.4531C114.187 71.7173 114.722 71.8494 115.331 71.8494C115.727 71.8494 116.085 71.794 116.405 71.6832C116.729 71.5682 117.008 71.3977 117.242 71.1719C117.477 70.9418 117.658 70.6562 117.786 70.3153L119.243 70.7244C119.09 71.2188 118.832 71.6534 118.47 72.0284C118.107 72.3991 117.66 72.6889 117.127 72.8977C116.595 73.1023 115.996 73.2045 115.331 73.2045ZM124.58 73.2301C123.958 73.2301 123.394 73.1129 122.887 72.8786C122.379 72.6399 121.977 72.2969 121.678 71.8494C121.38 71.3977 121.231 70.8523 121.231 70.2131C121.231 69.6506 121.342 69.1946 121.563 68.8452C121.785 68.4915 122.081 68.2145 122.452 68.0142C122.823 67.8139 123.232 67.6648 123.679 67.5668C124.131 67.4645 124.585 67.3835 125.041 67.3239C125.637 67.2472 126.121 67.1896 126.492 67.1513C126.867 67.1087 127.139 67.0384 127.31 66.9403C127.485 66.8423 127.572 66.6719 127.572 66.429V66.3778C127.572 65.7472 127.399 65.2571 127.054 64.9077C126.713 64.5582 126.195 64.3835 125.501 64.3835C124.781 64.3835 124.216 64.5412 123.807 64.8565C123.398 65.1719 123.11 65.5085 122.944 65.8665L121.512 65.3551C121.768 64.7585 122.109 64.294 122.535 63.9616C122.965 63.625 123.434 63.3906 123.941 63.2585C124.453 63.1222 124.955 63.054 125.45 63.054C125.765 63.054 126.127 63.0923 126.536 63.169C126.95 63.2415 127.348 63.3928 127.732 63.6229C128.119 63.853 128.441 64.2003 128.697 64.6648C128.953 65.1293 129.08 65.7514 129.08 66.5312V73H127.572V71.6705H127.495C127.393 71.8835 127.222 72.1115 126.984 72.3544C126.745 72.5973 126.428 72.804 126.031 72.9744C125.635 73.1449 125.151 73.2301 124.58 73.2301ZM124.811 71.875C125.407 71.875 125.91 71.7578 126.319 71.5234C126.732 71.2891 127.044 70.9865 127.252 70.6158C127.465 70.245 127.572 69.8551 127.572 69.446V68.0653C127.508 68.142 127.367 68.2124 127.15 68.2763C126.937 68.3359 126.69 68.3892 126.409 68.4361C126.132 68.4787 125.861 68.517 125.597 68.5511C125.337 68.581 125.126 68.6065 124.964 68.6278C124.572 68.679 124.205 68.7621 123.865 68.8771C123.528 68.9879 123.255 69.1562 123.046 69.3821C122.842 69.6037 122.74 69.9062 122.74 70.2898C122.74 70.8139 122.933 71.2102 123.321 71.4787C123.713 71.7429 124.21 71.875 124.811 71.875ZM135.541 73.2045C134.723 73.2045 134.001 72.9979 133.374 72.5845C132.748 72.1669 132.258 71.5788 131.904 70.8203C131.55 70.0575 131.374 69.1562 131.374 68.1165C131.374 67.0852 131.55 66.1903 131.904 65.4318C132.258 64.6733 132.75 64.0874 133.381 63.674C134.011 63.2607 134.74 63.054 135.567 63.054C136.206 63.054 136.711 63.1605 137.082 63.3736C137.457 63.5824 137.742 63.821 137.938 64.0895C138.138 64.3537 138.294 64.571 138.405 64.7415H138.533V59.9091H140.041V73H138.584V71.4915H138.405C138.294 71.6705 138.136 71.8963 137.932 72.169C137.727 72.4375 137.435 72.6783 137.056 72.8913C136.677 73.1001 136.172 73.2045 135.541 73.2045ZM135.746 71.8494C136.351 71.8494 136.862 71.6918 137.28 71.3764C137.697 71.0568 138.015 70.6158 138.232 70.0533C138.45 69.4865 138.558 68.8324 138.558 68.0909C138.558 67.358 138.452 66.7166 138.239 66.1669C138.026 65.6129 137.71 65.1825 137.293 64.8757C136.875 64.5646 136.359 64.4091 135.746 64.4091C135.107 64.4091 134.574 64.5732 134.148 64.9013C133.726 65.2251 133.408 65.6662 133.195 66.2244C132.987 66.7784 132.882 67.4006 132.882 68.0909C132.882 68.7898 132.989 69.4247 133.202 69.9957C133.419 70.5625 133.739 71.0142 134.161 71.3509C134.587 71.6832 135.115 71.8494 135.746 71.8494ZM143.985 76.6818C143.729 76.6818 143.501 76.6605 143.301 76.6179C143.101 76.5795 142.962 76.5412 142.886 76.5028L143.269 75.1733C143.636 75.267 143.96 75.3011 144.241 75.2756C144.522 75.25 144.771 75.1243 144.989 74.8984C145.21 74.6768 145.413 74.3168 145.596 73.8182L145.877 73.0511L142.246 63.1818H143.883L146.593 71.0057H146.695L149.406 63.1818H151.042L146.874 74.4318C146.687 74.9389 146.455 75.3587 146.178 75.6911C145.901 76.0277 145.579 76.277 145.212 76.4389C144.85 76.6009 144.441 76.6818 143.985 76.6818ZM159.604 67.0938V73H158.096V59.9091H159.604V64.7159H159.732C159.962 64.2088 160.307 63.8061 160.767 63.5078C161.232 63.2053 161.85 63.054 162.621 63.054C163.29 63.054 163.876 63.1882 164.379 63.4567C164.882 63.7209 165.272 64.1278 165.549 64.6776C165.83 65.223 165.971 65.9176 165.971 66.7614V73H164.462V66.8636C164.462 66.0838 164.26 65.4808 163.855 65.0547C163.454 64.6243 162.898 64.4091 162.186 64.4091C161.692 64.4091 161.249 64.5135 160.857 64.7223C160.469 64.9311 160.162 65.2358 159.936 65.6364C159.715 66.0369 159.604 66.5227 159.604 67.0938ZM171.619 73.2301C170.997 73.2301 170.433 73.1129 169.926 72.8786C169.419 72.6399 169.016 72.2969 168.718 71.8494C168.419 71.3977 168.27 70.8523 168.27 70.2131C168.27 69.6506 168.381 69.1946 168.602 68.8452C168.824 68.4915 169.12 68.2145 169.491 68.0142C169.862 67.8139 170.271 67.6648 170.718 67.5668C171.17 67.4645 171.624 67.3835 172.08 67.3239C172.676 67.2472 173.16 67.1896 173.531 67.1513C173.906 67.1087 174.178 67.0384 174.349 66.9403C174.524 66.8423 174.611 66.6719 174.611 66.429V66.3778C174.611 65.7472 174.438 65.2571 174.093 64.9077C173.752 64.5582 173.235 64.3835 172.54 64.3835C171.82 64.3835 171.255 64.5412 170.846 64.8565C170.437 65.1719 170.149 65.5085 169.983 65.8665L168.551 65.3551C168.807 64.7585 169.148 64.294 169.574 63.9616C170.004 63.625 170.473 63.3906 170.98 63.2585C171.492 63.1222 171.994 63.054 172.489 63.054C172.804 63.054 173.166 63.0923 173.575 63.169C173.989 63.2415 174.387 63.3928 174.771 63.6229C175.159 63.853 175.48 64.2003 175.736 64.6648C175.992 65.1293 176.119 65.7514 176.119 66.5312V73H174.611V71.6705H174.534C174.432 71.8835 174.262 72.1115 174.023 72.3544C173.784 72.5973 173.467 72.804 173.07 72.9744C172.674 73.1449 172.191 73.2301 171.619 73.2301ZM171.85 71.875C172.446 71.875 172.949 71.7578 173.358 71.5234C173.771 71.2891 174.083 70.9865 174.291 70.6158C174.504 70.245 174.611 69.8551 174.611 69.446V68.0653C174.547 68.142 174.406 68.2124 174.189 68.2763C173.976 68.3359 173.729 68.3892 173.448 68.4361C173.171 68.4787 172.9 68.517 172.636 68.5511C172.376 68.581 172.165 68.6065 172.003 68.6278C171.611 68.679 171.244 68.7621 170.904 68.8771C170.567 68.9879 170.294 69.1562 170.085 69.3821C169.881 69.6037 169.779 69.9062 169.779 70.2898C169.779 70.8139 169.972 71.2102 170.36 71.4787C170.752 71.7429 171.249 71.875 171.85 71.875ZM186.55 63.1818L182.919 73H181.385L177.754 63.1818H179.391L182.101 71.0057H182.203L184.913 63.1818H186.55ZM192.306 73.2045C191.36 73.2045 190.544 72.9957 189.858 72.5781C189.176 72.1562 188.65 71.5682 188.279 70.8139C187.912 70.0554 187.729 69.1733 187.729 68.1676C187.729 67.1619 187.912 66.2756 188.279 65.5085C188.65 64.7372 189.165 64.1364 189.826 63.706C190.49 63.2713 191.266 63.054 192.152 63.054C192.664 63.054 193.169 63.1392 193.667 63.3097C194.166 63.4801 194.62 63.7571 195.029 64.1406C195.438 64.5199 195.764 65.0227 196.007 65.6491C196.25 66.2756 196.371 67.0469 196.371 67.9631V68.6023H188.803V67.2983H194.837C194.837 66.7443 194.726 66.25 194.505 65.8153C194.287 65.3807 193.976 65.0376 193.571 64.7862C193.171 64.5348 192.698 64.4091 192.152 64.4091C191.551 64.4091 191.032 64.5582 190.593 64.8565C190.158 65.1506 189.824 65.5341 189.589 66.0071C189.355 66.4801 189.238 66.9872 189.238 67.5284V68.3977C189.238 69.1392 189.365 69.7678 189.621 70.2834C189.881 70.7947 190.241 71.1847 190.701 71.4531C191.162 71.7173 191.696 71.8494 192.306 71.8494C192.702 71.8494 193.06 71.794 193.38 71.6832C193.703 71.5682 193.983 71.3977 194.217 71.1719C194.451 70.9418 194.632 70.6562 194.76 70.3153L196.218 70.7244C196.064 71.2188 195.806 71.6534 195.444 72.0284C195.082 72.3991 194.635 72.6889 194.102 72.8977C193.569 73.1023 192.971 73.2045 192.306 73.2045ZM206.618 73.2301C205.995 73.2301 205.431 73.1129 204.924 72.8786C204.417 72.6399 204.014 72.2969 203.716 71.8494C203.417 71.3977 203.268 70.8523 203.268 70.2131C203.268 69.6506 203.379 69.1946 203.6 68.8452C203.822 68.4915 204.118 68.2145 204.489 68.0142C204.86 67.8139 205.269 67.6648 205.716 67.5668C206.168 67.4645 206.622 67.3835 207.078 67.3239C207.674 67.2472 208.158 67.1896 208.529 67.1513C208.904 67.1087 209.176 67.0384 209.347 66.9403C209.522 66.8423 209.609 66.6719 209.609 66.429V66.3778C209.609 65.7472 209.436 65.2571 209.091 64.9077C208.75 64.5582 208.233 64.3835 207.538 64.3835C206.818 64.3835 206.253 64.5412 205.844 64.8565C205.435 65.1719 205.147 65.5085 204.981 65.8665L203.549 65.3551C203.805 64.7585 204.146 64.294 204.572 63.9616C205.002 63.625 205.471 63.3906 205.978 63.2585C206.49 63.1222 206.993 63.054 207.487 63.054C207.802 63.054 208.164 63.0923 208.574 63.169C208.987 63.2415 209.385 63.3928 209.769 63.6229C210.157 63.853 210.478 64.2003 210.734 64.6648C210.99 65.1293 211.118 65.7514 211.118 66.5312V73H209.609V71.6705H209.532C209.43 71.8835 209.26 72.1115 209.021 72.3544C208.782 72.5973 208.465 72.804 208.069 72.9744C207.672 73.1449 207.189 73.2301 206.618 73.2301ZM206.848 71.875C207.444 71.875 207.947 71.7578 208.356 71.5234C208.77 71.2891 209.081 70.9865 209.289 70.6158C209.502 70.245 209.609 69.8551 209.609 69.446V68.0653C209.545 68.142 209.404 68.2124 209.187 68.2763C208.974 68.3359 208.727 68.3892 208.446 68.4361C208.169 68.4787 207.898 68.517 207.634 68.5511C207.374 68.581 207.163 68.6065 207.001 68.6278C206.609 68.679 206.243 68.7621 205.902 68.8771C205.565 68.9879 205.292 69.1562 205.083 69.3821C204.879 69.6037 204.777 69.9062 204.777 70.2898C204.777 70.8139 204.971 71.2102 205.358 71.4787C205.75 71.7429 206.247 71.875 206.848 71.875ZM217.86 73.2045C216.939 73.2045 216.146 72.9872 215.482 72.5526C214.817 72.1179 214.306 71.5192 213.948 70.7564C213.59 69.9936 213.411 69.1222 213.411 68.142C213.411 67.1449 213.594 66.2649 213.96 65.5021C214.331 64.7351 214.847 64.1364 215.507 63.706C216.172 63.2713 216.948 63.054 217.834 63.054C218.524 63.054 219.146 63.1818 219.7 63.4375C220.254 63.6932 220.708 64.0511 221.062 64.5114C221.416 64.9716 221.635 65.5085 221.72 66.1222H220.212C220.097 65.6747 219.841 65.2784 219.445 64.9332C219.053 64.5838 218.524 64.4091 217.86 64.4091C217.271 64.4091 216.756 64.5625 216.313 64.8693C215.874 65.1719 215.531 65.6001 215.284 66.1541C215.041 66.7038 214.919 67.3494 214.919 68.0909C214.919 68.8494 215.039 69.5099 215.277 70.0724C215.52 70.6349 215.861 71.0717 216.3 71.3828C216.743 71.6939 217.263 71.8494 217.86 71.8494C218.252 71.8494 218.607 71.7812 218.927 71.6449C219.247 71.5085 219.517 71.3125 219.739 71.0568C219.96 70.8011 220.118 70.4943 220.212 70.1364H221.72C221.635 70.7159 221.424 71.2379 221.088 71.7024C220.755 72.1626 220.314 72.5291 219.764 72.8018C219.219 73.0703 218.584 73.2045 217.86 73.2045ZM227.914 73.2045C226.994 73.2045 226.201 72.9872 225.536 72.5526C224.872 72.1179 224.36 71.5192 224.002 70.7564C223.644 69.9936 223.465 69.1222 223.465 68.142C223.465 67.1449 223.649 66.2649 224.015 65.5021C224.386 64.7351 224.901 64.1364 225.562 63.706C226.227 63.2713 227.002 63.054 227.889 63.054C228.579 63.054 229.201 63.1818 229.755 63.4375C230.309 63.6932 230.763 64.0511 231.117 64.5114C231.47 64.9716 231.69 65.5085 231.775 66.1222H230.267C230.151 65.6747 229.896 65.2784 229.499 64.9332C229.107 64.5838 228.579 64.4091 227.914 64.4091C227.326 64.4091 226.811 64.5625 226.367 64.8693C225.928 65.1719 225.585 65.6001 225.338 66.1541C225.095 66.7038 224.974 67.3494 224.974 68.0909C224.974 68.8494 225.093 69.5099 225.332 70.0724C225.575 70.6349 225.916 71.0717 226.355 71.3828C226.798 71.6939 227.318 71.8494 227.914 71.8494C228.306 71.8494 228.662 71.7812 228.982 71.6449C229.301 71.5085 229.572 71.3125 229.794 71.0568C230.015 70.8011 230.173 70.4943 230.267 70.1364H231.775C231.69 70.7159 231.479 71.2379 231.142 71.7024C230.81 72.1626 230.369 72.5291 229.819 72.8018C229.274 73.0703 228.639 73.2045 227.914 73.2045ZM237.969 73.2045C237.083 73.2045 236.305 72.9936 235.636 72.5717C234.971 72.1499 234.451 71.5597 234.076 70.8011C233.705 70.0426 233.52 69.1562 233.52 68.142C233.52 67.1193 233.705 66.2266 234.076 65.4638C234.451 64.701 234.971 64.1087 235.636 63.6868C236.305 63.2649 237.083 63.054 237.969 63.054C238.855 63.054 239.631 63.2649 240.296 63.6868C240.965 64.1087 241.485 64.701 241.855 65.4638C242.23 66.2266 242.418 67.1193 242.418 68.142C242.418 69.1562 242.23 70.0426 241.855 70.8011C241.485 71.5597 240.965 72.1499 240.296 72.5717C239.631 72.9936 238.855 73.2045 237.969 73.2045ZM237.969 71.8494C238.642 71.8494 239.196 71.6768 239.631 71.3317C240.066 70.9865 240.387 70.5327 240.596 69.9702C240.805 69.4077 240.909 68.7983 240.909 68.142C240.909 67.4858 240.805 66.8743 240.596 66.3075C240.387 65.7408 240.066 65.2827 239.631 64.9332C239.196 64.5838 238.642 64.4091 237.969 64.4091C237.296 64.4091 236.742 64.5838 236.307 64.9332C235.872 65.2827 235.551 65.7408 235.342 66.3075C235.133 66.8743 235.029 67.4858 235.029 68.142C235.029 68.7983 235.133 69.4077 235.342 69.9702C235.551 70.5327 235.872 70.9865 236.307 71.3317C236.742 71.6768 237.296 71.8494 237.969 71.8494ZM250.908 68.9858V63.1818H252.417V73H250.908V71.3381H250.806C250.576 71.8366 250.218 72.2607 249.732 72.6101C249.246 72.9553 248.632 73.1278 247.891 73.1278C247.277 73.1278 246.732 72.9936 246.255 72.7251C245.777 72.4524 245.402 72.0433 245.13 71.4979C244.857 70.9482 244.721 70.2557 244.721 69.4205V63.1818H246.229V69.3182C246.229 70.0341 246.429 70.6051 246.83 71.0312C247.235 71.4574 247.75 71.6705 248.377 71.6705C248.752 71.6705 249.133 71.5746 249.521 71.3828C249.913 71.1911 250.241 70.897 250.505 70.5007C250.774 70.1044 250.908 69.5994 250.908 68.9858ZM256.688 67.0938V73H255.18V63.1818H256.637V64.7159H256.765C256.995 64.2173 257.344 63.8168 257.813 63.5142C258.282 63.2074 258.887 63.054 259.628 63.054C260.293 63.054 260.875 63.1903 261.373 63.4631C261.872 63.7315 262.26 64.1406 262.537 64.6903C262.814 65.2358 262.952 65.9261 262.952 66.7614V73H261.444V66.8636C261.444 66.0923 261.243 65.4915 260.843 65.0611C260.442 64.6264 259.893 64.4091 259.194 64.4091C258.712 64.4091 258.282 64.5135 257.903 64.7223C257.528 64.9311 257.231 65.2358 257.014 65.6364C256.797 66.0369 256.688 66.5227 256.688 67.0938ZM269.979 63.1818V64.4602H264.891V63.1818H269.979ZM266.374 60.8295H267.882V70.1875C267.882 70.6136 267.944 70.9332 268.067 71.1463C268.195 71.3551 268.357 71.4957 268.553 71.5682C268.754 71.6364 268.964 71.6705 269.186 71.6705C269.352 71.6705 269.489 71.6619 269.595 71.6449C269.702 71.6236 269.787 71.6065 269.851 71.5938L270.158 72.9489C270.055 72.9872 269.913 73.0256 269.729 73.0639C269.546 73.1065 269.314 73.1278 269.033 73.1278C268.607 73.1278 268.189 73.0362 267.78 72.853C267.375 72.6697 267.038 72.3906 266.77 72.0156C266.506 71.6406 266.374 71.1676 266.374 70.5966V60.8295Z" fill="white"/>
<path d="M117.599 91.5H116.278C116.2 91.12 116.064 90.7862 115.868 90.4986C115.676 90.2109 115.442 89.9695 115.165 89.7741C114.892 89.5753 114.588 89.4261 114.254 89.3267C113.92 89.2273 113.572 89.1776 113.21 89.1776C112.55 89.1776 111.951 89.3445 111.415 89.6783C110.882 90.0121 110.458 90.5039 110.142 91.1538C109.83 91.8036 109.673 92.6009 109.673 93.5455C109.673 94.4901 109.83 95.2873 110.142 95.9371C110.458 96.587 110.882 97.0788 111.415 97.4126C111.951 97.7464 112.55 97.9134 113.21 97.9134C113.572 97.9134 113.92 97.8636 114.254 97.7642C114.588 97.6648 114.892 97.5174 115.165 97.3221C115.442 97.1232 115.676 96.88 115.868 96.5923C116.064 96.3011 116.2 95.9673 116.278 95.5909H117.599C117.5 96.1484 117.319 96.6474 117.056 97.0877C116.793 97.5281 116.467 97.9027 116.076 98.2116C115.685 98.517 115.247 98.7496 114.76 98.9094C114.277 99.0692 113.761 99.1491 113.21 99.1491C112.28 99.1491 111.452 98.9219 110.728 98.4673C110.004 98.0128 109.434 97.3665 109.018 96.5284C108.603 95.6903 108.395 94.696 108.395 93.5455C108.395 92.3949 108.603 91.4006 109.018 90.5625C109.434 89.7244 110.004 89.0781 110.728 88.6236C111.452 88.169 112.28 87.9418 113.21 87.9418C113.761 87.9418 114.277 88.0217 114.76 88.1815C115.247 88.3413 115.685 88.5756 116.076 88.8846C116.467 89.19 116.793 89.5629 117.056 90.0032C117.319 90.44 117.5 90.9389 117.599 91.5ZM119.564 99V90.8182H120.778V92.054H120.863C121.013 91.6491 121.282 91.3207 121.673 91.0685C122.064 90.8164 122.504 90.6903 122.994 90.6903C123.086 90.6903 123.202 90.6921 123.34 90.6957C123.479 90.6992 123.584 90.7045 123.655 90.7116V91.9901C123.612 91.9794 123.514 91.9634 123.362 91.9421C123.212 91.9173 123.054 91.9048 122.888 91.9048C122.49 91.9048 122.135 91.9883 121.822 92.1552C121.513 92.3185 121.268 92.5458 121.087 92.837C120.91 93.1246 120.821 93.4531 120.821 93.8224V99H119.564ZM128.326 99.1705C127.538 99.1705 126.858 98.9964 126.286 98.6484C125.718 98.2969 125.279 97.8068 124.97 97.1783C124.665 96.5462 124.512 95.8111 124.512 94.973C124.512 94.1349 124.665 93.3963 124.97 92.7571C125.279 92.1143 125.709 91.6136 126.259 91.255C126.813 90.8928 127.46 90.7116 128.198 90.7116C128.624 90.7116 129.045 90.7827 129.461 90.9247C129.876 91.0668 130.254 91.2976 130.595 91.6172C130.936 91.9332 131.208 92.3523 131.41 92.8743C131.613 93.3963 131.714 94.0391 131.714 94.8026V95.3352H125.407V94.2486H130.435C130.435 93.7869 130.343 93.375 130.158 93.0128C129.977 92.6506 129.718 92.3647 129.381 92.1552C129.047 91.9457 128.653 91.8409 128.198 91.8409C127.698 91.8409 127.264 91.9652 126.899 92.2138C126.536 92.4588 126.258 92.7784 126.062 93.1726C125.867 93.5668 125.769 93.9893 125.769 94.4403V95.1648C125.769 95.7827 125.876 96.3065 126.089 96.7362C126.305 97.1623 126.606 97.4872 126.989 97.7109C127.373 97.9311 127.818 98.0412 128.326 98.0412C128.656 98.0412 128.955 97.995 129.221 97.9027C129.491 97.8068 129.723 97.6648 129.919 97.4766C130.114 97.2848 130.265 97.0469 130.372 96.7628L131.586 97.1037C131.458 97.5156 131.243 97.8778 130.941 98.1903C130.64 98.4993 130.267 98.7408 129.823 98.9148C129.379 99.0852 128.88 99.1705 128.326 99.1705ZM136.034 99.1918C135.515 99.1918 135.045 99.0941 134.622 98.8988C134.2 98.6999 133.864 98.4141 133.616 98.0412C133.367 97.6648 133.243 97.2102 133.243 96.6776C133.243 96.2088 133.335 95.8288 133.52 95.5376C133.704 95.2429 133.951 95.0121 134.26 94.8452C134.569 94.6783 134.91 94.554 135.283 94.4723C135.659 94.3871 136.037 94.3196 136.417 94.2699C136.915 94.206 137.318 94.158 137.627 94.1261C137.939 94.0906 138.166 94.032 138.308 93.9503C138.454 93.8686 138.527 93.7266 138.527 93.5241V93.4815C138.527 92.956 138.383 92.5476 138.095 92.2564C137.811 91.9652 137.38 91.8196 136.801 91.8196C136.201 91.8196 135.73 91.951 135.389 92.2138C135.048 92.4766 134.809 92.7571 134.67 93.0554L133.477 92.6293C133.69 92.1321 133.974 91.745 134.329 91.468C134.688 91.1875 135.079 90.9922 135.501 90.8821C135.927 90.7685 136.346 90.7116 136.758 90.7116C137.021 90.7116 137.323 90.7436 137.664 90.8075C138.008 90.8679 138.34 90.994 138.66 91.1857C138.983 91.3775 139.251 91.6669 139.464 92.054C139.677 92.4411 139.784 92.9595 139.784 93.6094V99H138.527V97.892H138.463C138.378 98.0696 138.236 98.2596 138.037 98.462C137.838 98.6644 137.573 98.8366 137.243 98.9787C136.913 99.1207 136.51 99.1918 136.034 99.1918ZM136.226 98.0625C136.723 98.0625 137.142 97.9648 137.483 97.7695C137.827 97.5742 138.086 97.3221 138.26 97.0131C138.438 96.7042 138.527 96.3793 138.527 96.0384V94.8878C138.473 94.9517 138.356 95.0103 138.175 95.0636C137.998 95.1133 137.792 95.1577 137.557 95.1967C137.326 95.2322 137.101 95.2642 136.881 95.2926C136.664 95.3175 136.488 95.3388 136.353 95.3565C136.027 95.3991 135.721 95.4684 135.437 95.5643C135.157 95.6566 134.929 95.7969 134.755 95.9851C134.585 96.1697 134.5 96.4219 134.5 96.7415C134.5 97.1783 134.661 97.5085 134.984 97.7322C135.311 97.9524 135.725 98.0625 136.226 98.0625ZM145.637 90.8182V91.8835H141.396V90.8182H145.637ZM142.632 88.858H143.889V96.6562C143.889 97.0114 143.941 97.2777 144.044 97.4553C144.15 97.6293 144.285 97.7464 144.449 97.8068C144.616 97.8636 144.791 97.892 144.976 97.892C145.115 97.892 145.228 97.8849 145.317 97.8707C145.406 97.853 145.477 97.8388 145.53 97.8281L145.786 98.9574C145.7 98.9893 145.581 99.0213 145.429 99.0533C145.276 99.0888 145.083 99.1065 144.848 99.1065C144.493 99.1065 144.145 99.0302 143.804 98.8775C143.467 98.7248 143.186 98.4922 142.963 98.1797C142.742 97.8672 142.632 97.473 142.632 96.9972V88.858ZM150.87 99.1705C150.082 99.1705 149.402 98.9964 148.83 98.6484C148.262 98.2969 147.823 97.8068 147.514 97.1783C147.209 96.5462 147.056 95.8111 147.056 94.973C147.056 94.1349 147.209 93.3963 147.514 92.7571C147.823 92.1143 148.253 91.6136 148.803 91.255C149.357 90.8928 150.004 90.7116 150.742 90.7116C151.168 90.7116 151.589 90.7827 152.005 90.9247C152.42 91.0668 152.798 91.2976 153.139 91.6172C153.48 91.9332 153.752 92.3523 153.954 92.8743C154.157 93.3963 154.258 94.0391 154.258 94.8026V95.3352H147.951V94.2486H152.979C152.979 93.7869 152.887 93.375 152.702 93.0128C152.521 92.6506 152.262 92.3647 151.925 92.1552C151.591 91.9457 151.197 91.8409 150.742 91.8409C150.241 91.8409 149.808 91.9652 149.442 92.2138C149.08 92.4588 148.801 92.7784 148.606 93.1726C148.411 93.5668 148.313 93.9893 148.313 94.4403V95.1648C148.313 95.7827 148.42 96.3065 148.633 96.7362C148.849 97.1623 149.15 97.4872 149.533 97.7109C149.917 97.9311 150.362 98.0412 150.87 98.0412C151.2 98.0412 151.499 97.995 151.765 97.9027C152.035 97.8068 152.267 97.6648 152.463 97.4766C152.658 97.2848 152.809 97.0469 152.915 96.7628L154.13 97.1037C154.002 97.5156 153.787 97.8778 153.485 98.1903C153.184 98.4993 152.811 98.7408 152.367 98.9148C151.923 99.0852 151.424 99.1705 150.87 99.1705ZM161.646 94.0781V99H160.389V90.8182H161.603V92.0966H161.71C161.902 91.6811 162.193 91.3473 162.583 91.0952C162.974 90.8395 163.478 90.7116 164.096 90.7116C164.65 90.7116 165.135 90.8253 165.55 91.0526C165.966 91.2763 166.289 91.6172 166.52 92.0753C166.751 92.5298 166.866 93.1051 166.866 93.8011V99H165.609V93.8864C165.609 93.2436 165.442 92.7429 165.108 92.3842C164.775 92.022 164.316 91.8409 163.734 91.8409C163.333 91.8409 162.974 91.9279 162.658 92.1019C162.346 92.2759 162.099 92.5298 161.918 92.8636C161.737 93.1974 161.646 93.6023 161.646 94.0781ZM172.594 99.1705C171.805 99.1705 171.125 98.9964 170.554 98.6484C169.985 98.2969 169.547 97.8068 169.238 97.1783C168.932 96.5462 168.78 95.8111 168.78 94.973C168.78 94.1349 168.932 93.3963 169.238 92.7571C169.547 92.1143 169.976 91.6136 170.527 91.255C171.081 90.8928 171.727 90.7116 172.466 90.7116C172.892 90.7116 173.313 90.7827 173.728 90.9247C174.144 91.0668 174.522 91.2976 174.863 91.6172C175.204 91.9332 175.475 92.3523 175.678 92.8743C175.88 93.3963 175.981 94.0391 175.981 94.8026V95.3352H169.675V94.2486H174.703C174.703 93.7869 174.611 93.375 174.426 93.0128C174.245 92.6506 173.986 92.3647 173.648 92.1552C173.315 91.9457 172.92 91.8409 172.466 91.8409C171.965 91.8409 171.532 91.9652 171.166 92.2138C170.804 92.4588 170.525 92.7784 170.33 93.1726C170.134 93.5668 170.037 93.9893 170.037 94.4403V95.1648C170.037 95.7827 170.143 96.3065 170.356 96.7362C170.573 97.1623 170.873 97.4872 171.257 97.7109C171.64 97.9311 172.086 98.0412 172.594 98.0412C172.924 98.0412 173.222 97.995 173.489 97.9027C173.758 97.8068 173.991 97.6648 174.186 97.4766C174.382 97.2848 174.533 97.0469 174.639 96.7628L175.854 97.1037C175.726 97.5156 175.511 97.8778 175.209 98.1903C174.907 98.4993 174.534 98.7408 174.09 98.9148C173.647 99.0852 173.148 99.1705 172.594 99.1705ZM179.747 99L177.255 90.8182H178.576L180.344 97.0824H180.429L182.176 90.8182H183.519L185.245 97.0611H185.33L187.098 90.8182H188.419L185.926 99H184.691L182.901 92.7145H182.773L180.983 99H179.747ZM196.708 99.1918C196.189 99.1918 195.719 99.0941 195.296 98.8988C194.873 98.6999 194.538 98.4141 194.289 98.0412C194.041 97.6648 193.916 97.2102 193.916 96.6776C193.916 96.2088 194.009 95.8288 194.193 95.5376C194.378 95.2429 194.625 95.0121 194.934 94.8452C195.243 94.6783 195.584 94.554 195.957 94.4723C196.333 94.3871 196.711 94.3196 197.091 94.2699C197.588 94.206 197.991 94.158 198.3 94.1261C198.613 94.0906 198.84 94.032 198.982 93.9503C199.128 93.8686 199.201 93.7266 199.201 93.5241V93.4815C199.201 92.956 199.057 92.5476 198.769 92.2564C198.485 91.9652 198.054 91.8196 197.475 91.8196C196.875 91.8196 196.404 91.951 196.063 92.2138C195.722 92.4766 195.483 92.7571 195.344 93.0554L194.151 92.6293C194.364 92.1321 194.648 91.745 195.003 91.468C195.362 91.1875 195.752 90.9922 196.175 90.8821C196.601 90.7685 197.02 90.7116 197.432 90.7116C197.695 90.7116 197.997 90.7436 198.338 90.8075C198.682 90.8679 199.014 90.994 199.334 91.1857C199.657 91.3775 199.925 91.6669 200.138 92.054C200.351 92.4411 200.458 92.9595 200.458 93.6094V99H199.201V97.892H199.137C199.051 98.0696 198.909 98.2596 198.71 98.462C198.512 98.6644 198.247 98.8366 197.917 98.9787C197.587 99.1207 197.184 99.1918 196.708 99.1918ZM196.899 98.0625C197.397 98.0625 197.816 97.9648 198.157 97.7695C198.501 97.5742 198.76 97.3221 198.934 97.0131C199.112 96.7042 199.201 96.3793 199.201 96.0384V94.8878C199.147 94.9517 199.03 95.0103 198.849 95.0636C198.671 95.1133 198.465 95.1577 198.231 95.1967C198 95.2322 197.775 95.2642 197.555 95.2926C197.338 95.3175 197.162 95.3388 197.027 95.3565C196.701 95.3991 196.395 95.4684 196.111 95.5643C195.831 95.6566 195.603 95.7969 195.429 95.9851C195.259 96.1697 195.174 96.4219 195.174 96.7415C195.174 97.1783 195.335 97.5085 195.658 97.7322C195.985 97.9524 196.399 98.0625 196.899 98.0625ZM206.076 99.1705C205.309 99.1705 204.648 98.9893 204.094 98.6271C203.54 98.2649 203.114 97.766 202.816 97.1303C202.518 96.4947 202.369 95.7685 202.369 94.9517C202.369 94.1207 202.521 93.3874 202.827 92.7518C203.136 92.1126 203.565 91.6136 204.116 91.255C204.67 90.8928 205.316 90.7116 206.055 90.7116C206.63 90.7116 207.148 90.8182 207.61 91.0312C208.072 91.2443 208.45 91.5426 208.745 91.9261C209.039 92.3097 209.222 92.7571 209.293 93.2685H208.036C207.94 92.8956 207.727 92.5653 207.397 92.2777C207.07 91.9865 206.63 91.8409 206.076 91.8409C205.586 91.8409 205.156 91.9687 204.787 92.2244C204.421 92.4766 204.135 92.8335 203.929 93.2951C203.727 93.7532 203.626 94.2912 203.626 94.9091C203.626 95.5412 203.725 96.0916 203.924 96.5604C204.126 97.0291 204.411 97.3931 204.776 97.6523C205.146 97.9116 205.579 98.0412 206.076 98.0412C206.403 98.0412 206.699 97.9844 206.966 97.8707C207.232 97.7571 207.457 97.5938 207.642 97.3807C207.827 97.1676 207.958 96.9119 208.036 96.6136H209.293C209.222 97.0966 209.047 97.5316 208.766 97.9187C208.489 98.3022 208.121 98.6076 207.663 98.8349C207.209 99.0586 206.68 99.1705 206.076 99.1705ZM214.455 99.1705C213.688 99.1705 213.027 98.9893 212.473 98.6271C211.919 98.2649 211.493 97.766 211.195 97.1303C210.897 96.4947 210.748 95.7685 210.748 94.9517C210.748 94.1207 210.9 93.3874 211.206 92.7518C211.515 92.1126 211.944 91.6136 212.495 91.255C213.049 90.8928 213.695 90.7116 214.434 90.7116C215.009 90.7116 215.527 90.8182 215.989 91.0312C216.451 91.2443 216.829 91.5426 217.124 91.9261C217.418 92.3097 217.601 92.7571 217.672 93.2685H216.415C216.319 92.8956 216.106 92.5653 215.776 92.2777C215.449 91.9865 215.009 91.8409 214.455 91.8409C213.965 91.8409 213.535 91.9687 213.166 92.2244C212.8 92.4766 212.514 92.8335 212.308 93.2951C212.106 93.7532 212.005 94.2912 212.005 94.9091C212.005 95.5412 212.104 96.0916 212.303 96.5604C212.505 97.0291 212.789 97.3931 213.155 97.6523C213.525 97.9116 213.958 98.0412 214.455 98.0412C214.782 98.0412 215.078 97.9844 215.344 97.8707C215.611 97.7571 215.836 97.5938 216.021 97.3807C216.206 97.1676 216.337 96.9119 216.415 96.6136H217.672C217.601 97.0966 217.425 97.5316 217.145 97.9187C216.868 98.3022 216.5 98.6076 216.042 98.8349C215.588 99.0586 215.059 99.1705 214.455 99.1705ZM222.834 99.1705C222.095 99.1705 221.447 98.9947 220.89 98.6431C220.336 98.2915 219.902 97.7997 219.59 97.1676C219.281 96.5355 219.126 95.7969 219.126 94.9517C219.126 94.0994 219.281 93.3555 219.59 92.7198C219.902 92.0842 220.336 91.5906 220.89 91.239C221.447 90.8874 222.095 90.7116 222.834 90.7116C223.572 90.7116 224.219 90.8874 224.773 91.239C225.33 91.5906 225.763 92.0842 226.072 92.7198C226.385 93.3555 226.541 94.0994 226.541 94.9517C226.541 95.7969 226.385 96.5355 226.072 97.1676C225.763 97.7997 225.33 98.2915 224.773 98.6431C224.219 98.9947 223.572 99.1705 222.834 99.1705ZM222.834 98.0412C223.395 98.0412 223.857 97.8974 224.219 97.6097C224.581 97.3221 224.849 96.9439 225.023 96.4751C225.197 96.0064 225.284 95.4986 225.284 94.9517C225.284 94.4048 225.197 93.8952 225.023 93.4229C224.849 92.9506 224.581 92.5689 224.219 92.2777C223.857 91.9865 223.395 91.8409 222.834 91.8409C222.273 91.8409 221.811 91.9865 221.449 92.2777C221.087 92.5689 220.819 92.9506 220.645 93.4229C220.471 93.8952 220.384 94.4048 220.384 94.9517C220.384 95.4986 220.471 96.0064 220.645 96.4751C220.819 96.9439 221.087 97.3221 221.449 97.6097C221.811 97.8974 222.273 98.0412 222.834 98.0412ZM233.616 95.6548V90.8182H234.873V99H233.616V97.6151H233.531C233.339 98.0305 233.041 98.3839 232.636 98.6751C232.231 98.9627 231.72 99.1065 231.102 99.1065C230.591 99.1065 230.136 98.9947 229.739 98.771C229.341 98.5437 229.028 98.2028 228.801 97.7482C228.574 97.2901 228.46 96.7131 228.46 96.017V90.8182H229.717V95.9318C229.717 96.5284 229.884 97.0043 230.218 97.3594C230.555 97.7145 230.985 97.892 231.507 97.892C231.82 97.892 232.137 97.8121 232.46 97.6523C232.787 97.4925 233.061 97.2475 233.281 96.9173C233.505 96.587 233.616 96.1662 233.616 95.6548ZM238.433 94.0781V99H237.176V90.8182H238.39V92.0966H238.497C238.689 91.6811 238.98 91.3473 239.371 91.0952C239.761 90.8395 240.265 90.7116 240.883 90.7116C241.437 90.7116 241.922 90.8253 242.338 91.0526C242.753 91.2763 243.076 91.6172 243.307 92.0753C243.538 92.5298 243.653 93.1051 243.653 93.8011V99H242.396V93.8864C242.396 93.2436 242.229 92.7429 241.895 92.3842C241.562 92.022 241.104 91.8409 240.521 91.8409C240.12 91.8409 239.761 91.9279 239.445 92.1019C239.133 92.2759 238.886 92.5298 238.705 92.8636C238.524 93.1974 238.433 93.6023 238.433 94.0781ZM249.509 90.8182V91.8835H245.269V90.8182H249.509ZM246.504 88.858H247.761V96.6562C247.761 97.0114 247.813 97.2777 247.916 97.4553C248.022 97.6293 248.157 97.7464 248.321 97.8068C248.488 97.8636 248.663 97.892 248.848 97.892C248.987 97.892 249.1 97.8849 249.189 97.8707C249.278 97.853 249.349 97.8388 249.402 97.8281L249.658 98.9574C249.573 98.9893 249.454 99.0213 249.301 99.0533C249.148 99.0888 248.955 99.1065 248.72 99.1065C248.365 99.1065 248.017 99.0302 247.676 98.8775C247.339 98.7248 247.058 98.4922 246.835 98.1797C246.614 97.8672 246.504 97.473 246.504 96.9972V88.858Z" fill="white"/>
<path d="M106.5 105.5H251.5" stroke="white"/>
</svg>
