<svg width="358" height="51" viewBox="0 0 358 51" fill="none" xmlns="http://www.w3.org/2000/svg">
<path d="M89.1222 18H87.4602L92.267 4.90909H93.9034L98.7102 18H97.0483L93.1364 6.98011H93.0341L89.1222 18ZM89.7358 12.8864H96.4347V14.2926H89.7358V12.8864ZM102.053 4.90909V18H100.545V4.90909H102.053ZM104.816 18V8.18182H106.274V9.66477H106.376C106.555 9.17898 106.879 8.7848 107.347 8.48224C107.816 8.17969 108.345 8.02841 108.933 8.02841C109.044 8.02841 109.182 8.03054 109.348 8.0348C109.514 8.03906 109.64 8.04545 109.725 8.05398V9.58807C109.674 9.57528 109.557 9.55611 109.374 9.53054C109.195 9.50071 109.005 9.4858 108.805 9.4858C108.328 9.4858 107.901 9.58594 107.526 9.78622C107.156 9.98224 106.862 10.255 106.644 10.6044C106.431 10.9496 106.325 11.3437 106.325 11.7869V18H104.816ZM115.331 18.2045C114.385 18.2045 113.569 17.9957 112.883 17.5781C112.201 17.1562 111.675 16.5682 111.304 15.8139C110.938 15.0554 110.754 14.1733 110.754 13.1676C110.754 12.1619 110.938 11.2756 111.304 10.5085C111.675 9.73722 112.191 9.13636 112.851 8.70597C113.516 8.27131 114.291 8.05398 115.178 8.05398C115.689 8.05398 116.194 8.1392 116.693 8.30966C117.191 8.48011 117.645 8.7571 118.054 9.14062C118.463 9.51989 118.789 10.0227 119.032 10.6491C119.275 11.2756 119.396 12.0469 119.396 12.9631V13.6023H111.828V12.2983H117.862C117.862 11.7443 117.752 11.25 117.53 10.8153C117.313 10.3807 117.002 10.0376 116.597 9.78622C116.196 9.5348 115.723 9.40909 115.178 9.40909C114.577 9.40909 114.057 9.55824 113.618 9.85653C113.183 10.1506 112.849 10.5341 112.615 11.0071C112.38 11.4801 112.263 11.9872 112.263 12.5284V13.3977C112.263 14.1392 112.391 14.7678 112.646 15.2834C112.906 15.7947 113.267 16.1847 113.727 16.4531C114.187 16.7173 114.722 16.8494 115.331 16.8494C115.727 16.8494 116.085 16.794 116.405 16.6832C116.729 16.5682 117.008 16.3977 117.242 16.1719C117.477 15.9418 117.658 15.6562 117.786 15.3153L119.243 15.7244C119.09 16.2188 118.832 16.6534 118.47 17.0284C118.107 17.3991 117.66 17.6889 117.127 17.8977C116.595 18.1023 115.996 18.2045 115.331 18.2045ZM124.58 18.2301C123.958 18.2301 123.394 18.1129 122.887 17.8786C122.379 17.6399 121.977 17.2969 121.678 16.8494C121.38 16.3977 121.231 15.8523 121.231 15.2131C121.231 14.6506 121.342 14.1946 121.563 13.8452C121.785 13.4915 122.081 13.2145 122.452 13.0142C122.823 12.8139 123.232 12.6648 123.679 12.5668C124.131 12.4645 124.585 12.3835 125.041 12.3239C125.637 12.2472 126.121 12.1896 126.492 12.1513C126.867 12.1087 127.139 12.0384 127.31 11.9403C127.485 11.8423 127.572 11.6719 127.572 11.429V11.3778C127.572 10.7472 127.399 10.2571 127.054 9.90767C126.713 9.55824 126.195 9.38352 125.501 9.38352C124.781 9.38352 124.216 9.54119 123.807 9.85653C123.398 10.1719 123.11 10.5085 122.944 10.8665L121.512 10.3551C121.768 9.75852 122.109 9.29403 122.535 8.96165C122.965 8.625 123.434 8.39062 123.941 8.25852C124.453 8.12216 124.955 8.05398 125.45 8.05398C125.765 8.05398 126.127 8.09233 126.536 8.16903C126.95 8.24148 127.348 8.39276 127.732 8.62287C128.119 8.85298 128.441 9.20028 128.697 9.66477C128.953 10.1293 129.08 10.7514 129.08 11.5312V18H127.572V16.6705H127.495C127.393 16.8835 127.222 17.1115 126.984 17.3544C126.745 17.5973 126.428 17.804 126.031 17.9744C125.635 18.1449 125.151 18.2301 124.58 18.2301ZM124.811 16.875C125.407 16.875 125.91 16.7578 126.319 16.5234C126.732 16.2891 127.044 15.9865 127.252 15.6158C127.465 15.245 127.572 14.8551 127.572 14.446V13.0653C127.508 13.142 127.367 13.2124 127.15 13.2763C126.937 13.3359 126.69 13.3892 126.409 13.4361C126.132 13.4787 125.861 13.517 125.597 13.5511C125.337 13.581 125.126 13.6065 124.964 13.6278C124.572 13.679 124.205 13.7621 123.865 13.8771C123.528 13.9879 123.255 14.1562 123.046 14.3821C122.842 14.6037 122.74 14.9062 122.74 15.2898C122.74 15.8139 122.933 16.2102 123.321 16.4787C123.713 16.7429 124.21 16.875 124.811 16.875ZM135.541 18.2045C134.723 18.2045 134.001 17.9979 133.374 17.5845C132.748 17.1669 132.258 16.5788 131.904 15.8203C131.55 15.0575 131.374 14.1562 131.374 13.1165C131.374 12.0852 131.55 11.1903 131.904 10.4318C132.258 9.6733 132.75 9.08736 133.381 8.67401C134.011 8.26065 134.74 8.05398 135.567 8.05398C136.206 8.05398 136.711 8.16051 137.082 8.37358C137.457 8.58239 137.742 8.82102 137.938 9.08949C138.138 9.35369 138.294 9.57102 138.405 9.74148H138.533V4.90909H140.041V18H138.584V16.4915H138.405C138.294 16.6705 138.136 16.8963 137.932 17.169C137.727 17.4375 137.435 17.6783 137.056 17.8913C136.677 18.1001 136.172 18.2045 135.541 18.2045ZM135.746 16.8494C136.351 16.8494 136.862 16.6918 137.28 16.3764C137.697 16.0568 138.015 15.6158 138.232 15.0533C138.45 14.4865 138.558 13.8324 138.558 13.0909C138.558 12.358 138.452 11.7166 138.239 11.1669C138.026 10.6129 137.71 10.1825 137.293 9.87571C136.875 9.56463 136.359 9.40909 135.746 9.40909C135.107 9.40909 134.574 9.57315 134.148 9.90128C133.726 10.2251 133.408 10.6662 133.195 11.2244C132.987 11.7784 132.882 12.4006 132.882 13.0909C132.882 13.7898 132.989 14.4247 133.202 14.9957C133.419 15.5625 133.739 16.0142 134.161 16.3509C134.587 16.6832 135.115 16.8494 135.746 16.8494ZM143.985 21.6818C143.729 21.6818 143.501 21.6605 143.301 21.6179C143.101 21.5795 142.962 21.5412 142.886 21.5028L143.269 20.1733C143.636 20.267 143.96 20.3011 144.241 20.2756C144.522 20.25 144.771 20.1243 144.989 19.8984C145.21 19.6768 145.413 19.3168 145.596 18.8182L145.877 18.0511L142.246 8.18182H143.883L146.593 16.0057H146.695L149.406 8.18182H151.042L146.874 19.4318C146.687 19.9389 146.455 20.3587 146.178 20.6911C145.901 21.0277 145.579 21.277 145.212 21.4389C144.85 21.6009 144.441 21.6818 143.985 21.6818ZM159.604 12.0938V18H158.096V4.90909H159.604V9.71591H159.732C159.962 9.20881 160.307 8.80611 160.767 8.50781C161.232 8.20526 161.85 8.05398 162.621 8.05398C163.29 8.05398 163.876 8.18821 164.379 8.45668C164.882 8.72088 165.272 9.12784 165.549 9.67756C165.83 10.223 165.971 10.9176 165.971 11.7614V18H164.462V11.8636C164.462 11.0838 164.26 10.4808 163.855 10.0547C163.454 9.62429 162.898 9.40909 162.186 9.40909C161.692 9.40909 161.249 9.51349 160.857 9.7223C160.469 9.93111 160.162 10.2358 159.936 10.6364C159.715 11.0369 159.604 11.5227 159.604 12.0938ZM171.619 18.2301C170.997 18.2301 170.433 18.1129 169.926 17.8786C169.419 17.6399 169.016 17.2969 168.718 16.8494C168.419 16.3977 168.27 15.8523 168.27 15.2131C168.27 14.6506 168.381 14.1946 168.602 13.8452C168.824 13.4915 169.12 13.2145 169.491 13.0142C169.862 12.8139 170.271 12.6648 170.718 12.5668C171.17 12.4645 171.624 12.3835 172.08 12.3239C172.676 12.2472 173.16 12.1896 173.531 12.1513C173.906 12.1087 174.178 12.0384 174.349 11.9403C174.524 11.8423 174.611 11.6719 174.611 11.429V11.3778C174.611 10.7472 174.438 10.2571 174.093 9.90767C173.752 9.55824 173.235 9.38352 172.54 9.38352C171.82 9.38352 171.255 9.54119 170.846 9.85653C170.437 10.1719 170.149 10.5085 169.983 10.8665L168.551 10.3551C168.807 9.75852 169.148 9.29403 169.574 8.96165C170.004 8.625 170.473 8.39062 170.98 8.25852C171.492 8.12216 171.994 8.05398 172.489 8.05398C172.804 8.05398 173.166 8.09233 173.575 8.16903C173.989 8.24148 174.387 8.39276 174.771 8.62287C175.159 8.85298 175.48 9.20028 175.736 9.66477C175.992 10.1293 176.119 10.7514 176.119 11.5312V18H174.611V16.6705H174.534C174.432 16.8835 174.262 17.1115 174.023 17.3544C173.784 17.5973 173.467 17.804 173.07 17.9744C172.674 18.1449 172.191 18.2301 171.619 18.2301ZM171.85 16.875C172.446 16.875 172.949 16.7578 173.358 16.5234C173.771 16.2891 174.083 15.9865 174.291 15.6158C174.504 15.245 174.611 14.8551 174.611 14.446V13.0653C174.547 13.142 174.406 13.2124 174.189 13.2763C173.976 13.3359 173.729 13.3892 173.448 13.4361C173.171 13.4787 172.9 13.517 172.636 13.5511C172.376 13.581 172.165 13.6065 172.003 13.6278C171.611 13.679 171.244 13.7621 170.904 13.8771C170.567 13.9879 170.294 14.1562 170.085 14.3821C169.881 14.6037 169.779 14.9062 169.779 15.2898C169.779 15.8139 169.972 16.2102 170.36 16.4787C170.752 16.7429 171.249 16.875 171.85 16.875ZM186.55 8.18182L182.919 18H181.385L177.754 8.18182H179.391L182.101 16.0057H182.203L184.913 8.18182H186.55ZM192.306 18.2045C191.36 18.2045 190.544 17.9957 189.858 17.5781C189.176 17.1562 188.65 16.5682 188.279 15.8139C187.912 15.0554 187.729 14.1733 187.729 13.1676C187.729 12.1619 187.912 11.2756 188.279 10.5085C188.65 9.73722 189.165 9.13636 189.826 8.70597C190.49 8.27131 191.266 8.05398 192.152 8.05398C192.664 8.05398 193.169 8.1392 193.667 8.30966C194.166 8.48011 194.62 8.7571 195.029 9.14062C195.438 9.51989 195.764 10.0227 196.007 10.6491C196.25 11.2756 196.371 12.0469 196.371 12.9631V13.6023H188.803V12.2983H194.837C194.837 11.7443 194.726 11.25 194.505 10.8153C194.287 10.3807 193.976 10.0376 193.571 9.78622C193.171 9.5348 192.698 9.40909 192.152 9.40909C191.551 9.40909 191.032 9.55824 190.593 9.85653C190.158 10.1506 189.824 10.5341 189.589 11.0071C189.355 11.4801 189.238 11.9872 189.238 12.5284V13.3977C189.238 14.1392 189.365 14.7678 189.621 15.2834C189.881 15.7947 190.241 16.1847 190.701 16.4531C191.162 16.7173 191.696 16.8494 192.306 16.8494C192.702 16.8494 193.06 16.794 193.38 16.6832C193.703 16.5682 193.983 16.3977 194.217 16.1719C194.451 15.9418 194.632 15.6562 194.76 15.3153L196.218 15.7244C196.064 16.2188 195.806 16.6534 195.444 17.0284C195.082 17.3991 194.635 17.6889 194.102 17.8977C193.569 18.1023 192.971 18.2045 192.306 18.2045ZM206.618 18.2301C205.995 18.2301 205.431 18.1129 204.924 17.8786C204.417 17.6399 204.014 17.2969 203.716 16.8494C203.417 16.3977 203.268 15.8523 203.268 15.2131C203.268 14.6506 203.379 14.1946 203.6 13.8452C203.822 13.4915 204.118 13.2145 204.489 13.0142C204.86 12.8139 205.269 12.6648 205.716 12.5668C206.168 12.4645 206.622 12.3835 207.078 12.3239C207.674 12.2472 208.158 12.1896 208.529 12.1513C208.904 12.1087 209.176 12.0384 209.347 11.9403C209.522 11.8423 209.609 11.6719 209.609 11.429V11.3778C209.609 10.7472 209.436 10.2571 209.091 9.90767C208.75 9.55824 208.233 9.38352 207.538 9.38352C206.818 9.38352 206.253 9.54119 205.844 9.85653C205.435 10.1719 205.147 10.5085 204.981 10.8665L203.549 10.3551C203.805 9.75852 204.146 9.29403 204.572 8.96165C205.002 8.625 205.471 8.39062 205.978 8.25852C206.49 8.12216 206.993 8.05398 207.487 8.05398C207.802 8.05398 208.164 8.09233 208.574 8.16903C208.987 8.24148 209.385 8.39276 209.769 8.62287C210.157 8.85298 210.478 9.20028 210.734 9.66477C210.99 10.1293 211.118 10.7514 211.118 11.5312V18H209.609V16.6705H209.532C209.43 16.8835 209.26 17.1115 209.021 17.3544C208.782 17.5973 208.465 17.804 208.069 17.9744C207.672 18.1449 207.189 18.2301 206.618 18.2301ZM206.848 16.875C207.444 16.875 207.947 16.7578 208.356 16.5234C208.77 16.2891 209.081 15.9865 209.289 15.6158C209.502 15.245 209.609 14.8551 209.609 14.446V13.0653C209.545 13.142 209.404 13.2124 209.187 13.2763C208.974 13.3359 208.727 13.3892 208.446 13.4361C208.169 13.4787 207.898 13.517 207.634 13.5511C207.374 13.581 207.163 13.6065 207.001 13.6278C206.609 13.679 206.243 13.7621 205.902 13.8771C205.565 13.9879 205.292 14.1562 205.083 14.3821C204.879 14.6037 204.777 14.9062 204.777 15.2898C204.777 15.8139 204.971 16.2102 205.358 16.4787C205.75 16.7429 206.247 16.875 206.848 16.875ZM217.86 18.2045C216.939 18.2045 216.146 17.9872 215.482 17.5526C214.817 17.1179 214.306 16.5192 213.948 15.7564C213.59 14.9936 213.411 14.1222 213.411 13.142C213.411 12.1449 213.594 11.2649 213.96 10.5021C214.331 9.73509 214.847 9.13636 215.507 8.70597C216.172 8.27131 216.948 8.05398 217.834 8.05398C218.524 8.05398 219.146 8.18182 219.7 8.4375C220.254 8.69318 220.708 9.05114 221.062 9.51136C221.416 9.97159 221.635 10.5085 221.72 11.1222H220.212C220.097 10.6747 219.841 10.2784 219.445 9.93324C219.053 9.58381 218.524 9.40909 217.86 9.40909C217.271 9.40909 216.756 9.5625 216.313 9.86932C215.874 10.1719 215.531 10.6001 215.284 11.1541C215.041 11.7038 214.919 12.3494 214.919 13.0909C214.919 13.8494 215.039 14.5099 215.277 15.0724C215.52 15.6349 215.861 16.0717 216.3 16.3828C216.743 16.6939 217.263 16.8494 217.86 16.8494C218.252 16.8494 218.607 16.7812 218.927 16.6449C219.247 16.5085 219.517 16.3125 219.739 16.0568C219.96 15.8011 220.118 15.4943 220.212 15.1364H221.72C221.635 15.7159 221.424 16.2379 221.088 16.7024C220.755 17.1626 220.314 17.5291 219.764 17.8018C219.219 18.0703 218.584 18.2045 217.86 18.2045ZM227.914 18.2045C226.994 18.2045 226.201 17.9872 225.536 17.5526C224.872 17.1179 224.36 16.5192 224.002 15.7564C223.644 14.9936 223.465 14.1222 223.465 13.142C223.465 12.1449 223.649 11.2649 224.015 10.5021C224.386 9.73509 224.901 9.13636 225.562 8.70597C226.227 8.27131 227.002 8.05398 227.889 8.05398C228.579 8.05398 229.201 8.18182 229.755 8.4375C230.309 8.69318 230.763 9.05114 231.117 9.51136C231.47 9.97159 231.69 10.5085 231.775 11.1222H230.267C230.151 10.6747 229.896 10.2784 229.499 9.93324C229.107 9.58381 228.579 9.40909 227.914 9.40909C227.326 9.40909 226.811 9.5625 226.367 9.86932C225.928 10.1719 225.585 10.6001 225.338 11.1541C225.095 11.7038 224.974 12.3494 224.974 13.0909C224.974 13.8494 225.093 14.5099 225.332 15.0724C225.575 15.6349 225.916 16.0717 226.355 16.3828C226.798 16.6939 227.318 16.8494 227.914 16.8494C228.306 16.8494 228.662 16.7812 228.982 16.6449C229.301 16.5085 229.572 16.3125 229.794 16.0568C230.015 15.8011 230.173 15.4943 230.267 15.1364H231.775C231.69 15.7159 231.479 16.2379 231.142 16.7024C230.81 17.1626 230.369 17.5291 229.819 17.8018C229.274 18.0703 228.639 18.2045 227.914 18.2045ZM237.969 18.2045C237.083 18.2045 236.305 17.9936 235.636 17.5717C234.971 17.1499 234.451 16.5597 234.076 15.8011C233.705 15.0426 233.52 14.1562 233.52 13.142C233.52 12.1193 233.705 11.2266 234.076 10.4638C234.451 9.70099 234.971 9.10866 235.636 8.68679C236.305 8.26491 237.083 8.05398 237.969 8.05398C238.855 8.05398 239.631 8.26491 240.296 8.68679C240.965 9.10866 241.485 9.70099 241.855 10.4638C242.23 11.2266 242.418 12.1193 242.418 13.142C242.418 14.1562 242.23 15.0426 241.855 15.8011C241.485 16.5597 240.965 17.1499 240.296 17.5717C239.631 17.9936 238.855 18.2045 237.969 18.2045ZM237.969 16.8494C238.642 16.8494 239.196 16.6768 239.631 16.3317C240.066 15.9865 240.387 15.5327 240.596 14.9702C240.805 14.4077 240.909 13.7983 240.909 13.142C240.909 12.4858 240.805 11.8743 240.596 11.3075C240.387 10.7408 240.066 10.2827 239.631 9.93324C239.196 9.58381 238.642 9.40909 237.969 9.40909C237.296 9.40909 236.742 9.58381 236.307 9.93324C235.872 10.2827 235.551 10.7408 235.342 11.3075C235.133 11.8743 235.029 12.4858 235.029 13.142C235.029 13.7983 235.133 14.4077 235.342 14.9702C235.551 15.5327 235.872 15.9865 236.307 16.3317C236.742 16.6768 237.296 16.8494 237.969 16.8494ZM250.908 13.9858V8.18182H252.417V18H250.908V16.3381H250.806C250.576 16.8366 250.218 17.2607 249.732 17.6101C249.246 17.9553 248.632 18.1278 247.891 18.1278C247.277 18.1278 246.732 17.9936 246.255 17.7251C245.777 17.4524 245.402 17.0433 245.13 16.4979C244.857 15.9482 244.721 15.2557 244.721 14.4205V8.18182H246.229V14.3182C246.229 15.0341 246.429 15.6051 246.83 16.0312C247.235 16.4574 247.75 16.6705 248.377 16.6705C248.752 16.6705 249.133 16.5746 249.521 16.3828C249.913 16.1911 250.241 15.897 250.505 15.5007C250.774 15.1044 250.908 14.5994 250.908 13.9858ZM256.688 12.0938V18H255.18V8.18182H256.637V9.71591H256.765C256.995 9.21733 257.344 8.81676 257.813 8.5142C258.282 8.20739 258.887 8.05398 259.628 8.05398C260.293 8.05398 260.875 8.19034 261.373 8.46307C261.872 8.73153 262.26 9.14062 262.537 9.69034C262.814 10.2358 262.952 10.9261 262.952 11.7614V18H261.444V11.8636C261.444 11.0923 261.243 10.4915 260.843 10.0611C260.442 9.62642 259.893 9.40909 259.194 9.40909C258.712 9.40909 258.282 9.51349 257.903 9.7223C257.528 9.93111 257.231 10.2358 257.014 10.6364C256.797 11.0369 256.688 11.5227 256.688 12.0938ZM269.979 8.18182V9.46023H264.891V8.18182H269.979ZM266.374 5.82955H267.882V15.1875C267.882 15.6136 267.944 15.9332 268.067 16.1463C268.195 16.3551 268.357 16.4957 268.553 16.5682C268.754 16.6364 268.964 16.6705 269.186 16.6705C269.352 16.6705 269.489 16.6619 269.595 16.6449C269.702 16.6236 269.787 16.6065 269.851 16.5938L270.158 17.9489C270.055 17.9872 269.913 18.0256 269.729 18.0639C269.546 18.1065 269.314 18.1278 269.033 18.1278C268.607 18.1278 268.189 18.0362 267.78 17.853C267.375 17.6697 267.038 17.3906 266.77 17.0156C266.506 16.6406 266.374 16.1676 266.374 15.5966V5.82955Z" fill="white"/>
<path d="M117.599 36.5H116.278C116.2 36.12 116.064 35.7862 115.868 35.4986C115.676 35.2109 115.442 34.9695 115.165 34.7741C114.892 34.5753 114.588 34.4261 114.254 34.3267C113.92 34.2273 113.572 34.1776 113.21 34.1776C112.55 34.1776 111.951 34.3445 111.415 34.6783C110.882 35.0121 110.458 35.5039 110.142 36.1538C109.83 36.8036 109.673 37.6009 109.673 38.5455C109.673 39.4901 109.83 40.2873 110.142 40.9371C110.458 41.587 110.882 42.0788 111.415 42.4126C111.951 42.7464 112.55 42.9134 113.21 42.9134C113.572 42.9134 113.92 42.8636 114.254 42.7642C114.588 42.6648 114.892 42.5174 115.165 42.3221C115.442 42.1232 115.676 41.88 115.868 41.5923C116.064 41.3011 116.2 40.9673 116.278 40.5909H117.599C117.5 41.1484 117.319 41.6474 117.056 42.0877C116.793 42.5281 116.467 42.9027 116.076 43.2116C115.685 43.517 115.247 43.7496 114.76 43.9094C114.277 44.0692 113.761 44.1491 113.21 44.1491C112.28 44.1491 111.452 43.9219 110.728 43.4673C110.004 43.0128 109.434 42.3665 109.018 41.5284C108.603 40.6903 108.395 39.696 108.395 38.5455C108.395 37.3949 108.603 36.4006 109.018 35.5625C109.434 34.7244 110.004 34.0781 110.728 33.6236C111.452 33.169 112.28 32.9418 113.21 32.9418C113.761 32.9418 114.277 33.0217 114.76 33.1815C115.247 33.3413 115.685 33.5756 116.076 33.8846C116.467 34.19 116.793 34.5629 117.056 35.0032C117.319 35.44 117.5 35.9389 117.599 36.5ZM119.564 44V35.8182H120.778V37.054H120.863C121.013 36.6491 121.282 36.3207 121.673 36.0685C122.064 35.8164 122.504 35.6903 122.994 35.6903C123.086 35.6903 123.202 35.6921 123.34 35.6957C123.479 35.6992 123.584 35.7045 123.655 35.7116V36.9901C123.612 36.9794 123.514 36.9634 123.362 36.9421C123.212 36.9173 123.054 36.9048 122.888 36.9048C122.49 36.9048 122.135 36.9883 121.822 37.1552C121.513 37.3185 121.268 37.5458 121.087 37.837C120.91 38.1246 120.821 38.4531 120.821 38.8224V44H119.564ZM128.326 44.1705C127.538 44.1705 126.858 43.9964 126.286 43.6484C125.718 43.2969 125.279 42.8068 124.97 42.1783C124.665 41.5462 124.512 40.8111 124.512 39.973C124.512 39.1349 124.665 38.3963 124.97 37.7571C125.279 37.1143 125.709 36.6136 126.259 36.255C126.813 35.8928 127.46 35.7116 128.198 35.7116C128.624 35.7116 129.045 35.7827 129.461 35.9247C129.876 36.0668 130.254 36.2976 130.595 36.6172C130.936 36.9332 131.208 37.3523 131.41 37.8743C131.613 38.3963 131.714 39.0391 131.714 39.8026V40.3352H125.407V39.2486H130.435C130.435 38.7869 130.343 38.375 130.158 38.0128C129.977 37.6506 129.718 37.3647 129.381 37.1552C129.047 36.9457 128.653 36.8409 128.198 36.8409C127.698 36.8409 127.264 36.9652 126.899 37.2138C126.536 37.4588 126.258 37.7784 126.062 38.1726C125.867 38.5668 125.769 38.9893 125.769 39.4403V40.1648C125.769 40.7827 125.876 41.3065 126.089 41.7362C126.305 42.1623 126.606 42.4872 126.989 42.7109C127.373 42.9311 127.818 43.0412 128.326 43.0412C128.656 43.0412 128.955 42.995 129.221 42.9027C129.491 42.8068 129.723 42.6648 129.919 42.4766C130.114 42.2848 130.265 42.0469 130.372 41.7628L131.586 42.1037C131.458 42.5156 131.243 42.8778 130.941 43.1903C130.64 43.4993 130.267 43.7408 129.823 43.9148C129.379 44.0852 128.88 44.1705 128.326 44.1705ZM136.034 44.1918C135.515 44.1918 135.045 44.0941 134.622 43.8988C134.2 43.6999 133.864 43.4141 133.616 43.0412C133.367 42.6648 133.243 42.2102 133.243 41.6776C133.243 41.2088 133.335 40.8288 133.52 40.5376C133.704 40.2429 133.951 40.0121 134.26 39.8452C134.569 39.6783 134.91 39.554 135.283 39.4723C135.659 39.3871 136.037 39.3196 136.417 39.2699C136.915 39.206 137.318 39.158 137.627 39.1261C137.939 39.0906 138.166 39.032 138.308 38.9503C138.454 38.8686 138.527 38.7266 138.527 38.5241V38.4815C138.527 37.956 138.383 37.5476 138.095 37.2564C137.811 36.9652 137.38 36.8196 136.801 36.8196C136.201 36.8196 135.73 36.951 135.389 37.2138C135.048 37.4766 134.809 37.7571 134.67 38.0554L133.477 37.6293C133.69 37.1321 133.974 36.745 134.329 36.468C134.688 36.1875 135.079 35.9922 135.501 35.8821C135.927 35.7685 136.346 35.7116 136.758 35.7116C137.021 35.7116 137.323 35.7436 137.664 35.8075C138.008 35.8679 138.34 35.994 138.66 36.1857C138.983 36.3775 139.251 36.6669 139.464 37.054C139.677 37.4411 139.784 37.9595 139.784 38.6094V44H138.527V42.892H138.463C138.378 43.0696 138.236 43.2596 138.037 43.462C137.838 43.6644 137.573 43.8366 137.243 43.9787C136.913 44.1207 136.51 44.1918 136.034 44.1918ZM136.226 43.0625C136.723 43.0625 137.142 42.9648 137.483 42.7695C137.827 42.5742 138.086 42.3221 138.26 42.0131C138.438 41.7042 138.527 41.3793 138.527 41.0384V39.8878C138.473 39.9517 138.356 40.0103 138.175 40.0636C137.998 40.1133 137.792 40.1577 137.557 40.1967C137.326 40.2322 137.101 40.2642 136.881 40.2926C136.664 40.3175 136.488 40.3388 136.353 40.3565C136.027 40.3991 135.721 40.4684 135.437 40.5643C135.157 40.6566 134.929 40.7969 134.755 40.9851C134.585 41.1697 134.5 41.4219 134.5 41.7415C134.5 42.1783 134.661 42.5085 134.984 42.7322C135.311 42.9524 135.725 43.0625 136.226 43.0625ZM145.637 35.8182V36.8835H141.396V35.8182H145.637ZM142.632 33.858H143.889V41.6562C143.889 42.0114 143.941 42.2777 144.044 42.4553C144.15 42.6293 144.285 42.7464 144.449 42.8068C144.616 42.8636 144.791 42.892 144.976 42.892C145.115 42.892 145.228 42.8849 145.317 42.8707C145.406 42.853 145.477 42.8388 145.53 42.8281L145.786 43.9574C145.7 43.9893 145.581 44.0213 145.429 44.0533C145.276 44.0888 145.083 44.1065 144.848 44.1065C144.493 44.1065 144.145 44.0302 143.804 43.8775C143.467 43.7248 143.186 43.4922 142.963 43.1797C142.742 42.8672 142.632 42.473 142.632 41.9972V33.858ZM150.87 44.1705C150.082 44.1705 149.402 43.9964 148.83 43.6484C148.262 43.2969 147.823 42.8068 147.514 42.1783C147.209 41.5462 147.056 40.8111 147.056 39.973C147.056 39.1349 147.209 38.3963 147.514 37.7571C147.823 37.1143 148.253 36.6136 148.803 36.255C149.357 35.8928 150.004 35.7116 150.742 35.7116C151.168 35.7116 151.589 35.7827 152.005 35.9247C152.42 36.0668 152.798 36.2976 153.139 36.6172C153.48 36.9332 153.752 37.3523 153.954 37.8743C154.157 38.3963 154.258 39.0391 154.258 39.8026V40.3352H147.951V39.2486H152.979C152.979 38.7869 152.887 38.375 152.702 38.0128C152.521 37.6506 152.262 37.3647 151.925 37.1552C151.591 36.9457 151.197 36.8409 150.742 36.8409C150.241 36.8409 149.808 36.9652 149.442 37.2138C149.08 37.4588 148.801 37.7784 148.606 38.1726C148.411 38.5668 148.313 38.9893 148.313 39.4403V40.1648C148.313 40.7827 148.42 41.3065 148.633 41.7362C148.849 42.1623 149.15 42.4872 149.533 42.7109C149.917 42.9311 150.362 43.0412 150.87 43.0412C151.2 43.0412 151.499 42.995 151.765 42.9027C152.035 42.8068 152.267 42.6648 152.463 42.4766C152.658 42.2848 152.809 42.0469 152.915 41.7628L154.13 42.1037C154.002 42.5156 153.787 42.8778 153.485 43.1903C153.184 43.4993 152.811 43.7408 152.367 43.9148C151.923 44.0852 151.424 44.1705 150.87 44.1705ZM161.646 39.0781V44H160.389V35.8182H161.603V37.0966H161.71C161.902 36.6811 162.193 36.3473 162.583 36.0952C162.974 35.8395 163.478 35.7116 164.096 35.7116C164.65 35.7116 165.135 35.8253 165.55 36.0526C165.966 36.2763 166.289 36.6172 166.52 37.0753C166.751 37.5298 166.866 38.1051 166.866 38.8011V44H165.609V38.8864C165.609 38.2436 165.442 37.7429 165.108 37.3842C164.775 37.022 164.316 36.8409 163.734 36.8409C163.333 36.8409 162.974 36.9279 162.658 37.1019C162.346 37.2759 162.099 37.5298 161.918 37.8636C161.737 38.1974 161.646 38.6023 161.646 39.0781ZM172.594 44.1705C171.805 44.1705 171.125 43.9964 170.554 43.6484C169.985 43.2969 169.547 42.8068 169.238 42.1783C168.932 41.5462 168.78 40.8111 168.78 39.973C168.78 39.1349 168.932 38.3963 169.238 37.7571C169.547 37.1143 169.976 36.6136 170.527 36.255C171.081 35.8928 171.727 35.7116 172.466 35.7116C172.892 35.7116 173.313 35.7827 173.728 35.9247C174.144 36.0668 174.522 36.2976 174.863 36.6172C175.204 36.9332 175.475 37.3523 175.678 37.8743C175.88 38.3963 175.981 39.0391 175.981 39.8026V40.3352H169.675V39.2486H174.703C174.703 38.7869 174.611 38.375 174.426 38.0128C174.245 37.6506 173.986 37.3647 173.648 37.1552C173.315 36.9457 172.92 36.8409 172.466 36.8409C171.965 36.8409 171.532 36.9652 171.166 37.2138C170.804 37.4588 170.525 37.7784 170.33 38.1726C170.134 38.5668 170.037 38.9893 170.037 39.4403V40.1648C170.037 40.7827 170.143 41.3065 170.356 41.7362C170.573 42.1623 170.873 42.4872 171.257 42.7109C171.64 42.9311 172.086 43.0412 172.594 43.0412C172.924 43.0412 173.222 42.995 173.489 42.9027C173.758 42.8068 173.991 42.6648 174.186 42.4766C174.382 42.2848 174.533 42.0469 174.639 41.7628L175.854 42.1037C175.726 42.5156 175.511 42.8778 175.209 43.1903C174.907 43.4993 174.534 43.7408 174.09 43.9148C173.647 44.0852 173.148 44.1705 172.594 44.1705ZM179.747 44L177.255 35.8182H178.576L180.344 42.0824H180.429L182.176 35.8182H183.519L185.245 42.0611H185.33L187.098 35.8182H188.419L185.926 44H184.691L182.901 37.7145H182.773L180.983 44H179.747ZM196.708 44.1918C196.189 44.1918 195.719 44.0941 195.296 43.8988C194.873 43.6999 194.538 43.4141 194.289 43.0412C194.041 42.6648 193.916 42.2102 193.916 41.6776C193.916 41.2088 194.009 40.8288 194.193 40.5376C194.378 40.2429 194.625 40.0121 194.934 39.8452C195.243 39.6783 195.584 39.554 195.957 39.4723C196.333 39.3871 196.711 39.3196 197.091 39.2699C197.588 39.206 197.991 39.158 198.3 39.1261C198.613 39.0906 198.84 39.032 198.982 38.9503C199.128 38.8686 199.201 38.7266 199.201 38.5241V38.4815C199.201 37.956 199.057 37.5476 198.769 37.2564C198.485 36.9652 198.054 36.8196 197.475 36.8196C196.875 36.8196 196.404 36.951 196.063 37.2138C195.722 37.4766 195.483 37.7571 195.344 38.0554L194.151 37.6293C194.364 37.1321 194.648 36.745 195.003 36.468C195.362 36.1875 195.752 35.9922 196.175 35.8821C196.601 35.7685 197.02 35.7116 197.432 35.7116C197.695 35.7116 197.997 35.7436 198.338 35.8075C198.682 35.8679 199.014 35.994 199.334 36.1857C199.657 36.3775 199.925 36.6669 200.138 37.054C200.351 37.4411 200.458 37.9595 200.458 38.6094V44H199.201V42.892H199.137C199.051 43.0696 198.909 43.2596 198.71 43.462C198.512 43.6644 198.247 43.8366 197.917 43.9787C197.587 44.1207 197.184 44.1918 196.708 44.1918ZM196.899 43.0625C197.397 43.0625 197.816 42.9648 198.157 42.7695C198.501 42.5742 198.76 42.3221 198.934 42.0131C199.112 41.7042 199.201 41.3793 199.201 41.0384V39.8878C199.147 39.9517 199.03 40.0103 198.849 40.0636C198.671 40.1133 198.465 40.1577 198.231 40.1967C198 40.2322 197.775 40.2642 197.555 40.2926C197.338 40.3175 197.162 40.3388 197.027 40.3565C196.701 40.3991 196.395 40.4684 196.111 40.5643C195.831 40.6566 195.603 40.7969 195.429 40.9851C195.259 41.1697 195.174 41.4219 195.174 41.7415C195.174 42.1783 195.335 42.5085 195.658 42.7322C195.985 42.9524 196.399 43.0625 196.899 43.0625ZM206.076 44.1705C205.309 44.1705 204.648 43.9893 204.094 43.6271C203.54 43.2649 203.114 42.766 202.816 42.1303C202.518 41.4947 202.369 40.7685 202.369 39.9517C202.369 39.1207 202.521 38.3874 202.827 37.7518C203.136 37.1126 203.565 36.6136 204.116 36.255C204.67 35.8928 205.316 35.7116 206.055 35.7116C206.63 35.7116 207.148 35.8182 207.61 36.0312C208.072 36.2443 208.45 36.5426 208.745 36.9261C209.039 37.3097 209.222 37.7571 209.293 38.2685H208.036C207.94 37.8956 207.727 37.5653 207.397 37.2777C207.07 36.9865 206.63 36.8409 206.076 36.8409C205.586 36.8409 205.156 36.9687 204.787 37.2244C204.421 37.4766 204.135 37.8335 203.929 38.2951C203.727 38.7532 203.626 39.2912 203.626 39.9091C203.626 40.5412 203.725 41.0916 203.924 41.5604C204.126 42.0291 204.411 42.3931 204.776 42.6523C205.146 42.9116 205.579 43.0412 206.076 43.0412C206.403 43.0412 206.699 42.9844 206.966 42.8707C207.232 42.7571 207.457 42.5938 207.642 42.3807C207.827 42.1676 207.958 41.9119 208.036 41.6136H209.293C209.222 42.0966 209.047 42.5316 208.766 42.9187C208.489 43.3022 208.121 43.6076 207.663 43.8349C207.209 44.0586 206.68 44.1705 206.076 44.1705ZM214.455 44.1705C213.688 44.1705 213.027 43.9893 212.473 43.6271C211.919 43.2649 211.493 42.766 211.195 42.1303C210.897 41.4947 210.748 40.7685 210.748 39.9517C210.748 39.1207 210.9 38.3874 211.206 37.7518C211.515 37.1126 211.944 36.6136 212.495 36.255C213.049 35.8928 213.695 35.7116 214.434 35.7116C215.009 35.7116 215.527 35.8182 215.989 36.0312C216.451 36.2443 216.829 36.5426 217.124 36.9261C217.418 37.3097 217.601 37.7571 217.672 38.2685H216.415C216.319 37.8956 216.106 37.5653 215.776 37.2777C215.449 36.9865 215.009 36.8409 214.455 36.8409C213.965 36.8409 213.535 36.9687 213.166 37.2244C212.8 37.4766 212.514 37.8335 212.308 38.2951C212.106 38.7532 212.005 39.2912 212.005 39.9091C212.005 40.5412 212.104 41.0916 212.303 41.5604C212.505 42.0291 212.789 42.3931 213.155 42.6523C213.525 42.9116 213.958 43.0412 214.455 43.0412C214.782 43.0412 215.078 42.9844 215.344 42.8707C215.611 42.7571 215.836 42.5938 216.021 42.3807C216.206 42.1676 216.337 41.9119 216.415 41.6136H217.672C217.601 42.0966 217.425 42.5316 217.145 42.9187C216.868 43.3022 216.5 43.6076 216.042 43.8349C215.588 44.0586 215.059 44.1705 214.455 44.1705ZM222.834 44.1705C222.095 44.1705 221.447 43.9947 220.89 43.6431C220.336 43.2915 219.902 42.7997 219.59 42.1676C219.281 41.5355 219.126 40.7969 219.126 39.9517C219.126 39.0994 219.281 38.3555 219.59 37.7198C219.902 37.0842 220.336 36.5906 220.89 36.239C221.447 35.8874 222.095 35.7116 222.834 35.7116C223.572 35.7116 224.219 35.8874 224.773 36.239C225.33 36.5906 225.763 37.0842 226.072 37.7198C226.385 38.3555 226.541 39.0994 226.541 39.9517C226.541 40.7969 226.385 41.5355 226.072 42.1676C225.763 42.7997 225.33 43.2915 224.773 43.6431C224.219 43.9947 223.572 44.1705 222.834 44.1705ZM222.834 43.0412C223.395 43.0412 223.857 42.8974 224.219 42.6097C224.581 42.3221 224.849 41.9439 225.023 41.4751C225.197 41.0064 225.284 40.4986 225.284 39.9517C225.284 39.4048 225.197 38.8952 225.023 38.4229C224.849 37.9506 224.581 37.5689 224.219 37.2777C223.857 36.9865 223.395 36.8409 222.834 36.8409C222.273 36.8409 221.811 36.9865 221.449 37.2777C221.087 37.5689 220.819 37.9506 220.645 38.4229C220.471 38.8952 220.384 39.4048 220.384 39.9517C220.384 40.4986 220.471 41.0064 220.645 41.4751C220.819 41.9439 221.087 42.3221 221.449 42.6097C221.811 42.8974 222.273 43.0412 222.834 43.0412ZM233.616 40.6548V35.8182H234.873V44H233.616V42.6151H233.531C233.339 43.0305 233.041 43.3839 232.636 43.6751C232.231 43.9627 231.72 44.1065 231.102 44.1065C230.591 44.1065 230.136 43.9947 229.739 43.771C229.341 43.5437 229.028 43.2028 228.801 42.7482C228.574 42.2901 228.46 41.7131 228.46 41.017V35.8182H229.717V40.9318C229.717 41.5284 229.884 42.0043 230.218 42.3594C230.555 42.7145 230.985 42.892 231.507 42.892C231.82 42.892 232.137 42.8121 232.46 42.6523C232.787 42.4925 233.061 42.2475 233.281 41.9173C233.505 41.587 233.616 41.1662 233.616 40.6548ZM238.433 39.0781V44H237.176V35.8182H238.39V37.0966H238.497C238.689 36.6811 238.98 36.3473 239.371 36.0952C239.761 35.8395 240.265 35.7116 240.883 35.7116C241.437 35.7116 241.922 35.8253 242.338 36.0526C242.753 36.2763 243.076 36.6172 243.307 37.0753C243.538 37.5298 243.653 38.1051 243.653 38.8011V44H242.396V38.8864C242.396 38.2436 242.229 37.7429 241.895 37.3842C241.562 37.022 241.104 36.8409 240.521 36.8409C240.12 36.8409 239.761 36.9279 239.445 37.1019C239.133 37.2759 238.886 37.5298 238.705 37.8636C238.524 38.1974 238.433 38.6023 238.433 39.0781ZM249.509 35.8182V36.8835H245.269V35.8182H249.509ZM246.504 33.858H247.761V41.6562C247.761 42.0114 247.813 42.2777 247.916 42.4553C248.022 42.6293 248.157 42.7464 248.321 42.8068C248.488 42.8636 248.663 42.892 248.848 42.892C248.987 42.892 249.1 42.8849 249.189 42.8707C249.278 42.853 249.349 42.8388 249.402 42.8281L249.658 43.9574C249.573 43.9893 249.454 44.0213 249.301 44.0533C249.148 44.0888 248.955 44.1065 248.72 44.1065C248.365 44.1065 248.017 44.0302 247.676 43.8775C247.339 43.7248 247.058 43.4922 246.835 43.1797C246.614 42.8672 246.504 42.473 246.504 41.9972V33.858Z" fill="white"/>
<path d="M106.5 50.5H251.5" stroke="white"/>
</svg>
