<svg width="89" height="124" viewBox="0 0 89 124" fill="none" xmlns="http://www.w3.org/2000/svg">
<rect width="89" height="50" rx="10" fill="white"/>
<path d="M17.6662 20.3182H19.2074V27.0149C19.2074 27.7275 19.04 28.3589 18.7053 28.9091C18.3705 29.456 17.8999 29.8868 17.2933 30.2017C16.6868 30.5133 15.9759 30.669 15.1605 30.669C14.3485 30.669 13.6392 30.5133 13.0327 30.2017C12.4261 29.8868 11.9555 29.456 11.6207 28.9091C11.286 28.3589 11.1186 27.7275 11.1186 27.0149V20.3182H12.6548V26.8906C12.6548 27.3513 12.7559 27.7607 12.9581 28.1186C13.1636 28.4766 13.4536 28.7583 13.8281 28.9638C14.2027 29.166 14.6468 29.267 15.1605 29.267C15.6776 29.267 16.1233 29.166 16.4979 28.9638C16.8757 28.7583 17.1641 28.4766 17.3629 28.1186C17.5651 27.7607 17.6662 27.3513 17.6662 26.8906V20.3182ZM27.0439 24.728L25.6966 24.9666C25.6402 24.7943 25.5507 24.6302 25.4281 24.4744C25.3088 24.3187 25.1464 24.1911 24.9409 24.0916C24.7354 23.9922 24.4785 23.9425 24.1703 23.9425C23.7493 23.9425 23.398 24.0369 23.1163 24.2259C22.8346 24.4115 22.6937 24.6518 22.6937 24.9467C22.6937 25.2019 22.7882 25.4074 22.9771 25.5632C23.166 25.719 23.4709 25.8466 23.8919 25.946L25.1049 26.2244C25.8076 26.3868 26.3313 26.6371 26.676 26.9751C27.0207 27.3132 27.193 27.7524 27.193 28.2926C27.193 28.75 27.0604 29.1577 26.7953 29.5156C26.5334 29.8703 26.1672 30.1487 25.6966 30.3509C25.2292 30.553 24.6873 30.6541 24.0708 30.6541C23.2157 30.6541 22.5181 30.4718 21.9778 30.1072C21.4376 29.7393 21.1061 29.2173 20.9835 28.5412L22.4203 28.3224C22.5098 28.697 22.6937 28.9804 22.9721 29.1726C23.2505 29.3615 23.6135 29.456 24.0609 29.456C24.5481 29.456 24.9376 29.3549 25.2292 29.1527C25.5209 28.9472 25.6667 28.697 25.6667 28.402C25.6667 28.1634 25.5772 27.9628 25.3983 27.8004C25.2226 27.638 24.9525 27.5154 24.5879 27.4325L23.2953 27.1491C22.5827 26.9867 22.0557 26.7282 21.7143 26.3736C21.3762 26.0189 21.2072 25.5698 21.2072 25.0263C21.2072 24.5755 21.3332 24.1811 21.585 23.843C21.8369 23.505 22.185 23.2415 22.6291 23.0526C23.0732 22.8603 23.582 22.7642 24.1554 22.7642C24.9806 22.7642 25.6303 22.9432 26.1042 23.3011C26.5782 23.6558 26.8914 24.1314 27.0439 24.728ZM32.1186 30.6541C31.3662 30.6541 30.7183 30.4934 30.1747 30.1719C29.6345 29.8471 29.2169 29.3913 28.9219 28.8047C28.6302 28.2147 28.4844 27.5237 28.4844 26.7315C28.4844 25.9493 28.6302 25.2599 28.9219 24.6634C29.2169 24.0668 29.6278 23.6011 30.1548 23.2663C30.6851 22.9316 31.3049 22.7642 32.0142 22.7642C32.4451 22.7642 32.8627 22.8355 33.267 22.978C33.6714 23.1205 34.0343 23.3442 34.3558 23.6491C34.6773 23.9541 34.9309 24.3501 35.1165 24.8374C35.3021 25.3213 35.3949 25.9096 35.3949 26.6023V27.1293H29.3246V26.0156H33.9382C33.9382 25.6245 33.8587 25.2782 33.6996 24.9766C33.5405 24.6716 33.3168 24.4313 33.0284 24.2557C32.7434 24.08 32.4086 23.9922 32.0241 23.9922C31.6065 23.9922 31.242 24.0949 30.9304 24.3004C30.6222 24.5026 30.3835 24.7678 30.2145 25.0959C30.0488 25.4207 29.9659 25.7737 29.9659 26.1548V27.0249C29.9659 27.5353 30.0554 27.9695 30.2344 28.3274C30.4167 28.6854 30.6702 28.9588 30.995 29.1477C31.3198 29.3333 31.6993 29.4261 32.1335 29.4261C32.4152 29.4261 32.6721 29.3864 32.9041 29.3068C33.1361 29.224 33.3366 29.1013 33.5057 28.9389C33.6747 28.7765 33.804 28.576 33.8935 28.3374L35.3004 28.5909C35.1877 29.0052 34.9856 29.3681 34.6939 29.6797C34.4055 29.9879 34.0426 30.2282 33.6051 30.4006C33.1709 30.5696 32.6754 30.6541 32.1186 30.6541ZM37.0442 30.5V22.8636H38.481V24.0767H38.5605C38.6998 23.6657 38.945 23.3426 39.2963 23.1072C39.651 22.8686 40.052 22.7493 40.4995 22.7493C40.5923 22.7493 40.7016 22.7526 40.8276 22.7592C40.9569 22.7659 41.0579 22.7741 41.1309 22.7841V24.206C41.0712 24.1894 40.9651 24.1712 40.8127 24.1513C40.6602 24.1281 40.5078 24.1165 40.3553 24.1165C40.004 24.1165 39.6908 24.1911 39.4157 24.3402C39.1439 24.486 38.9284 24.6899 38.7694 24.9517C38.6103 25.2102 38.5307 25.5052 38.5307 25.8366V30.5H37.0442ZM43.9038 25.9659V30.5H42.4173V22.8636H43.8441V24.1065H43.9386C44.1142 23.7022 44.3893 23.3774 44.7638 23.1321C45.1417 22.8868 45.6173 22.7642 46.1907 22.7642C46.7111 22.7642 47.1668 22.8736 47.5579 23.0923C47.949 23.3078 48.2522 23.6293 48.4677 24.0568C48.6831 24.4844 48.7908 25.013 48.7908 25.6428V30.5H47.3043V25.8217C47.3043 25.2682 47.1602 24.8357 46.8718 24.5241C46.5835 24.2093 46.1874 24.0518 45.6836 24.0518C45.3389 24.0518 45.0323 24.1264 44.7638 24.2756C44.4987 24.4247 44.2882 24.6435 44.1325 24.9318C43.98 25.2169 43.9038 25.5616 43.9038 25.9659ZM53.0067 30.669C52.5228 30.669 52.0853 30.5795 51.6942 30.4006C51.3031 30.2183 50.9933 29.9548 50.7646 29.6101C50.5392 29.2654 50.4265 28.8428 50.4265 28.3423C50.4265 27.9115 50.5094 27.5568 50.6751 27.2784C50.8408 27 51.0645 26.7796 51.3462 26.6172C51.628 26.4548 51.9428 26.3321 52.2908 26.2493C52.6388 26.1664 52.9935 26.1035 53.3548 26.0604C53.8121 26.0073 54.1834 25.9643 54.4684 25.9311C54.7534 25.8946 54.9606 25.8366 55.0898 25.7571C55.2191 25.6776 55.2837 25.5483 55.2837 25.3693V25.3345C55.2837 24.9003 55.1611 24.5639 54.9158 24.3253C54.6739 24.0866 54.3126 23.9673 53.832 23.9673C53.3316 23.9673 52.9371 24.0784 52.6488 24.3004C52.3638 24.5192 52.1665 24.7628 52.0572 25.0312L50.6602 24.7131C50.8259 24.2491 51.0678 23.8745 51.386 23.5895C51.7075 23.3011 52.0771 23.0923 52.4947 22.9631C52.9123 22.8305 53.3514 22.7642 53.8121 22.7642C54.1171 22.7642 54.4402 22.8007 54.7816 22.8736C55.1263 22.9432 55.4478 23.0724 55.7461 23.2614C56.0477 23.4503 56.2946 23.7204 56.4869 24.0717C56.6791 24.4197 56.7752 24.8722 56.7752 25.429V30.5H55.3235V29.456H55.2638C55.1677 29.6482 55.0236 29.8371 54.8313 30.0227C54.6391 30.2083 54.3922 30.3625 54.0906 30.4851C53.7889 30.6077 53.4277 30.669 53.0067 30.669ZM53.3299 29.4759C53.7409 29.4759 54.0922 29.3946 54.3839 29.2322C54.6789 29.0698 54.9026 28.8577 55.055 28.5959C55.2108 28.3307 55.2887 28.0473 55.2887 27.7457V26.7614C55.2357 26.8144 55.1329 26.8641 54.9805 26.9105C54.8313 26.9536 54.6606 26.9917 54.4684 27.0249C54.2762 27.0547 54.0889 27.0829 53.9066 27.1094C53.7243 27.1326 53.5719 27.1525 53.4492 27.169C53.1609 27.2055 52.8974 27.2668 52.6587 27.353C52.4234 27.4392 52.2345 27.5634 52.092 27.7259C51.9528 27.8849 51.8832 28.0971 51.8832 28.3622C51.8832 28.7301 52.0191 29.0085 52.2908 29.1974C52.5626 29.383 52.909 29.4759 53.3299 29.4759ZM58.7551 30.5V22.8636H60.182V24.1065H60.2765C60.4355 23.6856 60.6957 23.3575 61.057 23.1222C61.4183 22.8835 61.8508 22.7642 62.3546 22.7642C62.865 22.7642 63.2926 22.8835 63.6373 23.1222C63.9853 23.3608 64.2421 23.6889 64.4078 24.1065H64.4874C64.6697 23.6989 64.9597 23.3741 65.3574 23.1321C65.7551 22.8868 66.2291 22.7642 66.7793 22.7642C67.472 22.7642 68.0371 22.9813 68.4746 23.4155C68.9154 23.8497 69.1358 24.5043 69.1358 25.3793V30.5H67.6493V25.5185C67.6493 25.0014 67.5085 24.6269 67.2267 24.3949C66.945 24.1629 66.6086 24.0469 66.2175 24.0469C65.7336 24.0469 65.3574 24.196 65.089 24.4943C64.8205 24.7893 64.6863 25.1688 64.6863 25.6328V30.5H63.2047V25.424C63.2047 25.0097 63.0755 24.6766 62.8169 24.4247C62.5584 24.1728 62.222 24.0469 61.8077 24.0469C61.526 24.0469 61.2658 24.1214 61.0272 24.2706C60.7918 24.4164 60.6013 24.6203 60.4554 24.8821C60.3129 25.1439 60.2417 25.4472 60.2417 25.7919V30.5H58.7551ZM74.4194 30.6541C73.667 30.6541 73.0191 30.4934 72.4755 30.1719C71.9353 29.8471 71.5176 29.3913 71.2227 28.8047C70.931 28.2147 70.7852 27.5237 70.7852 26.7315C70.7852 25.9493 70.931 25.2599 71.2227 24.6634C71.5176 24.0668 71.9286 23.6011 72.4556 23.2663C72.9859 22.9316 73.6057 22.7642 74.315 22.7642C74.7459 22.7642 75.1635 22.8355 75.5678 22.978C75.9722 23.1205 76.3351 23.3442 76.6566 23.6491C76.9781 23.9541 77.2317 24.3501 77.4173 24.8374C77.6029 25.3213 77.6957 25.9096 77.6957 26.6023V27.1293H71.6254V26.0156H76.239C76.239 25.6245 76.1594 25.2782 76.0004 24.9766C75.8413 24.6716 75.6175 24.4313 75.3292 24.2557C75.0442 24.08 74.7094 23.9922 74.3249 23.9922C73.9073 23.9922 73.5427 24.0949 73.2312 24.3004C72.9229 24.5026 72.6843 24.7678 72.5153 25.0959C72.3496 25.4207 72.2667 25.7737 72.2667 26.1548V27.0249C72.2667 27.5353 72.3562 27.9695 72.5352 28.3274C72.7174 28.6854 72.971 28.9588 73.2958 29.1477C73.6206 29.3333 74.0001 29.4261 74.4343 29.4261C74.716 29.4261 74.9729 29.3864 75.2049 29.3068C75.4369 29.224 75.6374 29.1013 75.8065 28.9389C75.9755 28.7765 76.1048 28.576 76.1942 28.3374L77.6012 28.5909C77.4885 29.0052 77.2863 29.3681 76.9947 29.6797C76.7063 29.9879 76.3434 30.2282 75.9059 30.4006C75.4717 30.5696 74.9762 30.6541 74.4194 30.6541Z" fill="#A8A0A0"/>
<rect y="74" width="89" height="50" rx="10" fill="white"/>
<path d="M17.6662 94.3182H19.2074V101.015C19.2074 101.728 19.04 102.359 18.7053 102.909C18.3705 103.456 17.8999 103.887 17.2933 104.202C16.6868 104.513 15.9759 104.669 15.1605 104.669C14.3485 104.669 13.6392 104.513 13.0327 104.202C12.4261 103.887 11.9555 103.456 11.6207 102.909C11.286 102.359 11.1186 101.728 11.1186 101.015V94.3182H12.6548V100.891C12.6548 101.351 12.7559 101.761 12.9581 102.119C13.1636 102.477 13.4536 102.758 13.8281 102.964C14.2027 103.166 14.6468 103.267 15.1605 103.267C15.6776 103.267 16.1233 103.166 16.4979 102.964C16.8757 102.758 17.1641 102.477 17.3629 102.119C17.5651 101.761 17.6662 101.351 17.6662 100.891V94.3182ZM27.0439 98.728L25.6966 98.9666C25.6402 98.7943 25.5507 98.6302 25.4281 98.4744C25.3088 98.3187 25.1464 98.1911 24.9409 98.0916C24.7354 97.9922 24.4785 97.9425 24.1703 97.9425C23.7493 97.9425 23.398 98.0369 23.1163 98.2259C22.8346 98.4115 22.6937 98.6518 22.6937 98.9467C22.6937 99.2019 22.7882 99.4074 22.9771 99.5632C23.166 99.719 23.4709 99.8466 23.8919 99.946L25.1049 100.224C25.8076 100.387 26.3313 100.637 26.676 100.975C27.0207 101.313 27.193 101.752 27.193 102.293C27.193 102.75 27.0604 103.158 26.7953 103.516C26.5334 103.87 26.1672 104.149 25.6966 104.351C25.2292 104.553 24.6873 104.654 24.0708 104.654C23.2157 104.654 22.5181 104.472 21.9778 104.107C21.4376 103.739 21.1061 103.217 20.9835 102.541L22.4203 102.322C22.5098 102.697 22.6937 102.98 22.9721 103.173C23.2505 103.362 23.6135 103.456 24.0609 103.456C24.5481 103.456 24.9376 103.355 25.2292 103.153C25.5209 102.947 25.6667 102.697 25.6667 102.402C25.6667 102.163 25.5772 101.963 25.3983 101.8C25.2226 101.638 24.9525 101.515 24.5879 101.433L23.2953 101.149C22.5827 100.987 22.0557 100.728 21.7143 100.374C21.3762 100.019 21.2072 99.5698 21.2072 99.0263C21.2072 98.5755 21.3332 98.1811 21.585 97.843C21.8369 97.505 22.185 97.2415 22.6291 97.0526C23.0732 96.8603 23.582 96.7642 24.1554 96.7642C24.9806 96.7642 25.6303 96.9432 26.1042 97.3011C26.5782 97.6558 26.8914 98.1314 27.0439 98.728ZM32.1186 104.654C31.3662 104.654 30.7183 104.493 30.1747 104.172C29.6345 103.847 29.2169 103.391 28.9219 102.805C28.6302 102.215 28.4844 101.524 28.4844 100.732C28.4844 99.9493 28.6302 99.2599 28.9219 98.6634C29.2169 98.0668 29.6278 97.6011 30.1548 97.2663C30.6851 96.9316 31.3049 96.7642 32.0142 96.7642C32.4451 96.7642 32.8627 96.8355 33.267 96.978C33.6714 97.1205 34.0343 97.3442 34.3558 97.6491C34.6773 97.9541 34.9309 98.3501 35.1165 98.8374C35.3021 99.3213 35.3949 99.9096 35.3949 100.602V101.129H29.3246V100.016H33.9382C33.9382 99.6245 33.8587 99.2782 33.6996 98.9766C33.5405 98.6716 33.3168 98.4313 33.0284 98.2557C32.7434 98.08 32.4086 97.9922 32.0241 97.9922C31.6065 97.9922 31.242 98.0949 30.9304 98.3004C30.6222 98.5026 30.3835 98.7678 30.2145 99.0959C30.0488 99.4207 29.9659 99.7737 29.9659 100.155V101.025C29.9659 101.535 30.0554 101.969 30.2344 102.327C30.4167 102.685 30.6702 102.959 30.995 103.148C31.3198 103.333 31.6993 103.426 32.1335 103.426C32.4152 103.426 32.6721 103.386 32.9041 103.307C33.1361 103.224 33.3366 103.101 33.5057 102.939C33.6747 102.777 33.804 102.576 33.8935 102.337L35.3004 102.591C35.1877 103.005 34.9856 103.368 34.6939 103.68C34.4055 103.988 34.0426 104.228 33.6051 104.401C33.1709 104.57 32.6754 104.654 32.1186 104.654ZM37.0442 104.5V96.8636H38.481V98.0767H38.5605C38.6998 97.6657 38.945 97.3426 39.2963 97.1072C39.651 96.8686 40.052 96.7493 40.4995 96.7493C40.5923 96.7493 40.7016 96.7526 40.8276 96.7592C40.9569 96.7659 41.0579 96.7741 41.1309 96.7841V98.206C41.0712 98.1894 40.9651 98.1712 40.8127 98.1513C40.6602 98.1281 40.5078 98.1165 40.3553 98.1165C40.004 98.1165 39.6908 98.1911 39.4157 98.3402C39.1439 98.486 38.9284 98.6899 38.7694 98.9517C38.6103 99.2102 38.5307 99.5052 38.5307 99.8366V104.5H37.0442ZM43.9038 99.9659V104.5H42.4173V96.8636H43.8441V98.1065H43.9386C44.1142 97.7022 44.3893 97.3774 44.7638 97.1321C45.1417 96.8868 45.6173 96.7642 46.1907 96.7642C46.7111 96.7642 47.1668 96.8736 47.5579 97.0923C47.949 97.3078 48.2522 97.6293 48.4677 98.0568C48.6831 98.4844 48.7908 99.013 48.7908 99.6428V104.5H47.3043V99.8217C47.3043 99.2682 47.1602 98.8357 46.8718 98.5241C46.5835 98.2093 46.1874 98.0518 45.6836 98.0518C45.3389 98.0518 45.0323 98.1264 44.7638 98.2756C44.4987 98.4247 44.2882 98.6435 44.1325 98.9318C43.98 99.2169 43.9038 99.5616 43.9038 99.9659ZM53.0067 104.669C52.5228 104.669 52.0853 104.58 51.6942 104.401C51.3031 104.218 50.9933 103.955 50.7646 103.61C50.5392 103.265 50.4265 102.843 50.4265 102.342C50.4265 101.911 50.5094 101.557 50.6751 101.278C50.8408 101 51.0645 100.78 51.3462 100.617C51.628 100.455 51.9428 100.332 52.2908 100.249C52.6388 100.166 52.9935 100.103 53.3548 100.06C53.8121 100.007 54.1834 99.9643 54.4684 99.9311C54.7534 99.8946 54.9606 99.8366 55.0898 99.7571C55.2191 99.6776 55.2837 99.5483 55.2837 99.3693V99.3345C55.2837 98.9003 55.1611 98.5639 54.9158 98.3253C54.6739 98.0866 54.3126 97.9673 53.832 97.9673C53.3316 97.9673 52.9371 98.0784 52.6488 98.3004C52.3638 98.5192 52.1665 98.7628 52.0572 99.0312L50.6602 98.7131C50.8259 98.2491 51.0678 97.8745 51.386 97.5895C51.7075 97.3011 52.0771 97.0923 52.4947 96.9631C52.9123 96.8305 53.3514 96.7642 53.8121 96.7642C54.1171 96.7642 54.4402 96.8007 54.7816 96.8736C55.1263 96.9432 55.4478 97.0724 55.7461 97.2614C56.0477 97.4503 56.2946 97.7204 56.4869 98.0717C56.6791 98.4197 56.7752 98.8722 56.7752 99.429V104.5H55.3235V103.456H55.2638C55.1677 103.648 55.0236 103.837 54.8313 104.023C54.6391 104.208 54.3922 104.362 54.0906 104.485C53.7889 104.608 53.4277 104.669 53.0067 104.669ZM53.3299 103.476C53.7409 103.476 54.0922 103.395 54.3839 103.232C54.6789 103.07 54.9026 102.858 55.055 102.596C55.2108 102.331 55.2887 102.047 55.2887 101.746V100.761C55.2357 100.814 55.1329 100.864 54.9805 100.911C54.8313 100.954 54.6606 100.992 54.4684 101.025C54.2762 101.055 54.0889 101.083 53.9066 101.109C53.7243 101.133 53.5719 101.152 53.4492 101.169C53.1609 101.205 52.8974 101.267 52.6587 101.353C52.4234 101.439 52.2345 101.563 52.092 101.726C51.9528 101.885 51.8832 102.097 51.8832 102.362C51.8832 102.73 52.0191 103.009 52.2908 103.197C52.5626 103.383 52.909 103.476 53.3299 103.476ZM58.7551 104.5V96.8636H60.182V98.1065H60.2765C60.4355 97.6856 60.6957 97.3575 61.057 97.1222C61.4183 96.8835 61.8508 96.7642 62.3546 96.7642C62.865 96.7642 63.2926 96.8835 63.6373 97.1222C63.9853 97.3608 64.2421 97.6889 64.4078 98.1065H64.4874C64.6697 97.6989 64.9597 97.3741 65.3574 97.1321C65.7551 96.8868 66.2291 96.7642 66.7793 96.7642C67.472 96.7642 68.0371 96.9813 68.4746 97.4155C68.9154 97.8497 69.1358 98.5043 69.1358 99.3793V104.5H67.6493V99.5185C67.6493 99.0014 67.5085 98.6269 67.2267 98.3949C66.945 98.1629 66.6086 98.0469 66.2175 98.0469C65.7336 98.0469 65.3574 98.196 65.089 98.4943C64.8205 98.7893 64.6863 99.1688 64.6863 99.6328V104.5H63.2047V99.424C63.2047 99.0097 63.0755 98.6766 62.8169 98.4247C62.5584 98.1728 62.222 98.0469 61.8077 98.0469C61.526 98.0469 61.2658 98.1214 61.0272 98.2706C60.7918 98.4164 60.6013 98.6203 60.4554 98.8821C60.3129 99.1439 60.2417 99.4472 60.2417 99.7919V104.5H58.7551ZM74.4194 104.654C73.667 104.654 73.0191 104.493 72.4755 104.172C71.9353 103.847 71.5176 103.391 71.2227 102.805C70.931 102.215 70.7852 101.524 70.7852 100.732C70.7852 99.9493 70.931 99.2599 71.2227 98.6634C71.5176 98.0668 71.9286 97.6011 72.4556 97.2663C72.9859 96.9316 73.6057 96.7642 74.315 96.7642C74.7459 96.7642 75.1635 96.8355 75.5678 96.978C75.9722 97.1205 76.3351 97.3442 76.6566 97.6491C76.9781 97.9541 77.2317 98.3501 77.4173 98.8374C77.6029 99.3213 77.6957 99.9096 77.6957 100.602V101.129H71.6254V100.016H76.239C76.239 99.6245 76.1594 99.2782 76.0004 98.9766C75.8413 98.6716 75.6175 98.4313 75.3292 98.2557C75.0442 98.08 74.7094 97.9922 74.3249 97.9922C73.9073 97.9922 73.5427 98.0949 73.2312 98.3004C72.9229 98.5026 72.6843 98.7678 72.5153 99.0959C72.3496 99.4207 72.2667 99.7737 72.2667 100.155V101.025C72.2667 101.535 72.3562 101.969 72.5352 102.327C72.7174 102.685 72.971 102.959 73.2958 103.148C73.6206 103.333 74.0001 103.426 74.4343 103.426C74.716 103.426 74.9729 103.386 75.2049 103.307C75.4369 103.224 75.6374 103.101 75.8065 102.939C75.9755 102.777 76.1048 102.576 76.1942 102.337L77.6012 102.591C77.4885 103.005 77.2863 103.368 76.9947 103.68C76.7063 103.988 76.3434 104.228 75.9059 104.401C75.4717 104.57 74.9762 104.654 74.4194 104.654Z" fill="#A8A0A0"/>
</svg>
