<svg width="110" height="20" viewBox="0 0 110 20" fill="none" xmlns="http://www.w3.org/2000/svg">
<path d="M1.15909 13.5V4.7727H6.20881V5.48861H1.95597V8.77412H5.8125V9.49003H1.95597V13.5H1.15909ZM10.0962 13.6363C9.53089 13.6363 9.03089 13.4929 8.59624 13.2059C8.16442 12.919 7.82635 12.5227 7.58203 12.017C7.33771 11.5085 7.21555 10.9218 7.21555 10.2571C7.21555 9.58662 7.33771 8.99713 7.58203 8.48861C7.82635 7.97724 8.16442 7.57951 8.59624 7.29542C9.03089 7.00849 9.53089 6.86503 10.0962 6.86503C10.6616 6.86503 11.1602 7.00849 11.592 7.29542C12.0238 7.58236 12.3619 7.98008 12.6062 8.48861C12.8533 8.99713 12.9769 9.58662 12.9769 10.2571C12.9769 10.9218 12.8548 11.5085 12.6104 12.017C12.3661 12.5227 12.0266 12.919 11.592 13.2059C11.1602 13.4929 10.6616 13.6363 10.0962 13.6363ZM10.0962 12.9417C10.5508 12.9417 10.9357 12.8196 11.2511 12.5753C11.5664 12.3309 11.805 12.0057 11.967 11.5994C12.1317 11.1932 12.2141 10.7457 12.2141 10.2571C12.2141 9.76844 12.1317 9.31957 11.967 8.91048C11.805 8.50139 11.5664 8.17326 11.2511 7.92611C10.9357 7.67895 10.5508 7.55537 10.0962 7.55537C9.64453 7.55537 9.25959 7.67895 8.94141 7.92611C8.62607 8.17326 8.38601 8.50139 8.22124 8.91048C8.0593 9.31957 7.97834 9.76844 7.97834 10.2571C7.97834 10.7457 8.0593 11.1932 8.22124 11.5994C8.38601 12.0057 8.62607 12.3309 8.94141 12.5753C9.25675 12.8196 9.64169 12.9417 10.0962 12.9417ZM14.642 13.5V6.95451H15.3793V7.9602H15.4347C15.5653 7.63065 15.7926 7.36503 16.1165 7.16332C16.4432 6.95878 16.8125 6.8565 17.2244 6.8565C17.2869 6.8565 17.3565 6.85792 17.4332 6.86076C17.5099 6.86361 17.5739 6.86645 17.625 6.86929V7.64059C17.5909 7.63491 17.5313 7.62639 17.446 7.61503C17.3608 7.60366 17.2685 7.59798 17.169 7.59798C16.8281 7.59798 16.5241 7.67042 16.2571 7.81531C15.9929 7.95736 15.7841 8.1548 15.6307 8.40764C15.4773 8.66048 15.4006 8.94883 15.4006 9.2727V13.5H14.642ZM21.2173 16.0909C20.7713 16.0909 20.3807 16.0326 20.0455 15.9162C19.7102 15.8025 19.4276 15.6463 19.1974 15.4474C18.9673 15.2485 18.7884 15.0255 18.6605 14.7784L19.2827 14.3693C19.3764 14.5341 19.5014 14.696 19.6577 14.8551C19.8168 15.0142 20.0227 15.1463 20.2756 15.2514C20.5313 15.3565 20.8452 15.4091 21.2173 15.4091C21.7969 15.4091 22.2642 15.2642 22.6193 14.9744C22.9773 14.6846 23.1562 14.2343 23.1562 13.6235V12.1491H23.0881C23 12.348 22.8736 12.5468 22.7088 12.7457C22.544 12.9417 22.3281 13.1051 22.0611 13.2358C21.7969 13.3664 21.4688 13.4318 21.0767 13.4318C20.554 13.4318 20.0895 13.3025 19.6832 13.044C19.2798 12.7855 18.9616 12.4162 18.7287 11.936C18.4986 11.4531 18.3835 10.8778 18.3835 10.2102C18.3835 9.54826 18.4957 8.96588 18.7202 8.46304C18.9474 7.9602 19.2642 7.56815 19.6705 7.2869C20.0767 7.00565 20.5497 6.86503 21.0895 6.86503C21.4901 6.86503 21.8224 6.93605 22.0866 7.07809C22.3509 7.2173 22.5625 7.39059 22.7216 7.59798C22.8835 7.80537 23.0099 8.00707 23.1009 8.20309H23.1776V6.95451H23.919V13.6704C23.919 14.2244 23.8011 14.6804 23.5653 15.0383C23.3295 15.3963 23.0085 15.6605 22.6023 15.8309C22.196 16.0042 21.7344 16.0909 21.2173 16.0909ZM21.1662 12.7372C21.5866 12.7372 21.946 12.6363 22.2443 12.4346C22.5426 12.2301 22.7713 11.9375 22.9304 11.5568C23.0895 11.1761 23.169 10.723 23.169 10.1974C23.169 9.68605 23.0909 9.23292 22.9347 8.83804C22.7784 8.44031 22.5511 8.12781 22.2528 7.90054C21.9574 7.67042 21.5952 7.55537 21.1662 7.55537C20.7287 7.55537 20.3594 7.67326 20.0582 7.90906C19.7571 8.14486 19.5298 8.46304 19.3764 8.86361C19.223 9.26133 19.1463 9.70594 19.1463 10.1974C19.1463 10.6974 19.2244 11.1392 19.3807 11.5227C19.5369 11.9034 19.7656 12.2017 20.0668 12.4176C20.3679 12.6307 20.7344 12.7372 21.1662 12.7372ZM28.5735 13.6363C27.9627 13.6363 27.4343 13.4943 26.9883 13.2102C26.5423 12.9233 26.1971 12.527 25.9528 12.0213C25.7113 11.5128 25.5906 10.9275 25.5906 10.2656C25.5906 9.6065 25.7113 9.02128 25.9528 8.50991C26.1971 7.99571 26.5337 7.59372 26.9627 7.30395C27.3945 7.01133 27.8931 6.86503 28.4585 6.86503C28.8136 6.86503 29.1559 6.93037 29.4854 7.06105C29.815 7.18889 30.1104 7.38633 30.3718 7.65338C30.636 7.91758 30.8448 8.25139 30.9982 8.6548C31.1516 9.05537 31.2283 9.5298 31.2283 10.0781V10.4531H26.1147V9.78406H30.4528C30.4528 9.36361 30.3675 8.98576 30.1971 8.65054C30.0295 8.31247 29.7951 8.04542 29.494 7.8494C29.1957 7.65338 28.8505 7.55537 28.4585 7.55537C28.0437 7.55537 27.6786 7.66616 27.3633 7.88775C27.0479 8.10934 26.8008 8.40196 26.6218 8.76559C26.4457 9.12923 26.3562 9.52696 26.3533 9.95878V10.3593C26.3533 10.8792 26.4428 11.3338 26.6218 11.723C26.8036 12.1093 27.0607 12.4091 27.3931 12.6221C27.7255 12.8352 28.119 12.9417 28.5735 12.9417C28.8832 12.9417 29.1545 12.8934 29.3874 12.7968C29.6232 12.7003 29.8207 12.571 29.9798 12.4091C30.1417 12.2443 30.2638 12.0639 30.3462 11.8679L31.0664 12.1022C30.967 12.3778 30.8036 12.6321 30.5763 12.865C30.3519 13.098 30.0707 13.2855 29.7326 13.4275C29.3974 13.5667 29.011 13.6363 28.5735 13.6363ZM35.478 6.95451V7.61503H32.3544V6.95451H35.478ZM33.3303 5.38633H34.093V11.7912C34.093 12.0639 34.1399 12.2784 34.2337 12.4346C34.3274 12.588 34.4496 12.6974 34.6001 12.7628C34.7507 12.8253 34.9112 12.8565 35.0817 12.8565C35.1811 12.8565 35.2663 12.8508 35.3374 12.8395C35.4084 12.8253 35.4709 12.811 35.5249 12.7968L35.6868 13.4829C35.6129 13.5113 35.522 13.5369 35.4141 13.5596C35.3061 13.5852 35.1726 13.598 35.0135 13.598C34.7351 13.598 34.4666 13.5369 34.2081 13.4147C33.9524 13.2926 33.7422 13.1108 33.5774 12.8693C33.4126 12.6278 33.3303 12.3281 33.3303 11.9701V5.38633ZM40.7333 13.5V4.7727H43.5501C44.1694 4.7727 44.6864 4.89201 45.1012 5.13065C45.5188 5.36645 45.8327 5.68747 46.043 6.09372C46.256 6.49997 46.3626 6.95736 46.3626 7.46588C46.3626 7.9744 46.2575 8.43321 46.0472 8.8423C45.837 9.24855 45.5245 9.57099 45.1097 9.80963C44.695 10.0454 44.1793 10.1633 43.5629 10.1633H41.3469V9.44741H43.5415C43.9989 9.44741 44.3782 9.36219 44.6793 9.19173C44.9805 9.01844 45.2049 8.78264 45.3526 8.48434C45.5032 8.18605 45.5785 7.84656 45.5785 7.46588C45.5785 7.0852 45.5032 6.74571 45.3526 6.44741C45.2049 6.14912 44.979 5.91474 44.6751 5.74429C44.3739 5.57383 43.9918 5.48861 43.5288 5.48861H41.5302V13.5H40.7333ZM49.9038 13.6491C49.5089 13.6491 49.1481 13.5724 48.8214 13.419C48.4947 13.2628 48.2347 13.0383 48.0415 12.7457C47.8484 12.4503 47.7518 12.0923 47.7518 11.6718C47.7518 11.348 47.8129 11.0753 47.935 10.8537C48.0572 10.6321 48.2305 10.4503 48.4549 10.3082C48.6793 10.1662 48.945 10.0539 49.2518 9.97156C49.5586 9.88917 49.8967 9.82525 50.266 9.7798C50.6325 9.73434 50.9421 9.69457 51.195 9.66048C51.4506 9.62639 51.6452 9.57241 51.7788 9.49855C51.9123 9.42469 51.979 9.30537 51.979 9.14059V8.98719C51.979 8.54116 51.8455 8.19031 51.5785 7.93463C51.3143 7.67611 50.9336 7.54684 50.4364 7.54684C49.9648 7.54684 49.5799 7.65054 49.2816 7.85792C48.9862 8.06531 48.7788 8.30963 48.6594 8.59088L47.9393 8.33094C48.087 7.97298 48.2915 7.68747 48.5529 7.4744C48.8143 7.25849 49.1069 7.10366 49.4308 7.00991C49.7546 6.91332 50.0827 6.86503 50.4151 6.86503C50.6651 6.86503 50.9251 6.8977 51.195 6.96304C51.4677 7.02838 51.7205 7.14201 51.9535 7.30395C52.1864 7.46304 52.3754 7.68605 52.5202 7.97298C52.6651 8.25707 52.7376 8.61787 52.7376 9.05537V13.5H51.979V12.4645H51.9322C51.8413 12.6576 51.7063 12.8451 51.5273 13.027C51.3484 13.2088 51.1239 13.3579 50.854 13.4744C50.5842 13.5909 50.2674 13.6491 49.9038 13.6491ZM50.006 12.9545C50.4094 12.9545 50.7589 12.865 51.0543 12.686C51.3498 12.5071 51.5771 12.2699 51.7362 11.9744C51.8981 11.6761 51.979 11.348 51.979 10.99V10.044C51.9222 10.098 51.8271 10.1463 51.6935 10.1889C51.5629 10.2315 51.4109 10.2699 51.2376 10.3039C51.0671 10.3352 50.8967 10.3622 50.7262 10.3849C50.5558 10.4076 50.4023 10.4275 50.266 10.4446C49.8967 10.49 49.5813 10.561 49.32 10.6576C49.0586 10.7542 48.8583 10.8878 48.7191 11.0582C48.5799 11.2258 48.5103 11.4417 48.5103 11.7059C48.5103 12.1037 48.6523 12.4119 48.9364 12.6307C49.2205 12.8466 49.5771 12.9545 50.006 12.9545ZM59.1531 8.39059L58.4585 8.58662C58.3903 8.39059 58.2937 8.21304 58.1687 8.05395C58.0437 7.89486 57.8803 7.76844 57.6786 7.67469C57.4798 7.58094 57.2326 7.53406 56.9371 7.53406C56.494 7.53406 56.1303 7.63917 55.8462 7.8494C55.5621 8.05963 55.4201 8.33094 55.4201 8.66332C55.4201 8.94457 55.5167 9.17326 55.7099 9.3494C55.9059 9.5227 56.207 9.66048 56.6133 9.76275L57.6019 10.0057C58.1502 10.1392 58.5607 10.3508 58.8335 10.6406C59.109 10.9304 59.2468 11.294 59.2468 11.7315C59.2468 12.1008 59.1445 12.4289 58.94 12.7159C58.7354 13.0028 58.4499 13.2287 58.0835 13.3934C57.7198 13.5554 57.2979 13.6363 56.8178 13.6363C56.1786 13.6363 55.6516 13.4929 55.2369 13.2059C54.8221 12.9162 54.5565 12.4985 54.44 11.9531L55.1687 11.7741C55.2624 12.1633 55.4457 12.4574 55.7184 12.6562C55.994 12.8551 56.3562 12.9545 56.805 12.9545C57.3079 12.9545 57.7099 12.8423 58.011 12.6179C58.3121 12.3906 58.4627 12.1065 58.4627 11.7656C58.4627 11.5014 58.3746 11.2798 58.1985 11.1008C58.0224 10.919 57.7553 10.7855 57.3974 10.7003L56.3278 10.4446C55.7596 10.3082 55.3391 10.0923 55.0664 9.79684C54.7937 9.50139 54.6573 9.13491 54.6573 8.69741C54.6573 8.33662 54.7553 8.01986 54.9513 7.74713C55.1474 7.47156 55.4173 7.25565 55.761 7.0994C56.1048 6.94315 56.4968 6.86503 56.9371 6.86503C57.5366 6.86503 58.0153 7.00139 58.3732 7.27412C58.734 7.544 58.994 7.91616 59.1531 8.39059ZM65.3054 8.39059L64.6108 8.58662C64.5426 8.39059 64.446 8.21304 64.321 8.05395C64.196 7.89486 64.0327 7.76844 63.831 7.67469C63.6321 7.58094 63.3849 7.53406 63.0895 7.53406C62.6463 7.53406 62.2827 7.63917 61.9986 7.8494C61.7145 8.05963 61.5724 8.33094 61.5724 8.66332C61.5724 8.94457 61.669 9.17326 61.8622 9.3494C62.0582 9.5227 62.3594 9.66048 62.7656 9.76275L63.7543 10.0057C64.3026 10.1392 64.7131 10.3508 64.9858 10.6406C65.2614 10.9304 65.3991 11.294 65.3991 11.7315C65.3991 12.1008 65.2969 12.4289 65.0923 12.7159C64.8878 13.0028 64.6023 13.2287 64.2358 13.3934C63.8722 13.5554 63.4503 13.6363 62.9702 13.6363C62.331 13.6363 61.804 13.4929 61.3892 13.2059C60.9744 12.9162 60.7088 12.4985 60.5923 11.9531L61.321 11.7741C61.4148 12.1633 61.598 12.4574 61.8707 12.6562C62.1463 12.8551 62.5085 12.9545 62.9574 12.9545C63.4602 12.9545 63.8622 12.8423 64.1634 12.6179C64.4645 12.3906 64.6151 12.1065 64.6151 11.7656C64.6151 11.5014 64.527 11.2798 64.3509 11.1008C64.1747 10.919 63.9077 10.7855 63.5497 10.7003L62.4801 10.4446C61.9119 10.3082 61.4915 10.0923 61.2188 9.79684C60.946 9.50139 60.8097 9.13491 60.8097 8.69741C60.8097 8.33662 60.9077 8.01986 61.1037 7.74713C61.2997 7.47156 61.5696 7.25565 61.9134 7.0994C62.2571 6.94315 62.6491 6.86503 63.0895 6.86503C63.6889 6.86503 64.1676 7.00139 64.5256 7.27412C64.8864 7.544 65.1463 7.91616 65.3054 8.39059ZM68.5131 13.5L66.5359 6.95451H67.337L68.8881 12.3537H68.9435L70.4904 6.95451H71.2958L72.8299 12.3409H72.8896L74.4407 6.95451H75.2418L73.2646 13.5H72.4805L70.9293 8.13491H70.8484L69.2972 13.5H68.5131ZM79.0376 13.6363C78.4723 13.6363 77.9723 13.4929 77.5376 13.2059C77.1058 12.919 76.7678 12.5227 76.5234 12.017C76.2791 11.5085 76.157 10.9218 76.157 10.2571C76.157 9.58662 76.2791 8.99713 76.5234 8.48861C76.7678 7.97724 77.1058 7.57951 77.5376 7.29542C77.9723 7.00849 78.4723 6.86503 79.0376 6.86503C79.603 6.86503 80.1016 7.00849 80.5334 7.29542C80.9652 7.58236 81.3033 7.98008 81.5476 8.48861C81.7947 8.99713 81.9183 9.58662 81.9183 10.2571C81.9183 10.9218 81.7962 11.5085 81.5518 12.017C81.3075 12.5227 80.968 12.919 80.5334 13.2059C80.1016 13.4929 79.603 13.6363 79.0376 13.6363ZM79.0376 12.9417C79.4922 12.9417 79.8771 12.8196 80.1925 12.5753C80.5078 12.3309 80.7464 12.0057 80.9084 11.5994C81.0732 11.1932 81.1555 10.7457 81.1555 10.2571C81.1555 9.76844 81.0732 9.31957 80.9084 8.91048C80.7464 8.50139 80.5078 8.17326 80.1925 7.92611C79.8771 7.67895 79.4922 7.55537 79.0376 7.55537C78.5859 7.55537 78.201 7.67895 77.8828 7.92611C77.5675 8.17326 77.3274 8.50139 77.1626 8.91048C77.0007 9.31957 76.9197 9.76844 76.9197 10.2571C76.9197 10.7457 77.0007 11.1932 77.1626 11.5994C77.3274 12.0057 77.5675 12.3309 77.8828 12.5753C78.1982 12.8196 78.5831 12.9417 79.0376 12.9417ZM83.5835 13.5V6.95451H84.3207V7.9602H84.3761C84.5067 7.63065 84.734 7.36503 85.0579 7.16332C85.3846 6.95878 85.7539 6.8565 86.1658 6.8565C86.2283 6.8565 86.2979 6.85792 86.3746 6.86076C86.4513 6.86361 86.5153 6.86645 86.5664 6.86929V7.64059C86.5323 7.63491 86.4727 7.62639 86.3874 7.61503C86.3022 7.60366 86.2099 7.59798 86.1104 7.59798C85.7695 7.59798 85.4656 7.67042 85.1985 7.81531C84.9343 7.95736 84.7255 8.1548 84.5721 8.40764C84.4187 8.66048 84.342 8.94883 84.342 9.2727V13.5H83.5835ZM90.0181 13.6363C89.4812 13.6363 89.011 13.4943 88.6076 13.2102C88.2042 12.9261 87.8888 12.5298 87.6616 12.0213C87.4371 11.5128 87.3249 10.9204 87.3249 10.2443C87.3249 9.57099 87.4371 8.9815 87.6616 8.47582C87.8888 7.9673 88.2056 7.57241 88.6119 7.29116C89.0181 7.00707 89.4911 6.86503 90.0309 6.86503C90.4286 6.86503 90.7596 6.93605 91.0238 7.07809C91.288 7.2173 91.4996 7.39059 91.6587 7.59798C91.8178 7.80537 91.9414 8.00707 92.0295 8.20309H92.0977V4.7727H92.8604V13.5H92.119V12.2855H92.0295C91.9414 12.4843 91.8164 12.6889 91.6545 12.8991C91.4925 13.1065 91.2781 13.2812 91.011 13.4233C90.7468 13.5653 90.4158 13.6363 90.0181 13.6363ZM90.1076 12.9417C90.5309 12.9417 90.8917 12.8267 91.19 12.5966C91.4883 12.3636 91.7156 12.044 91.8718 11.6378C92.0309 11.2287 92.1104 10.7599 92.1104 10.2315C92.1104 9.70878 92.0323 9.24713 91.8761 8.84656C91.7198 8.44315 91.4925 8.12781 91.1942 7.90054C90.896 7.67042 90.5337 7.55537 90.1076 7.55537C89.6701 7.55537 89.3008 7.67469 88.9996 7.91332C88.7013 8.14912 88.4741 8.46872 88.3178 8.87213C88.1644 9.27554 88.0877 9.72866 88.0877 10.2315C88.0877 10.74 88.1658 11.1988 88.3221 11.6079C88.4783 12.017 88.7056 12.3423 89.0039 12.5838C89.305 12.8224 89.6729 12.9417 90.1076 12.9417ZM99.7127 10.9985V10.7684C99.7156 10.3196 99.7653 9.95451 99.8619 9.67326C99.9585 9.39201 100.1 9.1548 100.288 8.96162C100.478 8.76559 100.714 8.57809 100.995 8.39912C101.206 8.26275 101.382 8.11929 101.524 7.96872C101.669 7.81531 101.778 7.6477 101.852 7.46588C101.929 7.28122 101.967 7.08094 101.967 6.86503C101.967 6.55821 101.895 6.28974 101.75 6.05963C101.608 5.82951 101.414 5.65196 101.17 5.52696C100.926 5.39912 100.654 5.3352 100.356 5.3352C100.072 5.3352 99.8065 5.3977 99.5593 5.5227C99.315 5.64486 99.1147 5.82667 98.9585 6.06815C98.805 6.30679 98.7212 6.60224 98.707 6.95451H97.9016C97.9158 6.48576 98.0323 6.07951 98.2511 5.73576C98.4698 5.39201 98.7624 5.12639 99.1289 4.93889C99.4954 4.74855 99.9045 4.65338 100.356 4.65338C100.828 4.65338 101.243 4.75139 101.6 4.94741C101.958 5.14059 102.238 5.40622 102.44 5.74429C102.642 6.07951 102.743 6.46446 102.743 6.89912C102.743 7.18605 102.697 7.44741 102.606 7.68321C102.515 7.919 102.379 8.13633 102.197 8.3352C102.018 8.53406 101.794 8.72156 101.524 8.8977C101.268 9.06815 101.065 9.23719 100.914 9.4048C100.764 9.57241 100.656 9.76417 100.591 9.98008C100.525 10.1932 100.49 10.4559 100.484 10.7684V10.9985H99.7127ZM100.122 13.5639C99.9542 13.5639 99.8093 13.5042 99.6871 13.3849C99.5678 13.2628 99.5082 13.1179 99.5082 12.9503C99.5082 12.7798 99.5678 12.6349 99.6871 12.5156C99.8093 12.3963 99.9542 12.3366 100.122 12.3366C100.289 12.3366 100.433 12.3963 100.552 12.5156C100.674 12.6349 100.735 12.7798 100.735 12.9503C100.735 13.061 100.707 13.1633 100.65 13.2571C100.596 13.3508 100.522 13.4261 100.429 13.4829C100.338 13.5369 100.235 13.5639 100.122 13.5639Z" fill="white"/>
<line x1="2.96293e-07" y1="18" x2="103" y2="18.0001" stroke="white"/>
</svg>
