<svg width="390" height="844" viewBox="0 0 390 844" fill="none" xmlns="http://www.w3.org/2000/svg">
<rect width="390" height="844" fill="black"/>
<path d="M57.7244 114.727C57.7244 118.058 57.093 120.892 55.8303 123.229C54.5774 125.565 52.8672 127.35 50.6996 128.583C48.5419 129.806 46.1158 130.418 43.4212 130.418C40.7067 130.418 38.2706 129.801 36.1129 128.568C33.9553 127.335 32.25 125.55 30.9972 123.214C29.7443 120.877 29.1179 118.048 29.1179 114.727C29.1179 111.396 29.7443 108.562 30.9972 106.226C32.25 103.889 33.9553 102.109 36.1129 100.886C38.2706 99.6534 40.7067 99.0369 43.4212 99.0369C46.1158 99.0369 48.5419 99.6534 50.6996 100.886C52.8672 102.109 54.5774 103.889 55.8303 106.226C57.093 108.562 57.7244 111.396 57.7244 114.727ZM51.1768 114.727C51.1768 112.57 50.8537 110.75 50.2074 109.268C49.571 107.787 48.6712 106.663 47.5078 105.898C46.3445 105.132 44.9822 104.749 43.4212 104.749C41.8601 104.749 40.4979 105.132 39.3345 105.898C38.1712 106.663 37.2663 107.787 36.62 109.268C35.9837 110.75 35.6655 112.57 35.6655 114.727C35.6655 116.885 35.9837 118.705 36.62 120.186C37.2663 121.668 38.1712 122.791 39.3345 123.557C40.4979 124.322 41.8601 124.705 43.4212 124.705C44.9822 124.705 46.3445 124.322 47.5078 123.557C48.6712 122.791 49.571 121.668 50.2074 120.186C50.8537 118.705 51.1768 116.885 51.1768 114.727ZM59.9505 104.779V99.4545H85.0371V104.779H75.6855V130H69.302V104.779H59.9505ZM89.1685 130V99.4545H101.22C103.536 99.4545 105.51 99.897 107.141 100.782C108.771 101.657 110.014 102.875 110.869 104.436C111.735 105.987 112.167 107.777 112.167 109.805C112.167 111.834 111.73 113.624 110.855 115.175C109.98 116.726 108.712 117.934 107.051 118.799C105.401 119.664 103.402 120.097 101.056 120.097H93.3745V114.921H100.012C101.254 114.921 102.279 114.707 103.084 114.28C103.899 113.842 104.506 113.241 104.904 112.475C105.311 111.7 105.515 110.81 105.515 109.805C105.515 108.791 105.311 107.906 104.904 107.151C104.506 106.385 103.899 105.793 103.084 105.376C102.269 104.948 101.235 104.734 99.9817 104.734H95.6266V130H89.1685ZM131.601 99.4545L138.984 122.662H139.267L146.665 99.4545H153.824L143.294 130H134.972L124.427 99.4545H131.601ZM165.238 130.447C162.881 130.447 160.853 129.97 159.152 129.016C157.462 128.051 156.159 126.689 155.245 124.929C154.33 123.159 153.873 121.066 153.873 118.65C153.873 116.293 154.33 114.225 155.245 112.445C156.159 110.665 157.447 109.278 159.108 108.284C160.778 107.29 162.737 106.793 164.984 106.793C166.495 106.793 167.902 107.036 169.205 107.523C170.517 108.001 171.661 108.722 172.635 109.686C173.62 110.651 174.385 111.864 174.932 113.325C175.479 114.777 175.752 116.477 175.752 118.426V120.171H156.408V116.234H169.772C169.772 115.319 169.573 114.509 169.175 113.803C168.777 113.097 168.225 112.545 167.52 112.147C166.824 111.739 166.013 111.536 165.088 111.536C164.124 111.536 163.269 111.759 162.523 112.207C161.787 112.644 161.211 113.236 160.793 113.982C160.375 114.717 160.162 115.538 160.152 116.442V120.186C160.152 121.32 160.36 122.299 160.778 123.124C161.206 123.95 161.807 124.586 162.583 125.033C163.358 125.481 164.278 125.705 165.342 125.705C166.048 125.705 166.694 125.605 167.281 125.406C167.868 125.207 168.37 124.909 168.787 124.511C169.205 124.114 169.523 123.626 169.742 123.05L175.618 123.438C175.32 124.849 174.708 126.082 173.784 127.136C172.869 128.18 171.686 128.996 170.234 129.582C168.792 130.159 167.127 130.447 165.238 130.447ZM179.899 130V107.091H186.059V111.088H186.297C186.715 109.666 187.416 108.592 188.4 107.866C189.385 107.131 190.518 106.763 191.801 106.763C192.119 106.763 192.462 106.783 192.83 106.822C193.198 106.862 193.521 106.917 193.799 106.987V112.624C193.501 112.535 193.088 112.455 192.561 112.386C192.034 112.316 191.552 112.281 191.115 112.281C190.18 112.281 189.345 112.485 188.609 112.893C187.883 113.29 187.306 113.847 186.879 114.563C186.461 115.279 186.252 116.104 186.252 117.039V130H179.899ZM197.084 130V107.091H203.438V130H197.084ZM200.276 104.138C199.331 104.138 198.521 103.825 197.845 103.198C197.179 102.562 196.846 101.801 196.846 100.916C196.846 100.041 197.179 99.2905 197.845 98.6641C198.521 98.0277 199.331 97.7095 200.276 97.7095C201.221 97.7095 202.026 98.0277 202.692 98.6641C203.368 99.2905 203.706 100.041 203.706 100.916C203.706 101.801 203.368 102.562 202.692 103.198C202.026 103.825 201.221 104.138 200.276 104.138ZM220.847 107.091V111.864H206.708V107.091H220.847ZM209.945 130V105.435C209.945 103.775 210.268 102.398 210.914 101.304C211.57 100.21 212.465 99.3899 213.599 98.843C214.732 98.2962 216.02 98.0227 217.462 98.0227C218.436 98.0227 219.326 98.0973 220.131 98.2464C220.947 98.3956 221.553 98.5298 221.951 98.6491L220.817 103.422C220.569 103.342 220.261 103.268 219.893 103.198C219.535 103.129 219.167 103.094 218.789 103.094C217.854 103.094 217.203 103.312 216.835 103.75C216.467 104.178 216.283 104.779 216.283 105.555V130H209.945ZM224.729 130V107.091H231.083V130H224.729ZM227.921 104.138C226.976 104.138 226.166 103.825 225.49 103.198C224.823 102.562 224.49 101.801 224.49 100.916C224.49 100.041 224.823 99.2905 225.49 98.6641C226.166 98.0277 226.976 97.7095 227.921 97.7095C228.865 97.7095 229.671 98.0277 230.337 98.6641C231.013 99.2905 231.351 100.041 231.351 100.916C231.351 101.801 231.013 102.562 230.337 103.198C229.671 103.825 228.865 104.138 227.921 104.138ZM246.523 130.447C244.176 130.447 242.158 129.95 240.468 128.956C238.787 127.952 237.495 126.56 236.59 124.78C235.695 123 235.248 120.952 235.248 118.635C235.248 116.288 235.7 114.23 236.605 112.46C237.52 110.68 238.817 109.293 240.498 108.299C242.178 107.295 244.176 106.793 246.493 106.793C248.492 106.793 250.242 107.156 251.743 107.881C253.245 108.607 254.433 109.626 255.308 110.939C256.183 112.251 256.665 113.793 256.755 115.562H250.759C250.59 114.419 250.142 113.499 249.417 112.803C248.701 112.097 247.761 111.744 246.598 111.744C245.613 111.744 244.753 112.013 244.017 112.55C243.292 113.077 242.725 113.847 242.317 114.862C241.909 115.876 241.706 117.104 241.706 118.545C241.706 120.007 241.904 121.25 242.302 122.274C242.71 123.298 243.282 124.079 244.017 124.616C244.753 125.153 245.613 125.421 246.598 125.421C247.324 125.421 247.975 125.272 248.551 124.974C249.138 124.675 249.62 124.243 249.998 123.676C250.386 123.099 250.64 122.408 250.759 121.603H256.755C256.655 123.353 256.178 124.894 255.323 126.227C254.478 127.549 253.309 128.583 251.818 129.329C250.326 130.075 248.561 130.447 246.523 130.447ZM267.355 130.433C265.894 130.433 264.591 130.179 263.448 129.672C262.304 129.155 261.399 128.394 260.733 127.39C260.077 126.376 259.749 125.113 259.749 123.602C259.749 122.329 259.982 121.26 260.45 120.395C260.917 119.53 261.553 118.834 262.359 118.307C263.164 117.78 264.079 117.382 265.103 117.114C266.137 116.845 267.221 116.656 268.355 116.547C269.687 116.408 270.761 116.278 271.576 116.159C272.392 116.03 272.983 115.841 273.351 115.592C273.719 115.344 273.903 114.976 273.903 114.489V114.399C273.903 113.455 273.605 112.724 273.008 112.207C272.421 111.69 271.586 111.431 270.502 111.431C269.359 111.431 268.449 111.685 267.773 112.192C267.097 112.689 266.649 113.315 266.431 114.071L260.554 113.594C260.852 112.202 261.439 110.999 262.314 109.984C263.189 108.96 264.318 108.175 265.7 107.628C267.092 107.071 268.703 106.793 270.532 106.793C271.805 106.793 273.023 106.942 274.186 107.24C275.36 107.538 276.399 108.001 277.303 108.627C278.218 109.254 278.939 110.059 279.466 111.043C279.993 112.018 280.257 113.186 280.257 114.548V130H274.231V126.823H274.052C273.684 127.539 273.192 128.17 272.575 128.717C271.959 129.254 271.218 129.677 270.353 129.985C269.488 130.283 268.489 130.433 267.355 130.433ZM269.175 126.048C270.11 126.048 270.935 125.864 271.651 125.496C272.367 125.118 272.928 124.611 273.336 123.974C273.744 123.338 273.948 122.617 273.948 121.812V119.381C273.749 119.51 273.475 119.629 273.127 119.739C272.789 119.838 272.406 119.933 271.979 120.022C271.551 120.102 271.124 120.176 270.696 120.246C270.269 120.305 269.881 120.36 269.533 120.41C268.787 120.519 268.136 120.693 267.579 120.932C267.022 121.17 266.59 121.494 266.281 121.901C265.973 122.299 265.819 122.796 265.819 123.393C265.819 124.258 266.132 124.919 266.759 125.376C267.395 125.824 268.2 126.048 269.175 126.048ZM297.371 107.091V111.864H283.575V107.091H297.371ZM286.707 101.602H293.061V122.96C293.061 123.547 293.15 124.004 293.329 124.332C293.508 124.651 293.757 124.874 294.075 125.004C294.403 125.133 294.781 125.197 295.209 125.197C295.507 125.197 295.805 125.173 296.104 125.123C296.402 125.063 296.631 125.018 296.79 124.989L297.789 129.717C297.471 129.816 297.023 129.93 296.447 130.06C295.87 130.199 295.169 130.283 294.344 130.313C292.812 130.373 291.47 130.169 290.317 129.702C289.173 129.234 288.283 128.509 287.647 127.524C287.01 126.54 286.697 125.297 286.707 123.795V101.602ZM301.51 130V107.091H307.864V130H301.51ZM304.702 104.138C303.757 104.138 302.947 103.825 302.271 103.198C301.605 102.562 301.271 101.801 301.271 100.916C301.271 100.041 301.605 99.2905 302.271 98.6641C302.947 98.0277 303.757 97.7095 304.702 97.7095C305.646 97.7095 306.452 98.0277 307.118 98.6641C307.794 99.2905 308.132 100.041 308.132 100.916C308.132 101.801 307.794 102.562 307.118 103.198C306.452 103.825 305.646 104.138 304.702 104.138ZM323.304 130.447C320.988 130.447 318.984 129.955 317.294 128.971C315.613 127.977 314.316 126.594 313.401 124.825C312.486 123.045 312.029 120.982 312.029 118.635C312.029 116.268 312.486 114.2 313.401 112.43C314.316 110.651 315.613 109.268 317.294 108.284C318.984 107.29 320.988 106.793 323.304 106.793C325.621 106.793 327.62 107.29 329.3 108.284C330.99 109.268 332.293 110.651 333.208 112.43C334.123 114.2 334.58 116.268 334.58 118.635C334.58 120.982 334.123 123.045 333.208 124.825C332.293 126.594 330.99 127.977 329.3 128.971C327.62 129.955 325.621 130.447 323.304 130.447ZM323.334 125.526C324.388 125.526 325.268 125.227 325.974 124.631C326.68 124.024 327.212 123.199 327.57 122.155C327.938 121.111 328.122 119.923 328.122 118.59C328.122 117.258 327.938 116.07 327.57 115.026C327.212 113.982 326.68 113.156 325.974 112.55C325.268 111.943 324.388 111.64 323.334 111.64C322.27 111.64 321.375 111.943 320.65 112.55C319.934 113.156 319.392 113.982 319.024 115.026C318.666 116.07 318.487 117.258 318.487 118.59C318.487 119.923 318.666 121.111 319.024 122.155C319.392 123.199 319.934 124.024 320.65 124.631C321.375 125.227 322.27 125.526 323.334 125.526ZM345.065 116.756V130H338.711V107.091H344.767V111.133H345.035C345.542 109.8 346.392 108.746 347.586 107.971C348.779 107.185 350.225 106.793 351.926 106.793C353.517 106.793 354.904 107.141 356.087 107.837C357.27 108.533 358.19 109.527 358.846 110.82C359.502 112.102 359.831 113.634 359.831 115.413V130H353.477V116.547C353.487 115.145 353.129 114.051 352.403 113.266C351.677 112.47 350.678 112.072 349.405 112.072C348.55 112.072 347.794 112.256 347.138 112.624C346.492 112.992 345.985 113.529 345.617 114.235C345.259 114.931 345.075 115.771 345.065 116.756Z" fill="#B86E13"/>
<g filter="url(#filter0_d_77_739)">
<rect x="40" y="174" width="61" height="61" fill="white"/>
</g>
<g filter="url(#filter1_d_77_739)">
<rect x="123" y="174" width="61" height="61" fill="white"/>
</g>
<g filter="url(#filter2_d_77_739)">
<rect x="206" y="174" width="61" height="61" fill="white"/>
</g>
<g filter="url(#filter3_d_77_739)">
<rect x="289" y="174" width="61" height="61" fill="white"/>
</g>
<rect x="110" y="296" width="170" height="50.7042" rx="10" fill="#B86E13"/>
<path d="M147.545 327.226V315.589H151.301C152.127 315.589 152.816 315.739 153.369 316.038C153.926 316.334 154.345 316.745 154.625 317.271C154.909 317.794 155.051 318.394 155.051 319.072C155.051 319.75 154.909 320.349 154.625 320.868C154.345 321.387 153.928 321.792 153.375 322.084C152.822 322.375 152.136 322.521 151.318 322.521H148.119V321.549H151.29C151.896 321.549 152.4 321.449 152.801 321.248C153.206 321.048 153.508 320.762 153.705 320.39C153.905 320.019 154.006 319.58 154.006 319.072C154.006 318.565 153.905 318.121 153.705 317.743C153.504 317.36 153.201 317.065 152.795 316.856C152.394 316.648 151.886 316.544 151.273 316.544H148.608V327.226H147.545ZM152.676 321.976L155.54 327.226H154.312L151.477 321.976H152.676ZM160.864 327.407C160.049 327.407 159.345 327.218 158.75 326.839C158.155 326.457 157.695 325.928 157.369 325.254C157.047 324.576 156.886 323.796 156.886 322.913C156.886 322.034 157.047 321.254 157.369 320.572C157.695 319.887 158.144 319.351 158.716 318.964C159.292 318.574 159.956 318.379 160.71 318.379C161.184 318.379 161.64 318.466 162.08 318.64C162.519 318.811 162.913 319.074 163.261 319.43C163.614 319.782 163.892 320.227 164.097 320.765C164.301 321.299 164.403 321.932 164.403 322.663V323.163H157.585V322.271H163.369C163.369 321.71 163.256 321.207 163.028 320.76C162.805 320.309 162.492 319.953 162.091 319.691C161.693 319.43 161.233 319.299 160.71 319.299C160.157 319.299 159.67 319.447 159.25 319.743C158.83 320.038 158.5 320.428 158.261 320.913C158.027 321.398 157.907 321.928 157.903 322.504V323.038C157.903 323.731 158.023 324.337 158.261 324.856C158.504 325.371 158.847 325.771 159.29 326.055C159.733 326.339 160.258 326.481 160.864 326.481C161.277 326.481 161.638 326.417 161.949 326.288C162.263 326.159 162.527 325.987 162.739 325.771C162.955 325.551 163.117 325.311 163.227 325.049L164.188 325.362C164.055 325.729 163.837 326.068 163.534 326.379C163.235 326.69 162.86 326.94 162.409 327.129C161.962 327.315 161.447 327.407 160.864 327.407ZM172.496 320.413L171.57 320.674C171.479 320.413 171.35 320.176 171.183 319.964C171.017 319.752 170.799 319.584 170.53 319.459C170.265 319.334 169.935 319.271 169.541 319.271C168.95 319.271 168.465 319.411 168.087 319.691C167.708 319.972 167.518 320.334 167.518 320.777C167.518 321.152 167.647 321.457 167.905 321.691C168.166 321.923 168.568 322.106 169.109 322.243L170.428 322.566C171.159 322.745 171.706 323.027 172.07 323.413C172.437 323.799 172.621 324.284 172.621 324.868C172.621 325.36 172.484 325.798 172.212 326.18C171.939 326.563 171.558 326.864 171.07 327.084C170.585 327.299 170.022 327.407 169.382 327.407C168.53 327.407 167.827 327.216 167.274 326.834C166.721 326.447 166.367 325.89 166.212 325.163L167.183 324.924C167.308 325.443 167.553 325.835 167.916 326.101C168.284 326.366 168.767 326.498 169.365 326.498C170.036 326.498 170.571 326.349 170.973 326.049C171.375 325.746 171.575 325.368 171.575 324.913C171.575 324.561 171.458 324.265 171.223 324.027C170.988 323.784 170.632 323.606 170.155 323.493L168.729 323.152C167.971 322.97 167.411 322.682 167.047 322.288C166.683 321.894 166.501 321.406 166.501 320.822C166.501 320.341 166.632 319.919 166.893 319.555C167.155 319.188 167.515 318.9 167.973 318.691C168.431 318.483 168.954 318.379 169.541 318.379C170.34 318.379 170.979 318.561 171.456 318.924C171.937 319.284 172.284 319.781 172.496 320.413ZM178.364 327.407C177.549 327.407 176.845 327.218 176.25 326.839C175.655 326.457 175.195 325.928 174.869 325.254C174.547 324.576 174.386 323.796 174.386 322.913C174.386 322.034 174.547 321.254 174.869 320.572C175.195 319.887 175.644 319.351 176.216 318.964C176.792 318.574 177.456 318.379 178.21 318.379C178.684 318.379 179.14 318.466 179.58 318.64C180.019 318.811 180.413 319.074 180.761 319.43C181.114 319.782 181.392 320.227 181.597 320.765C181.801 321.299 181.903 321.932 181.903 322.663V323.163H175.085V322.271H180.869C180.869 321.71 180.756 321.207 180.528 320.76C180.305 320.309 179.992 319.953 179.591 319.691C179.193 319.43 178.733 319.299 178.21 319.299C177.657 319.299 177.17 319.447 176.75 319.743C176.33 320.038 176 320.428 175.761 320.913C175.527 321.398 175.407 321.928 175.403 322.504V323.038C175.403 323.731 175.523 324.337 175.761 324.856C176.004 325.371 176.347 325.771 176.79 326.055C177.233 326.339 177.758 326.481 178.364 326.481C178.777 326.481 179.138 326.417 179.449 326.288C179.763 326.159 180.027 325.987 180.239 325.771C180.455 325.551 180.617 325.311 180.727 325.049L181.688 325.362C181.555 325.729 181.337 326.068 181.034 326.379C180.735 326.69 180.36 326.94 179.909 327.129C179.462 327.315 178.947 327.407 178.364 327.407ZM185.143 321.771V327.226H184.132V318.498H185.115V319.868H185.206C185.411 319.421 185.729 319.063 186.161 318.794C186.596 318.521 187.134 318.385 187.774 318.385C188.361 318.385 188.876 318.508 189.32 318.754C189.767 318.996 190.113 319.354 190.359 319.828C190.609 320.301 190.734 320.883 190.734 321.572V327.226H189.723V321.635C189.723 320.919 189.522 320.352 189.121 319.936C188.723 319.519 188.189 319.311 187.518 319.311C187.06 319.311 186.653 319.409 186.297 319.606C185.941 319.803 185.659 320.087 185.45 320.459C185.246 320.826 185.143 321.263 185.143 321.771ZM196.54 327.407C195.824 327.407 195.197 327.218 194.659 326.839C194.121 326.46 193.701 325.932 193.398 325.254C193.098 324.576 192.949 323.786 192.949 322.885C192.949 321.987 193.098 321.201 193.398 320.527C193.701 319.849 194.123 319.322 194.665 318.947C195.206 318.568 195.837 318.379 196.557 318.379C197.087 318.379 197.528 318.474 197.881 318.663C198.233 318.849 198.515 319.08 198.727 319.356C198.939 319.633 199.104 319.902 199.222 320.163H199.312V315.589H200.33V327.226H199.341V325.606H199.222C199.104 325.871 198.938 326.144 198.722 326.424C198.506 326.701 198.22 326.934 197.864 327.123C197.511 327.313 197.07 327.407 196.54 327.407ZM196.659 326.481C197.223 326.481 197.705 326.328 198.102 326.021C198.5 325.71 198.803 325.284 199.011 324.743C199.223 324.197 199.33 323.572 199.33 322.868C199.33 322.171 199.225 321.555 199.017 321.021C198.809 320.483 198.506 320.063 198.108 319.76C197.71 319.453 197.227 319.299 196.659 319.299C196.076 319.299 195.583 319.459 195.182 319.777C194.784 320.091 194.481 320.517 194.273 321.055C194.068 321.593 193.966 322.197 193.966 322.868C193.966 323.546 194.07 324.157 194.278 324.703C194.487 325.248 194.79 325.682 195.188 326.004C195.589 326.322 196.08 326.481 196.659 326.481ZM211.119 327.407C210.339 327.407 209.659 327.212 209.08 326.822C208.504 326.432 208.057 325.898 207.739 325.22C207.42 324.542 207.261 323.769 207.261 322.902C207.261 322.027 207.422 321.248 207.744 320.566C208.07 319.885 208.521 319.351 209.097 318.964C209.672 318.574 210.341 318.379 211.102 318.379C211.686 318.379 212.214 318.493 212.688 318.72C213.161 318.943 213.551 319.26 213.858 319.669C214.169 320.074 214.364 320.548 214.443 321.089H213.42C213.314 320.597 213.059 320.176 212.653 319.828C212.252 319.476 211.741 319.299 211.119 319.299C210.563 319.299 210.07 319.451 209.642 319.754C209.214 320.053 208.879 320.472 208.636 321.01C208.398 321.544 208.278 322.163 208.278 322.868C208.278 323.576 208.396 324.203 208.631 324.748C208.866 325.29 209.195 325.714 209.619 326.021C210.047 326.328 210.547 326.481 211.119 326.481C211.506 326.481 211.858 326.409 212.176 326.265C212.498 326.118 212.767 325.909 212.983 325.64C213.203 325.371 213.35 325.051 213.426 324.68H214.449C214.373 325.207 214.186 325.676 213.886 326.089C213.591 326.498 213.206 326.82 212.733 327.055C212.263 327.29 211.725 327.407 211.119 327.407ZM220.009 327.407C219.255 327.407 218.588 327.216 218.009 326.834C217.433 326.451 216.982 325.923 216.656 325.248C216.33 324.57 216.168 323.788 216.168 322.902C216.168 322.008 216.33 321.222 216.656 320.544C216.982 319.862 217.433 319.332 218.009 318.953C218.588 318.57 219.255 318.379 220.009 318.379C220.762 318.379 221.427 318.57 222.003 318.953C222.579 319.335 223.029 319.866 223.355 320.544C223.685 321.222 223.849 322.008 223.849 322.902C223.849 323.788 223.687 324.57 223.361 325.248C223.035 325.923 222.582 326.451 222.003 326.834C221.427 327.216 220.762 327.407 220.009 327.407ZM220.009 326.481C220.615 326.481 221.128 326.318 221.548 325.993C221.969 325.667 222.287 325.233 222.503 324.691C222.723 324.15 222.832 323.553 222.832 322.902C222.832 322.25 222.723 321.652 222.503 321.106C222.287 320.561 221.969 320.123 221.548 319.794C221.128 319.464 220.615 319.299 220.009 319.299C219.406 319.299 218.893 319.464 218.469 319.794C218.048 320.123 217.728 320.561 217.509 321.106C217.293 321.652 217.185 322.25 217.185 322.902C217.185 323.553 217.293 324.15 217.509 324.691C217.728 325.233 218.048 325.667 218.469 325.993C218.889 326.318 219.402 326.481 220.009 326.481ZM229.212 327.407C228.496 327.407 227.869 327.218 227.331 326.839C226.793 326.46 226.373 325.932 226.07 325.254C225.77 324.576 225.621 323.786 225.621 322.885C225.621 321.987 225.77 321.201 226.07 320.527C226.373 319.849 226.795 319.322 227.337 318.947C227.878 318.568 228.509 318.379 229.229 318.379C229.759 318.379 230.2 318.474 230.553 318.663C230.905 318.849 231.187 319.08 231.399 319.356C231.611 319.633 231.776 319.902 231.893 320.163H231.984V315.589H233.001V327.226H232.013V325.606H231.893C231.776 325.871 231.609 326.144 231.393 326.424C231.178 326.701 230.892 326.934 230.536 327.123C230.183 327.313 229.742 327.407 229.212 327.407ZM229.331 326.481C229.895 326.481 230.376 326.328 230.774 326.021C231.172 325.71 231.475 325.284 231.683 324.743C231.895 324.197 232.001 323.572 232.001 322.868C232.001 322.171 231.897 321.555 231.689 321.021C231.481 320.483 231.178 320.063 230.78 319.76C230.382 319.453 229.899 319.299 229.331 319.299C228.748 319.299 228.255 319.459 227.854 319.777C227.456 320.091 227.153 320.517 226.945 321.055C226.74 321.593 226.638 322.197 226.638 322.868C226.638 323.546 226.742 324.157 226.95 324.703C227.159 325.248 227.462 325.682 227.859 326.004C228.261 326.322 228.751 326.481 229.331 326.481ZM239.411 327.407C238.596 327.407 237.892 327.218 237.297 326.839C236.702 326.457 236.242 325.928 235.916 325.254C235.594 324.576 235.433 323.796 235.433 322.913C235.433 322.034 235.594 321.254 235.916 320.572C236.242 319.887 236.691 319.351 237.263 318.964C237.839 318.574 238.503 318.379 239.257 318.379C239.731 318.379 240.187 318.466 240.626 318.64C241.066 318.811 241.46 319.074 241.808 319.43C242.161 319.782 242.439 320.227 242.643 320.765C242.848 321.299 242.95 321.932 242.95 322.663V323.163H236.132V322.271H241.916C241.916 321.71 241.803 321.207 241.575 320.76C241.352 320.309 241.039 319.953 240.638 319.691C240.24 319.43 239.78 319.299 239.257 319.299C238.704 319.299 238.217 319.447 237.797 319.743C237.376 320.038 237.047 320.428 236.808 320.913C236.573 321.398 236.454 321.928 236.45 322.504V323.038C236.45 323.731 236.57 324.337 236.808 324.856C237.051 325.371 237.393 325.771 237.837 326.055C238.28 326.339 238.804 326.481 239.411 326.481C239.823 326.481 240.185 326.417 240.496 326.288C240.81 326.159 241.073 325.987 241.286 325.771C241.501 325.551 241.664 325.311 241.774 325.049L242.734 325.362C242.602 325.729 242.384 326.068 242.081 326.379C241.782 326.69 241.407 326.94 240.956 327.129C240.509 327.315 239.994 327.407 239.411 327.407Z" fill="black"/>
<rect x="41" y="707" width="131" height="50" rx="10" fill="#B86E13"/>
<path d="M112.739 739V725.909H117.156C118.008 725.909 118.717 726.058 119.284 726.357C119.855 726.655 120.283 727.062 120.569 727.577C120.854 728.093 120.997 728.679 120.997 729.335C120.997 729.881 120.906 730.347 120.722 730.735C120.539 731.123 120.29 731.436 119.974 731.675C119.659 731.913 119.308 732.086 118.92 732.192V732.295C119.342 732.325 119.751 732.474 120.147 732.742C120.543 733.006 120.869 733.377 121.125 733.854C121.381 734.332 121.509 734.903 121.509 735.567C121.509 736.228 121.362 736.818 121.067 737.338C120.773 737.854 120.322 738.261 119.712 738.559C119.107 738.853 118.336 739 117.398 739H112.739ZM113.934 737.926H117.398C118.408 737.926 119.154 737.702 119.636 737.255C120.121 736.808 120.364 736.245 120.364 735.567C120.364 735.069 120.243 734.617 120 734.212C119.761 733.803 119.423 733.479 118.984 733.241C118.549 733.002 118.038 732.883 117.45 732.883H113.934V737.926ZM113.934 731.822H117.264C117.78 731.822 118.232 731.715 118.619 731.502C119.007 731.289 119.31 730.995 119.527 730.62C119.744 730.245 119.853 729.817 119.853 729.335C119.853 728.641 119.627 728.076 119.175 727.641C118.724 727.202 118.05 726.983 117.156 726.983H113.934V731.822ZM126.899 739.224C126.306 739.224 125.765 739.109 125.275 738.879C124.785 738.644 124.395 738.308 124.105 737.869C123.816 737.425 123.671 736.888 123.671 736.258C123.671 735.772 123.762 735.363 123.945 735.031C124.129 734.698 124.389 734.425 124.725 734.212C125.062 733.999 125.46 733.831 125.921 733.707C126.381 733.584 126.888 733.488 127.442 733.42C127.992 733.352 128.456 733.292 128.835 733.241C129.219 733.19 129.511 733.109 129.711 732.998C129.911 732.887 130.012 732.708 130.012 732.461V732.231C130.012 731.562 129.811 731.036 129.411 730.652C129.014 730.264 128.443 730.07 127.698 730.07C126.99 730.07 126.413 730.226 125.965 730.537C125.522 730.848 125.211 731.214 125.032 731.636L123.952 731.246C124.173 730.71 124.48 730.281 124.872 729.962C125.264 729.638 125.703 729.406 126.189 729.265C126.675 729.12 127.167 729.048 127.666 729.048C128.041 729.048 128.431 729.097 128.835 729.195C129.244 729.293 129.624 729.463 129.973 729.706C130.323 729.945 130.606 730.279 130.823 730.71C131.041 731.136 131.149 731.677 131.149 732.333V739H130.012V737.447H129.941C129.805 737.737 129.602 738.018 129.334 738.29C129.066 738.563 128.729 738.787 128.324 738.962C127.919 739.136 127.444 739.224 126.899 739.224ZM127.052 738.182C127.657 738.182 128.181 738.048 128.624 737.779C129.068 737.511 129.409 737.155 129.647 736.712C129.89 736.264 130.012 735.772 130.012 735.235V733.816C129.926 733.897 129.784 733.969 129.583 734.033C129.387 734.097 129.159 734.155 128.899 734.206C128.644 734.253 128.388 734.293 128.132 734.327C127.877 734.362 127.646 734.391 127.442 734.417C126.888 734.485 126.415 734.592 126.023 734.737C125.631 734.881 125.33 735.082 125.122 735.337C124.913 735.589 124.808 735.913 124.808 736.309C124.808 736.906 125.021 737.368 125.448 737.696C125.874 738.02 126.409 738.182 127.052 738.182ZM138.011 739.205C137.133 739.205 136.368 738.985 135.716 738.546C135.069 738.107 134.566 737.506 134.208 736.744C133.85 735.981 133.671 735.112 133.671 734.136C133.671 733.151 133.852 732.276 134.214 731.509C134.581 730.741 135.088 730.141 135.736 729.706C136.383 729.267 137.135 729.048 137.992 729.048C138.648 729.048 139.243 729.175 139.775 729.431C140.308 729.683 140.747 730.038 141.092 730.499C141.442 730.955 141.661 731.487 141.751 732.097H140.6C140.481 731.543 140.193 731.07 139.737 730.678C139.285 730.281 138.71 730.083 138.011 730.083C137.385 730.083 136.831 730.254 136.349 730.594C135.868 730.931 135.491 731.402 135.218 732.007C134.949 732.608 134.815 733.305 134.815 734.097C134.815 734.894 134.947 735.599 135.211 736.213C135.476 736.822 135.846 737.3 136.324 737.645C136.805 737.99 137.368 738.163 138.011 738.163C138.446 738.163 138.842 738.082 139.2 737.92C139.562 737.754 139.865 737.519 140.108 737.217C140.355 736.914 140.521 736.554 140.606 736.136H141.757C141.672 736.729 141.461 737.257 141.124 737.722C140.792 738.182 140.359 738.544 139.827 738.808C139.298 739.072 138.693 739.205 138.011 739.205ZM145.231 735.293L145.218 733.803H145.474L150.076 729.182H151.514L146.97 733.733L146.867 733.752L145.231 735.293ZM144.195 739V725.909H145.333V739H144.195ZM150.313 739L146.324 733.957L147.142 733.17L151.77 739H150.313Z" fill="black"/>
<path d="M58.6464 731.646C58.4512 731.842 58.4512 732.158 58.6464 732.354L61.8284 735.536C62.0237 735.731 62.3403 735.731 62.5355 735.536C62.7308 735.34 62.7308 735.024 62.5355 734.828L59.7071 732L62.5355 729.172C62.7308 728.976 62.7308 728.66 62.5355 728.464C62.3403 728.269 62.0237 728.269 61.8284 728.464L58.6464 731.646ZM101 732L101 731.5L59 731.5L59 732L59 732.5L101 732.5L101 732Z" fill="black"/>
<defs>
<filter id="filter0_d_77_739" x="36" y="174" width="69" height="69" filterUnits="userSpaceOnUse" color-interpolation-filters="sRGB">
<feFlood flood-opacity="0" result="BackgroundImageFix"/>
<feColorMatrix in="SourceAlpha" type="matrix" values="0 0 0 0 0 0 0 0 0 0 0 0 0 0 0 0 0 0 127 0" result="hardAlpha"/>
<feOffset dy="4"/>
<feGaussianBlur stdDeviation="2"/>
<feComposite in2="hardAlpha" operator="out"/>
<feColorMatrix type="matrix" values="0 0 0 0 0 0 0 0 0 0 0 0 0 0 0 0 0 0 0.25 0"/>
<feBlend mode="normal" in2="BackgroundImageFix" result="effect1_dropShadow_77_739"/>
<feBlend mode="normal" in="SourceGraphic" in2="effect1_dropShadow_77_739" result="shape"/>
</filter>
<filter id="filter1_d_77_739" x="119" y="174" width="69" height="69" filterUnits="userSpaceOnUse" color-interpolation-filters="sRGB">
<feFlood flood-opacity="0" result="BackgroundImageFix"/>
<feColorMatrix in="SourceAlpha" type="matrix" values="0 0 0 0 0 0 0 0 0 0 0 0 0 0 0 0 0 0 127 0" result="hardAlpha"/>
<feOffset dy="4"/>
<feGaussianBlur stdDeviation="2"/>
<feComposite in2="hardAlpha" operator="out"/>
<feColorMatrix type="matrix" values="0 0 0 0 0 0 0 0 0 0 0 0 0 0 0 0 0 0 0.25 0"/>
<feBlend mode="normal" in2="BackgroundImageFix" result="effect1_dropShadow_77_739"/>
<feBlend mode="normal" in="SourceGraphic" in2="effect1_dropShadow_77_739" result="shape"/>
</filter>
<filter id="filter2_d_77_739" x="202" y="174" width="69" height="69" filterUnits="userSpaceOnUse" color-interpolation-filters="sRGB">
<feFlood flood-opacity="0" result="BackgroundImageFix"/>
<feColorMatrix in="SourceAlpha" type="matrix" values="0 0 0 0 0 0 0 0 0 0 0 0 0 0 0 0 0 0 127 0" result="hardAlpha"/>
<feOffset dy="4"/>
<feGaussianBlur stdDeviation="2"/>
<feComposite in2="hardAlpha" operator="out"/>
<feColorMatrix type="matrix" values="0 0 0 0 0 0 0 0 0 0 0 0 0 0 0 0 0 0 0.25 0"/>
<feBlend mode="normal" in2="BackgroundImageFix" result="effect1_dropShadow_77_739"/>
<feBlend mode="normal" in="SourceGraphic" in2="effect1_dropShadow_77_739" result="shape"/>
</filter>
<filter id="filter3_d_77_739" x="285" y="174" width="69" height="69" filterUnits="userSpaceOnUse" color-interpolation-filters="sRGB">
<feFlood flood-opacity="0" result="BackgroundImageFix"/>
<feColorMatrix in="SourceAlpha" type="matrix" values="0 0 0 0 0 0 0 0 0 0 0 0 0 0 0 0 0 0 127 0" result="hardAlpha"/>
<feOffset dy="4"/>
<feGaussianBlur stdDeviation="2"/>
<feComposite in2="hardAlpha" operator="out"/>
<feColorMatrix type="matrix" values="0 0 0 0 0 0 0 0 0 0 0 0 0 0 0 0 0 0 0.25 0"/>
<feBlend mode="normal" in2="BackgroundImageFix" result="effect1_dropShadow_77_739"/>
<feBlend mode="normal" in="SourceGraphic" in2="effect1_dropShadow_77_739" result="shape"/>
</filter>
</defs>
</svg>
