<svg width="390" height="844" viewBox="0 0 390 844" fill="none" xmlns="http://www.w3.org/2000/svg">
<rect width="390" height="844" fill="black"/>
<path d="M18.5858 75.5858C17.8047 76.3668 17.8047 77.6332 18.5858 78.4142L31.3137 91.1421C32.0948 91.9232 33.3611 91.9232 34.1421 91.1421C34.9232 90.3611 34.9232 89.0948 34.1421 88.3137L22.8284 77L34.1421 65.6863C34.9232 64.9052 34.9232 63.6389 34.1421 62.8579C33.3611 62.0768 32.0948 62.0768 31.3137 62.8579L18.5858 75.5858ZM21 77V75H20V77V79H21V77Z" fill="black"/>
<path d="M16.5781 29.7012H16.7148C17.3438 29.7012 17.8678 29.6191 18.2871 29.4551C18.7109 29.2865 19.0482 29.054 19.2988 28.7578C19.5495 28.4616 19.7295 28.113 19.8389 27.7119C19.9482 27.3109 20.0029 26.8757 20.0029 26.4062V24.6904C20.0029 24.2848 19.9596 23.9294 19.873 23.624C19.791 23.3141 19.6725 23.0566 19.5176 22.8516C19.3672 22.6419 19.1917 22.4847 18.9912 22.3799C18.7952 22.2751 18.5833 22.2227 18.3555 22.2227C18.1048 22.2227 17.8792 22.2796 17.6787 22.3936C17.4827 22.5029 17.3164 22.6556 17.1797 22.8516C17.0475 23.043 16.945 23.2686 16.8721 23.5283C16.8037 23.7835 16.7695 24.057 16.7695 24.3486C16.7695 24.6221 16.8014 24.8864 16.8652 25.1416C16.9336 25.3923 17.0339 25.6156 17.166 25.8115C17.2982 26.0075 17.4645 26.1624 17.665 26.2764C17.8656 26.3903 18.1003 26.4473 18.3691 26.4473C18.6243 26.4473 18.859 26.3994 19.0732 26.3037C19.2874 26.2035 19.4743 26.069 19.6338 25.9004C19.7933 25.7318 19.9186 25.5426 20.0098 25.333C20.1009 25.1234 20.151 24.9092 20.1602 24.6904L20.7891 24.8818C20.7891 25.2282 20.7161 25.57 20.5703 25.9072C20.429 26.2399 20.2308 26.5452 19.9756 26.8232C19.7249 27.0967 19.431 27.3154 19.0938 27.4795C18.7611 27.6436 18.3988 27.7256 18.0068 27.7256C17.5329 27.7256 17.1136 27.6367 16.749 27.459C16.389 27.2767 16.0882 27.0306 15.8467 26.7207C15.6097 26.4108 15.432 26.0553 15.3135 25.6543C15.195 25.2533 15.1357 24.8317 15.1357 24.3896C15.1357 23.9111 15.2087 23.4622 15.3545 23.043C15.5003 22.6237 15.7122 22.2546 15.9902 21.9355C16.2682 21.612 16.6055 21.3613 17.002 21.1836C17.403 21.0013 17.8564 20.9102 18.3623 20.9102C18.9001 20.9102 19.3717 21.015 19.7773 21.2246C20.1829 21.4342 20.5247 21.7236 20.8027 22.0928C21.0807 22.4619 21.2904 22.8903 21.4316 23.3779C21.5729 23.8656 21.6436 24.3896 21.6436 24.9502V25.5312C21.6436 26.1191 21.5911 26.6865 21.4863 27.2334C21.3815 27.7757 21.2106 28.2793 20.9736 28.7441C20.7412 29.2044 20.4336 29.61 20.0508 29.9609C19.6725 30.3073 19.2077 30.5785 18.6562 30.7744C18.1094 30.9658 17.4668 31.0615 16.7285 31.0615H16.5781V29.7012ZM23.6019 30.1797C23.6019 29.9245 23.6885 29.7103 23.8617 29.5371C24.0349 29.3594 24.2696 29.2705 24.5658 29.2705C24.8666 29.2705 25.1013 29.3594 25.2699 29.5371C25.4431 29.7103 25.5296 29.9245 25.5296 30.1797C25.5296 30.4349 25.4431 30.6491 25.2699 30.8223C25.1013 30.9954 24.8666 31.082 24.5658 31.082C24.2696 31.082 24.0349 30.9954 23.8617 30.8223C23.6885 30.6491 23.6019 30.4349 23.6019 30.1797ZM23.6088 24.3555C23.6088 24.1003 23.6953 23.8861 23.8685 23.7129C24.0417 23.5352 24.2764 23.4463 24.5726 23.4463C24.8734 23.4463 25.1081 23.5352 25.2767 23.7129C25.4499 23.8861 25.5365 24.1003 25.5365 24.3555C25.5365 24.6107 25.4499 24.8249 25.2767 24.998C25.1081 25.1712 24.8734 25.2578 24.5726 25.2578C24.2764 25.2578 24.0417 25.1712 23.8685 24.998C23.6953 24.8249 23.6088 24.6107 23.6088 24.3555ZM29.2517 25.2783H30.2361C30.6189 25.2783 30.9356 25.2122 31.1862 25.0801C31.4415 24.9479 31.6306 24.7656 31.7536 24.5332C31.8767 24.3008 31.9382 24.0342 31.9382 23.7334C31.9382 23.4189 31.8812 23.1501 31.7673 22.9268C31.6579 22.6989 31.4893 22.5234 31.2614 22.4004C31.0381 22.2773 30.7533 22.2158 30.407 22.2158C30.1153 22.2158 29.851 22.2751 29.614 22.3936C29.3816 22.5075 29.197 22.6715 29.0603 22.8857C28.9236 23.0954 28.8552 23.346 28.8552 23.6377H27.2009C27.2009 23.109 27.3399 22.6396 27.6179 22.2295C27.8959 21.8193 28.2741 21.498 28.7527 21.2656C29.2357 21.0286 29.778 20.9102 30.3796 20.9102C31.0222 20.9102 31.5827 21.0173 32.0612 21.2314C32.5443 21.4411 32.9203 21.7555 33.1892 22.1748C33.4581 22.5941 33.5925 23.1136 33.5925 23.7334C33.5925 24.016 33.5264 24.3031 33.3943 24.5947C33.2621 24.8864 33.0661 25.153 32.8064 25.3945C32.5466 25.6315 32.223 25.8252 31.8357 25.9756C31.4483 26.1214 30.9994 26.1943 30.489 26.1943H29.2517V25.2783ZM29.2517 26.5635V25.6611H30.489C31.0723 25.6611 31.5691 25.7295 31.9792 25.8662C32.3939 26.0029 32.7312 26.1921 32.9909 26.4336C33.2507 26.6706 33.4398 26.9417 33.5583 27.2471C33.6814 27.5524 33.7429 27.876 33.7429 28.2178C33.7429 28.6826 33.6586 29.0973 33.49 29.4619C33.3259 29.8219 33.0912 30.1273 32.7859 30.3779C32.4805 30.6286 32.1228 30.8177 31.7126 30.9453C31.307 31.0729 30.865 31.1367 30.3864 31.1367C29.9581 31.1367 29.5479 31.0775 29.156 30.959C28.764 30.8405 28.4131 30.665 28.1032 30.4326C27.7933 30.1956 27.5473 29.9017 27.365 29.5508C27.1872 29.1953 27.0984 28.7852 27.0984 28.3203H28.7458C28.7458 28.6165 28.8142 28.8786 28.9509 29.1064C29.0922 29.3298 29.2881 29.5052 29.5388 29.6328C29.794 29.7604 30.0857 29.8242 30.4138 29.8242C30.7601 29.8242 31.0586 29.7627 31.3093 29.6396C31.5599 29.5166 31.7514 29.3343 31.8835 29.0928C32.0202 28.8512 32.0886 28.5596 32.0886 28.2178C32.0886 27.8304 32.0134 27.516 31.863 27.2744C31.7126 27.0329 31.4984 26.8551 31.2204 26.7412C30.9424 26.6227 30.6143 26.5635 30.2361 26.5635H29.2517ZM42.0382 25.1895V26.8164C42.0382 27.5957 41.9607 28.2611 41.8057 28.8125C41.6554 29.3594 41.4366 29.8037 41.1495 30.1455C40.8624 30.4873 40.5183 30.738 40.1173 30.8975C39.7208 31.057 39.2764 31.1367 38.7843 31.1367C38.3923 31.1367 38.0277 31.0866 37.6905 30.9863C37.3578 30.8861 37.057 30.7288 36.7882 30.5146C36.5193 30.3005 36.2891 30.0247 36.0977 29.6875C35.9109 29.3457 35.7651 28.9378 35.6602 28.4639C35.56 27.9899 35.5098 27.4408 35.5098 26.8164V25.1895C35.5098 24.4056 35.5873 23.7448 35.7423 23.207C35.8972 22.6647 36.1182 22.2249 36.4054 21.8877C36.6925 21.5459 37.0343 21.2975 37.4307 21.1426C37.8318 20.9876 38.2784 20.9102 38.7706 20.9102C39.1671 20.9102 39.5317 20.9603 39.8643 21.0605C40.2016 21.1562 40.5024 21.3089 40.7667 21.5186C41.0356 21.7282 41.2634 22.0016 41.4503 22.3389C41.6417 22.6715 41.7875 23.0749 41.8878 23.5488C41.988 24.0182 42.0382 24.5651 42.0382 25.1895ZM40.3907 27.0488V24.9434C40.3907 24.5469 40.3679 24.1982 40.3223 23.8975C40.2768 23.5921 40.2084 23.3346 40.1173 23.125C40.0307 22.9108 39.9213 22.7376 39.7891 22.6055C39.657 22.4688 39.5066 22.3708 39.338 22.3115C39.1693 22.2477 38.9802 22.2158 38.7706 22.2158C38.5154 22.2158 38.2875 22.266 38.087 22.3662C37.8865 22.4619 37.7179 22.6169 37.5811 22.8311C37.4444 23.0452 37.3396 23.3278 37.2667 23.6787C37.1983 24.0251 37.1641 24.4466 37.1641 24.9434V27.0488C37.1641 27.4499 37.1869 27.8031 37.2325 28.1084C37.2781 28.4137 37.3464 28.6758 37.4376 28.8945C37.5287 29.1087 37.6381 29.2865 37.7657 29.4277C37.8979 29.5645 38.0483 29.6647 38.2169 29.7285C38.3901 29.7923 38.5792 29.8242 38.7843 29.8242C39.044 29.8242 39.2742 29.7741 39.4747 29.6738C39.6752 29.5736 39.8438 29.4141 39.9805 29.1953C40.1173 28.972 40.2198 28.6826 40.2882 28.3271C40.3565 27.9717 40.3907 27.5456 40.3907 27.0488Z" fill="#E1DFE4"/>
<path opacity="0.1" d="M338 18.9167C334.6 18.9167 331.625 20.4042 329.5 22.7417L338 33.0833L346.5 22.7417C344.375 20.4042 341.4 18.9167 338 18.9167Z" fill="#E1DFE4"/>
<path d="M361.083 18.9167L346.916 33.0833H361.083V18.9167Z" fill="#E1DFE4"/>
<path opacity="0.3" d="M373 18.5H370V20H368.5C367.948 20 367.5 20.5037 367.5 21.125V32.375C367.5 32.9963 367.948 33.5 368.5 33.5H374.5C375.052 33.5 375.5 32.9963 375.5 32.375V21.125C375.5 20.5037 375.052 20 374.5 20H373V18.5Z" fill="#E1DFE4"/>
<path d="M367.5 26.5C367.5 27.0833 367.5 31.8667 367.5 32.45C367.5 33.0299 367.948 33.5 368.5 33.5H374.5C375.052 33.5 375.5 33.0299 375.5 32.45C375.5 31.8667 375.5 27.0833 375.5 26.5H367.5Z" fill="#E1DFE4"/>
<path fill-rule="evenodd" clip-rule="evenodd" d="M195 18C188.373 18 183 23.3731 183 30C183 36.6269 188.373 42 195 42C201.627 42 207 36.6269 207 30C207 23.3731 201.627 18 195 18Z" fill="#E1DFE4"/>
<path d="M34.5824 84.5924H23.4124L28.2924 79.7124C28.6824 79.3224 28.6824 78.6824 28.2924 78.2924C28.1999 78.1997 28.09 78.1262 27.9691 78.076C27.8481 78.0258 27.7184 78 27.5874 78C27.4565 78 27.3268 78.0258 27.2058 78.076C27.0848 78.1262 26.975 78.1997 26.8824 78.2924L20.2924 84.8824C20.1997 84.975 20.1262 85.0848 20.076 85.2058C20.0258 85.3268 20 85.4565 20 85.5874C20 85.7184 20.0258 85.8481 20.076 85.9691C20.1262 86.09 20.1997 86.1999 20.2924 86.2924L26.8824 92.8824C26.975 92.975 27.0849 93.0485 27.2059 93.0986C27.3269 93.1487 27.4565 93.1745 27.5874 93.1745C27.7184 93.1745 27.848 93.1487 27.969 93.0986C28.09 93.0485 28.1999 92.975 28.2924 92.8824C28.385 92.7899 28.4585 92.68 28.5086 92.559C28.5587 92.438 28.5845 92.3084 28.5845 92.1774C28.5845 92.0465 28.5587 91.9169 28.5086 91.7959C28.4585 91.6749 28.385 91.565 28.2924 91.4724L23.4124 86.5924H34.5824C35.1324 86.5924 35.5824 86.1424 35.5824 85.5924C35.5824 85.0424 35.1324 84.5924 34.5824 84.5924Z" fill="white"/>
<path d="M149.857 158.174V140.72H161.414V143.763H153.547V147.922H160.647V150.964H153.547V158.174H149.857ZM163.828 158.174V145.084H167.458V158.174H163.828ZM165.652 143.396C165.112 143.396 164.649 143.217 164.262 142.859C163.882 142.495 163.691 142.061 163.691 141.555C163.691 141.055 163.882 140.626 164.262 140.268C164.649 139.905 165.112 139.723 165.652 139.723C166.191 139.723 166.652 139.905 167.032 140.268C167.419 140.626 167.612 141.055 167.612 141.555C167.612 142.061 167.419 142.495 167.032 142.859C166.652 143.217 166.191 143.396 165.652 143.396ZM173.998 140.72V158.174H170.367V140.72H173.998ZM180.537 140.72V158.174H176.906V140.72H180.537ZM191.241 163.084C190.781 163.084 190.349 163.047 189.946 162.973C189.548 162.905 189.218 162.817 188.957 162.709L189.775 159.998C190.201 160.129 190.585 160.2 190.926 160.211C191.272 160.223 191.571 160.143 191.821 159.973C192.076 159.802 192.284 159.513 192.443 159.103L192.656 158.549L187.96 145.084H191.778L194.488 154.697H194.625L197.36 145.084H201.204L196.116 159.589C195.872 160.294 195.539 160.907 195.119 161.43C194.704 161.959 194.179 162.365 193.542 162.649C192.906 162.939 192.139 163.084 191.241 163.084ZM208.555 158.43C207.231 158.43 206.086 158.149 205.12 157.586C204.16 157.018 203.419 156.228 202.896 155.217C202.373 154.2 202.112 153.021 202.112 151.68C202.112 150.328 202.373 149.146 202.896 148.135C203.419 147.118 204.16 146.328 205.12 145.765C206.086 145.197 207.231 144.913 208.555 144.913C209.879 144.913 211.021 145.197 211.981 145.765C212.947 146.328 213.691 147.118 214.214 148.135C214.737 149.146 214.998 150.328 214.998 151.68C214.998 153.021 214.737 154.2 214.214 155.217C213.691 156.228 212.947 157.018 211.981 157.586C211.021 158.149 209.879 158.43 208.555 158.43ZM208.572 155.618C209.174 155.618 209.677 155.447 210.081 155.106C210.484 154.76 210.788 154.288 210.993 153.692C211.203 153.095 211.308 152.416 211.308 151.655C211.308 150.893 211.203 150.214 210.993 149.618C210.788 149.021 210.484 148.549 210.081 148.203C209.677 147.856 209.174 147.683 208.572 147.683C207.964 147.683 207.453 147.856 207.038 148.203C206.629 148.549 206.319 149.021 206.109 149.618C205.904 150.214 205.802 150.893 205.802 151.655C205.802 152.416 205.904 153.095 206.109 153.692C206.319 154.288 206.629 154.76 207.038 155.106C207.453 155.447 207.964 155.618 208.572 155.618ZM225.754 152.601V145.084H229.385V158.174H225.899V155.797H225.762C225.467 156.564 224.975 157.18 224.288 157.646C223.606 158.112 222.774 158.345 221.791 158.345C220.916 158.345 220.146 158.146 219.481 157.748C218.816 157.351 218.297 156.785 217.922 156.052C217.552 155.319 217.365 154.442 217.359 153.419V145.084H220.99V152.771C220.995 153.544 221.203 154.155 221.612 154.603C222.021 155.052 222.569 155.277 223.257 155.277C223.694 155.277 224.103 155.177 224.484 154.978C224.865 154.774 225.172 154.473 225.404 154.075C225.643 153.677 225.76 153.186 225.754 152.601ZM232.289 158.174V145.084H235.809V147.368H235.945C236.184 146.555 236.584 145.942 237.147 145.527C237.709 145.106 238.357 144.896 239.09 144.896C239.272 144.896 239.468 144.907 239.678 144.93C239.888 144.953 240.073 144.984 240.232 145.024V148.245C240.061 148.194 239.826 148.149 239.525 148.109C239.223 148.069 238.948 148.049 238.698 148.049C238.164 148.049 237.686 148.166 237.266 148.399C236.851 148.626 236.522 148.944 236.277 149.353C236.039 149.763 235.919 150.234 235.919 150.768V158.174H232.289ZM131.551 169.72V187.174H127.861V169.72H131.551ZM138.15 179.606V187.174H134.519V174.084H137.979V176.393H138.133C138.423 175.632 138.908 175.03 139.59 174.586C140.272 174.138 141.099 173.913 142.07 173.913C142.979 173.913 143.772 174.112 144.448 174.51C145.124 174.907 145.65 175.476 146.025 176.214C146.4 176.947 146.587 177.822 146.587 178.839V187.174H142.957V179.487C142.962 178.686 142.758 178.061 142.343 177.612C141.928 177.157 141.357 176.93 140.63 176.93C140.141 176.93 139.71 177.035 139.335 177.245C138.965 177.456 138.675 177.763 138.465 178.166C138.261 178.564 138.156 179.044 138.15 179.606ZM156.489 174.084V176.811H148.409V174.084H156.489ZM150.259 187.174V173.138C150.259 172.189 150.443 171.402 150.812 170.777C151.188 170.152 151.699 169.683 152.347 169.37C152.994 169.058 153.73 168.902 154.554 168.902C155.111 168.902 155.619 168.944 156.08 169.03C156.545 169.115 156.892 169.192 157.119 169.26L156.472 171.987C156.33 171.942 156.153 171.899 155.943 171.859C155.739 171.819 155.528 171.799 155.312 171.799C154.778 171.799 154.406 171.924 154.196 172.174C153.986 172.419 153.881 172.763 153.881 173.206V187.174H150.259ZM164.153 187.43C162.829 187.43 161.684 187.149 160.718 186.586C159.758 186.018 159.016 185.228 158.494 184.217C157.971 183.2 157.71 182.021 157.71 180.68C157.71 179.328 157.971 178.146 158.494 177.135C159.016 176.118 159.758 175.328 160.718 174.765C161.684 174.197 162.829 173.913 164.153 173.913C165.477 173.913 166.619 174.197 167.579 174.765C168.545 175.328 169.289 176.118 169.812 177.135C170.335 178.146 170.596 179.328 170.596 180.68C170.596 182.021 170.335 183.2 169.812 184.217C169.289 185.228 168.545 186.018 167.579 186.586C166.619 187.149 165.477 187.43 164.153 187.43ZM164.17 184.618C164.772 184.618 165.275 184.447 165.678 184.106C166.082 183.76 166.386 183.288 166.59 182.692C166.8 182.095 166.906 181.416 166.906 180.655C166.906 179.893 166.8 179.214 166.59 178.618C166.386 178.021 166.082 177.549 165.678 177.203C165.275 176.856 164.772 176.683 164.17 176.683C163.562 176.683 163.05 176.856 162.636 177.203C162.227 177.549 161.917 178.021 161.707 178.618C161.502 179.214 161.4 179.893 161.4 180.655C161.4 181.416 161.502 182.095 161.707 182.692C161.917 183.288 162.227 183.76 162.636 184.106C163.05 184.447 163.562 184.618 164.17 184.618ZM172.957 187.174V174.084H176.477V176.368H176.613C176.852 175.555 177.252 174.942 177.815 174.527C178.377 174.106 179.025 173.896 179.758 173.896C179.94 173.896 180.136 173.907 180.346 173.93C180.556 173.953 180.741 173.984 180.9 174.024V177.245C180.729 177.194 180.494 177.149 180.192 177.109C179.891 177.069 179.616 177.049 179.366 177.049C178.832 177.049 178.354 177.166 177.934 177.399C177.519 177.626 177.19 177.944 176.945 178.353C176.707 178.763 176.587 179.234 176.587 179.768V187.174H172.957ZM182.777 187.174V174.084H186.237V176.393H186.391C186.663 175.626 187.118 175.021 187.754 174.578C188.391 174.135 189.152 173.913 190.038 173.913C190.936 173.913 191.7 174.138 192.331 174.586C192.962 175.03 193.382 175.632 193.592 176.393H193.729C193.996 175.643 194.479 175.044 195.178 174.595C195.882 174.14 196.714 173.913 197.675 173.913C198.896 173.913 199.888 174.302 200.649 175.081C201.416 175.853 201.8 176.95 201.8 178.37V187.174H198.178V179.086C198.178 178.359 197.984 177.814 197.598 177.45C197.212 177.086 196.729 176.905 196.149 176.905C195.49 176.905 194.976 177.115 194.607 177.535C194.237 177.95 194.053 178.498 194.053 179.18V187.174H190.533V179.01C190.533 178.368 190.348 177.856 189.979 177.476C189.615 177.095 189.135 176.905 188.538 176.905C188.135 176.905 187.771 177.007 187.447 177.211C187.129 177.41 186.876 177.692 186.689 178.055C186.501 178.413 186.408 178.834 186.408 179.317V187.174H182.777ZM208.401 187.422C207.565 187.422 206.821 187.277 206.168 186.987C205.514 186.692 204.997 186.257 204.616 185.683C204.241 185.103 204.054 184.382 204.054 183.518C204.054 182.791 204.188 182.18 204.455 181.686C204.722 181.192 205.085 180.794 205.545 180.493C206.006 180.192 206.528 179.964 207.114 179.811C207.705 179.657 208.324 179.549 208.972 179.487C209.733 179.407 210.347 179.334 210.812 179.265C211.278 179.192 211.616 179.084 211.827 178.942C212.037 178.799 212.142 178.589 212.142 178.311V178.26C212.142 177.72 211.972 177.302 211.631 177.007C211.295 176.711 210.818 176.564 210.199 176.564C209.545 176.564 209.026 176.709 208.639 176.998C208.253 177.282 207.997 177.64 207.872 178.072L204.514 177.799C204.685 177.004 205.02 176.317 205.52 175.737C206.02 175.152 206.665 174.703 207.455 174.39C208.25 174.072 209.17 173.913 210.216 173.913C210.943 173.913 211.639 173.998 212.304 174.169C212.974 174.339 213.568 174.603 214.085 174.961C214.608 175.319 215.02 175.78 215.321 176.342C215.622 176.899 215.773 177.567 215.773 178.345V187.174H212.33V185.359H212.227C212.017 185.768 211.736 186.129 211.384 186.442C211.031 186.748 210.608 186.99 210.114 187.166C209.619 187.336 209.048 187.422 208.401 187.422ZM209.44 184.916C209.974 184.916 210.446 184.811 210.855 184.601C211.264 184.385 211.585 184.095 211.818 183.731C212.051 183.368 212.168 182.956 212.168 182.495V181.106C212.054 181.18 211.898 181.248 211.699 181.311C211.506 181.368 211.287 181.422 211.043 181.473C210.798 181.518 210.554 181.561 210.31 181.601C210.065 181.635 209.844 181.666 209.645 181.694C209.219 181.757 208.847 181.856 208.528 181.993C208.21 182.129 207.963 182.314 207.787 182.547C207.611 182.774 207.523 183.058 207.523 183.399C207.523 183.893 207.702 184.271 208.06 184.532C208.423 184.788 208.884 184.916 209.44 184.916ZM225.553 174.084V176.811H217.669V174.084H225.553ZM219.459 170.947H223.089V183.152C223.089 183.487 223.141 183.748 223.243 183.936C223.345 184.118 223.487 184.245 223.669 184.319C223.857 184.393 224.072 184.43 224.317 184.43C224.487 184.43 224.658 184.416 224.828 184.388C224.999 184.353 225.129 184.328 225.22 184.311L225.791 187.013C225.609 187.069 225.354 187.135 225.024 187.209C224.695 187.288 224.294 187.336 223.822 187.353C222.947 187.388 222.18 187.271 221.521 187.004C220.868 186.737 220.359 186.322 219.996 185.76C219.632 185.197 219.453 184.487 219.459 183.629V170.947ZM227.918 187.174V174.084H231.548V187.174H227.918ZM229.741 172.396C229.202 172.396 228.739 172.217 228.352 171.859C227.972 171.495 227.781 171.061 227.781 170.555C227.781 170.055 227.972 169.626 228.352 169.268C228.739 168.905 229.202 168.723 229.741 168.723C230.281 168.723 230.741 168.905 231.122 169.268C231.509 169.626 231.702 170.055 231.702 170.555C231.702 171.061 231.509 171.495 231.122 171.859C230.741 172.217 230.281 172.396 229.741 172.396ZM240.371 187.43C239.048 187.43 237.903 187.149 236.937 186.586C235.977 186.018 235.235 185.228 234.712 184.217C234.19 183.2 233.928 182.021 233.928 180.68C233.928 179.328 234.19 178.146 234.712 177.135C235.235 176.118 235.977 175.328 236.937 174.765C237.903 174.197 239.048 173.913 240.371 173.913C241.695 173.913 242.837 174.197 243.798 174.765C244.763 175.328 245.508 176.118 246.031 177.135C246.553 178.146 246.815 179.328 246.815 180.68C246.815 182.021 246.553 183.2 246.031 184.217C245.508 185.228 244.763 186.018 243.798 186.586C242.837 187.149 241.695 187.43 240.371 187.43ZM240.388 184.618C240.991 184.618 241.494 184.447 241.897 184.106C242.3 183.76 242.604 183.288 242.809 182.692C243.019 182.095 243.124 181.416 243.124 180.655C243.124 179.893 243.019 179.214 242.809 178.618C242.604 178.021 242.3 177.549 241.897 177.203C241.494 176.856 240.991 176.683 240.388 176.683C239.781 176.683 239.269 176.856 238.854 177.203C238.445 177.549 238.136 178.021 237.925 178.618C237.721 179.214 237.619 179.893 237.619 180.655C237.619 181.416 237.721 182.095 237.925 182.692C238.136 183.288 238.445 183.76 238.854 184.106C239.269 184.447 239.781 184.618 240.388 184.618ZM252.806 179.606V187.174H249.175V174.084H252.636V176.393H252.789C253.079 175.632 253.565 175.03 254.246 174.586C254.928 174.138 255.755 173.913 256.727 173.913C257.636 173.913 258.428 174.112 259.104 174.51C259.781 174.907 260.306 175.476 260.681 176.214C261.056 176.947 261.244 177.822 261.244 178.839V187.174H257.613V179.487C257.619 178.686 257.414 178.061 256.999 177.612C256.585 177.157 256.013 176.93 255.286 176.93C254.798 176.93 254.366 177.035 253.991 177.245C253.621 177.456 253.332 177.763 253.121 178.166C252.917 178.564 252.812 179.044 252.806 179.606Z" fill="#B86E13"/>
<path d="M16.9588 231.174V222.447H22.4304V223.581H18.2756V226.24H22.1449V227.369H18.2756V230.041H22.4815V231.174H16.9588ZM25.3612 227.288V231.174H24.087V224.629H25.31V225.694H25.391C25.5415 225.348 25.7773 225.069 26.0984 224.859C26.4222 224.649 26.8299 224.544 27.3214 224.544C27.7674 224.544 28.158 224.638 28.4933 224.825C28.8285 225.01 29.0884 225.285 29.2731 225.652C29.4577 226.018 29.5501 226.471 29.5501 227.011V231.174H28.2759V227.165C28.2759 226.69 28.1523 226.319 27.9052 226.052C27.658 225.782 27.3185 225.647 26.8867 225.647C26.5913 225.647 26.3285 225.711 26.0984 225.839C25.8711 225.967 25.6907 226.155 25.5572 226.402C25.4265 226.646 25.3612 226.942 25.3612 227.288ZM34.3143 224.629V225.652H30.739V224.629H34.3143ZM31.6978 223.061H32.9719V229.253C32.9719 229.5 33.0089 229.686 33.0827 229.811C33.1566 229.933 33.2518 230.017 33.3683 230.062C33.4876 230.105 33.6168 230.126 33.756 230.126C33.8583 230.126 33.9478 230.119 34.0245 230.105C34.1012 230.091 34.1609 230.079 34.2035 230.071L34.4336 231.123C34.3597 231.152 34.2546 231.18 34.1183 231.209C33.9819 231.24 33.8114 231.257 33.6069 231.26C33.2717 231.265 32.9592 231.206 32.6694 231.081C32.3796 230.956 32.1452 230.763 31.9663 230.501C31.7873 230.24 31.6978 229.912 31.6978 229.517V223.061ZM38.4744 231.307C37.8295 231.307 37.2741 231.169 36.8082 230.893C36.3452 230.615 35.9872 230.224 35.7344 229.721C35.4844 229.216 35.3594 228.623 35.3594 227.944C35.3594 227.274 35.4844 226.683 35.7344 226.172C35.9872 225.66 36.3395 225.261 36.7912 224.974C37.2457 224.687 37.777 224.544 38.3849 224.544C38.7543 224.544 39.1122 224.605 39.4588 224.727C39.8054 224.849 40.1165 225.041 40.392 225.302C40.6676 225.564 40.8849 225.903 41.044 226.321C41.2031 226.736 41.2827 227.24 41.2827 227.834V228.285H36.0795V227.331H40.0341C40.0341 226.995 39.9659 226.699 39.8295 226.44C39.6932 226.179 39.5014 225.973 39.2543 225.822C39.0099 225.672 38.723 225.596 38.3935 225.596C38.0355 225.596 37.723 225.684 37.456 225.861C37.1918 226.034 36.9872 226.261 36.8423 226.542C36.7003 226.821 36.6293 227.123 36.6293 227.45V228.196C36.6293 228.633 36.706 229.005 36.8594 229.312C37.0156 229.619 37.233 229.853 37.5114 230.015C37.7898 230.174 38.1151 230.254 38.4872 230.254C38.7287 230.254 38.9489 230.22 39.1477 230.152C39.3466 230.081 39.5185 229.976 39.6634 229.836C39.8082 229.697 39.919 229.525 39.9957 229.321L41.2017 229.538C41.1051 229.893 40.9318 230.204 40.6818 230.471C40.4347 230.736 40.1236 230.942 39.7486 231.089C39.3764 231.234 38.9517 231.307 38.4744 231.307ZM42.6964 231.174V224.629H43.9279V225.669H43.9961C44.1154 225.317 44.3256 225.04 44.6268 224.838C44.9308 224.633 45.2745 224.531 45.658 224.531C45.7376 224.531 45.8313 224.534 45.9393 224.54C46.0501 224.545 46.1367 224.552 46.1992 224.561V225.78C46.1481 225.765 46.0572 225.75 45.9265 225.733C45.7958 225.713 45.6651 225.703 45.5344 225.703C45.2333 225.703 44.9648 225.767 44.729 225.895C44.4961 226.02 44.3114 226.194 44.1751 226.419C44.0387 226.64 43.9705 226.893 43.9705 227.177V231.174H42.6964ZM51.283 233.629C51.0927 233.629 50.9194 233.613 50.7631 233.582C50.6069 233.554 50.4904 233.522 50.4137 233.488L50.7205 232.444C50.9535 232.507 51.1609 232.534 51.3427 232.525C51.5245 232.517 51.685 232.449 51.8242 232.321C51.9663 232.193 52.0913 231.984 52.1992 231.694L52.3569 231.26L49.962 224.629H51.3256L52.9833 229.709H53.0515L54.7092 224.629H56.0771L53.3796 232.048C53.2546 232.389 53.0955 232.677 52.9023 232.913C52.7092 233.152 52.479 233.331 52.212 233.45C51.945 233.569 51.6353 233.629 51.283 233.629ZM59.8089 231.307C59.1953 231.307 58.6598 231.166 58.2024 230.885C57.745 230.603 57.3899 230.21 57.1371 229.704C56.8842 229.199 56.7578 228.608 56.7578 227.932C56.7578 227.253 56.8842 226.659 57.1371 226.15C57.3899 225.642 57.745 225.247 58.2024 224.966C58.6598 224.684 59.1953 224.544 59.8089 224.544C60.4226 224.544 60.9581 224.684 61.4155 224.966C61.8729 225.247 62.228 225.642 62.4808 226.15C62.7337 226.659 62.8601 227.253 62.8601 227.932C62.8601 228.608 62.7337 229.199 62.4808 229.704C62.228 230.21 61.8729 230.603 61.4155 230.885C60.9581 231.166 60.4226 231.307 59.8089 231.307ZM59.8132 230.237C60.2109 230.237 60.5405 230.132 60.8018 229.922C61.0632 229.711 61.2564 229.432 61.3814 229.082C61.5092 228.733 61.5732 228.348 61.5732 227.927C61.5732 227.51 61.5092 227.126 61.3814 226.777C61.2564 226.424 61.0632 226.142 60.8018 225.929C60.5405 225.716 60.2109 225.609 59.8132 225.609C59.4126 225.609 59.0803 225.716 58.8161 225.929C58.5547 226.142 58.3601 226.424 58.2322 226.777C58.1072 227.126 58.0447 227.51 58.0447 227.927C58.0447 228.348 58.1072 228.733 58.2322 229.082C58.3601 229.432 58.5547 229.711 58.8161 229.922C59.0803 230.132 59.4126 230.237 59.8132 230.237ZM68.4286 228.46V224.629H69.707V231.174H68.4542V230.041H68.386C68.2354 230.39 67.994 230.682 67.6616 230.915C67.332 231.145 66.9215 231.26 66.43 231.26C66.0096 231.26 65.6374 231.167 65.3136 230.983C64.9925 230.795 64.7397 230.518 64.555 230.152C64.3732 229.785 64.2823 229.332 64.2823 228.792V224.629H65.5565V228.639C65.5565 229.085 65.68 229.44 65.9272 229.704C66.1744 229.969 66.4954 230.101 66.8903 230.101C67.1289 230.101 67.3661 230.041 67.6019 229.922C67.8406 229.802 68.038 229.622 68.1942 229.38C68.3533 229.139 68.4315 228.832 68.4286 228.46ZM71.419 231.174V224.629H72.6506V225.669H72.7188C72.8381 225.317 73.0483 225.04 73.3494 224.838C73.6534 224.633 73.9972 224.531 74.3807 224.531C74.4602 224.531 74.554 224.534 74.6619 224.54C74.7727 224.545 74.8594 224.552 74.9219 224.561V225.78C74.8707 225.765 74.7798 225.75 74.6491 225.733C74.5185 225.713 74.3878 225.703 74.2571 225.703C73.956 225.703 73.6875 225.767 73.4517 225.895C73.2188 226.02 73.0341 226.194 72.8977 226.419C72.7614 226.64 72.6932 226.893 72.6932 227.177V231.174H71.419ZM82.4783 231.174V222.447H87.9499V223.581H83.7951V226.24H87.6644V227.369H83.7951V230.041H88.0011V231.174H82.4783ZM89.6065 231.174V224.629H90.8295V225.694H90.9105C91.0469 225.334 91.2699 225.052 91.5795 224.851C91.8892 224.646 92.2599 224.544 92.6918 224.544C93.1293 224.544 93.4957 224.646 93.7912 224.851C94.0895 225.055 94.3097 225.336 94.4517 225.694H94.5199C94.6761 225.345 94.9247 225.067 95.2656 224.859C95.6065 224.649 96.0128 224.544 96.4844 224.544C97.0781 224.544 97.5625 224.73 97.9375 225.102C98.3153 225.474 98.5043 226.035 98.5043 226.785V231.174H97.2301V226.905C97.2301 226.461 97.1094 226.14 96.8679 225.942C96.6264 225.743 96.3381 225.643 96.0028 225.643C95.5881 225.643 95.2656 225.771 95.0355 226.027C94.8054 226.28 94.6903 226.605 94.6903 227.003V231.174H93.4205V226.824C93.4205 226.469 93.3097 226.183 93.0881 225.967C92.8665 225.751 92.5781 225.643 92.223 225.643C91.9815 225.643 91.7585 225.707 91.554 225.835C91.3523 225.96 91.1889 226.135 91.0639 226.359C90.9418 226.584 90.8807 226.844 90.8807 227.139V231.174H89.6065ZM102.117 231.319C101.702 231.319 101.327 231.243 100.992 231.089C100.657 230.933 100.391 230.707 100.195 230.412C100.002 230.116 99.9052 229.754 99.9052 229.325C99.9052 228.956 99.9762 228.652 100.118 228.413C100.26 228.174 100.452 227.986 100.694 227.846C100.935 227.707 101.205 227.602 101.503 227.531C101.801 227.46 102.105 227.406 102.415 227.369C102.807 227.324 103.125 227.287 103.37 227.258C103.614 227.227 103.792 227.177 103.902 227.109C104.013 227.041 104.069 226.93 104.069 226.777V226.747C104.069 226.375 103.963 226.086 103.753 225.882C103.546 225.677 103.236 225.575 102.824 225.575C102.395 225.575 102.057 225.67 101.81 225.861C101.566 226.048 101.397 226.257 101.303 226.487L100.105 226.214C100.248 225.817 100.455 225.495 100.728 225.251C101.003 225.004 101.32 224.825 101.678 224.714C102.036 224.601 102.412 224.544 102.807 224.544C103.069 224.544 103.346 224.575 103.638 224.638C103.934 224.697 104.209 224.808 104.465 224.97C104.723 225.132 104.935 225.363 105.1 225.665C105.265 225.963 105.347 226.351 105.347 226.828V231.174H104.103V230.28H104.051C103.969 230.444 103.846 230.606 103.681 230.765C103.516 230.924 103.304 231.057 103.046 231.162C102.787 231.267 102.478 231.319 102.117 231.319ZM102.394 230.297C102.746 230.297 103.047 230.227 103.297 230.088C103.55 229.949 103.742 229.767 103.873 229.542C104.006 229.315 104.073 229.072 104.073 228.814V227.97C104.027 228.015 103.939 228.058 103.809 228.098C103.681 228.135 103.534 228.167 103.37 228.196C103.205 228.221 103.044 228.245 102.888 228.268C102.732 228.288 102.601 228.305 102.496 228.319C102.249 228.351 102.023 228.403 101.819 228.477C101.617 228.551 101.455 228.657 101.333 228.797C101.213 228.933 101.154 229.115 101.154 229.342C101.154 229.657 101.27 229.896 101.503 230.058C101.736 230.217 102.033 230.297 102.394 230.297ZM107.044 231.174V224.629H108.318V231.174H107.044ZM107.688 223.619C107.466 223.619 107.276 223.545 107.116 223.397C106.96 223.247 106.882 223.068 106.882 222.861C106.882 222.65 106.96 222.471 107.116 222.324C107.276 222.173 107.466 222.098 107.688 222.098C107.909 222.098 108.098 222.173 108.254 222.324C108.413 222.471 108.493 222.65 108.493 222.861C108.493 223.068 108.413 223.247 108.254 223.397C108.098 223.545 107.909 223.619 107.688 223.619ZM111.306 222.447V231.174H110.032V222.447H111.306ZM118.101 231.319C117.686 231.319 117.311 231.243 116.976 231.089C116.641 230.933 116.375 230.707 116.179 230.412C115.986 230.116 115.89 229.754 115.89 229.325C115.89 228.956 115.961 228.652 116.103 228.413C116.245 228.174 116.436 227.986 116.678 227.846C116.919 227.707 117.189 227.602 117.488 227.531C117.786 227.46 118.09 227.406 118.4 227.369C118.792 227.324 119.11 227.287 119.354 227.258C119.598 227.227 119.776 227.177 119.887 227.109C119.998 227.041 120.053 226.93 120.053 226.777V226.747C120.053 226.375 119.948 226.086 119.738 225.882C119.53 225.677 119.221 225.575 118.809 225.575C118.38 225.575 118.042 225.67 117.794 225.861C117.55 226.048 117.381 226.257 117.287 226.487L116.09 226.214C116.232 225.817 116.439 225.495 116.712 225.251C116.988 225.004 117.304 224.825 117.662 224.714C118.02 224.601 118.397 224.544 118.792 224.544C119.053 224.544 119.33 224.575 119.623 224.638C119.918 224.697 120.194 224.808 120.449 224.97C120.708 225.132 120.919 225.363 121.084 225.665C121.249 225.963 121.331 226.351 121.331 226.828V231.174H120.087V230.28H120.036C119.953 230.444 119.83 230.606 119.665 230.765C119.5 230.924 119.289 231.057 119.03 231.162C118.772 231.267 118.462 231.319 118.101 231.319ZM118.378 230.297C118.73 230.297 119.032 230.227 119.282 230.088C119.534 229.949 119.726 229.767 119.857 229.542C119.99 229.315 120.057 229.072 120.057 228.814V227.97C120.012 228.015 119.924 228.058 119.793 228.098C119.665 228.135 119.519 228.167 119.354 228.196C119.189 228.221 119.029 228.245 118.873 228.268C118.716 228.288 118.586 228.305 118.48 228.319C118.233 228.351 118.007 228.403 117.803 228.477C117.601 228.551 117.439 228.657 117.317 228.797C117.198 228.933 117.138 229.115 117.138 229.342C117.138 229.657 117.255 229.896 117.488 230.058C117.721 230.217 118.017 230.297 118.378 230.297ZM125.479 231.302C124.95 231.302 124.479 231.167 124.064 230.897C123.652 230.625 123.328 230.237 123.092 229.734C122.859 229.228 122.743 228.622 122.743 227.915C122.743 227.207 122.861 226.602 123.097 226.099C123.335 225.596 123.662 225.211 124.077 224.944C124.491 224.677 124.962 224.544 125.487 224.544C125.893 224.544 126.22 224.612 126.467 224.748C126.717 224.882 126.911 225.038 127.047 225.217C127.186 225.396 127.294 225.554 127.371 225.69H127.447V222.447H128.722V231.174H127.477V230.156H127.371C127.294 230.295 127.183 230.454 127.038 230.633C126.896 230.812 126.7 230.969 126.45 231.102C126.2 231.236 125.876 231.302 125.479 231.302ZM125.76 230.216C126.126 230.216 126.436 230.119 126.689 229.926C126.945 229.73 127.138 229.459 127.268 229.112C127.402 228.765 127.469 228.362 127.469 227.902C127.469 227.447 127.403 227.049 127.273 226.709C127.142 226.368 126.95 226.102 126.697 225.912C126.445 225.721 126.132 225.626 125.76 225.626C125.376 225.626 125.057 225.726 124.801 225.924C124.545 226.123 124.352 226.395 124.222 226.738C124.094 227.082 124.03 227.47 124.03 227.902C124.03 228.339 124.095 228.733 124.226 229.082C124.357 229.432 124.55 229.709 124.805 229.913C125.064 230.115 125.382 230.216 125.76 230.216ZM132.99 231.302C132.462 231.302 131.99 231.167 131.576 230.897C131.164 230.625 130.84 230.237 130.604 229.734C130.371 229.228 130.255 228.622 130.255 227.915C130.255 227.207 130.373 226.602 130.608 226.099C130.847 225.596 131.174 225.211 131.588 224.944C132.003 224.677 132.473 224.544 132.999 224.544C133.405 224.544 133.732 224.612 133.979 224.748C134.229 224.882 134.422 225.038 134.559 225.217C134.698 225.396 134.806 225.554 134.882 225.69H134.959V222.447H136.233V231.174H134.989V230.156H134.882C134.806 230.295 134.695 230.454 134.55 230.633C134.408 230.812 134.212 230.969 133.962 231.102C133.712 231.236 133.388 231.302 132.99 231.302ZM133.272 230.216C133.638 230.216 133.948 230.119 134.201 229.926C134.456 229.73 134.65 229.459 134.78 229.112C134.914 228.765 134.98 228.362 134.98 227.902C134.98 227.447 134.915 227.049 134.784 226.709C134.654 226.368 134.462 226.102 134.209 225.912C133.956 225.721 133.644 225.626 133.272 225.626C132.888 225.626 132.569 225.726 132.313 225.924C132.057 226.123 131.864 226.395 131.733 226.738C131.605 227.082 131.542 227.47 131.542 227.902C131.542 228.339 131.607 228.733 131.738 229.082C131.868 229.432 132.061 229.709 132.317 229.913C132.576 230.115 132.894 230.216 133.272 230.216ZM138.052 231.174V224.629H139.283V225.669H139.352C139.471 225.317 139.681 225.04 139.982 224.838C140.286 224.633 140.63 224.531 141.013 224.531C141.093 224.531 141.187 224.534 141.295 224.54C141.406 224.545 141.492 224.552 141.555 224.561V225.78C141.504 225.765 141.413 225.75 141.282 225.733C141.151 225.713 141.021 225.703 140.89 225.703C140.589 225.703 140.32 225.767 140.085 225.895C139.852 226.02 139.667 226.194 139.531 226.419C139.394 226.64 139.326 226.893 139.326 227.177V231.174H138.052ZM145.244 231.307C144.599 231.307 144.044 231.169 143.578 230.893C143.115 230.615 142.757 230.224 142.504 229.721C142.254 229.216 142.129 228.623 142.129 227.944C142.129 227.274 142.254 226.683 142.504 226.172C142.757 225.66 143.109 225.261 143.561 224.974C144.015 224.687 144.547 224.544 145.154 224.544C145.524 224.544 145.882 224.605 146.228 224.727C146.575 224.849 146.886 225.041 147.162 225.302C147.437 225.564 147.654 225.903 147.814 226.321C147.973 226.736 148.052 227.24 148.052 227.834V228.285H142.849V227.331H146.804C146.804 226.995 146.735 226.699 146.599 226.44C146.463 226.179 146.271 225.973 146.024 225.822C145.779 225.672 145.493 225.596 145.163 225.596C144.805 225.596 144.493 225.684 144.225 225.861C143.961 226.034 143.757 226.261 143.612 226.542C143.47 226.821 143.399 227.123 143.399 227.45V228.196C143.399 228.633 143.475 229.005 143.629 229.312C143.785 229.619 144.002 229.853 144.281 230.015C144.559 230.174 144.885 230.254 145.257 230.254C145.498 230.254 145.718 230.22 145.917 230.152C146.116 230.081 146.288 229.976 146.433 229.836C146.578 229.697 146.689 229.525 146.765 229.321L147.971 229.538C147.875 229.893 147.701 230.204 147.451 230.471C147.204 230.736 146.893 230.942 146.518 231.089C146.146 231.234 145.721 231.307 145.244 231.307ZM154.371 226.227L153.216 226.432C153.168 226.284 153.091 226.143 152.986 226.01C152.884 225.876 152.744 225.767 152.568 225.682C152.392 225.596 152.172 225.554 151.908 225.554C151.547 225.554 151.246 225.635 151.004 225.797C150.763 225.956 150.642 226.162 150.642 226.415C150.642 226.633 150.723 226.809 150.885 226.943C151.047 227.076 151.308 227.186 151.669 227.271L152.709 227.51C153.311 227.649 153.76 227.863 154.055 228.153C154.351 228.443 154.499 228.819 154.499 229.282C154.499 229.674 154.385 230.024 154.158 230.331C153.933 230.635 153.619 230.873 153.216 231.047C152.815 231.22 152.351 231.307 151.822 231.307C151.089 231.307 150.491 231.15 150.028 230.838C149.565 230.522 149.281 230.075 149.176 229.495L150.408 229.308C150.484 229.629 150.642 229.872 150.881 230.037C151.119 230.199 151.43 230.28 151.814 230.28C152.232 230.28 152.565 230.193 152.815 230.02C153.065 229.844 153.19 229.629 153.19 229.376C153.19 229.172 153.114 229 152.96 228.861C152.81 228.721 152.578 228.616 152.266 228.545L151.158 228.302C150.547 228.163 150.095 227.942 149.803 227.638C149.513 227.334 149.368 226.949 149.368 226.483C149.368 226.096 149.476 225.758 149.692 225.469C149.908 225.179 150.206 224.953 150.587 224.791C150.967 224.626 151.403 224.544 151.895 224.544C152.602 224.544 153.159 224.697 153.565 225.004C153.972 225.308 154.24 225.716 154.371 226.227ZM160.804 226.227L159.65 226.432C159.601 226.284 159.525 226.143 159.419 226.01C159.317 225.876 159.178 225.767 159.002 225.682C158.826 225.596 158.605 225.554 158.341 225.554C157.98 225.554 157.679 225.635 157.438 225.797C157.196 225.956 157.076 226.162 157.076 226.415C157.076 226.633 157.157 226.809 157.319 226.943C157.48 227.076 157.742 227.186 158.103 227.271L159.142 227.51C159.745 227.649 160.194 227.863 160.489 228.153C160.784 228.443 160.932 228.819 160.932 229.282C160.932 229.674 160.819 230.024 160.591 230.331C160.367 230.635 160.053 230.873 159.65 231.047C159.249 231.22 158.784 231.307 158.256 231.307C157.523 231.307 156.925 231.15 156.462 230.838C155.999 230.522 155.715 230.075 155.61 229.495L156.841 229.308C156.918 229.629 157.076 229.872 157.314 230.037C157.553 230.199 157.864 230.28 158.248 230.28C158.665 230.28 158.999 230.193 159.249 230.02C159.499 229.844 159.624 229.629 159.624 229.376C159.624 229.172 159.547 229 159.394 228.861C159.243 228.721 159.012 228.616 158.699 228.545L157.591 228.302C156.98 228.163 156.529 227.942 156.236 227.638C155.946 227.334 155.801 226.949 155.801 226.483C155.801 226.096 155.909 225.758 156.125 225.469C156.341 225.179 156.64 224.953 157.02 224.791C157.401 224.626 157.837 224.544 158.328 224.544C159.036 224.544 159.593 224.697 159.999 225.004C160.405 225.308 160.674 225.716 160.804 226.227Z" fill="white"/>
<rect x="16" y="242.174" width="358" height="50" rx="10" fill="white"/>
<path d="M16.9588 320.174V311.447H22.4304V312.581H18.2756V315.24H22.1449V316.369H18.2756V319.041H22.4815V320.174H16.9588ZM25.3612 316.288V320.174H24.087V313.629H25.31V314.694H25.391C25.5415 314.348 25.7773 314.069 26.0984 313.859C26.4222 313.649 26.8299 313.544 27.3214 313.544C27.7674 313.544 28.158 313.638 28.4933 313.825C28.8285 314.01 29.0884 314.285 29.2731 314.652C29.4577 315.018 29.5501 315.471 29.5501 316.011V320.174H28.2759V316.165C28.2759 315.69 28.1523 315.319 27.9052 315.052C27.658 314.782 27.3185 314.647 26.8867 314.647C26.5913 314.647 26.3285 314.711 26.0984 314.839C25.8711 314.967 25.6907 315.155 25.5572 315.402C25.4265 315.646 25.3612 315.942 25.3612 316.288ZM34.3143 313.629V314.652H30.739V313.629H34.3143ZM31.6978 312.061H32.9719V318.253C32.9719 318.5 33.0089 318.686 33.0827 318.811C33.1566 318.933 33.2518 319.017 33.3683 319.062C33.4876 319.105 33.6168 319.126 33.756 319.126C33.8583 319.126 33.9478 319.119 34.0245 319.105C34.1012 319.091 34.1609 319.079 34.2035 319.071L34.4336 320.123C34.3597 320.152 34.2546 320.18 34.1183 320.209C33.9819 320.24 33.8114 320.257 33.6069 320.26C33.2717 320.265 32.9592 320.206 32.6694 320.081C32.3796 319.956 32.1452 319.763 31.9663 319.501C31.7873 319.24 31.6978 318.912 31.6978 318.517V312.061ZM38.4744 320.307C37.8295 320.307 37.2741 320.169 36.8082 319.893C36.3452 319.615 35.9872 319.224 35.7344 318.721C35.4844 318.216 35.3594 317.623 35.3594 316.944C35.3594 316.274 35.4844 315.683 35.7344 315.172C35.9872 314.66 36.3395 314.261 36.7912 313.974C37.2457 313.687 37.777 313.544 38.3849 313.544C38.7543 313.544 39.1122 313.605 39.4588 313.727C39.8054 313.849 40.1165 314.041 40.392 314.302C40.6676 314.564 40.8849 314.903 41.044 315.321C41.2031 315.736 41.2827 316.24 41.2827 316.834V317.285H36.0795V316.331H40.0341C40.0341 315.995 39.9659 315.699 39.8295 315.44C39.6932 315.179 39.5014 314.973 39.2543 314.822C39.0099 314.672 38.723 314.596 38.3935 314.596C38.0355 314.596 37.723 314.684 37.456 314.861C37.1918 315.034 36.9872 315.261 36.8423 315.542C36.7003 315.821 36.6293 316.123 36.6293 316.45V317.196C36.6293 317.633 36.706 318.005 36.8594 318.312C37.0156 318.619 37.233 318.853 37.5114 319.015C37.7898 319.174 38.1151 319.254 38.4872 319.254C38.7287 319.254 38.9489 319.22 39.1477 319.152C39.3466 319.081 39.5185 318.976 39.6634 318.836C39.8082 318.697 39.919 318.525 39.9957 318.321L41.2017 318.538C41.1051 318.893 40.9318 319.204 40.6818 319.471C40.4347 319.736 40.1236 319.942 39.7486 320.089C39.3764 320.234 38.9517 320.307 38.4744 320.307ZM42.6964 320.174V313.629H43.9279V314.669H43.9961C44.1154 314.317 44.3256 314.04 44.6268 313.838C44.9308 313.633 45.2745 313.531 45.658 313.531C45.7376 313.531 45.8313 313.534 45.9393 313.54C46.0501 313.545 46.1367 313.552 46.1992 313.561V314.78C46.1481 314.765 46.0572 314.75 45.9265 314.733C45.7958 314.713 45.6651 314.703 45.5344 314.703C45.2333 314.703 44.9648 314.767 44.729 314.895C44.4961 315.02 44.3114 315.194 44.1751 315.419C44.0387 315.64 43.9705 315.893 43.9705 316.177V320.174H42.6964ZM51.283 322.629C51.0927 322.629 50.9194 322.613 50.7631 322.582C50.6069 322.554 50.4904 322.522 50.4137 322.488L50.7205 321.444C50.9535 321.507 51.1609 321.534 51.3427 321.525C51.5245 321.517 51.685 321.449 51.8242 321.321C51.9663 321.193 52.0913 320.984 52.1992 320.694L52.3569 320.26L49.962 313.629H51.3256L52.9833 318.709H53.0515L54.7092 313.629H56.0771L53.3796 321.048C53.2546 321.389 53.0955 321.677 52.9023 321.913C52.7092 322.152 52.479 322.331 52.212 322.45C51.945 322.569 51.6353 322.629 51.283 322.629ZM59.8089 320.307C59.1953 320.307 58.6598 320.166 58.2024 319.885C57.745 319.603 57.3899 319.21 57.1371 318.704C56.8842 318.199 56.7578 317.608 56.7578 316.932C56.7578 316.253 56.8842 315.659 57.1371 315.15C57.3899 314.642 57.745 314.247 58.2024 313.966C58.6598 313.684 59.1953 313.544 59.8089 313.544C60.4226 313.544 60.9581 313.684 61.4155 313.966C61.8729 314.247 62.228 314.642 62.4808 315.15C62.7337 315.659 62.8601 316.253 62.8601 316.932C62.8601 317.608 62.7337 318.199 62.4808 318.704C62.228 319.21 61.8729 319.603 61.4155 319.885C60.9581 320.166 60.4226 320.307 59.8089 320.307ZM59.8132 319.237C60.2109 319.237 60.5405 319.132 60.8018 318.922C61.0632 318.711 61.2564 318.432 61.3814 318.082C61.5092 317.733 61.5732 317.348 61.5732 316.927C61.5732 316.51 61.5092 316.126 61.3814 315.777C61.2564 315.424 61.0632 315.142 60.8018 314.929C60.5405 314.716 60.2109 314.609 59.8132 314.609C59.4126 314.609 59.0803 314.716 58.8161 314.929C58.5547 315.142 58.3601 315.424 58.2322 315.777C58.1072 316.126 58.0447 316.51 58.0447 316.927C58.0447 317.348 58.1072 317.733 58.2322 318.082C58.3601 318.432 58.5547 318.711 58.8161 318.922C59.0803 319.132 59.4126 319.237 59.8132 319.237ZM68.4286 317.46V313.629H69.707V320.174H68.4542V319.041H68.386C68.2354 319.39 67.994 319.682 67.6616 319.915C67.332 320.145 66.9215 320.26 66.43 320.26C66.0096 320.26 65.6374 320.167 65.3136 319.983C64.9925 319.795 64.7397 319.518 64.555 319.152C64.3732 318.785 64.2823 318.332 64.2823 317.792V313.629H65.5565V317.639C65.5565 318.085 65.68 318.44 65.9272 318.704C66.1744 318.969 66.4954 319.101 66.8903 319.101C67.1289 319.101 67.3661 319.041 67.6019 318.922C67.8406 318.802 68.038 318.622 68.1942 318.38C68.3533 318.139 68.4315 317.832 68.4286 317.46ZM71.419 320.174V313.629H72.6506V314.669H72.7188C72.8381 314.317 73.0483 314.04 73.3494 313.838C73.6534 313.633 73.9972 313.531 74.3807 313.531C74.4602 313.531 74.554 313.534 74.6619 313.54C74.7727 313.545 74.8594 313.552 74.9219 313.561V314.78C74.8707 314.765 74.7798 314.75 74.6491 314.733C74.5185 314.713 74.3878 314.703 74.2571 314.703C73.956 314.703 73.6875 314.767 73.4517 314.895C73.2188 315.02 73.0341 315.194 72.8977 315.419C72.7614 315.64 72.6932 315.893 72.6932 316.177V320.174H71.419ZM84.9148 311.447H86.2358V317.187C86.2358 317.798 86.0923 318.339 85.8054 318.811C85.5185 319.28 85.1151 319.649 84.5952 319.919C84.0753 320.186 83.4659 320.319 82.767 320.319C82.071 320.319 81.4631 320.186 80.9432 319.919C80.4233 319.649 80.0199 319.28 79.733 318.811C79.446 318.339 79.3026 317.798 79.3026 317.187V311.447H80.6193V317.081C80.6193 317.476 80.706 317.826 80.8793 318.133C81.0554 318.44 81.304 318.682 81.625 318.858C81.946 319.031 82.3267 319.118 82.767 319.118C83.2102 319.118 83.5923 319.031 83.9134 318.858C84.2372 318.682 84.4844 318.44 84.6548 318.133C84.8281 317.826 84.9148 317.476 84.9148 317.081V311.447ZM92.9528 315.227L91.7979 315.432C91.7496 315.284 91.6729 315.143 91.5678 315.01C91.4656 314.876 91.3263 314.767 91.1502 314.682C90.9741 314.596 90.7539 314.554 90.4897 314.554C90.1289 314.554 89.8278 314.635 89.5863 314.797C89.3448 314.956 89.2241 315.162 89.2241 315.415C89.2241 315.633 89.305 315.809 89.467 315.943C89.6289 316.076 89.8903 316.186 90.2511 316.271L91.2908 316.51C91.8931 316.649 92.342 316.863 92.6374 317.153C92.9329 317.443 93.0806 317.819 93.0806 318.282C93.0806 318.674 92.967 319.024 92.7397 319.331C92.5153 319.635 92.2013 319.873 91.7979 320.047C91.3974 320.22 90.9329 320.307 90.4045 320.307C89.6715 320.307 89.0735 320.15 88.6104 319.838C88.1474 319.522 87.8633 319.075 87.7582 318.495L88.9897 318.308C89.0664 318.629 89.2241 318.872 89.4627 319.037C89.7013 319.199 90.0124 319.28 90.396 319.28C90.8136 319.28 91.1474 319.193 91.3974 319.02C91.6474 318.844 91.7724 318.629 91.7724 318.376C91.7724 318.172 91.6957 318 91.5423 317.861C91.3917 317.721 91.1602 317.616 90.8477 317.545L89.7397 317.302C89.1289 317.163 88.6772 316.942 88.3846 316.638C88.0948 316.334 87.9499 315.949 87.9499 315.483C87.9499 315.096 88.0579 314.758 88.2738 314.469C88.4897 314.179 88.788 313.953 89.1687 313.791C89.5494 313.626 89.9854 313.544 90.4769 313.544C91.1843 313.544 91.7411 313.697 92.1474 314.004C92.5536 314.308 92.8221 314.716 92.9528 315.227ZM97.3026 320.307C96.6577 320.307 96.1023 320.169 95.6364 319.893C95.1733 319.615 94.8153 319.224 94.5625 318.721C94.3125 318.216 94.1875 317.623 94.1875 316.944C94.1875 316.274 94.3125 315.683 94.5625 315.172C94.8153 314.66 95.1676 314.261 95.6193 313.974C96.0739 313.687 96.6051 313.544 97.2131 313.544C97.5824 313.544 97.9403 313.605 98.2869 313.727C98.6335 313.849 98.9446 314.041 99.2202 314.302C99.4957 314.564 99.7131 314.903 99.8722 315.321C100.031 315.736 100.111 316.24 100.111 316.834V317.285H94.9077V316.331H98.8622C98.8622 315.995 98.794 315.699 98.6577 315.44C98.5213 315.179 98.3295 314.973 98.0824 314.822C97.8381 314.672 97.5511 314.596 97.2216 314.596C96.8636 314.596 96.5511 314.684 96.2841 314.861C96.0199 315.034 95.8153 315.261 95.6705 315.542C95.5284 315.821 95.4574 316.123 95.4574 316.45V317.196C95.4574 317.633 95.5341 318.005 95.6875 318.312C95.8438 318.619 96.0611 318.853 96.3395 319.015C96.6179 319.174 96.9432 319.254 97.3153 319.254C97.5568 319.254 97.777 319.22 97.9759 319.152C98.1747 319.081 98.3466 318.976 98.4915 318.836C98.6364 318.697 98.7472 318.525 98.8239 318.321L100.03 318.538C99.9332 318.893 99.7599 319.204 99.5099 319.471C99.2628 319.736 98.9517 319.942 98.5767 320.089C98.2045 320.234 97.7798 320.307 97.3026 320.307ZM101.525 320.174V313.629H102.756V314.669H102.824C102.944 314.317 103.154 314.04 103.455 313.838C103.759 313.633 104.103 313.531 104.486 313.531C104.566 313.531 104.659 313.534 104.767 313.54C104.878 313.545 104.965 313.552 105.027 313.561V314.78C104.976 314.765 104.885 314.75 104.755 314.733C104.624 314.713 104.493 314.703 104.363 314.703C104.061 314.703 103.793 314.767 103.557 314.895C103.324 315.02 103.14 315.194 103.003 315.419C102.867 315.64 102.799 315.893 102.799 316.177V320.174H101.525ZM110.58 316.288V320.174H109.306V313.629H110.529V314.694H110.61C110.76 314.348 110.996 314.069 111.317 313.859C111.641 313.649 112.049 313.544 112.54 313.544C112.986 313.544 113.377 313.638 113.712 313.825C114.047 314.01 114.307 314.285 114.492 314.652C114.676 315.018 114.769 315.471 114.769 316.011V320.174H113.495V316.165C113.495 315.69 113.371 315.319 113.124 315.052C112.877 314.782 112.537 314.647 112.105 314.647C111.81 314.647 111.547 314.711 111.317 314.839C111.09 314.967 110.909 315.155 110.776 315.402C110.645 315.646 110.58 315.942 110.58 316.288ZM118.382 320.319C117.968 320.319 117.593 320.243 117.257 320.089C116.922 319.933 116.657 319.707 116.461 319.412C116.267 319.116 116.171 318.754 116.171 318.325C116.171 317.956 116.242 317.652 116.384 317.413C116.526 317.174 116.718 316.986 116.959 316.846C117.201 316.707 117.471 316.602 117.769 316.531C118.067 316.46 118.371 316.406 118.681 316.369C119.073 316.324 119.391 316.287 119.635 316.258C119.88 316.227 120.057 316.177 120.168 316.109C120.279 316.041 120.334 315.93 120.334 315.777V315.747C120.334 315.375 120.229 315.086 120.019 314.882C119.811 314.677 119.502 314.575 119.09 314.575C118.661 314.575 118.323 314.67 118.076 314.861C117.831 315.048 117.662 315.257 117.569 315.487L116.371 315.214C116.513 314.817 116.721 314.495 116.993 314.251C117.269 314.004 117.586 313.825 117.944 313.714C118.301 313.601 118.678 313.544 119.073 313.544C119.334 313.544 119.611 313.575 119.904 313.638C120.199 313.697 120.475 313.808 120.73 313.97C120.989 314.132 121.201 314.363 121.365 314.665C121.53 314.963 121.613 315.351 121.613 315.828V320.174H120.368V319.28H120.317C120.235 319.444 120.111 319.606 119.946 319.765C119.782 319.924 119.57 320.057 119.311 320.162C119.053 320.267 118.743 320.319 118.382 320.319ZM118.659 319.297C119.012 319.297 119.313 319.227 119.563 319.088C119.816 318.949 120.007 318.767 120.138 318.542C120.272 318.315 120.338 318.072 120.338 317.814V316.97C120.293 317.015 120.205 317.058 120.074 317.098C119.946 317.135 119.8 317.167 119.635 317.196C119.471 317.221 119.31 317.245 119.154 317.268C118.998 317.288 118.867 317.305 118.762 317.319C118.515 317.351 118.289 317.403 118.084 317.477C117.882 317.551 117.721 317.657 117.598 317.797C117.479 317.933 117.419 318.115 117.419 318.342C117.419 318.657 117.536 318.896 117.769 319.058C118.002 319.217 118.299 319.297 118.659 319.297ZM123.31 320.174V313.629H124.533V314.694H124.614C124.75 314.334 124.973 314.052 125.283 313.851C125.592 313.646 125.963 313.544 126.395 313.544C126.832 313.544 127.199 313.646 127.494 313.851C127.793 314.055 128.013 314.336 128.155 314.694H128.223C128.379 314.345 128.628 314.067 128.969 313.859C129.31 313.649 129.716 313.544 130.188 313.544C130.781 313.544 131.266 313.73 131.641 314.102C132.018 314.474 132.207 315.035 132.207 315.785V320.174H130.933V315.905C130.933 315.461 130.813 315.14 130.571 314.942C130.33 314.743 130.041 314.643 129.706 314.643C129.291 314.643 128.969 314.771 128.739 315.027C128.509 315.28 128.393 315.605 128.393 316.003V320.174H127.124V315.824C127.124 315.469 127.013 315.183 126.791 314.967C126.57 314.751 126.281 314.643 125.926 314.643C125.685 314.643 125.462 314.707 125.257 314.835C125.055 314.96 124.892 315.135 124.767 315.359C124.645 315.584 124.584 315.844 124.584 316.139V320.174H123.31ZM136.736 320.307C136.091 320.307 135.536 320.169 135.07 319.893C134.607 319.615 134.249 319.224 133.996 318.721C133.746 318.216 133.621 317.623 133.621 316.944C133.621 316.274 133.746 315.683 133.996 315.172C134.249 314.66 134.601 314.261 135.053 313.974C135.507 313.687 136.039 313.544 136.647 313.544C137.016 313.544 137.374 313.605 137.721 313.727C138.067 313.849 138.378 314.041 138.654 314.302C138.929 314.564 139.147 314.903 139.306 315.321C139.465 315.736 139.544 316.24 139.544 316.834V317.285H134.341V316.331H138.296C138.296 315.995 138.228 315.699 138.091 315.44C137.955 315.179 137.763 314.973 137.516 314.822C137.272 314.672 136.985 314.596 136.655 314.596C136.297 314.596 135.985 314.684 135.718 314.861C135.453 315.034 135.249 315.261 135.104 315.542C134.962 315.821 134.891 316.123 134.891 316.45V317.196C134.891 317.633 134.968 318.005 135.121 318.312C135.277 318.619 135.495 318.853 135.773 319.015C136.051 319.174 136.377 319.254 136.749 319.254C136.99 319.254 137.211 319.22 137.409 319.152C137.608 319.081 137.78 318.976 137.925 318.836C138.07 318.697 138.181 318.525 138.257 318.321L139.463 318.538C139.367 318.893 139.194 319.204 138.944 319.471C138.696 319.736 138.385 319.942 138.01 320.089C137.638 320.234 137.213 320.307 136.736 320.307Z" fill="white"/>
<rect x="16" y="331.174" width="358" height="50" rx="10" fill="white"/>
<path d="M16.9588 409.174V400.447H22.4304V401.581H18.2756V404.24H22.1449V405.369H18.2756V408.041H22.4815V409.174H16.9588ZM25.3612 405.288V409.174H24.087V402.629H25.31V403.694H25.391C25.5415 403.348 25.7773 403.069 26.0984 402.859C26.4222 402.649 26.8299 402.544 27.3214 402.544C27.7674 402.544 28.158 402.638 28.4933 402.825C28.8285 403.01 29.0884 403.285 29.2731 403.652C29.4577 404.018 29.5501 404.471 29.5501 405.011V409.174H28.2759V405.165C28.2759 404.69 28.1523 404.319 27.9052 404.052C27.658 403.782 27.3185 403.647 26.8867 403.647C26.5913 403.647 26.3285 403.711 26.0984 403.839C25.8711 403.967 25.6907 404.155 25.5572 404.402C25.4265 404.646 25.3612 404.942 25.3612 405.288ZM34.3143 402.629V403.652H30.739V402.629H34.3143ZM31.6978 401.061H32.9719V407.253C32.9719 407.5 33.0089 407.686 33.0827 407.811C33.1566 407.933 33.2518 408.017 33.3683 408.062C33.4876 408.105 33.6168 408.126 33.756 408.126C33.8583 408.126 33.9478 408.119 34.0245 408.105C34.1012 408.091 34.1609 408.079 34.2035 408.071L34.4336 409.123C34.3597 409.152 34.2546 409.18 34.1183 409.209C33.9819 409.24 33.8114 409.257 33.6069 409.26C33.2717 409.265 32.9592 409.206 32.6694 409.081C32.3796 408.956 32.1452 408.763 31.9663 408.501C31.7873 408.24 31.6978 407.912 31.6978 407.517V401.061ZM38.4744 409.307C37.8295 409.307 37.2741 409.169 36.8082 408.893C36.3452 408.615 35.9872 408.224 35.7344 407.721C35.4844 407.216 35.3594 406.623 35.3594 405.944C35.3594 405.274 35.4844 404.683 35.7344 404.172C35.9872 403.66 36.3395 403.261 36.7912 402.974C37.2457 402.687 37.777 402.544 38.3849 402.544C38.7543 402.544 39.1122 402.605 39.4588 402.727C39.8054 402.849 40.1165 403.041 40.392 403.302C40.6676 403.564 40.8849 403.903 41.044 404.321C41.2031 404.736 41.2827 405.24 41.2827 405.834V406.285H36.0795V405.331H40.0341C40.0341 404.995 39.9659 404.699 39.8295 404.44C39.6932 404.179 39.5014 403.973 39.2543 403.822C39.0099 403.672 38.723 403.596 38.3935 403.596C38.0355 403.596 37.723 403.684 37.456 403.861C37.1918 404.034 36.9872 404.261 36.8423 404.542C36.7003 404.821 36.6293 405.123 36.6293 405.45V406.196C36.6293 406.633 36.706 407.005 36.8594 407.312C37.0156 407.619 37.233 407.853 37.5114 408.015C37.7898 408.174 38.1151 408.254 38.4872 408.254C38.7287 408.254 38.9489 408.22 39.1477 408.152C39.3466 408.081 39.5185 407.976 39.6634 407.836C39.8082 407.697 39.919 407.525 39.9957 407.321L41.2017 407.538C41.1051 407.893 40.9318 408.204 40.6818 408.471C40.4347 408.736 40.1236 408.942 39.7486 409.089C39.3764 409.234 38.9517 409.307 38.4744 409.307ZM42.6964 409.174V402.629H43.9279V403.669H43.9961C44.1154 403.317 44.3256 403.04 44.6268 402.838C44.9308 402.633 45.2745 402.531 45.658 402.531C45.7376 402.531 45.8313 402.534 45.9393 402.54C46.0501 402.545 46.1367 402.552 46.1992 402.561V403.78C46.1481 403.765 46.0572 403.75 45.9265 403.733C45.7958 403.713 45.6651 403.703 45.5344 403.703C45.2333 403.703 44.9648 403.767 44.729 403.895C44.4961 404.02 44.3114 404.194 44.1751 404.419C44.0387 404.64 43.9705 404.893 43.9705 405.177V409.174H42.6964ZM51.283 411.629C51.0927 411.629 50.9194 411.613 50.7631 411.582C50.6069 411.554 50.4904 411.522 50.4137 411.488L50.7205 410.444C50.9535 410.507 51.1609 410.534 51.3427 410.525C51.5245 410.517 51.685 410.449 51.8242 410.321C51.9663 410.193 52.0913 409.984 52.1992 409.694L52.3569 409.26L49.962 402.629H51.3256L52.9833 407.709H53.0515L54.7092 402.629H56.0771L53.3796 410.048C53.2546 410.389 53.0955 410.677 52.9023 410.913C52.7092 411.152 52.479 411.331 52.212 411.45C51.945 411.569 51.6353 411.629 51.283 411.629ZM59.8089 409.307C59.1953 409.307 58.6598 409.166 58.2024 408.885C57.745 408.603 57.3899 408.21 57.1371 407.704C56.8842 407.199 56.7578 406.608 56.7578 405.932C56.7578 405.253 56.8842 404.659 57.1371 404.15C57.3899 403.642 57.745 403.247 58.2024 402.966C58.6598 402.684 59.1953 402.544 59.8089 402.544C60.4226 402.544 60.9581 402.684 61.4155 402.966C61.8729 403.247 62.228 403.642 62.4808 404.15C62.7337 404.659 62.8601 405.253 62.8601 405.932C62.8601 406.608 62.7337 407.199 62.4808 407.704C62.228 408.21 61.8729 408.603 61.4155 408.885C60.9581 409.166 60.4226 409.307 59.8089 409.307ZM59.8132 408.237C60.2109 408.237 60.5405 408.132 60.8018 407.922C61.0632 407.711 61.2564 407.432 61.3814 407.082C61.5092 406.733 61.5732 406.348 61.5732 405.927C61.5732 405.51 61.5092 405.126 61.3814 404.777C61.2564 404.424 61.0632 404.142 60.8018 403.929C60.5405 403.716 60.2109 403.609 59.8132 403.609C59.4126 403.609 59.0803 403.716 58.8161 403.929C58.5547 404.142 58.3601 404.424 58.2322 404.777C58.1072 405.126 58.0447 405.51 58.0447 405.927C58.0447 406.348 58.1072 406.733 58.2322 407.082C58.3601 407.432 58.5547 407.711 58.8161 407.922C59.0803 408.132 59.4126 408.237 59.8132 408.237ZM68.4286 406.46V402.629H69.707V409.174H68.4542V408.041H68.386C68.2354 408.39 67.994 408.682 67.6616 408.915C67.332 409.145 66.9215 409.26 66.43 409.26C66.0096 409.26 65.6374 409.167 65.3136 408.983C64.9925 408.795 64.7397 408.518 64.555 408.152C64.3732 407.785 64.2823 407.332 64.2823 406.792V402.629H65.5565V406.639C65.5565 407.085 65.68 407.44 65.9272 407.704C66.1744 407.969 66.4954 408.101 66.8903 408.101C67.1289 408.101 67.3661 408.041 67.6019 407.922C67.8406 407.802 68.038 407.622 68.1942 407.38C68.3533 407.139 68.4315 406.832 68.4286 406.46ZM71.419 409.174V402.629H72.6506V403.669H72.7188C72.8381 403.317 73.0483 403.04 73.3494 402.838C73.6534 402.633 73.9972 402.531 74.3807 402.531C74.4602 402.531 74.554 402.534 74.6619 402.54C74.7727 402.545 74.8594 402.552 74.9219 402.561V403.78C74.8707 403.765 74.7798 403.75 74.6491 403.733C74.5185 403.713 74.3878 403.703 74.2571 403.703C73.956 403.703 73.6875 403.767 73.4517 403.895C73.2188 404.02 73.0341 404.194 72.8977 404.419C72.7614 404.64 72.6932 404.893 72.6932 405.177V409.174H71.419ZM82.1278 409.174H79.3026V400.447H82.2173C83.0724 400.447 83.8068 400.622 84.4205 400.971C85.0341 401.318 85.5043 401.817 85.831 402.467C86.1605 403.115 86.3253 403.892 86.3253 404.798C86.3253 405.707 86.1591 406.488 85.8267 407.142C85.4972 407.795 85.0199 408.298 84.3949 408.65C83.7699 409 83.0142 409.174 82.1278 409.174ZM80.6193 408.024H82.0554C82.7202 408.024 83.2727 407.899 83.7131 407.649C84.1534 407.396 84.483 407.031 84.7017 406.554C84.9205 406.074 85.0298 405.488 85.0298 404.798C85.0298 404.113 84.9205 403.532 84.7017 403.055C84.4858 402.578 84.1634 402.216 83.7344 401.969C83.3054 401.721 82.7727 401.598 82.1364 401.598H80.6193V408.024ZM89.7653 409.319C89.3505 409.319 88.9755 409.243 88.6403 409.089C88.305 408.933 88.0394 408.707 87.8434 408.412C87.6502 408.116 87.5536 407.754 87.5536 407.325C87.5536 406.956 87.6246 406.652 87.7667 406.413C87.9087 406.174 88.1005 405.986 88.342 405.846C88.5835 405.707 88.8533 405.602 89.1516 405.531C89.4499 405.46 89.7539 405.406 90.0636 405.369C90.4556 405.324 90.7738 405.287 91.0181 405.258C91.2624 405.227 91.44 405.177 91.5508 405.109C91.6616 405.041 91.717 404.93 91.717 404.777V404.747C91.717 404.375 91.6119 404.086 91.4016 403.882C91.1942 403.677 90.8846 403.575 90.4727 403.575C90.0437 403.575 89.7056 403.67 89.4585 403.861C89.2141 404.048 89.0451 404.257 88.9513 404.487L87.7539 404.214C87.896 403.817 88.1033 403.495 88.3761 403.251C88.6516 403.004 88.9684 402.825 89.3263 402.714C89.6843 402.601 90.0607 402.544 90.4556 402.544C90.717 402.544 90.994 402.575 91.2866 402.638C91.582 402.697 91.8576 402.808 92.1133 402.97C92.3718 403.132 92.5835 403.363 92.7482 403.665C92.913 403.963 92.9954 404.351 92.9954 404.828V409.174H91.7511V408.28H91.6999C91.6175 408.444 91.494 408.606 91.3292 408.765C91.1644 408.924 90.9528 409.057 90.6942 409.162C90.4357 409.267 90.1261 409.319 89.7653 409.319ZM90.0423 408.297C90.3945 408.297 90.6957 408.227 90.9457 408.088C91.1985 407.949 91.3903 407.767 91.521 407.542C91.6545 407.315 91.7212 407.072 91.7212 406.814V405.97C91.6758 406.015 91.5877 406.058 91.457 406.098C91.3292 406.135 91.1829 406.167 91.0181 406.196C90.8533 406.221 90.6928 406.245 90.5366 406.268C90.3803 406.288 90.2496 406.305 90.1445 406.319C89.8974 406.351 89.6715 406.403 89.467 406.477C89.2653 406.551 89.1033 406.657 88.9812 406.797C88.8619 406.933 88.8022 407.115 88.8022 407.342C88.8022 407.657 88.9187 407.896 89.1516 408.058C89.3846 408.217 89.6815 408.297 90.0423 408.297ZM97.7479 402.629V403.652H94.1726V402.629H97.7479ZM95.1314 401.061H96.4055V407.253C96.4055 407.5 96.4425 407.686 96.5163 407.811C96.5902 407.933 96.6854 408.017 96.8018 408.062C96.9212 408.105 97.0504 408.126 97.1896 408.126C97.2919 408.126 97.3814 408.119 97.4581 408.105C97.5348 408.091 97.5945 408.079 97.6371 408.071L97.8672 409.123C97.7933 409.152 97.6882 409.18 97.5518 409.209C97.4155 409.24 97.245 409.257 97.0405 409.26C96.7053 409.265 96.3928 409.206 96.103 409.081C95.8132 408.956 95.5788 408.763 95.3999 408.501C95.2209 408.24 95.1314 407.912 95.1314 407.517V401.061ZM101.908 409.307C101.263 409.307 100.708 409.169 100.242 408.893C99.7788 408.615 99.4208 408.224 99.168 407.721C98.918 407.216 98.793 406.623 98.793 405.944C98.793 405.274 98.918 404.683 99.168 404.172C99.4208 403.66 99.7731 403.261 100.225 402.974C100.679 402.687 101.211 402.544 101.819 402.544C102.188 402.544 102.546 402.605 102.892 402.727C103.239 402.849 103.55 403.041 103.826 403.302C104.101 403.564 104.319 403.903 104.478 404.321C104.637 404.736 104.716 405.24 104.716 405.834V406.285H99.5131V405.331H103.468C103.468 404.995 103.4 404.699 103.263 404.44C103.127 404.179 102.935 403.973 102.688 403.822C102.444 403.672 102.157 403.596 101.827 403.596C101.469 403.596 101.157 403.684 100.89 403.861C100.625 404.034 100.421 404.261 100.276 404.542C100.134 404.821 100.063 405.123 100.063 405.45V406.196C100.063 406.633 100.14 407.005 100.293 407.312C100.449 407.619 100.667 407.853 100.945 408.015C101.223 408.174 101.549 408.254 101.921 408.254C102.162 408.254 102.382 408.22 102.581 408.152C102.78 408.081 102.952 407.976 103.097 407.836C103.242 407.697 103.353 407.525 103.429 407.321L104.635 407.538C104.539 407.893 104.365 408.204 104.115 408.471C103.868 408.736 103.557 408.942 103.182 409.089C102.81 409.234 102.385 409.307 101.908 409.307ZM112.063 409.307C111.449 409.307 110.914 409.166 110.456 408.885C109.999 408.603 109.644 408.21 109.391 407.704C109.138 407.199 109.012 406.608 109.012 405.932C109.012 405.253 109.138 404.659 109.391 404.15C109.644 403.642 109.999 403.247 110.456 402.966C110.914 402.684 111.449 402.544 112.063 402.544C112.676 402.544 113.212 402.684 113.669 402.966C114.127 403.247 114.482 403.642 114.735 404.15C114.988 404.659 115.114 405.253 115.114 405.932C115.114 406.608 114.988 407.199 114.735 407.704C114.482 408.21 114.127 408.603 113.669 408.885C113.212 409.166 112.676 409.307 112.063 409.307ZM112.067 408.237C112.465 408.237 112.794 408.132 113.056 407.922C113.317 407.711 113.51 407.432 113.635 407.082C113.763 406.733 113.827 406.348 113.827 405.927C113.827 405.51 113.763 405.126 113.635 404.777C113.51 404.424 113.317 404.142 113.056 403.929C112.794 403.716 112.465 403.609 112.067 403.609C111.667 403.609 111.334 403.716 111.07 403.929C110.809 404.142 110.614 404.424 110.486 404.777C110.361 405.126 110.299 405.51 110.299 405.927C110.299 406.348 110.361 406.733 110.486 407.082C110.614 407.432 110.809 407.711 111.07 407.922C111.334 408.132 111.667 408.237 112.067 408.237ZM119.651 402.629V403.652H115.952V402.629H119.651ZM116.967 409.174V401.87C116.967 401.461 117.056 401.122 117.235 400.852C117.414 400.579 117.651 400.376 117.947 400.243C118.242 400.106 118.563 400.038 118.91 400.038C119.165 400.038 119.384 400.059 119.566 400.102C119.748 400.142 119.883 400.179 119.971 400.213L119.673 401.244C119.613 401.227 119.536 401.207 119.442 401.184C119.349 401.159 119.235 401.146 119.102 401.146C118.792 401.146 118.57 401.223 118.437 401.376C118.306 401.53 118.241 401.751 118.241 402.041V409.174H116.967ZM124.244 409.174V400.447H125.518V403.69H125.595C125.669 403.554 125.775 403.396 125.914 403.217C126.054 403.038 126.247 402.882 126.494 402.748C126.741 402.612 127.068 402.544 127.474 402.544C128.002 402.544 128.474 402.677 128.889 402.944C129.304 403.211 129.629 403.596 129.865 404.099C130.103 404.602 130.223 405.207 130.223 405.915C130.223 406.622 130.105 407.228 129.869 407.734C129.633 408.237 129.309 408.625 128.897 408.897C128.485 409.167 128.015 409.302 127.487 409.302C127.089 409.302 126.764 409.236 126.511 409.102C126.261 408.969 126.065 408.812 125.923 408.633C125.781 408.454 125.672 408.295 125.595 408.156H125.488V409.174H124.244ZM125.493 405.902C125.493 406.362 125.559 406.765 125.693 407.112C125.826 407.459 126.02 407.73 126.272 407.926C126.525 408.119 126.835 408.216 127.201 408.216C127.582 408.216 127.9 408.115 128.156 407.913C128.412 407.709 128.605 407.432 128.735 407.082C128.869 406.733 128.936 406.339 128.936 405.902C128.936 405.47 128.87 405.082 128.74 404.738C128.612 404.395 128.419 404.123 128.16 403.924C127.904 403.726 127.585 403.626 127.201 403.626C126.832 403.626 126.52 403.721 126.264 403.912C126.011 404.102 125.819 404.368 125.689 404.709C125.558 405.049 125.493 405.447 125.493 405.902ZM131.653 409.174V402.629H132.928V409.174H131.653ZM132.297 401.619C132.075 401.619 131.885 401.545 131.726 401.397C131.57 401.247 131.491 401.068 131.491 400.861C131.491 400.65 131.57 400.471 131.726 400.324C131.885 400.173 132.075 400.098 132.297 400.098C132.518 400.098 132.707 400.173 132.864 400.324C133.023 400.471 133.102 400.65 133.102 400.861C133.102 401.068 133.023 401.247 132.864 401.397C132.707 401.545 132.518 401.619 132.297 401.619ZM134.642 409.174V402.629H135.873V403.669H135.941C136.061 403.317 136.271 403.04 136.572 402.838C136.876 402.633 137.22 402.531 137.603 402.531C137.683 402.531 137.777 402.534 137.885 402.54C137.995 402.545 138.082 402.552 138.145 402.561V403.78C138.093 403.765 138.002 403.75 137.872 403.733C137.741 403.713 137.61 403.703 137.48 403.703C137.179 403.703 136.91 403.767 136.674 403.895C136.441 404.02 136.257 404.194 136.12 404.419C135.984 404.64 135.916 404.893 135.916 405.177V409.174H134.642ZM142.689 402.629V403.652H139.114V402.629H142.689ZM140.073 401.061H141.347V407.253C141.347 407.5 141.384 407.686 141.458 407.811C141.532 407.933 141.627 408.017 141.743 408.062C141.863 408.105 141.992 408.126 142.131 408.126C142.233 408.126 142.323 408.119 142.4 408.105C142.476 408.091 142.536 408.079 142.578 408.071L142.809 409.123C142.735 409.152 142.63 409.18 142.493 409.209C142.357 409.24 142.186 409.257 141.982 409.26C141.647 409.265 141.334 409.206 141.044 409.081C140.755 408.956 140.52 408.763 140.341 408.501C140.162 408.24 140.073 407.912 140.073 407.517V401.061ZM145.513 405.288V409.174H144.239V400.447H145.496V403.694H145.577C145.731 403.342 145.965 403.062 146.281 402.855C146.596 402.647 147.008 402.544 147.516 402.544C147.965 402.544 148.357 402.636 148.692 402.821C149.031 403.005 149.292 403.281 149.477 403.647C149.664 404.011 149.758 404.466 149.758 405.011V409.174H148.484V405.165C148.484 404.684 148.36 404.312 148.113 404.048C147.866 403.781 147.522 403.647 147.082 403.647C146.781 403.647 146.511 403.711 146.272 403.839C146.036 403.967 145.85 404.155 145.714 404.402C145.58 404.646 145.513 404.942 145.513 405.288Z" fill="white"/>
<rect x="16" y="420.174" width="358" height="50" rx="10" fill="white"/>
<path d="M16.9588 498.174V489.447H22.4304V490.581H18.2756V493.24H22.1449V494.369H18.2756V497.041H22.4815V498.174H16.9588ZM25.3612 494.288V498.174H24.087V491.629H25.31V492.694H25.391C25.5415 492.348 25.7773 492.069 26.0984 491.859C26.4222 491.649 26.8299 491.544 27.3214 491.544C27.7674 491.544 28.158 491.638 28.4933 491.825C28.8285 492.01 29.0884 492.285 29.2731 492.652C29.4577 493.018 29.5501 493.471 29.5501 494.011V498.174H28.2759V494.165C28.2759 493.69 28.1523 493.319 27.9052 493.052C27.658 492.782 27.3185 492.647 26.8867 492.647C26.5913 492.647 26.3285 492.711 26.0984 492.839C25.8711 492.967 25.6907 493.155 25.5572 493.402C25.4265 493.646 25.3612 493.942 25.3612 494.288ZM34.3143 491.629V492.652H30.739V491.629H34.3143ZM31.6978 490.061H32.9719V496.253C32.9719 496.5 33.0089 496.686 33.0827 496.811C33.1566 496.933 33.2518 497.017 33.3683 497.062C33.4876 497.105 33.6168 497.126 33.756 497.126C33.8583 497.126 33.9478 497.119 34.0245 497.105C34.1012 497.091 34.1609 497.079 34.2035 497.071L34.4336 498.123C34.3597 498.152 34.2546 498.18 34.1183 498.209C33.9819 498.24 33.8114 498.257 33.6069 498.26C33.2717 498.265 32.9592 498.206 32.6694 498.081C32.3796 497.956 32.1452 497.763 31.9663 497.501C31.7873 497.24 31.6978 496.912 31.6978 496.517V490.061ZM38.4744 498.307C37.8295 498.307 37.2741 498.169 36.8082 497.893C36.3452 497.615 35.9872 497.224 35.7344 496.721C35.4844 496.216 35.3594 495.623 35.3594 494.944C35.3594 494.274 35.4844 493.683 35.7344 493.172C35.9872 492.66 36.3395 492.261 36.7912 491.974C37.2457 491.687 37.777 491.544 38.3849 491.544C38.7543 491.544 39.1122 491.605 39.4588 491.727C39.8054 491.849 40.1165 492.041 40.392 492.302C40.6676 492.564 40.8849 492.903 41.044 493.321C41.2031 493.736 41.2827 494.24 41.2827 494.834V495.285H36.0795V494.331H40.0341C40.0341 493.995 39.9659 493.699 39.8295 493.44C39.6932 493.179 39.5014 492.973 39.2543 492.822C39.0099 492.672 38.723 492.596 38.3935 492.596C38.0355 492.596 37.723 492.684 37.456 492.861C37.1918 493.034 36.9872 493.261 36.8423 493.542C36.7003 493.821 36.6293 494.123 36.6293 494.45V495.196C36.6293 495.633 36.706 496.005 36.8594 496.312C37.0156 496.619 37.233 496.853 37.5114 497.015C37.7898 497.174 38.1151 497.254 38.4872 497.254C38.7287 497.254 38.9489 497.22 39.1477 497.152C39.3466 497.081 39.5185 496.976 39.6634 496.836C39.8082 496.697 39.919 496.525 39.9957 496.321L41.2017 496.538C41.1051 496.893 40.9318 497.204 40.6818 497.471C40.4347 497.736 40.1236 497.942 39.7486 498.089C39.3764 498.234 38.9517 498.307 38.4744 498.307ZM42.6964 498.174V491.629H43.9279V492.669H43.9961C44.1154 492.317 44.3256 492.04 44.6268 491.838C44.9308 491.633 45.2745 491.531 45.658 491.531C45.7376 491.531 45.8313 491.534 45.9393 491.54C46.0501 491.545 46.1367 491.552 46.1992 491.561V492.78C46.1481 492.765 46.0572 492.75 45.9265 492.733C45.7958 492.713 45.6651 492.703 45.5344 492.703C45.2333 492.703 44.9648 492.767 44.729 492.895C44.4961 493.02 44.3114 493.194 44.1751 493.419C44.0387 493.64 43.9705 493.893 43.9705 494.177V498.174H42.6964ZM51.283 500.629C51.0927 500.629 50.9194 500.613 50.7631 500.582C50.6069 500.554 50.4904 500.522 50.4137 500.488L50.7205 499.444C50.9535 499.507 51.1609 499.534 51.3427 499.525C51.5245 499.517 51.685 499.449 51.8242 499.321C51.9663 499.193 52.0913 498.984 52.1992 498.694L52.3569 498.26L49.962 491.629H51.3256L52.9833 496.709H53.0515L54.7092 491.629H56.0771L53.3796 499.048C53.2546 499.389 53.0955 499.677 52.9023 499.913C52.7092 500.152 52.479 500.331 52.212 500.45C51.945 500.569 51.6353 500.629 51.283 500.629ZM59.8089 498.307C59.1953 498.307 58.6598 498.166 58.2024 497.885C57.745 497.603 57.3899 497.21 57.1371 496.704C56.8842 496.199 56.7578 495.608 56.7578 494.932C56.7578 494.253 56.8842 493.659 57.1371 493.15C57.3899 492.642 57.745 492.247 58.2024 491.966C58.6598 491.684 59.1953 491.544 59.8089 491.544C60.4226 491.544 60.9581 491.684 61.4155 491.966C61.8729 492.247 62.228 492.642 62.4808 493.15C62.7337 493.659 62.8601 494.253 62.8601 494.932C62.8601 495.608 62.7337 496.199 62.4808 496.704C62.228 497.21 61.8729 497.603 61.4155 497.885C60.9581 498.166 60.4226 498.307 59.8089 498.307ZM59.8132 497.237C60.2109 497.237 60.5405 497.132 60.8018 496.922C61.0632 496.711 61.2564 496.432 61.3814 496.082C61.5092 495.733 61.5732 495.348 61.5732 494.927C61.5732 494.51 61.5092 494.126 61.3814 493.777C61.2564 493.424 61.0632 493.142 60.8018 492.929C60.5405 492.716 60.2109 492.609 59.8132 492.609C59.4126 492.609 59.0803 492.716 58.8161 492.929C58.5547 493.142 58.3601 493.424 58.2322 493.777C58.1072 494.126 58.0447 494.51 58.0447 494.927C58.0447 495.348 58.1072 495.733 58.2322 496.082C58.3601 496.432 58.5547 496.711 58.8161 496.922C59.0803 497.132 59.4126 497.237 59.8132 497.237ZM68.4286 495.46V491.629H69.707V498.174H68.4542V497.041H68.386C68.2354 497.39 67.994 497.682 67.6616 497.915C67.332 498.145 66.9215 498.26 66.43 498.26C66.0096 498.26 65.6374 498.167 65.3136 497.983C64.9925 497.795 64.7397 497.518 64.555 497.152C64.3732 496.785 64.2823 496.332 64.2823 495.792V491.629H65.5565V495.639C65.5565 496.085 65.68 496.44 65.9272 496.704C66.1744 496.969 66.4954 497.101 66.8903 497.101C67.1289 497.101 67.3661 497.041 67.6019 496.922C67.8406 496.802 68.038 496.622 68.1942 496.38C68.3533 496.139 68.4315 495.832 68.4286 495.46ZM71.419 498.174V491.629H72.6506V492.669H72.7188C72.8381 492.317 73.0483 492.04 73.3494 491.838C73.6534 491.633 73.9972 491.531 74.3807 491.531C74.4602 491.531 74.554 491.534 74.6619 491.54C74.7727 491.545 74.8594 491.552 74.9219 491.561V492.78C74.8707 492.765 74.7798 492.75 74.6491 492.733C74.5185 492.713 74.3878 492.703 74.2571 492.703C73.956 492.703 73.6875 492.767 73.4517 492.895C73.2188 493.02 73.0341 493.194 72.8977 493.419C72.7614 493.64 72.6932 493.893 72.6932 494.177V498.174H71.419ZM79.2003 500.629V491.629H80.4446V492.69H80.5511C80.625 492.554 80.7315 492.396 80.8707 492.217C81.0099 492.038 81.2031 491.882 81.4503 491.748C81.6974 491.612 82.0241 491.544 82.4304 491.544C82.9588 491.544 83.4304 491.677 83.8452 491.944C84.2599 492.211 84.5852 492.596 84.821 493.099C85.0597 493.602 85.179 494.207 85.179 494.915C85.179 495.622 85.0611 496.228 84.8253 496.734C84.5895 497.237 84.2656 497.625 83.8537 497.897C83.4418 498.167 82.9716 498.302 82.4432 498.302C82.0455 498.302 81.7202 498.236 81.4673 498.102C81.2173 497.969 81.0213 497.812 80.8793 497.633C80.7372 497.454 80.6278 497.295 80.5511 497.156H80.4744V500.629H79.2003ZM80.4489 494.902C80.4489 495.362 80.5156 495.765 80.6491 496.112C80.7827 496.459 80.9759 496.73 81.2287 496.926C81.4815 497.119 81.7912 497.216 82.1577 497.216C82.5384 497.216 82.8565 497.115 83.1122 496.913C83.3679 496.709 83.5611 496.432 83.6918 496.082C83.8253 495.733 83.892 495.339 83.892 494.902C83.892 494.47 83.8267 494.082 83.696 493.738C83.5682 493.395 83.375 493.123 83.1165 492.924C82.8608 492.726 82.5412 492.626 82.1577 492.626C81.7884 492.626 81.4759 492.721 81.2202 492.912C80.9673 493.102 80.7756 493.368 80.6449 493.709C80.5142 494.049 80.4489 494.447 80.4489 494.902ZM88.5114 498.319C88.0966 498.319 87.7216 498.243 87.3864 498.089C87.0511 497.933 86.7855 497.707 86.5895 497.412C86.3963 497.116 86.2997 496.754 86.2997 496.325C86.2997 495.956 86.3707 495.652 86.5128 495.413C86.6548 495.174 86.8466 494.986 87.0881 494.846C87.3295 494.707 87.5994 494.602 87.8977 494.531C88.196 494.46 88.5 494.406 88.8097 494.369C89.2017 494.324 89.5199 494.287 89.7642 494.258C90.0085 494.227 90.1861 494.177 90.2969 494.109C90.4077 494.041 90.4631 493.93 90.4631 493.777V493.747C90.4631 493.375 90.358 493.086 90.1477 492.882C89.9403 492.677 89.6307 492.575 89.2188 492.575C88.7898 492.575 88.4517 492.67 88.2045 492.861C87.9602 493.048 87.7912 493.257 87.6974 493.487L86.5 493.214C86.642 492.817 86.8494 492.495 87.1222 492.251C87.3977 492.004 87.7145 491.825 88.0724 491.714C88.4304 491.601 88.8068 491.544 89.2017 491.544C89.4631 491.544 89.7401 491.575 90.0327 491.638C90.3281 491.697 90.6037 491.808 90.8594 491.97C91.1179 492.132 91.3295 492.363 91.4943 492.665C91.6591 492.963 91.7415 493.351 91.7415 493.828V498.174H90.4972V497.28H90.446C90.3636 497.444 90.2401 497.606 90.0753 497.765C89.9105 497.924 89.6989 498.057 89.4403 498.162C89.1818 498.267 88.8722 498.319 88.5114 498.319ZM88.7884 497.297C89.1406 497.297 89.4418 497.227 89.6918 497.088C89.9446 496.949 90.1364 496.767 90.267 496.542C90.4006 496.315 90.4673 496.072 90.4673 495.814V494.97C90.4219 495.015 90.3338 495.058 90.2031 495.098C90.0753 495.135 89.929 495.167 89.7642 495.196C89.5994 495.221 89.4389 495.245 89.2827 495.268C89.1264 495.288 88.9957 495.305 88.8906 495.319C88.6435 495.351 88.4176 495.403 88.2131 495.477C88.0114 495.551 87.8494 495.657 87.7273 495.797C87.608 495.933 87.5483 496.115 87.5483 496.342C87.5483 496.657 87.6648 496.896 87.8977 497.058C88.1307 497.217 88.4276 497.297 88.7884 497.297ZM98.3434 493.227L97.1886 493.432C97.1403 493.284 97.0636 493.143 96.9585 493.01C96.8562 492.876 96.717 492.767 96.5408 492.682C96.3647 492.596 96.1445 492.554 95.8803 492.554C95.5195 492.554 95.2184 492.635 94.9769 492.797C94.7354 492.956 94.6147 493.162 94.6147 493.415C94.6147 493.633 94.6957 493.809 94.8576 493.943C95.0195 494.076 95.2809 494.186 95.6417 494.271L96.6815 494.51C97.2837 494.649 97.7326 494.863 98.0281 495.153C98.3235 495.443 98.4712 495.819 98.4712 496.282C98.4712 496.674 98.3576 497.024 98.1303 497.331C97.9059 497.635 97.592 497.873 97.1886 498.047C96.788 498.22 96.3235 498.307 95.7951 498.307C95.0621 498.307 94.4641 498.15 94.0011 497.838C93.538 497.522 93.2539 497.075 93.1488 496.495L94.3803 496.308C94.457 496.629 94.6147 496.872 94.8533 497.037C95.092 497.199 95.4031 497.28 95.7866 497.28C96.2042 497.28 96.538 497.193 96.788 497.02C97.038 496.844 97.163 496.629 97.163 496.376C97.163 496.172 97.0863 496 96.9329 495.861C96.7823 495.721 96.5508 495.616 96.2383 495.545L95.1303 495.302C94.5195 495.163 94.0678 494.942 93.7752 494.638C93.4854 494.334 93.3406 493.949 93.3406 493.483C93.3406 493.096 93.4485 492.758 93.6644 492.469C93.8803 492.179 94.1786 491.953 94.5593 491.791C94.94 491.626 95.3761 491.544 95.8675 491.544C96.5749 491.544 97.1317 491.697 97.538 492.004C97.9442 492.308 98.2127 492.716 98.3434 493.227ZM104.777 493.227L103.622 493.432C103.574 493.284 103.497 493.143 103.392 493.01C103.29 492.876 103.151 492.767 102.974 492.682C102.798 492.596 102.578 492.554 102.314 492.554C101.953 492.554 101.652 492.635 101.411 492.797C101.169 492.956 101.048 493.162 101.048 493.415C101.048 493.633 101.129 493.809 101.291 493.943C101.453 494.076 101.714 494.186 102.075 494.271L103.115 494.51C103.717 494.649 104.166 494.863 104.462 495.153C104.757 495.443 104.905 495.819 104.905 496.282C104.905 496.674 104.791 497.024 104.564 497.331C104.339 497.635 104.026 497.873 103.622 498.047C103.222 498.22 102.757 498.307 102.229 498.307C101.496 498.307 100.898 498.15 100.435 497.838C99.9716 497.522 99.6875 497.075 99.5824 496.495L100.814 496.308C100.891 496.629 101.048 496.872 101.287 497.037C101.526 497.199 101.837 497.28 102.22 497.28C102.638 497.28 102.972 497.193 103.222 497.02C103.472 496.844 103.597 496.629 103.597 496.376C103.597 496.172 103.52 496 103.366 495.861C103.216 495.721 102.984 495.616 102.672 495.545L101.564 495.302C100.953 495.163 100.501 494.942 100.209 494.638C99.919 494.334 99.7741 493.949 99.7741 493.483C99.7741 493.096 99.8821 492.758 100.098 492.469C100.314 492.179 100.612 491.953 100.993 491.791C101.374 491.626 101.81 491.544 102.301 491.544C103.009 491.544 103.565 491.697 103.972 492.004C104.378 492.308 104.646 492.716 104.777 493.227ZM111.211 493.227L110.056 493.432C110.007 493.284 109.931 493.143 109.826 493.01C109.723 492.876 109.584 492.767 109.408 492.682C109.232 492.596 109.012 492.554 108.748 492.554C108.387 492.554 108.086 492.635 107.844 492.797C107.603 492.956 107.482 493.162 107.482 493.415C107.482 493.633 107.563 493.809 107.725 493.943C107.887 494.076 108.148 494.186 108.509 494.271L109.549 494.51C110.151 494.649 110.6 494.863 110.895 495.153C111.191 495.443 111.338 495.819 111.338 496.282C111.338 496.674 111.225 497.024 110.998 497.331C110.773 497.635 110.459 497.873 110.056 498.047C109.655 498.22 109.191 498.307 108.662 498.307C107.929 498.307 107.331 498.15 106.868 497.838C106.405 497.522 106.121 497.075 106.016 496.495L107.248 496.308C107.324 496.629 107.482 496.872 107.721 497.037C107.959 497.199 108.27 497.28 108.654 497.28C109.071 497.28 109.405 497.193 109.655 497.02C109.905 496.844 110.03 496.629 110.03 496.376C110.03 496.172 109.953 496 109.8 495.861C109.65 495.721 109.418 495.616 109.105 495.545L107.998 495.302C107.387 495.163 106.935 494.942 106.642 494.638C106.353 494.334 106.208 493.949 106.208 493.483C106.208 493.096 106.316 492.758 106.532 492.469C106.748 492.179 107.046 491.953 107.426 491.791C107.807 491.626 108.243 491.544 108.735 491.544C109.442 491.544 109.999 491.697 110.405 492.004C110.811 492.308 111.08 492.716 111.211 493.227ZM114.158 498.174L112.232 491.629H113.549L114.832 496.436H114.896L116.183 491.629H117.499L118.778 496.415H118.842L120.116 491.629H121.433L119.511 498.174H118.211L116.881 493.449H116.783L115.454 498.174H114.158ZM125.2 498.307C124.586 498.307 124.05 498.166 123.593 497.885C123.136 497.603 122.781 497.21 122.528 496.704C122.275 496.199 122.148 495.608 122.148 494.932C122.148 494.253 122.275 493.659 122.528 493.15C122.781 492.642 123.136 492.247 123.593 491.966C124.05 491.684 124.586 491.544 125.2 491.544C125.813 491.544 126.349 491.684 126.806 491.966C127.263 492.247 127.619 492.642 127.871 493.15C128.124 493.659 128.251 494.253 128.251 494.932C128.251 495.608 128.124 496.199 127.871 496.704C127.619 497.21 127.263 497.603 126.806 497.885C126.349 498.166 125.813 498.307 125.2 498.307ZM125.204 497.237C125.602 497.237 125.931 497.132 126.192 496.922C126.454 496.711 126.647 496.432 126.772 496.082C126.9 495.733 126.964 495.348 126.964 494.927C126.964 494.51 126.9 494.126 126.772 493.777C126.647 493.424 126.454 493.142 126.192 492.929C125.931 492.716 125.602 492.609 125.204 492.609C124.803 492.609 124.471 492.716 124.207 492.929C123.945 493.142 123.751 493.424 123.623 493.777C123.498 494.126 123.435 494.51 123.435 494.927C123.435 495.348 123.498 495.733 123.623 496.082C123.751 496.432 123.945 496.711 124.207 496.922C124.471 497.132 124.803 497.237 125.204 497.237ZM129.673 498.174V491.629H130.904V492.669H130.973C131.092 492.317 131.302 492.04 131.603 491.838C131.907 491.633 132.251 491.531 132.635 491.531C132.714 491.531 132.808 491.534 132.916 491.54C133.027 491.545 133.113 491.552 133.176 491.561V492.78C133.125 492.765 133.034 492.75 132.903 492.733C132.772 492.713 132.642 492.703 132.511 492.703C132.21 492.703 131.941 492.767 131.706 492.895C131.473 493.02 131.288 493.194 131.152 493.419C131.015 493.64 130.947 493.893 130.947 494.177V498.174H129.673ZM136.494 498.302C135.966 498.302 135.494 498.167 135.08 497.897C134.668 497.625 134.344 497.237 134.108 496.734C133.875 496.228 133.759 495.622 133.759 494.915C133.759 494.207 133.876 493.602 134.112 493.099C134.351 492.596 134.678 492.211 135.092 491.944C135.507 491.677 135.977 491.544 136.503 491.544C136.909 491.544 137.236 491.612 137.483 491.748C137.733 491.882 137.926 492.038 138.062 492.217C138.202 492.396 138.31 492.554 138.386 492.69H138.463V489.447H139.737V498.174H138.493V497.156H138.386C138.31 497.295 138.199 497.454 138.054 497.633C137.912 497.812 137.716 497.969 137.466 498.102C137.216 498.236 136.892 498.302 136.494 498.302ZM136.776 497.216C137.142 497.216 137.452 497.119 137.705 496.926C137.96 496.73 138.153 496.459 138.284 496.112C138.418 495.765 138.484 495.362 138.484 494.902C138.484 494.447 138.419 494.049 138.288 493.709C138.158 493.368 137.966 493.102 137.713 492.912C137.46 492.721 137.148 492.626 136.776 492.626C136.392 492.626 136.072 492.726 135.817 492.924C135.561 493.123 135.368 493.395 135.237 493.738C135.109 494.082 135.045 494.47 135.045 494.902C135.045 495.339 135.111 495.733 135.241 496.082C135.372 496.432 135.565 496.709 135.821 496.913C136.08 497.115 136.398 497.216 136.776 497.216Z" fill="white"/>
<rect x="16" y="509.174" width="358" height="50" rx="10" fill="white"/>
<rect x="16" y="651.174" width="358" height="39" rx="10" fill="#B86E13"/>
<path d="M174.778 676.174V664.538H176.534V674.663H181.807V676.174H174.778ZM187.349 676.351C186.531 676.351 185.817 676.163 185.207 675.788C184.598 675.413 184.124 674.888 183.787 674.214C183.45 673.54 183.281 672.752 183.281 671.851C183.281 670.945 183.45 670.154 183.787 669.476C184.124 668.798 184.598 668.271 185.207 667.896C185.817 667.521 186.531 667.334 187.349 667.334C188.168 667.334 188.882 667.521 189.491 667.896C190.101 668.271 190.575 668.798 190.912 669.476C191.249 670.154 191.418 670.945 191.418 671.851C191.418 672.752 191.249 673.54 190.912 674.214C190.575 674.888 190.101 675.413 189.491 675.788C188.882 676.163 188.168 676.351 187.349 676.351ZM187.355 674.924C187.885 674.924 188.325 674.784 188.673 674.504C189.022 674.224 189.279 673.851 189.446 673.385C189.616 672.919 189.702 672.406 189.702 671.845C189.702 671.288 189.616 670.777 189.446 670.311C189.279 669.841 189.022 669.464 188.673 669.18C188.325 668.896 187.885 668.754 187.355 668.754C186.821 668.754 186.378 668.896 186.026 669.18C185.677 669.464 185.418 669.841 185.247 670.311C185.08 670.777 184.997 671.288 184.997 671.845C184.997 672.406 185.08 672.919 185.247 673.385C185.418 673.851 185.677 674.224 186.026 674.504C186.378 674.784 186.821 674.924 187.355 674.924ZM196.973 679.629C196.28 679.629 195.683 679.538 195.183 679.356C194.687 679.174 194.282 678.934 193.967 678.635C193.653 678.335 193.418 678.008 193.263 677.652L194.723 677.049C194.825 677.216 194.962 677.392 195.132 677.578C195.306 677.767 195.541 677.928 195.837 678.061C196.136 678.193 196.52 678.26 196.99 678.26C197.634 678.26 198.166 678.102 198.587 677.788C199.007 677.477 199.217 676.981 199.217 676.299V674.584H199.109C199.007 674.769 198.859 674.976 198.666 675.203C198.477 675.43 198.215 675.627 197.882 675.794C197.549 675.96 197.115 676.044 196.581 676.044C195.892 676.044 195.27 675.883 194.717 675.561C194.168 675.235 193.732 674.756 193.411 674.123C193.092 673.487 192.933 672.705 192.933 671.777C192.933 670.849 193.09 670.053 193.405 669.39C193.723 668.727 194.159 668.22 194.712 667.868C195.265 667.512 195.892 667.334 196.592 667.334C197.134 667.334 197.571 667.424 197.905 667.606C198.238 667.784 198.498 667.993 198.683 668.231C198.873 668.47 199.018 668.68 199.121 668.862H199.246V667.447H200.911V676.368C200.911 677.118 200.736 677.733 200.388 678.214C200.039 678.695 199.568 679.051 198.973 679.282C198.382 679.513 197.715 679.629 196.973 679.629ZM196.956 674.635C197.445 674.635 197.857 674.521 198.195 674.294C198.536 674.063 198.793 673.733 198.967 673.305C199.145 672.873 199.234 672.356 199.234 671.754C199.234 671.167 199.147 670.65 198.973 670.203C198.799 669.756 198.543 669.407 198.206 669.157C197.869 668.904 197.452 668.777 196.956 668.777C196.445 668.777 196.018 668.909 195.678 669.174C195.337 669.436 195.079 669.792 194.905 670.243C194.734 670.693 194.649 671.197 194.649 671.754C194.649 672.326 194.736 672.828 194.911 673.26C195.085 673.692 195.342 674.029 195.683 674.271C196.028 674.513 196.452 674.635 196.956 674.635ZM203.189 676.174V667.447H204.888V676.174H203.189ZM204.047 666.101C203.751 666.101 203.498 666.002 203.286 665.805C203.077 665.604 202.973 665.366 202.973 665.089C202.973 664.809 203.077 664.57 203.286 664.373C203.498 664.173 203.751 664.072 204.047 664.072C204.342 664.072 204.594 664.173 204.803 664.373C205.015 664.57 205.121 664.809 205.121 665.089C205.121 665.366 205.015 665.604 204.803 665.805C204.594 666.002 204.342 666.101 204.047 666.101ZM208.872 670.993V676.174H207.173V667.447H208.804V668.868H208.912C209.113 668.406 209.427 668.034 209.855 667.754C210.287 667.474 210.83 667.334 211.486 667.334C212.08 667.334 212.601 667.459 213.048 667.709C213.495 667.955 213.842 668.322 214.088 668.811C214.334 669.299 214.457 669.904 214.457 670.623V676.174H212.759V670.828C212.759 670.195 212.594 669.701 212.264 669.345C211.935 668.985 211.482 668.805 210.906 668.805C210.512 668.805 210.162 668.89 209.855 669.061C209.552 669.231 209.312 669.481 209.134 669.811C208.959 670.137 208.872 670.531 208.872 670.993Z" fill="black"/>
</svg>
