<svg width="390" height="844" viewBox="0 0 390 844" fill="none" xmlns="http://www.w3.org/2000/svg">
<rect width="390" height="844" fill="black"/>
<path d="M65.8906 132L56.8594 100H63.0938L68.8594 123.516H69.1563L75.3125 100H80.9844L87.1563 123.531H87.4375L93.2031 100H99.4375L90.4063 132H84.6875L78.2813 109.547H78.0313L71.6094 132H65.8906ZM111.383 132.469C108.977 132.469 106.898 131.969 105.148 130.969C103.409 129.958 102.07 128.531 101.133 126.687C100.195 124.833 99.7266 122.651 99.7266 120.141C99.7266 117.672 100.195 115.505 101.133 113.641C102.081 111.766 103.404 110.307 105.102 109.266C106.799 108.214 108.794 107.688 111.086 107.688C112.565 107.688 113.961 107.927 115.273 108.406C116.596 108.875 117.763 109.604 118.773 110.594C119.794 111.583 120.596 112.844 121.18 114.375C121.763 115.896 122.055 117.708 122.055 119.812V121.547H102.383V117.734H116.633C116.622 116.651 116.388 115.687 115.93 114.844C115.471 113.99 114.831 113.318 114.008 112.828C113.195 112.339 112.247 112.094 111.164 112.094C110.008 112.094 108.992 112.375 108.117 112.937C107.242 113.49 106.56 114.219 106.07 115.125C105.591 116.021 105.346 117.005 105.336 118.078V121.406C105.336 122.802 105.591 124 106.102 125C106.612 125.99 107.326 126.75 108.242 127.281C109.159 127.802 110.232 128.062 111.461 128.062C112.284 128.062 113.029 127.948 113.695 127.719C114.362 127.479 114.94 127.13 115.43 126.672C115.919 126.214 116.289 125.646 116.539 124.969L121.82 125.562C121.487 126.958 120.852 128.177 119.914 129.219C118.987 130.25 117.799 131.052 116.352 131.625C114.904 132.187 113.247 132.469 111.383 132.469ZM132.496 100V132H126.84V100H132.496ZM148.781 132.469C146.385 132.469 144.328 131.943 142.609 130.891C140.901 129.839 139.583 128.385 138.656 126.531C137.74 124.667 137.281 122.521 137.281 120.094C137.281 117.656 137.75 115.505 138.688 113.641C139.625 111.766 140.948 110.307 142.656 109.266C144.375 108.214 146.406 107.688 148.75 107.688C150.698 107.688 152.422 108.047 153.922 108.766C155.432 109.474 156.635 110.479 157.531 111.781C158.427 113.073 158.938 114.583 159.063 116.312H153.656C153.438 115.156 152.917 114.193 152.094 113.422C151.281 112.641 150.193 112.25 148.828 112.25C147.672 112.25 146.656 112.562 145.781 113.187C144.906 113.802 144.224 114.687 143.734 115.844C143.255 117 143.016 118.385 143.016 120C143.016 121.635 143.255 123.042 143.734 124.219C144.214 125.385 144.885 126.286 145.75 126.922C146.625 127.547 147.651 127.859 148.828 127.859C149.661 127.859 150.406 127.703 151.063 127.391C151.729 127.068 152.286 126.604 152.734 126C153.182 125.396 153.49 124.661 153.656 123.797H159.063C158.927 125.495 158.427 127 157.562 128.312C156.698 129.615 155.521 130.635 154.031 131.375C152.542 132.104 150.792 132.469 148.781 132.469ZM174.176 132.469C171.832 132.469 169.801 131.953 168.082 130.922C166.363 129.891 165.03 128.448 164.082 126.594C163.145 124.74 162.676 122.573 162.676 120.094C162.676 117.615 163.145 115.443 164.082 113.578C165.03 111.714 166.363 110.266 168.082 109.234C169.801 108.203 171.832 107.688 174.176 107.688C176.52 107.688 178.551 108.203 180.27 109.234C181.988 110.266 183.316 111.714 184.254 113.578C185.202 115.443 185.676 117.615 185.676 120.094C185.676 122.573 185.202 124.74 184.254 126.594C183.316 128.448 181.988 129.891 180.27 130.922C178.551 131.953 176.52 132.469 174.176 132.469ZM174.207 127.937C175.478 127.937 176.54 127.589 177.395 126.891C178.249 126.182 178.884 125.234 179.301 124.047C179.728 122.859 179.941 121.536 179.941 120.078C179.941 118.609 179.728 117.281 179.301 116.094C178.884 114.896 178.249 113.943 177.395 113.234C176.54 112.526 175.478 112.172 174.207 112.172C172.905 112.172 171.822 112.526 170.957 113.234C170.103 113.943 169.462 114.896 169.035 116.094C168.618 117.281 168.41 118.609 168.41 120.078C168.41 121.536 168.618 122.859 169.035 124.047C169.462 125.234 170.103 126.182 170.957 126.891C171.822 127.589 172.905 127.937 174.207 127.937ZM190.477 132V108H195.883V112.078H196.164C196.664 110.703 197.492 109.63 198.648 108.859C199.805 108.078 201.185 107.688 202.789 107.688C204.414 107.688 205.784 108.083 206.898 108.875C208.023 109.656 208.815 110.724 209.273 112.078H209.523C210.055 110.745 210.951 109.682 212.211 108.891C213.482 108.089 214.987 107.688 216.727 107.688C218.935 107.688 220.737 108.385 222.133 109.781C223.529 111.177 224.227 113.214 224.227 115.891V132H218.555V116.766C218.555 115.276 218.159 114.187 217.367 113.5C216.576 112.802 215.607 112.453 214.461 112.453C213.096 112.453 212.029 112.88 211.258 113.734C210.497 114.578 210.117 115.677 210.117 117.031V132H204.57V116.531C204.57 115.292 204.195 114.302 203.445 113.562C202.706 112.823 201.737 112.453 200.539 112.453C199.727 112.453 198.987 112.661 198.32 113.078C197.654 113.484 197.122 114.062 196.727 114.812C196.331 115.552 196.133 116.417 196.133 117.406V132H190.477ZM240.59 132.469C238.184 132.469 236.105 131.969 234.355 130.969C232.616 129.958 231.277 128.531 230.34 126.687C229.402 124.833 228.934 122.651 228.934 120.141C228.934 117.672 229.402 115.505 230.34 113.641C231.288 111.766 232.611 110.307 234.309 109.266C236.007 108.214 238.001 107.688 240.293 107.688C241.772 107.688 243.168 107.927 244.48 108.406C245.803 108.875 246.97 109.604 247.98 110.594C249.001 111.583 249.803 112.844 250.387 114.375C250.97 115.896 251.262 117.708 251.262 119.812V121.547H231.59V117.734H245.84C245.829 116.651 245.595 115.687 245.137 114.844C244.678 113.99 244.038 113.318 243.215 112.828C242.402 112.339 241.454 112.094 240.371 112.094C239.215 112.094 238.199 112.375 237.324 112.937C236.449 113.49 235.767 114.219 235.277 115.125C234.798 116.021 234.553 117.005 234.543 118.078V121.406C234.543 122.802 234.798 124 235.309 125C235.819 125.99 236.533 126.75 237.449 127.281C238.366 127.802 239.439 128.062 240.668 128.062C241.491 128.062 242.236 127.948 242.902 127.719C243.569 127.479 244.147 127.13 244.637 126.672C245.126 126.214 245.496 125.646 245.746 124.969L251.027 125.562C250.694 126.958 250.059 128.177 249.121 129.219C248.194 130.25 247.007 131.052 245.559 131.625C244.111 132.187 242.454 132.469 240.59 132.469ZM265.805 104.859V100H291.336V104.859H281.445V132H275.695V104.859H265.805ZM302.996 132.469C300.652 132.469 298.621 131.953 296.902 130.922C295.184 129.891 293.85 128.448 292.902 126.594C291.965 124.74 291.496 122.573 291.496 120.094C291.496 117.615 291.965 115.443 292.902 113.578C293.85 111.714 295.184 110.266 296.902 109.234C298.621 108.203 300.652 107.688 302.996 107.688C305.34 107.688 307.371 108.203 309.09 109.234C310.809 110.266 312.137 111.714 313.074 113.578C314.022 115.443 314.496 117.615 314.496 120.094C314.496 122.573 314.022 124.74 313.074 126.594C312.137 128.448 310.809 129.891 309.09 130.922C307.371 131.953 305.34 132.469 302.996 132.469ZM303.027 127.937C304.298 127.937 305.361 127.589 306.215 126.891C307.069 126.182 307.704 125.234 308.121 124.047C308.548 122.859 308.762 121.536 308.762 120.078C308.762 118.609 308.548 117.281 308.121 116.094C307.704 114.896 307.069 113.943 306.215 113.234C305.361 112.526 304.298 112.172 303.027 112.172C301.725 112.172 300.642 112.526 299.777 113.234C298.923 113.943 298.283 114.896 297.855 116.094C297.439 117.281 297.23 118.609 297.23 120.078C297.23 121.536 297.439 122.859 297.855 124.047C298.283 125.234 298.923 126.182 299.777 126.891C300.642 127.589 301.725 127.937 303.027 127.937ZM107.58 156H104.585C104.408 155.139 104.098 154.382 103.656 153.73C103.221 153.078 102.69 152.531 102.062 152.088C101.442 151.637 100.754 151.299 99.9972 151.074C99.2405 150.848 98.4517 150.736 97.6307 150.736C96.1335 150.736 94.7772 151.114 93.5618 151.871C92.3544 152.627 91.3925 153.742 90.6761 155.215C89.9678 156.688 89.6136 158.495 89.6136 160.636C89.6136 162.777 89.9678 164.585 90.6761 166.058C91.3925 167.531 92.3544 168.645 93.5618 169.402C94.7772 170.159 96.1335 170.537 97.6307 170.537C98.4517 170.537 99.2405 170.424 99.9972 170.199C100.754 169.973 101.442 169.639 102.062 169.197C102.69 168.746 103.221 168.195 103.656 167.543C104.098 166.883 104.408 166.126 104.585 165.273H107.58C107.354 166.536 106.944 167.667 106.348 168.665C105.752 169.664 105.012 170.513 104.126 171.213C103.241 171.905 102.247 172.433 101.144 172.795C100.049 173.157 98.8783 173.338 97.6307 173.338C95.5218 173.338 93.6463 172.823 92.0043 171.793C90.3622 170.762 89.0703 169.297 88.1286 167.398C87.1868 165.498 86.7159 163.244 86.7159 160.636C86.7159 158.028 87.1868 155.775 88.1286 153.875C89.0703 151.975 90.3622 150.51 92.0043 149.48C93.6463 148.45 95.5218 147.935 97.6307 147.935C98.8783 147.935 100.049 148.116 101.144 148.478C102.247 148.84 103.241 149.371 104.126 150.072C105.012 150.764 105.752 151.609 106.348 152.607C106.944 153.597 107.354 154.728 107.58 156ZM117.489 173.435C116.314 173.435 115.247 173.213 114.29 172.771C113.332 172.32 112.571 171.672 112.008 170.827C111.444 169.973 111.162 168.943 111.162 167.736C111.162 166.673 111.372 165.812 111.79 165.152C112.209 164.484 112.768 163.961 113.469 163.582C114.169 163.204 114.942 162.922 115.787 162.737C116.64 162.544 117.497 162.391 118.358 162.278C119.485 162.134 120.399 162.025 121.099 161.952C121.808 161.872 122.323 161.739 122.645 161.554C122.975 161.369 123.14 161.047 123.14 160.588V160.491C123.14 159.3 122.814 158.375 122.162 157.714C121.518 157.054 120.54 156.724 119.228 156.724C117.867 156.724 116.801 157.022 116.028 157.618C115.256 158.214 114.712 158.849 114.398 159.526L111.694 158.56C112.177 157.433 112.821 156.555 113.626 155.928C114.439 155.292 115.324 154.849 116.282 154.599C117.248 154.342 118.198 154.213 119.131 154.213C119.727 154.213 120.411 154.286 121.184 154.43C121.965 154.567 122.717 154.853 123.442 155.288C124.174 155.722 124.782 156.378 125.265 157.256C125.748 158.133 125.989 159.308 125.989 160.781V173H123.14V170.489H122.995C122.802 170.891 122.48 171.322 122.029 171.781C121.578 172.239 120.979 172.63 120.23 172.952C119.481 173.274 118.568 173.435 117.489 173.435ZM117.924 170.875C119.051 170.875 120.001 170.654 120.773 170.211C121.554 169.768 122.142 169.197 122.536 168.496C122.939 167.796 123.14 167.06 123.14 166.287V163.679C123.019 163.824 122.753 163.957 122.343 164.077C121.94 164.19 121.474 164.291 120.942 164.379C120.419 164.46 119.908 164.532 119.409 164.597C118.918 164.653 118.519 164.701 118.214 164.741C117.473 164.838 116.781 164.995 116.137 165.212C115.501 165.422 114.986 165.74 114.591 166.166C114.205 166.585 114.012 167.156 114.012 167.881C114.012 168.871 114.378 169.619 115.111 170.126C115.851 170.625 116.789 170.875 117.924 170.875ZM144.326 158.608L141.767 159.332C141.606 158.906 141.368 158.491 141.054 158.089C140.748 157.678 140.33 157.34 139.799 157.075C139.267 156.809 138.587 156.676 137.758 156.676C136.623 156.676 135.677 156.938 134.921 157.461C134.172 157.976 133.798 158.632 133.798 159.429C133.798 160.137 134.056 160.697 134.571 161.107C135.086 161.518 135.891 161.86 136.985 162.134L139.738 162.81C141.396 163.212 142.632 163.828 143.445 164.657C144.258 165.478 144.664 166.536 144.664 167.832C144.664 168.895 144.359 169.845 143.747 170.682C143.143 171.519 142.298 172.179 141.211 172.662C140.125 173.145 138.861 173.386 137.42 173.386C135.529 173.386 133.963 172.976 132.723 172.155C131.484 171.334 130.699 170.134 130.369 168.557L133.074 167.881C133.331 168.879 133.818 169.627 134.534 170.126C135.259 170.625 136.205 170.875 137.372 170.875C138.7 170.875 139.754 170.593 140.535 170.03C141.324 169.458 141.718 168.774 141.718 167.977C141.718 167.333 141.493 166.794 141.042 166.359C140.592 165.917 139.899 165.587 138.966 165.369L135.875 164.645C134.176 164.242 132.929 163.619 132.132 162.773C131.343 161.92 130.949 160.854 130.949 159.574C130.949 158.527 131.242 157.602 131.83 156.797C132.426 155.992 133.234 155.36 134.257 154.901C135.287 154.442 136.454 154.213 137.758 154.213C139.593 154.213 141.034 154.616 142.081 155.42C143.135 156.225 143.884 157.288 144.326 158.608ZM151.803 161.844V173H148.954V148.273H151.803V157.352H152.045C152.479 156.394 153.131 155.634 154.001 155.07C154.878 154.499 156.045 154.213 157.502 154.213C158.766 154.213 159.872 154.467 160.822 154.974C161.772 155.473 162.509 156.241 163.032 157.28C163.563 158.31 163.829 159.622 163.829 161.216V173H160.979V161.409C160.979 159.936 160.597 158.797 159.832 157.992C159.076 157.179 158.025 156.773 156.681 156.773C155.747 156.773 154.91 156.97 154.17 157.364C153.437 157.759 152.858 158.334 152.431 159.091C152.012 159.848 151.803 160.765 151.803 161.844ZM169.042 173V154.455H171.891V173H169.042ZM170.49 151.364C169.935 151.364 169.456 151.174 169.054 150.796C168.659 150.418 168.462 149.963 168.462 149.432C168.462 148.901 168.659 148.446 169.054 148.067C169.456 147.689 169.935 147.5 170.49 147.5C171.046 147.5 171.521 147.689 171.915 148.067C172.318 148.446 172.519 148.901 172.519 149.432C172.519 149.963 172.318 150.418 171.915 150.796C171.521 151.174 171.046 151.364 170.49 151.364ZM184.885 173.386C183.099 173.386 181.557 172.992 180.261 172.203C178.973 171.406 177.979 170.295 177.279 168.871C176.587 167.438 176.241 165.772 176.241 163.872C176.241 161.973 176.587 160.298 177.279 158.849C177.979 157.393 178.953 156.258 180.201 155.445C181.456 154.624 182.921 154.213 184.596 154.213C185.562 154.213 186.515 154.374 187.457 154.696C188.399 155.018 189.256 155.541 190.029 156.266C190.802 156.982 191.417 157.932 191.876 159.115C192.335 160.298 192.564 161.755 192.564 163.486V164.693H178.269V162.23H189.667C189.667 161.184 189.457 160.25 189.039 159.429C188.628 158.608 188.041 157.96 187.276 157.485C186.519 157.01 185.626 156.773 184.596 156.773C183.461 156.773 182.479 157.054 181.65 157.618C180.829 158.173 180.197 158.898 179.754 159.791C179.311 160.685 179.09 161.643 179.09 162.665V164.307C179.09 165.707 179.331 166.895 179.814 167.869C180.305 168.835 180.986 169.571 181.855 170.078C182.724 170.577 183.734 170.827 184.885 170.827C185.634 170.827 186.31 170.722 186.914 170.513C187.526 170.295 188.053 169.973 188.496 169.547C188.938 169.112 189.28 168.573 189.522 167.929L192.275 168.702C191.985 169.635 191.498 170.456 190.814 171.165C190.13 171.865 189.284 172.412 188.278 172.807C187.272 173.193 186.141 173.386 184.885 173.386ZM196.899 173V154.455H199.652V157.256H199.845C200.183 156.338 200.795 155.594 201.68 155.022C202.566 154.451 203.564 154.165 204.675 154.165C204.884 154.165 205.145 154.169 205.459 154.177C205.773 154.185 206.011 154.197 206.172 154.213V157.111C206.075 157.087 205.854 157.05 205.508 157.002C205.17 156.946 204.811 156.918 204.433 156.918C203.532 156.918 202.727 157.107 202.018 157.485C201.318 157.855 200.763 158.371 200.352 159.031C199.95 159.683 199.748 160.427 199.748 161.264V173H196.899ZM220.512 173H217.373L226.453 148.273H229.544L238.623 173H235.484L228.095 152.185H227.902L220.512 173ZM221.672 163.341H234.325V165.997H221.672V163.341ZM242.088 179.955V154.455H244.841V157.401H245.179C245.389 157.079 245.678 156.668 246.049 156.169C246.427 155.662 246.966 155.211 247.667 154.817C248.375 154.414 249.333 154.213 250.54 154.213C252.102 154.213 253.478 154.603 254.669 155.384C255.861 156.165 256.79 157.272 257.458 158.705C258.127 160.137 258.461 161.828 258.461 163.776C258.461 165.74 258.127 167.442 257.458 168.883C256.79 170.316 255.865 171.426 254.681 172.215C253.498 172.996 252.134 173.386 250.588 173.386C249.397 173.386 248.443 173.189 247.727 172.795C247.011 172.392 246.459 171.937 246.073 171.43C245.686 170.915 245.389 170.489 245.179 170.151H244.938V179.955H242.088ZM244.89 163.727C244.89 165.128 245.095 166.363 245.505 167.434C245.916 168.496 246.516 169.33 247.304 169.933C248.093 170.529 249.059 170.827 250.202 170.827C251.393 170.827 252.387 170.513 253.184 169.885C253.989 169.249 254.593 168.396 254.995 167.325C255.406 166.247 255.611 165.047 255.611 163.727C255.611 162.423 255.41 161.248 255.007 160.202C254.613 159.147 254.013 158.314 253.208 157.702C252.412 157.083 251.409 156.773 250.202 156.773C249.043 156.773 248.069 157.067 247.28 157.654C246.491 158.234 245.896 159.047 245.493 160.093C245.091 161.131 244.89 162.343 244.89 163.727ZM262.807 179.955V154.455H265.56V157.401H265.898C266.107 157.079 266.397 156.668 266.767 156.169C267.146 155.662 267.685 155.211 268.385 154.817C269.094 154.414 270.051 154.213 271.259 154.213C272.82 154.213 274.197 154.603 275.388 155.384C276.579 156.165 277.509 157.272 278.177 158.705C278.845 160.137 279.179 161.828 279.179 163.776C279.179 165.74 278.845 167.442 278.177 168.883C277.509 170.316 276.583 171.426 275.4 172.215C274.217 172.996 272.853 173.386 271.307 173.386C270.116 173.386 269.162 173.189 268.446 172.795C267.729 172.392 267.178 171.937 266.792 171.43C266.405 170.915 266.107 170.489 265.898 170.151H265.657V179.955H262.807ZM265.608 163.727C265.608 165.128 265.814 166.363 266.224 167.434C266.635 168.496 267.234 169.33 268.023 169.933C268.812 170.529 269.778 170.827 270.921 170.827C272.112 170.827 273.106 170.513 273.903 169.885C274.708 169.249 275.312 168.396 275.714 167.325C276.125 166.247 276.33 165.047 276.33 163.727C276.33 162.423 276.129 161.248 275.726 160.202C275.332 159.147 274.732 158.314 273.927 157.702C273.13 157.083 272.128 156.773 270.921 156.773C269.762 156.773 268.788 157.067 267.999 157.654C267.21 158.234 266.614 159.047 266.212 160.093C265.81 161.131 265.608 162.343 265.608 163.727Z" fill="#B86E13"/>
<rect x="46" y="280" width="308" height="50" rx="10" fill="white"/>
<path d="M170.301 299.364H171.364V307.068C171.364 307.86 171.178 308.568 170.807 309.193C170.436 309.814 169.919 310.305 169.256 310.665C168.597 311.021 167.83 311.199 166.955 311.199C166.083 311.199 165.316 311.019 164.653 310.659C163.991 310.299 163.473 309.809 163.102 309.188C162.731 308.566 162.545 307.86 162.545 307.068V299.364H163.608V306.994C163.608 307.612 163.746 308.163 164.023 308.648C164.299 309.129 164.688 309.508 165.188 309.784C165.691 310.061 166.28 310.199 166.955 310.199C167.629 310.199 168.218 310.061 168.722 309.784C169.225 309.508 169.614 309.129 169.886 308.648C170.163 308.163 170.301 307.612 170.301 306.994V299.364ZM180.105 304.188L179.179 304.449C179.088 304.187 178.959 303.951 178.793 303.739C178.626 303.527 178.408 303.358 178.139 303.233C177.874 303.108 177.545 303.045 177.151 303.045C176.56 303.045 176.075 303.186 175.696 303.466C175.317 303.746 175.128 304.108 175.128 304.551C175.128 304.926 175.257 305.231 175.514 305.466C175.776 305.697 176.177 305.881 176.719 306.017L178.037 306.341C178.768 306.519 179.315 306.801 179.679 307.188C180.046 307.574 180.23 308.059 180.23 308.642C180.23 309.134 180.094 309.572 179.821 309.955C179.548 310.337 179.168 310.638 178.679 310.858C178.194 311.074 177.632 311.182 176.991 311.182C176.139 311.182 175.437 310.991 174.884 310.608C174.33 310.222 173.976 309.665 173.821 308.938L174.793 308.699C174.918 309.218 175.162 309.61 175.526 309.875C175.893 310.14 176.376 310.273 176.974 310.273C177.645 310.273 178.181 310.123 178.582 309.824C178.984 309.521 179.185 309.142 179.185 308.688C179.185 308.335 179.067 308.04 178.832 307.801C178.598 307.559 178.241 307.381 177.764 307.267L176.338 306.926C175.58 306.744 175.02 306.456 174.656 306.062C174.293 305.669 174.111 305.18 174.111 304.597C174.111 304.116 174.241 303.693 174.503 303.33C174.764 302.962 175.124 302.674 175.582 302.466C176.041 302.258 176.563 302.153 177.151 302.153C177.95 302.153 178.588 302.335 179.065 302.699C179.546 303.059 179.893 303.555 180.105 304.188ZM185.973 311.182C185.159 311.182 184.454 310.992 183.859 310.614C183.265 310.231 182.804 309.703 182.479 309.028C182.157 308.35 181.996 307.57 181.996 306.688C181.996 305.809 182.157 305.028 182.479 304.347C182.804 303.661 183.253 303.125 183.825 302.739C184.401 302.348 185.066 302.153 185.82 302.153C186.293 302.153 186.75 302.241 187.189 302.415C187.628 302.585 188.022 302.848 188.371 303.205C188.723 303.557 189.001 304.002 189.206 304.54C189.411 305.074 189.513 305.706 189.513 306.438V306.938H182.695V306.045H188.479C188.479 305.485 188.365 304.981 188.138 304.534C187.914 304.083 187.602 303.727 187.2 303.466C186.803 303.205 186.342 303.074 185.82 303.074C185.267 303.074 184.78 303.222 184.359 303.517C183.939 303.812 183.609 304.203 183.371 304.688C183.136 305.172 183.017 305.703 183.013 306.278V306.812C183.013 307.506 183.132 308.112 183.371 308.631C183.613 309.146 183.956 309.545 184.399 309.83C184.842 310.114 185.367 310.256 185.973 310.256C186.386 310.256 186.748 310.191 187.058 310.062C187.373 309.934 187.636 309.761 187.848 309.545C188.064 309.326 188.227 309.085 188.337 308.824L189.297 309.136C189.164 309.504 188.946 309.843 188.643 310.153C188.344 310.464 187.969 310.714 187.518 310.903C187.071 311.089 186.556 311.182 185.973 311.182ZM191.741 311V302.273H192.724V303.614H192.798C192.973 303.174 193.276 302.82 193.707 302.551C194.143 302.278 194.635 302.142 195.185 302.142C195.268 302.142 195.361 302.144 195.463 302.148C195.565 302.152 195.651 302.155 195.719 302.159V303.188C195.673 303.18 195.594 303.169 195.48 303.153C195.366 303.138 195.243 303.131 195.111 303.131C194.656 303.131 194.251 303.227 193.895 303.42C193.543 303.61 193.264 303.873 193.06 304.21C192.855 304.547 192.753 304.932 192.753 305.364V311H191.741ZM198.456 305.545V311H197.445V302.273H198.428V303.642H198.518C198.723 303.195 199.041 302.837 199.473 302.568C199.909 302.295 200.446 302.159 201.087 302.159C201.674 302.159 202.189 302.282 202.632 302.528C203.079 302.771 203.426 303.129 203.672 303.602C203.922 304.076 204.047 304.657 204.047 305.347V311H203.036V305.409C203.036 304.693 202.835 304.127 202.433 303.71C202.036 303.294 201.501 303.085 200.831 303.085C200.373 303.085 199.965 303.184 199.609 303.381C199.253 303.578 198.971 303.862 198.763 304.233C198.558 304.6 198.456 305.038 198.456 305.545ZM209.148 311.199C208.621 311.199 208.14 311.097 207.705 310.892C207.269 310.684 206.922 310.384 206.665 309.994C206.407 309.6 206.278 309.123 206.278 308.562C206.278 308.131 206.36 307.767 206.523 307.472C206.686 307.176 206.917 306.934 207.216 306.744C207.515 306.555 207.869 306.405 208.278 306.295C208.688 306.186 209.138 306.1 209.631 306.04C210.119 305.979 210.532 305.926 210.869 305.881C211.21 305.835 211.47 305.763 211.648 305.665C211.826 305.566 211.915 305.407 211.915 305.188V304.983C211.915 304.388 211.737 303.92 211.381 303.58C211.028 303.235 210.521 303.062 209.858 303.062C209.229 303.062 208.716 303.201 208.318 303.477C207.924 303.754 207.648 304.08 207.489 304.455L206.528 304.108C206.725 303.631 206.998 303.25 207.347 302.966C207.695 302.678 208.085 302.472 208.517 302.347C208.949 302.218 209.386 302.153 209.83 302.153C210.163 302.153 210.509 302.197 210.869 302.284C211.233 302.371 211.57 302.523 211.881 302.739C212.191 302.951 212.443 303.248 212.636 303.631C212.83 304.009 212.926 304.491 212.926 305.074V311H211.915V309.619H211.852C211.731 309.877 211.551 310.127 211.312 310.369C211.074 310.612 210.775 310.811 210.415 310.966C210.055 311.121 209.633 311.199 209.148 311.199ZM209.284 310.273C209.822 310.273 210.288 310.153 210.682 309.915C211.076 309.676 211.379 309.36 211.591 308.966C211.807 308.568 211.915 308.131 211.915 307.653V306.392C211.839 306.464 211.712 306.528 211.534 306.585C211.36 306.642 211.157 306.693 210.926 306.739C210.699 306.78 210.472 306.816 210.244 306.847C210.017 306.877 209.812 306.903 209.631 306.926C209.138 306.987 208.718 307.081 208.369 307.21C208.021 307.339 207.754 307.517 207.568 307.744C207.383 307.968 207.29 308.256 207.29 308.608C207.29 309.138 207.479 309.549 207.858 309.841C208.237 310.129 208.712 310.273 209.284 310.273ZM215.616 311V302.273H216.599V303.614H216.69C216.865 303.163 217.154 302.809 217.56 302.551C217.969 302.29 218.459 302.159 219.031 302.159C219.634 302.159 220.128 302.301 220.514 302.585C220.904 302.866 221.196 303.252 221.389 303.744H221.463C221.66 303.259 221.98 302.875 222.423 302.591C222.87 302.303 223.412 302.159 224.048 302.159C224.859 302.159 225.499 302.415 225.969 302.926C226.438 303.434 226.673 304.176 226.673 305.153V311H225.662V305.153C225.662 304.464 225.486 303.947 225.134 303.602C224.781 303.258 224.317 303.085 223.741 303.085C223.075 303.085 222.562 303.29 222.202 303.699C221.842 304.108 221.662 304.627 221.662 305.256V311H220.628V305.062C220.628 304.472 220.463 303.994 220.134 303.631C219.804 303.267 219.34 303.085 218.741 303.085C218.34 303.085 217.978 303.184 217.656 303.381C217.338 303.578 217.086 303.852 216.901 304.205C216.719 304.553 216.628 304.955 216.628 305.409V311H215.616ZM232.879 311.182C232.065 311.182 231.36 310.992 230.766 310.614C230.171 310.231 229.711 309.703 229.385 309.028C229.063 308.35 228.902 307.57 228.902 306.688C228.902 305.809 229.063 305.028 229.385 304.347C229.711 303.661 230.16 303.125 230.732 302.739C231.307 302.348 231.972 302.153 232.726 302.153C233.199 302.153 233.656 302.241 234.095 302.415C234.535 302.585 234.929 302.848 235.277 303.205C235.629 303.557 235.908 304.002 236.112 304.54C236.317 305.074 236.419 305.706 236.419 306.438V306.938H229.601V306.045H235.385C235.385 305.485 235.271 304.981 235.044 304.534C234.821 304.083 234.508 303.727 234.107 303.466C233.709 303.205 233.249 303.074 232.726 303.074C232.173 303.074 231.686 303.222 231.266 303.517C230.845 303.812 230.516 304.203 230.277 304.688C230.042 305.172 229.923 305.703 229.919 306.278V306.812C229.919 307.506 230.038 308.112 230.277 308.631C230.519 309.146 230.862 309.545 231.305 309.83C231.749 310.114 232.273 310.256 232.879 310.256C233.292 310.256 233.654 310.191 233.964 310.062C234.279 309.934 234.542 309.761 234.754 309.545C234.97 309.326 235.133 309.085 235.243 308.824L236.203 309.136C236.071 309.504 235.853 309.843 235.55 310.153C235.25 310.464 234.875 310.714 234.425 310.903C233.978 311.089 233.463 311.182 232.879 311.182Z" fill="black"/>
<rect x="46" y="365" width="308" height="50" rx="10" fill="white"/>
<path d="M164.545 396V384.364H168.301C169.127 384.364 169.816 384.523 170.369 384.841C170.926 385.155 171.345 385.583 171.625 386.125C171.909 386.667 172.051 387.277 172.051 387.955C172.051 388.633 171.911 389.244 171.631 389.79C171.35 390.331 170.934 390.761 170.381 391.08C169.828 391.394 169.14 391.551 168.318 391.551H165.364V390.597H168.29C168.9 390.597 169.405 390.483 169.807 390.256C170.208 390.025 170.508 389.71 170.705 389.312C170.905 388.915 171.006 388.462 171.006 387.955C171.006 387.447 170.905 386.994 170.705 386.597C170.508 386.199 170.206 385.886 169.801 385.659C169.4 385.432 168.89 385.318 168.273 385.318H165.608V396H164.545ZM176.773 396.199C176.246 396.199 175.765 396.097 175.33 395.892C174.894 395.684 174.547 395.384 174.29 394.994C174.032 394.6 173.903 394.123 173.903 393.562C173.903 393.131 173.985 392.767 174.148 392.472C174.311 392.176 174.542 391.934 174.841 391.744C175.14 391.555 175.494 391.405 175.903 391.295C176.313 391.186 176.763 391.1 177.256 391.04C177.744 390.979 178.157 390.926 178.494 390.881C178.835 390.835 179.095 390.763 179.273 390.665C179.451 390.566 179.54 390.407 179.54 390.188V389.983C179.54 389.388 179.362 388.92 179.006 388.58C178.653 388.235 178.146 388.062 177.483 388.062C176.854 388.062 176.341 388.201 175.943 388.477C175.549 388.754 175.273 389.08 175.114 389.455L174.153 389.108C174.35 388.631 174.623 388.25 174.972 387.966C175.32 387.678 175.71 387.472 176.142 387.347C176.574 387.218 177.011 387.153 177.455 387.153C177.788 387.153 178.134 387.197 178.494 387.284C178.858 387.371 179.195 387.523 179.506 387.739C179.816 387.951 180.068 388.248 180.261 388.631C180.455 389.009 180.551 389.491 180.551 390.074V396H179.54V394.619H179.477C179.356 394.877 179.176 395.127 178.938 395.369C178.699 395.612 178.4 395.811 178.04 395.966C177.68 396.121 177.258 396.199 176.773 396.199ZM176.909 395.273C177.447 395.273 177.913 395.153 178.307 394.915C178.701 394.676 179.004 394.36 179.216 393.966C179.432 393.568 179.54 393.131 179.54 392.653V391.392C179.464 391.464 179.337 391.528 179.159 391.585C178.985 391.642 178.782 391.693 178.551 391.739C178.324 391.78 178.097 391.816 177.869 391.847C177.642 391.877 177.438 391.903 177.256 391.926C176.763 391.987 176.343 392.081 175.994 392.21C175.646 392.339 175.379 392.517 175.193 392.744C175.008 392.968 174.915 393.256 174.915 393.608C174.915 394.138 175.104 394.549 175.483 394.841C175.862 395.129 176.337 395.273 176.909 395.273ZM189.105 389.188L188.179 389.449C188.088 389.187 187.959 388.951 187.793 388.739C187.626 388.527 187.408 388.358 187.139 388.233C186.874 388.108 186.545 388.045 186.151 388.045C185.56 388.045 185.075 388.186 184.696 388.466C184.317 388.746 184.128 389.108 184.128 389.551C184.128 389.926 184.257 390.231 184.514 390.466C184.776 390.697 185.177 390.881 185.719 391.017L187.037 391.341C187.768 391.519 188.315 391.801 188.679 392.188C189.046 392.574 189.23 393.059 189.23 393.642C189.23 394.134 189.094 394.572 188.821 394.955C188.548 395.337 188.168 395.638 187.679 395.858C187.194 396.074 186.632 396.182 185.991 396.182C185.139 396.182 184.437 395.991 183.884 395.608C183.33 395.222 182.976 394.665 182.821 393.938L183.793 393.699C183.918 394.218 184.162 394.61 184.526 394.875C184.893 395.14 185.376 395.273 185.974 395.273C186.645 395.273 187.181 395.123 187.582 394.824C187.984 394.521 188.185 394.142 188.185 393.688C188.185 393.335 188.067 393.04 187.832 392.801C187.598 392.559 187.241 392.381 186.764 392.267L185.338 391.926C184.58 391.744 184.02 391.456 183.656 391.062C183.293 390.669 183.111 390.18 183.111 389.597C183.111 389.116 183.241 388.693 183.503 388.33C183.764 387.962 184.124 387.674 184.582 387.466C185.041 387.258 185.563 387.153 186.151 387.153C186.95 387.153 187.588 387.335 188.065 387.699C188.546 388.059 188.893 388.555 189.105 389.188ZM197.308 389.188L196.382 389.449C196.291 389.187 196.162 388.951 195.996 388.739C195.829 388.527 195.611 388.358 195.342 388.233C195.077 388.108 194.748 388.045 194.354 388.045C193.763 388.045 193.278 388.186 192.899 388.466C192.52 388.746 192.331 389.108 192.331 389.551C192.331 389.926 192.46 390.231 192.717 390.466C192.979 390.697 193.38 390.881 193.922 391.017L195.24 391.341C195.971 391.519 196.518 391.801 196.882 392.188C197.25 392.574 197.433 393.059 197.433 393.642C197.433 394.134 197.297 394.572 197.024 394.955C196.751 395.337 196.371 395.638 195.882 395.858C195.397 396.074 194.835 396.182 194.195 396.182C193.342 396.182 192.64 395.991 192.087 395.608C191.534 395.222 191.179 394.665 191.024 393.938L191.996 393.699C192.121 394.218 192.365 394.61 192.729 394.875C193.096 395.14 193.579 395.273 194.178 395.273C194.848 395.273 195.384 395.123 195.786 394.824C196.187 394.521 196.388 394.142 196.388 393.688C196.388 393.335 196.27 393.04 196.036 392.801C195.801 392.559 195.445 392.381 194.967 392.267L193.541 391.926C192.784 391.744 192.223 391.456 191.859 391.062C191.496 390.669 191.314 390.18 191.314 389.597C191.314 389.116 191.445 388.693 191.706 388.33C191.967 387.962 192.327 387.674 192.786 387.466C193.244 387.258 193.767 387.153 194.354 387.153C195.153 387.153 195.791 387.335 196.268 387.699C196.75 388.059 197.096 388.555 197.308 389.188ZM201.585 396L198.949 387.273H200.017L202.085 394.472H202.159L204.222 387.273H205.295L207.341 394.455H207.42L209.489 387.273H210.557L207.92 396H206.875L204.807 388.847H204.699L202.631 396H201.585ZM215.618 396.182C214.864 396.182 214.197 395.991 213.618 395.608C213.042 395.225 212.591 394.697 212.266 394.023C211.94 393.345 211.777 392.562 211.777 391.676C211.777 390.782 211.94 389.996 212.266 389.318C212.591 388.636 213.042 388.106 213.618 387.727C214.197 387.345 214.864 387.153 215.618 387.153C216.372 387.153 217.036 387.345 217.612 387.727C218.188 388.11 218.639 388.64 218.964 389.318C219.294 389.996 219.459 390.782 219.459 391.676C219.459 392.562 219.296 393.345 218.97 394.023C218.644 394.697 218.192 395.225 217.612 395.608C217.036 395.991 216.372 396.182 215.618 396.182ZM215.618 395.256C216.224 395.256 216.737 395.093 217.158 394.767C217.578 394.441 217.896 394.008 218.112 393.466C218.332 392.924 218.442 392.328 218.442 391.676C218.442 391.025 218.332 390.426 218.112 389.881C217.896 389.335 217.578 388.898 217.158 388.568C216.737 388.239 216.224 388.074 215.618 388.074C215.016 388.074 214.502 388.239 214.078 388.568C213.658 388.898 213.338 389.335 213.118 389.881C212.902 390.426 212.794 391.025 212.794 391.676C212.794 392.328 212.902 392.924 213.118 393.466C213.338 394.008 213.658 394.441 214.078 394.767C214.499 395.093 215.012 395.256 215.618 395.256ZM221.679 396V387.273H222.662V388.614H222.736C222.91 388.174 223.213 387.82 223.645 387.551C224.08 387.278 224.573 387.142 225.122 387.142C225.205 387.142 225.298 387.144 225.401 387.148C225.503 387.152 225.588 387.155 225.656 387.159V388.188C225.611 388.18 225.531 388.169 225.418 388.153C225.304 388.138 225.181 388.131 225.048 388.131C224.594 388.131 224.188 388.227 223.832 388.42C223.48 388.61 223.202 388.873 222.997 389.21C222.793 389.547 222.69 389.932 222.69 390.364V396H221.679ZM230.259 396.182C229.543 396.182 228.916 395.992 228.378 395.614C227.84 395.235 227.42 394.706 227.116 394.028C226.817 393.35 226.668 392.561 226.668 391.659C226.668 390.761 226.817 389.975 227.116 389.301C227.42 388.623 227.842 388.097 228.384 387.722C228.925 387.343 229.556 387.153 230.276 387.153C230.806 387.153 231.247 387.248 231.599 387.438C231.952 387.623 232.234 387.854 232.446 388.131C232.658 388.407 232.823 388.676 232.94 388.938H233.031V384.364H234.048V396H233.06V394.381H232.94C232.823 394.646 232.656 394.919 232.44 395.199C232.224 395.475 231.938 395.708 231.582 395.898C231.23 396.087 230.789 396.182 230.259 396.182ZM230.378 395.256C230.942 395.256 231.423 395.102 231.821 394.795C232.219 394.485 232.522 394.059 232.73 393.517C232.942 392.972 233.048 392.347 233.048 391.642C233.048 390.945 232.944 390.33 232.736 389.795C232.527 389.258 232.224 388.837 231.827 388.534C231.429 388.227 230.946 388.074 230.378 388.074C229.795 388.074 229.302 388.233 228.901 388.551C228.503 388.866 228.2 389.292 227.991 389.83C227.787 390.367 227.685 390.972 227.685 391.642C227.685 392.32 227.789 392.932 227.997 393.477C228.205 394.023 228.509 394.456 228.906 394.778C229.308 395.097 229.798 395.256 230.378 395.256Z" fill="black"/>
<path d="M267.159 436V427.273H272.209V427.989H267.956V431.274H271.812V431.99H267.956V436H267.159ZM276.096 436.136C275.531 436.136 275.031 435.993 274.596 435.706C274.164 435.419 273.826 435.023 273.582 434.517C273.338 434.009 273.216 433.422 273.216 432.757C273.216 432.087 273.338 431.497 273.582 430.989C273.826 430.477 274.164 430.08 274.596 429.795C275.031 429.509 275.531 429.365 276.096 429.365C276.662 429.365 277.16 429.509 277.592 429.795C278.024 430.082 278.362 430.48 278.606 430.989C278.853 431.497 278.977 432.087 278.977 432.757C278.977 433.422 278.855 434.009 278.61 434.517C278.366 435.023 278.027 435.419 277.592 435.706C277.16 435.993 276.662 436.136 276.096 436.136ZM276.096 435.442C276.551 435.442 276.936 435.32 277.251 435.075C277.566 434.831 277.805 434.506 277.967 434.099C278.132 433.693 278.214 433.246 278.214 432.757C278.214 432.268 278.132 431.82 277.967 431.411C277.805 431.001 277.566 430.673 277.251 430.426C276.936 430.179 276.551 430.055 276.096 430.055C275.645 430.055 275.26 430.179 274.941 430.426C274.626 430.673 274.386 431.001 274.221 431.411C274.059 431.82 273.978 432.268 273.978 432.757C273.978 433.246 274.059 433.693 274.221 434.099C274.386 434.506 274.626 434.831 274.941 435.075C275.257 435.32 275.642 435.442 276.096 435.442ZM280.642 436V429.455H281.379V430.46H281.435C281.565 430.131 281.793 429.865 282.116 429.663C282.443 429.459 282.812 429.357 283.224 429.357C283.287 429.357 283.357 429.358 283.433 429.361C283.51 429.364 283.574 429.366 283.625 429.369V430.141C283.591 430.135 283.531 430.126 283.446 430.115C283.361 430.104 283.268 430.098 283.169 430.098C282.828 430.098 282.524 430.17 282.257 430.315C281.993 430.457 281.784 430.655 281.631 430.908C281.477 431.161 281.401 431.449 281.401 431.773V436H280.642ZM287.217 438.591C286.771 438.591 286.381 438.533 286.045 438.416C285.71 438.303 285.428 438.146 285.197 437.947C284.967 437.749 284.788 437.526 284.661 437.278L285.283 436.869C285.376 437.034 285.501 437.196 285.658 437.355C285.817 437.514 286.023 437.646 286.276 437.751C286.531 437.857 286.845 437.909 287.217 437.909C287.797 437.909 288.264 437.764 288.619 437.474C288.977 437.185 289.156 436.734 289.156 436.124V434.649H289.088C289 434.848 288.874 435.047 288.709 435.246C288.544 435.442 288.328 435.605 288.061 435.736C287.797 435.866 287.469 435.932 287.077 435.932C286.554 435.932 286.089 435.803 285.683 435.544C285.28 435.286 284.962 434.916 284.729 434.436C284.499 433.953 284.384 433.378 284.384 432.71C284.384 432.048 284.496 431.466 284.72 430.963C284.947 430.46 285.264 430.068 285.67 429.787C286.077 429.506 286.55 429.365 287.089 429.365C287.49 429.365 287.822 429.436 288.087 429.578C288.351 429.717 288.563 429.891 288.722 430.098C288.884 430.305 289.01 430.507 289.101 430.703H289.178V429.455H289.919V436.17C289.919 436.724 289.801 437.18 289.565 437.538C289.33 437.896 289.009 438.161 288.602 438.331C288.196 438.504 287.734 438.591 287.217 438.591ZM287.166 435.237C287.587 435.237 287.946 435.136 288.244 434.935C288.543 434.73 288.771 434.437 288.93 434.057C289.089 433.676 289.169 433.223 289.169 432.697C289.169 432.186 289.091 431.733 288.935 431.338C288.778 430.94 288.551 430.628 288.253 430.401C287.957 430.17 287.595 430.055 287.166 430.055C286.729 430.055 286.359 430.173 286.058 430.409C285.757 430.645 285.53 430.963 285.376 431.364C285.223 431.761 285.146 432.206 285.146 432.697C285.146 433.197 285.224 433.639 285.381 434.023C285.537 434.403 285.766 434.702 286.067 434.918C286.368 435.131 286.734 435.237 287.166 435.237ZM294.574 436.136C293.963 436.136 293.434 435.994 292.988 435.71C292.542 435.423 292.197 435.027 291.953 434.521C291.711 434.013 291.591 433.428 291.591 432.766C291.591 432.107 291.711 431.521 291.953 431.01C292.197 430.496 292.534 430.094 292.963 429.804C293.395 429.511 293.893 429.365 294.458 429.365C294.814 429.365 295.156 429.43 295.485 429.561C295.815 429.689 296.11 429.886 296.372 430.153C296.636 430.418 296.845 430.751 296.998 431.155C297.152 431.555 297.228 432.03 297.228 432.578V432.953H292.115V432.284H296.453C296.453 431.864 296.368 431.486 296.197 431.151C296.029 430.812 295.795 430.545 295.494 430.349C295.196 430.153 294.85 430.055 294.458 430.055C294.044 430.055 293.679 430.166 293.363 430.388C293.048 430.609 292.801 430.902 292.622 431.266C292.446 431.629 292.356 432.027 292.353 432.459V432.859C292.353 433.379 292.443 433.834 292.622 434.223C292.804 434.609 293.061 434.909 293.393 435.122C293.725 435.335 294.119 435.442 294.574 435.442C294.883 435.442 295.154 435.393 295.387 435.297C295.623 435.2 295.821 435.071 295.98 434.909C296.142 434.744 296.264 434.564 296.346 434.368L297.066 434.602C296.967 434.878 296.804 435.132 296.576 435.365C296.352 435.598 296.071 435.786 295.733 435.928C295.397 436.067 295.011 436.136 294.574 436.136ZM301.478 429.455V430.115H298.354V429.455H301.478ZM299.33 427.886H300.093V434.291C300.093 434.564 300.14 434.778 300.234 434.935C300.327 435.088 300.45 435.197 300.6 435.263C300.751 435.325 300.911 435.357 301.082 435.357C301.181 435.357 301.266 435.351 301.337 435.339C301.408 435.325 301.471 435.311 301.525 435.297L301.687 435.983C301.613 436.011 301.522 436.037 301.414 436.06C301.306 436.085 301.173 436.098 301.013 436.098C300.735 436.098 300.467 436.037 300.208 435.915C299.952 435.793 299.742 435.611 299.577 435.369C299.413 435.128 299.33 434.828 299.33 434.47V427.886ZM306.733 436V427.273H309.55C310.169 427.273 310.686 427.392 311.101 427.631C311.519 427.866 311.833 428.188 312.043 428.594C312.256 429 312.363 429.457 312.363 429.966C312.363 430.474 312.257 430.933 312.047 431.342C311.837 431.749 311.525 432.071 311.11 432.31C310.695 432.545 310.179 432.663 309.563 432.663H307.347V431.947H309.542C309.999 431.947 310.378 431.862 310.679 431.692C310.98 431.518 311.205 431.283 311.353 430.984C311.503 430.686 311.578 430.347 311.578 429.966C311.578 429.585 311.503 429.246 311.353 428.947C311.205 428.649 310.979 428.415 310.675 428.244C310.374 428.074 309.992 427.989 309.529 427.989H307.53V436H306.733ZM315.904 436.149C315.509 436.149 315.148 436.072 314.821 435.919C314.495 435.763 314.235 435.538 314.042 435.246C313.848 434.95 313.752 434.592 313.752 434.172C313.752 433.848 313.813 433.575 313.935 433.354C314.057 433.132 314.23 432.95 314.455 432.808C314.679 432.666 314.945 432.554 315.252 432.472C315.559 432.389 315.897 432.325 316.266 432.28C316.632 432.234 316.942 432.195 317.195 432.161C317.451 432.126 317.645 432.072 317.779 431.999C317.912 431.925 317.979 431.805 317.979 431.641V431.487C317.979 431.041 317.846 430.69 317.578 430.435C317.314 430.176 316.934 430.047 316.436 430.047C315.965 430.047 315.58 430.151 315.282 430.358C314.986 430.565 314.779 430.81 314.659 431.091L313.939 430.831C314.087 430.473 314.292 430.187 314.553 429.974C314.814 429.759 315.107 429.604 315.431 429.51C315.755 429.413 316.083 429.365 316.415 429.365C316.665 429.365 316.925 429.398 317.195 429.463C317.468 429.528 317.721 429.642 317.953 429.804C318.186 429.963 318.375 430.186 318.52 430.473C318.665 430.757 318.738 431.118 318.738 431.555V436H317.979V434.964H317.932C317.841 435.158 317.706 435.345 317.527 435.527C317.348 435.709 317.124 435.858 316.854 435.974C316.584 436.091 316.267 436.149 315.904 436.149ZM316.006 435.455C316.409 435.455 316.759 435.365 317.054 435.186C317.35 435.007 317.577 434.77 317.736 434.474C317.898 434.176 317.979 433.848 317.979 433.49V432.544C317.922 432.598 317.827 432.646 317.694 432.689C317.563 432.732 317.411 432.77 317.238 432.804C317.067 432.835 316.897 432.862 316.726 432.885C316.556 432.908 316.402 432.928 316.266 432.945C315.897 432.99 315.581 433.061 315.32 433.158C315.059 433.254 314.858 433.388 314.719 433.558C314.58 433.726 314.51 433.942 314.51 434.206C314.51 434.604 314.652 434.912 314.936 435.131C315.221 435.347 315.577 435.455 316.006 435.455ZM325.153 430.891L324.458 431.087C324.39 430.891 324.294 430.713 324.169 430.554C324.044 430.395 323.88 430.268 323.679 430.175C323.48 430.081 323.233 430.034 322.937 430.034C322.494 430.034 322.13 430.139 321.846 430.349C321.562 430.56 321.42 430.831 321.42 431.163C321.42 431.445 321.517 431.673 321.71 431.849C321.906 432.023 322.207 432.161 322.613 432.263L323.602 432.506C324.15 432.639 324.561 432.851 324.833 433.141C325.109 433.43 325.247 433.794 325.247 434.232C325.247 434.601 325.145 434.929 324.94 435.216C324.735 435.503 324.45 435.729 324.083 435.893C323.72 436.055 323.298 436.136 322.818 436.136C322.179 436.136 321.652 435.993 321.237 435.706C320.822 435.416 320.556 434.999 320.44 434.453L321.169 434.274C321.262 434.663 321.446 434.957 321.718 435.156C321.994 435.355 322.356 435.455 322.805 435.455C323.308 435.455 323.71 435.342 324.011 435.118C324.312 434.891 324.463 434.607 324.463 434.266C324.463 434.001 324.375 433.78 324.199 433.601C324.022 433.419 323.755 433.286 323.397 433.2L322.328 432.945C321.76 432.808 321.339 432.592 321.066 432.297C320.794 432.001 320.657 431.635 320.657 431.197C320.657 430.837 320.755 430.52 320.951 430.247C321.147 429.972 321.417 429.756 321.761 429.599C322.105 429.443 322.497 429.365 322.937 429.365C323.537 429.365 324.015 429.501 324.373 429.774C324.734 430.044 324.994 430.416 325.153 430.891ZM331.305 430.891L330.611 431.087C330.543 430.891 330.446 430.713 330.321 430.554C330.196 430.395 330.033 430.268 329.831 430.175C329.632 430.081 329.385 430.034 329.089 430.034C328.646 430.034 328.283 430.139 327.999 430.349C327.714 430.56 327.572 430.831 327.572 431.163C327.572 431.445 327.669 431.673 327.862 431.849C328.058 432.023 328.359 432.161 328.766 432.263L329.754 432.506C330.303 432.639 330.713 432.851 330.986 433.141C331.261 433.43 331.399 433.794 331.399 434.232C331.399 434.601 331.297 434.929 331.092 435.216C330.888 435.503 330.602 435.729 330.236 435.893C329.872 436.055 329.45 436.136 328.97 436.136C328.331 436.136 327.804 435.993 327.389 435.706C326.974 435.416 326.709 434.999 326.592 434.453L327.321 434.274C327.415 434.663 327.598 434.957 327.871 435.156C328.146 435.355 328.509 435.455 328.957 435.455C329.46 435.455 329.862 435.342 330.163 435.118C330.464 434.891 330.615 434.607 330.615 434.266C330.615 434.001 330.527 433.78 330.351 433.601C330.175 433.419 329.908 433.286 329.55 433.2L328.48 432.945C327.912 432.808 327.491 432.592 327.219 432.297C326.946 432.001 326.81 431.635 326.81 431.197C326.81 430.837 326.908 430.52 327.104 430.247C327.3 429.972 327.57 429.756 327.913 429.599C328.257 429.443 328.649 429.365 329.089 429.365C329.689 429.365 330.168 429.501 330.526 429.774C330.886 430.044 331.146 430.416 331.305 430.891ZM334.513 436L332.536 429.455H333.337L334.888 434.854H334.944L336.49 429.455H337.296L338.83 434.841H338.89L340.441 429.455H341.242L339.265 436H338.48L336.929 430.635H336.848L335.297 436H334.513ZM345.038 436.136C344.472 436.136 343.972 435.993 343.538 435.706C343.106 435.419 342.768 435.023 342.523 434.517C342.279 434.009 342.157 433.422 342.157 432.757C342.157 432.087 342.279 431.497 342.523 430.989C342.768 430.477 343.106 430.08 343.538 429.795C343.972 429.509 344.472 429.365 345.038 429.365C345.603 429.365 346.102 429.509 346.533 429.795C346.965 430.082 347.303 430.48 347.548 430.989C347.795 431.497 347.918 432.087 347.918 432.757C347.918 433.422 347.796 434.009 347.552 434.517C347.308 435.023 346.968 435.419 346.533 435.706C346.102 435.993 345.603 436.136 345.038 436.136ZM345.038 435.442C345.492 435.442 345.877 435.32 346.192 435.075C346.508 434.831 346.746 434.506 346.908 434.099C347.073 433.693 347.156 433.246 347.156 432.757C347.156 432.268 347.073 431.82 346.908 431.411C346.746 431.001 346.508 430.673 346.192 430.426C345.877 430.179 345.492 430.055 345.038 430.055C344.586 430.055 344.201 430.179 343.883 430.426C343.567 430.673 343.327 431.001 343.163 431.411C343.001 431.82 342.92 432.268 342.92 432.757C342.92 433.246 343.001 433.693 343.163 434.099C343.327 434.506 343.567 434.831 343.883 435.075C344.198 435.32 344.583 435.442 345.038 435.442ZM349.583 436V429.455H350.321V430.46H350.376C350.507 430.131 350.734 429.865 351.058 429.663C351.385 429.459 351.754 429.357 352.166 429.357C352.228 429.357 352.298 429.358 352.375 429.361C352.451 429.364 352.515 429.366 352.566 429.369V430.141C352.532 430.135 352.473 430.126 352.387 430.115C352.302 430.104 352.21 430.098 352.11 430.098C351.77 430.098 351.466 430.17 351.199 430.315C350.934 430.457 350.725 430.655 350.572 430.908C350.419 431.161 350.342 431.449 350.342 431.773V436H349.583ZM356.018 436.136C355.481 436.136 355.011 435.994 354.608 435.71C354.204 435.426 353.889 435.03 353.662 434.521C353.437 434.013 353.325 433.42 353.325 432.744C353.325 432.071 353.437 431.482 353.662 430.976C353.889 430.467 354.206 430.072 354.612 429.791C355.018 429.507 355.491 429.365 356.031 429.365C356.429 429.365 356.76 429.436 357.024 429.578C357.288 429.717 357.5 429.891 357.659 430.098C357.818 430.305 357.941 430.507 358.029 430.703H358.098V427.273H358.86V436H358.119V434.786H358.029C357.941 434.984 357.816 435.189 357.654 435.399C357.493 435.607 357.278 435.781 357.011 435.923C356.747 436.065 356.416 436.136 356.018 436.136ZM356.108 435.442C356.531 435.442 356.892 435.327 357.19 435.097C357.488 434.864 357.716 434.544 357.872 434.138C358.031 433.729 358.11 433.26 358.11 432.732C358.11 432.209 358.032 431.747 357.876 431.347C357.72 430.943 357.493 430.628 357.194 430.401C356.896 430.17 356.534 430.055 356.108 430.055C355.67 430.055 355.301 430.175 355 430.413C354.701 430.649 354.474 430.969 354.318 431.372C354.164 431.776 354.088 432.229 354.088 432.732C354.088 433.24 354.166 433.699 354.322 434.108C354.478 434.517 354.706 434.842 355.004 435.084C355.305 435.322 355.673 435.442 356.108 435.442ZM365.713 433.499V433.268C365.716 432.82 365.765 432.455 365.862 432.173C365.958 431.892 366.1 431.655 366.288 431.462C366.478 431.266 366.714 431.078 366.995 430.899C367.206 430.763 367.382 430.619 367.524 430.469C367.669 430.315 367.778 430.148 367.852 429.966C367.929 429.781 367.967 429.581 367.967 429.365C367.967 429.058 367.895 428.79 367.75 428.56C367.608 428.33 367.414 428.152 367.17 428.027C366.926 427.899 366.654 427.835 366.356 427.835C366.072 427.835 365.806 427.898 365.559 428.023C365.315 428.145 365.115 428.327 364.958 428.568C364.805 428.807 364.721 429.102 364.707 429.455H363.902C363.916 428.986 364.032 428.58 364.251 428.236C364.47 427.892 364.762 427.626 365.129 427.439C365.495 427.249 365.904 427.153 366.356 427.153C366.828 427.153 367.243 427.251 367.6 427.447C367.958 427.641 368.238 427.906 368.44 428.244C368.642 428.58 368.743 428.964 368.743 429.399C368.743 429.686 368.697 429.947 368.606 430.183C368.515 430.419 368.379 430.636 368.197 430.835C368.018 431.034 367.794 431.222 367.524 431.398C367.268 431.568 367.065 431.737 366.914 431.905C366.764 432.072 366.656 432.264 366.591 432.48C366.525 432.693 366.49 432.956 366.484 433.268V433.499H365.713ZM366.122 436.064C365.954 436.064 365.809 436.004 365.687 435.885C365.568 435.763 365.508 435.618 365.508 435.45C365.508 435.28 365.568 435.135 365.687 435.016C365.809 434.896 365.954 434.837 366.122 434.837C366.289 434.837 366.433 434.896 366.552 435.016C366.674 435.135 366.735 435.28 366.735 435.45C366.735 435.561 366.707 435.663 366.65 435.757C366.596 435.851 366.522 435.926 366.429 435.983C366.338 436.037 366.235 436.064 366.122 436.064Z" fill="white"/>
<line x1="259.995" y1="443.5" x2="369.995" y2="442.5" stroke="white"/>
<path d="M109.122 608H107.46L112.267 594.909H113.903L118.71 608H117.048L113.136 596.98H113.034L109.122 608ZM109.736 602.886H116.435V604.293H109.736V602.886ZM122.053 594.909V608H120.545V594.909H122.053ZM124.816 608V598.182H126.274V599.665H126.376C126.555 599.179 126.879 598.785 127.347 598.482C127.816 598.18 128.345 598.028 128.933 598.028C129.044 598.028 129.182 598.031 129.348 598.035C129.514 598.039 129.64 598.045 129.725 598.054V599.588C129.674 599.575 129.557 599.556 129.374 599.531C129.195 599.501 129.005 599.486 128.805 599.486C128.328 599.486 127.901 599.586 127.526 599.786C127.156 599.982 126.862 600.255 126.644 600.604C126.431 600.95 126.325 601.344 126.325 601.787V608H124.816ZM135.331 608.205C134.385 608.205 133.569 607.996 132.883 607.578C132.201 607.156 131.675 606.568 131.304 605.814C130.938 605.055 130.754 604.173 130.754 603.168C130.754 602.162 130.938 601.276 131.304 600.509C131.675 599.737 132.191 599.136 132.851 598.706C133.516 598.271 134.291 598.054 135.178 598.054C135.689 598.054 136.194 598.139 136.693 598.31C137.191 598.48 137.645 598.757 138.054 599.141C138.463 599.52 138.789 600.023 139.032 600.649C139.275 601.276 139.396 602.047 139.396 602.963V603.602H131.828V602.298H137.862C137.862 601.744 137.752 601.25 137.53 600.815C137.313 600.381 137.002 600.038 136.597 599.786C136.196 599.535 135.723 599.409 135.178 599.409C134.577 599.409 134.057 599.558 133.618 599.857C133.183 600.151 132.849 600.534 132.615 601.007C132.38 601.48 132.263 601.987 132.263 602.528V603.398C132.263 604.139 132.391 604.768 132.646 605.283C132.906 605.795 133.267 606.185 133.727 606.453C134.187 606.717 134.722 606.849 135.331 606.849C135.727 606.849 136.085 606.794 136.405 606.683C136.729 606.568 137.008 606.398 137.242 606.172C137.477 605.942 137.658 605.656 137.786 605.315L139.243 605.724C139.09 606.219 138.832 606.653 138.47 607.028C138.107 607.399 137.66 607.689 137.127 607.898C136.595 608.102 135.996 608.205 135.331 608.205ZM144.58 608.23C143.958 608.23 143.394 608.113 142.887 607.879C142.379 607.64 141.977 607.297 141.678 606.849C141.38 606.398 141.231 605.852 141.231 605.213C141.231 604.651 141.342 604.195 141.563 603.845C141.785 603.491 142.081 603.214 142.452 603.014C142.823 602.814 143.232 602.665 143.679 602.567C144.131 602.464 144.585 602.384 145.041 602.324C145.637 602.247 146.121 602.19 146.492 602.151C146.867 602.109 147.139 602.038 147.31 601.94C147.485 601.842 147.572 601.672 147.572 601.429V601.378C147.572 600.747 147.399 600.257 147.054 599.908C146.713 599.558 146.195 599.384 145.501 599.384C144.781 599.384 144.216 599.541 143.807 599.857C143.398 600.172 143.11 600.509 142.944 600.866L141.512 600.355C141.768 599.759 142.109 599.294 142.535 598.962C142.965 598.625 143.434 598.391 143.941 598.259C144.453 598.122 144.955 598.054 145.45 598.054C145.765 598.054 146.127 598.092 146.536 598.169C146.95 598.241 147.348 598.393 147.732 598.623C148.119 598.853 148.441 599.2 148.697 599.665C148.953 600.129 149.08 600.751 149.08 601.531V608H147.572V606.67H147.495C147.393 606.884 147.222 607.112 146.984 607.354C146.745 607.597 146.428 607.804 146.031 607.974C145.635 608.145 145.151 608.23 144.58 608.23ZM144.811 606.875C145.407 606.875 145.91 606.758 146.319 606.523C146.732 606.289 147.044 605.987 147.252 605.616C147.465 605.245 147.572 604.855 147.572 604.446V603.065C147.508 603.142 147.367 603.212 147.15 603.276C146.937 603.336 146.69 603.389 146.409 603.436C146.132 603.479 145.861 603.517 145.597 603.551C145.337 603.581 145.126 603.607 144.964 603.628C144.572 603.679 144.205 603.762 143.865 603.877C143.528 603.988 143.255 604.156 143.046 604.382C142.842 604.604 142.74 604.906 142.74 605.29C142.74 605.814 142.933 606.21 143.321 606.479C143.713 606.743 144.21 606.875 144.811 606.875ZM155.541 608.205C154.723 608.205 154.001 607.998 153.374 607.585C152.748 607.167 152.258 606.579 151.904 605.82C151.55 605.058 151.374 604.156 151.374 603.116C151.374 602.085 151.55 601.19 151.904 600.432C152.258 599.673 152.75 599.087 153.381 598.674C154.011 598.261 154.74 598.054 155.567 598.054C156.206 598.054 156.711 598.161 157.082 598.374C157.457 598.582 157.742 598.821 157.938 599.089C158.138 599.354 158.294 599.571 158.405 599.741H158.533V594.909H160.041V608H158.584V606.491H158.405C158.294 606.67 158.136 606.896 157.932 607.169C157.727 607.437 157.435 607.678 157.056 607.891C156.677 608.1 156.172 608.205 155.541 608.205ZM155.746 606.849C156.351 606.849 156.862 606.692 157.28 606.376C157.697 606.057 158.015 605.616 158.232 605.053C158.45 604.487 158.558 603.832 158.558 603.091C158.558 602.358 158.452 601.717 158.239 601.167C158.026 600.613 157.71 600.183 157.293 599.876C156.875 599.565 156.359 599.409 155.746 599.409C155.107 599.409 154.574 599.573 154.148 599.901C153.726 600.225 153.408 600.666 153.195 601.224C152.987 601.778 152.882 602.401 152.882 603.091C152.882 603.79 152.989 604.425 153.202 604.996C153.419 605.562 153.739 606.014 154.161 606.351C154.587 606.683 155.115 606.849 155.746 606.849ZM163.985 611.682C163.729 611.682 163.501 611.661 163.301 611.618C163.101 611.58 162.962 611.541 162.886 611.503L163.269 610.173C163.636 610.267 163.96 610.301 164.241 610.276C164.522 610.25 164.771 610.124 164.989 609.898C165.21 609.677 165.413 609.317 165.596 608.818L165.877 608.051L162.246 598.182H163.883L166.593 606.006H166.695L169.406 598.182H171.042L166.874 609.432C166.687 609.939 166.455 610.359 166.178 610.691C165.901 611.028 165.579 611.277 165.212 611.439C164.85 611.601 164.441 611.682 163.985 611.682ZM179.604 602.094V608H178.096V594.909H179.604V599.716H179.732C179.962 599.209 180.307 598.806 180.767 598.508C181.232 598.205 181.85 598.054 182.621 598.054C183.29 598.054 183.876 598.188 184.379 598.457C184.882 598.721 185.272 599.128 185.549 599.678C185.83 600.223 185.971 600.918 185.971 601.761V608H184.462V601.864C184.462 601.084 184.26 600.481 183.855 600.055C183.454 599.624 182.898 599.409 182.186 599.409C181.692 599.409 181.249 599.513 180.857 599.722C180.469 599.931 180.162 600.236 179.936 600.636C179.715 601.037 179.604 601.523 179.604 602.094ZM191.619 608.23C190.997 608.23 190.433 608.113 189.926 607.879C189.419 607.64 189.016 607.297 188.718 606.849C188.419 606.398 188.27 605.852 188.27 605.213C188.27 604.651 188.381 604.195 188.602 603.845C188.824 603.491 189.12 603.214 189.491 603.014C189.862 602.814 190.271 602.665 190.718 602.567C191.17 602.464 191.624 602.384 192.08 602.324C192.676 602.247 193.16 602.19 193.531 602.151C193.906 602.109 194.178 602.038 194.349 601.94C194.524 601.842 194.611 601.672 194.611 601.429V601.378C194.611 600.747 194.438 600.257 194.093 599.908C193.752 599.558 193.235 599.384 192.54 599.384C191.82 599.384 191.255 599.541 190.846 599.857C190.437 600.172 190.149 600.509 189.983 600.866L188.551 600.355C188.807 599.759 189.148 599.294 189.574 598.962C190.004 598.625 190.473 598.391 190.98 598.259C191.492 598.122 191.994 598.054 192.489 598.054C192.804 598.054 193.166 598.092 193.575 598.169C193.989 598.241 194.387 598.393 194.771 598.623C195.159 598.853 195.48 599.2 195.736 599.665C195.992 600.129 196.119 600.751 196.119 601.531V608H194.611V606.67H194.534C194.432 606.884 194.262 607.112 194.023 607.354C193.784 607.597 193.467 607.804 193.07 607.974C192.674 608.145 192.191 608.23 191.619 608.23ZM191.85 606.875C192.446 606.875 192.949 606.758 193.358 606.523C193.771 606.289 194.083 605.987 194.291 605.616C194.504 605.245 194.611 604.855 194.611 604.446V603.065C194.547 603.142 194.406 603.212 194.189 603.276C193.976 603.336 193.729 603.389 193.448 603.436C193.171 603.479 192.9 603.517 192.636 603.551C192.376 603.581 192.165 603.607 192.003 603.628C191.611 603.679 191.244 603.762 190.904 603.877C190.567 603.988 190.294 604.156 190.085 604.382C189.881 604.604 189.779 604.906 189.779 605.29C189.779 605.814 189.972 606.21 190.36 606.479C190.752 606.743 191.249 606.875 191.85 606.875ZM206.55 598.182L202.919 608H201.385L197.754 598.182H199.391L202.101 606.006H202.203L204.913 598.182H206.55ZM212.306 608.205C211.36 608.205 210.544 607.996 209.858 607.578C209.176 607.156 208.65 606.568 208.279 605.814C207.912 605.055 207.729 604.173 207.729 603.168C207.729 602.162 207.912 601.276 208.279 600.509C208.65 599.737 209.165 599.136 209.826 598.706C210.49 598.271 211.266 598.054 212.152 598.054C212.664 598.054 213.169 598.139 213.667 598.31C214.166 598.48 214.62 598.757 215.029 599.141C215.438 599.52 215.764 600.023 216.007 600.649C216.25 601.276 216.371 602.047 216.371 602.963V603.602H208.803V602.298H214.837C214.837 601.744 214.726 601.25 214.505 600.815C214.287 600.381 213.976 600.038 213.571 599.786C213.171 599.535 212.698 599.409 212.152 599.409C211.551 599.409 211.032 599.558 210.593 599.857C210.158 600.151 209.824 600.534 209.589 601.007C209.355 601.48 209.238 601.987 209.238 602.528V603.398C209.238 604.139 209.365 604.768 209.621 605.283C209.881 605.795 210.241 606.185 210.701 606.453C211.162 606.717 211.696 606.849 212.306 606.849C212.702 606.849 213.06 606.794 213.38 606.683C213.703 606.568 213.983 606.398 214.217 606.172C214.451 605.942 214.632 605.656 214.76 605.315L216.218 605.724C216.064 606.219 215.806 606.653 215.444 607.028C215.082 607.399 214.635 607.689 214.102 607.898C213.569 608.102 212.971 608.205 212.306 608.205ZM226.618 608.23C225.995 608.23 225.431 608.113 224.924 607.879C224.417 607.64 224.014 607.297 223.716 606.849C223.417 606.398 223.268 605.852 223.268 605.213C223.268 604.651 223.379 604.195 223.6 603.845C223.822 603.491 224.118 603.214 224.489 603.014C224.86 602.814 225.269 602.665 225.716 602.567C226.168 602.464 226.622 602.384 227.078 602.324C227.674 602.247 228.158 602.19 228.529 602.151C228.904 602.109 229.176 602.038 229.347 601.94C229.522 601.842 229.609 601.672 229.609 601.429V601.378C229.609 600.747 229.436 600.257 229.091 599.908C228.75 599.558 228.233 599.384 227.538 599.384C226.818 599.384 226.253 599.541 225.844 599.857C225.435 600.172 225.147 600.509 224.981 600.866L223.549 600.355C223.805 599.759 224.146 599.294 224.572 598.962C225.002 598.625 225.471 598.391 225.978 598.259C226.49 598.122 226.993 598.054 227.487 598.054C227.802 598.054 228.164 598.092 228.574 598.169C228.987 598.241 229.385 598.393 229.769 598.623C230.157 598.853 230.478 599.2 230.734 599.665C230.99 600.129 231.118 600.751 231.118 601.531V608H229.609V606.67H229.532C229.43 606.884 229.26 607.112 229.021 607.354C228.782 607.597 228.465 607.804 228.069 607.974C227.672 608.145 227.189 608.23 226.618 608.23ZM226.848 606.875C227.444 606.875 227.947 606.758 228.356 606.523C228.77 606.289 229.081 605.987 229.289 605.616C229.502 605.245 229.609 604.855 229.609 604.446V603.065C229.545 603.142 229.404 603.212 229.187 603.276C228.974 603.336 228.727 603.389 228.446 603.436C228.169 603.479 227.898 603.517 227.634 603.551C227.374 603.581 227.163 603.607 227.001 603.628C226.609 603.679 226.243 603.762 225.902 603.877C225.565 603.988 225.292 604.156 225.083 604.382C224.879 604.604 224.777 604.906 224.777 605.29C224.777 605.814 224.971 606.21 225.358 606.479C225.75 606.743 226.247 606.875 226.848 606.875ZM237.86 608.205C236.939 608.205 236.146 607.987 235.482 607.553C234.817 607.118 234.306 606.519 233.948 605.756C233.59 604.994 233.411 604.122 233.411 603.142C233.411 602.145 233.594 601.265 233.96 600.502C234.331 599.735 234.847 599.136 235.507 598.706C236.172 598.271 236.948 598.054 237.834 598.054C238.524 598.054 239.146 598.182 239.7 598.438C240.254 598.693 240.708 599.051 241.062 599.511C241.416 599.972 241.635 600.509 241.72 601.122H240.212C240.097 600.675 239.841 600.278 239.445 599.933C239.053 599.584 238.524 599.409 237.86 599.409C237.271 599.409 236.756 599.562 236.313 599.869C235.874 600.172 235.531 600.6 235.284 601.154C235.041 601.704 234.919 602.349 234.919 603.091C234.919 603.849 235.039 604.51 235.277 605.072C235.52 605.635 235.861 606.072 236.3 606.383C236.743 606.694 237.263 606.849 237.86 606.849C238.252 606.849 238.607 606.781 238.927 606.645C239.247 606.509 239.517 606.312 239.739 606.057C239.96 605.801 240.118 605.494 240.212 605.136H241.72C241.635 605.716 241.424 606.238 241.088 606.702C240.755 607.163 240.314 607.529 239.764 607.802C239.219 608.07 238.584 608.205 237.86 608.205ZM247.914 608.205C246.994 608.205 246.201 607.987 245.536 607.553C244.872 607.118 244.36 606.519 244.002 605.756C243.644 604.994 243.465 604.122 243.465 603.142C243.465 602.145 243.649 601.265 244.015 600.502C244.386 599.735 244.901 599.136 245.562 598.706C246.227 598.271 247.002 598.054 247.889 598.054C248.579 598.054 249.201 598.182 249.755 598.438C250.309 598.693 250.763 599.051 251.117 599.511C251.47 599.972 251.69 600.509 251.775 601.122H250.267C250.151 600.675 249.896 600.278 249.499 599.933C249.107 599.584 248.579 599.409 247.914 599.409C247.326 599.409 246.811 599.562 246.367 599.869C245.928 600.172 245.585 600.6 245.338 601.154C245.095 601.704 244.974 602.349 244.974 603.091C244.974 603.849 245.093 604.51 245.332 605.072C245.575 605.635 245.916 606.072 246.355 606.383C246.798 606.694 247.318 606.849 247.914 606.849C248.306 606.849 248.662 606.781 248.982 606.645C249.301 606.509 249.572 606.312 249.794 606.057C250.015 605.801 250.173 605.494 250.267 605.136H251.775C251.69 605.716 251.479 606.238 251.142 606.702C250.81 607.163 250.369 607.529 249.819 607.802C249.274 608.07 248.639 608.205 247.914 608.205ZM257.969 608.205C257.083 608.205 256.305 607.994 255.636 607.572C254.971 607.15 254.451 606.56 254.076 605.801C253.705 605.043 253.52 604.156 253.52 603.142C253.52 602.119 253.705 601.227 254.076 600.464C254.451 599.701 254.971 599.109 255.636 598.687C256.305 598.265 257.083 598.054 257.969 598.054C258.855 598.054 259.631 598.265 260.296 598.687C260.965 599.109 261.485 599.701 261.855 600.464C262.23 601.227 262.418 602.119 262.418 603.142C262.418 604.156 262.23 605.043 261.855 605.801C261.485 606.56 260.965 607.15 260.296 607.572C259.631 607.994 258.855 608.205 257.969 608.205ZM257.969 606.849C258.642 606.849 259.196 606.677 259.631 606.332C260.066 605.987 260.387 605.533 260.596 604.97C260.805 604.408 260.909 603.798 260.909 603.142C260.909 602.486 260.805 601.874 260.596 601.308C260.387 600.741 260.066 600.283 259.631 599.933C259.196 599.584 258.642 599.409 257.969 599.409C257.296 599.409 256.742 599.584 256.307 599.933C255.872 600.283 255.551 600.741 255.342 601.308C255.133 601.874 255.029 602.486 255.029 603.142C255.029 603.798 255.133 604.408 255.342 604.97C255.551 605.533 255.872 605.987 256.307 606.332C256.742 606.677 257.296 606.849 257.969 606.849ZM270.908 603.986V598.182H272.417V608H270.908V606.338H270.806C270.576 606.837 270.218 607.261 269.732 607.61C269.246 607.955 268.632 608.128 267.891 608.128C267.277 608.128 266.732 607.994 266.255 607.725C265.777 607.452 265.402 607.043 265.13 606.498C264.857 605.948 264.721 605.256 264.721 604.42V598.182H266.229V604.318C266.229 605.034 266.429 605.605 266.83 606.031C267.235 606.457 267.75 606.67 268.377 606.67C268.752 606.67 269.133 606.575 269.521 606.383C269.913 606.191 270.241 605.897 270.505 605.501C270.774 605.104 270.908 604.599 270.908 603.986ZM276.688 602.094V608H275.18V598.182H276.637V599.716H276.765C276.995 599.217 277.344 598.817 277.813 598.514C278.282 598.207 278.887 598.054 279.628 598.054C280.293 598.054 280.875 598.19 281.373 598.463C281.872 598.732 282.26 599.141 282.537 599.69C282.814 600.236 282.952 600.926 282.952 601.761V608H281.444V601.864C281.444 601.092 281.243 600.491 280.843 600.061C280.442 599.626 279.893 599.409 279.194 599.409C278.712 599.409 278.282 599.513 277.903 599.722C277.528 599.931 277.231 600.236 277.014 600.636C276.797 601.037 276.688 601.523 276.688 602.094ZM289.979 598.182V599.46H284.891V598.182H289.979ZM286.374 595.83H287.882V605.188C287.882 605.614 287.944 605.933 288.067 606.146C288.195 606.355 288.357 606.496 288.553 606.568C288.754 606.636 288.964 606.67 289.186 606.67C289.352 606.67 289.489 606.662 289.595 606.645C289.702 606.624 289.787 606.607 289.851 606.594L290.158 607.949C290.055 607.987 289.913 608.026 289.729 608.064C289.546 608.107 289.314 608.128 289.033 608.128C288.607 608.128 288.189 608.036 287.78 607.853C287.375 607.67 287.038 607.391 286.77 607.016C286.506 606.641 286.374 606.168 286.374 605.597V595.83Z" fill="white"/>
<path d="M137.599 638.5H136.278C136.2 638.12 136.064 637.786 135.868 637.499C135.676 637.211 135.442 636.969 135.165 636.774C134.892 636.575 134.588 636.426 134.254 636.327C133.92 636.227 133.572 636.178 133.21 636.178C132.55 636.178 131.951 636.344 131.415 636.678C130.882 637.012 130.458 637.504 130.142 638.154C129.83 638.804 129.673 639.601 129.673 640.545C129.673 641.49 129.83 642.287 130.142 642.937C130.458 643.587 130.882 644.079 131.415 644.413C131.951 644.746 132.55 644.913 133.21 644.913C133.572 644.913 133.92 644.864 134.254 644.764C134.588 644.665 134.892 644.517 135.165 644.322C135.442 644.123 135.676 643.88 135.868 643.592C136.064 643.301 136.2 642.967 136.278 642.591H137.599C137.5 643.148 137.319 643.647 137.056 644.088C136.793 644.528 136.467 644.903 136.076 645.212C135.685 645.517 135.247 645.75 134.76 645.909C134.277 646.069 133.761 646.149 133.21 646.149C132.28 646.149 131.452 645.922 130.728 645.467C130.004 645.013 129.434 644.366 129.018 643.528C128.603 642.69 128.395 641.696 128.395 640.545C128.395 639.395 128.603 638.401 129.018 637.562C129.434 636.724 130.004 636.078 130.728 635.624C131.452 635.169 132.28 634.942 133.21 634.942C133.761 634.942 134.277 635.022 134.76 635.181C135.247 635.341 135.685 635.576 136.076 635.885C136.467 636.19 136.793 636.563 137.056 637.003C137.319 637.44 137.5 637.939 137.599 638.5ZM139.564 646V637.818H140.778V639.054H140.863C141.013 638.649 141.282 638.321 141.673 638.069C142.064 637.816 142.504 637.69 142.994 637.69C143.086 637.69 143.202 637.692 143.34 637.696C143.479 637.699 143.584 637.705 143.655 637.712V638.99C143.612 638.979 143.514 638.963 143.362 638.942C143.212 638.917 143.054 638.905 142.888 638.905C142.49 638.905 142.135 638.988 141.822 639.155C141.513 639.319 141.268 639.546 141.087 639.837C140.91 640.125 140.821 640.453 140.821 640.822V646H139.564ZM148.326 646.17C147.538 646.17 146.858 645.996 146.286 645.648C145.718 645.297 145.279 644.807 144.97 644.178C144.665 643.546 144.512 642.811 144.512 641.973C144.512 641.135 144.665 640.396 144.97 639.757C145.279 639.114 145.709 638.614 146.259 638.255C146.813 637.893 147.46 637.712 148.198 637.712C148.624 637.712 149.045 637.783 149.461 637.925C149.876 638.067 150.254 638.298 150.595 638.617C150.936 638.933 151.208 639.352 151.41 639.874C151.613 640.396 151.714 641.039 151.714 641.803V642.335H145.407V641.249H150.435C150.435 640.787 150.343 640.375 150.158 640.013C149.977 639.651 149.718 639.365 149.381 639.155C149.047 638.946 148.653 638.841 148.198 638.841C147.698 638.841 147.264 638.965 146.899 639.214C146.536 639.459 146.258 639.778 146.062 640.173C145.867 640.567 145.769 640.989 145.769 641.44V642.165C145.769 642.783 145.876 643.306 146.089 643.736C146.305 644.162 146.606 644.487 146.989 644.711C147.373 644.931 147.818 645.041 148.326 645.041C148.656 645.041 148.955 644.995 149.221 644.903C149.491 644.807 149.723 644.665 149.919 644.477C150.114 644.285 150.265 644.047 150.372 643.763L151.586 644.104C151.458 644.516 151.243 644.878 150.941 645.19C150.64 645.499 150.267 645.741 149.823 645.915C149.379 646.085 148.88 646.17 148.326 646.17ZM156.034 646.192C155.515 646.192 155.045 646.094 154.622 645.899C154.2 645.7 153.864 645.414 153.616 645.041C153.367 644.665 153.243 644.21 153.243 643.678C153.243 643.209 153.335 642.829 153.52 642.538C153.704 642.243 153.951 642.012 154.26 641.845C154.569 641.678 154.91 641.554 155.283 641.472C155.659 641.387 156.037 641.32 156.417 641.27C156.915 641.206 157.318 641.158 157.627 641.126C157.939 641.091 158.166 641.032 158.308 640.95C158.454 640.869 158.527 640.727 158.527 640.524V640.482C158.527 639.956 158.383 639.548 158.095 639.256C157.811 638.965 157.38 638.82 156.801 638.82C156.201 638.82 155.73 638.951 155.389 639.214C155.048 639.477 154.809 639.757 154.67 640.055L153.477 639.629C153.69 639.132 153.974 638.745 154.329 638.468C154.688 638.187 155.079 637.992 155.501 637.882C155.927 637.768 156.346 637.712 156.758 637.712C157.021 637.712 157.323 637.744 157.664 637.808C158.008 637.868 158.34 637.994 158.66 638.186C158.983 638.377 159.251 638.667 159.464 639.054C159.677 639.441 159.784 639.96 159.784 640.609V646H158.527V644.892H158.463C158.378 645.07 158.236 645.26 158.037 645.462C157.838 645.664 157.573 645.837 157.243 645.979C156.913 646.121 156.51 646.192 156.034 646.192ZM156.226 645.062C156.723 645.062 157.142 644.965 157.483 644.77C157.827 644.574 158.086 644.322 158.26 644.013C158.438 643.704 158.527 643.379 158.527 643.038V641.888C158.473 641.952 158.356 642.01 158.175 642.064C157.998 642.113 157.792 642.158 157.557 642.197C157.326 642.232 157.101 642.264 156.881 642.293C156.664 642.317 156.488 642.339 156.353 642.357C156.027 642.399 155.721 642.468 155.437 642.564C155.157 642.657 154.929 642.797 154.755 642.985C154.585 643.17 154.5 643.422 154.5 643.741C154.5 644.178 154.661 644.509 154.984 644.732C155.311 644.952 155.725 645.062 156.226 645.062ZM165.637 637.818V638.884H161.396V637.818H165.637ZM162.632 635.858H163.889V643.656C163.889 644.011 163.941 644.278 164.044 644.455C164.15 644.629 164.285 644.746 164.449 644.807C164.616 644.864 164.791 644.892 164.976 644.892C165.115 644.892 165.228 644.885 165.317 644.871C165.406 644.853 165.477 644.839 165.53 644.828L165.786 645.957C165.7 645.989 165.581 646.021 165.429 646.053C165.276 646.089 165.083 646.107 164.848 646.107C164.493 646.107 164.145 646.03 163.804 645.877C163.467 645.725 163.186 645.492 162.963 645.18C162.742 644.867 162.632 644.473 162.632 643.997V635.858ZM170.87 646.17C170.082 646.17 169.402 645.996 168.83 645.648C168.262 645.297 167.823 644.807 167.514 644.178C167.209 643.546 167.056 642.811 167.056 641.973C167.056 641.135 167.209 640.396 167.514 639.757C167.823 639.114 168.253 638.614 168.803 638.255C169.357 637.893 170.004 637.712 170.742 637.712C171.168 637.712 171.589 637.783 172.005 637.925C172.42 638.067 172.798 638.298 173.139 638.617C173.48 638.933 173.752 639.352 173.954 639.874C174.157 640.396 174.258 641.039 174.258 641.803V642.335H167.951V641.249H172.979C172.979 640.787 172.887 640.375 172.702 640.013C172.521 639.651 172.262 639.365 171.925 639.155C171.591 638.946 171.197 638.841 170.742 638.841C170.241 638.841 169.808 638.965 169.442 639.214C169.08 639.459 168.801 639.778 168.606 640.173C168.411 640.567 168.313 640.989 168.313 641.44V642.165C168.313 642.783 168.42 643.306 168.633 643.736C168.849 644.162 169.15 644.487 169.533 644.711C169.917 644.931 170.362 645.041 170.87 645.041C171.2 645.041 171.499 644.995 171.765 644.903C172.035 644.807 172.267 644.665 172.463 644.477C172.658 644.285 172.809 644.047 172.915 643.763L174.13 644.104C174.002 644.516 173.787 644.878 173.485 645.19C173.184 645.499 172.811 645.741 172.367 645.915C171.923 646.085 171.424 646.17 170.87 646.17ZM181.646 641.078V646H180.389V637.818H181.603V639.097H181.71C181.902 638.681 182.193 638.347 182.583 638.095C182.974 637.839 183.478 637.712 184.096 637.712C184.65 637.712 185.135 637.825 185.55 638.053C185.966 638.276 186.289 638.617 186.52 639.075C186.751 639.53 186.866 640.105 186.866 640.801V646H185.609V640.886C185.609 640.244 185.442 639.743 185.108 639.384C184.775 639.022 184.316 638.841 183.734 638.841C183.333 638.841 182.974 638.928 182.658 639.102C182.346 639.276 182.099 639.53 181.918 639.864C181.737 640.197 181.646 640.602 181.646 641.078ZM192.594 646.17C191.805 646.17 191.125 645.996 190.554 645.648C189.985 645.297 189.547 644.807 189.238 644.178C188.932 643.546 188.78 642.811 188.78 641.973C188.78 641.135 188.932 640.396 189.238 639.757C189.547 639.114 189.976 638.614 190.527 638.255C191.081 637.893 191.727 637.712 192.466 637.712C192.892 637.712 193.313 637.783 193.728 637.925C194.144 638.067 194.522 638.298 194.863 638.617C195.204 638.933 195.475 639.352 195.678 639.874C195.88 640.396 195.981 641.039 195.981 641.803V642.335H189.675V641.249H194.703C194.703 640.787 194.611 640.375 194.426 640.013C194.245 639.651 193.986 639.365 193.648 639.155C193.315 638.946 192.92 638.841 192.466 638.841C191.965 638.841 191.532 638.965 191.166 639.214C190.804 639.459 190.525 639.778 190.33 640.173C190.134 640.567 190.037 640.989 190.037 641.44V642.165C190.037 642.783 190.143 643.306 190.356 643.736C190.573 644.162 190.873 644.487 191.257 644.711C191.64 644.931 192.086 645.041 192.594 645.041C192.924 645.041 193.222 644.995 193.489 644.903C193.758 644.807 193.991 644.665 194.186 644.477C194.382 644.285 194.533 644.047 194.639 643.763L195.854 644.104C195.726 644.516 195.511 644.878 195.209 645.19C194.907 645.499 194.534 645.741 194.09 645.915C193.647 646.085 193.148 646.17 192.594 646.17ZM199.747 646L197.255 637.818H198.576L200.344 644.082H200.429L202.176 637.818H203.519L205.245 644.061H205.33L207.098 637.818H208.419L205.926 646H204.691L202.901 639.714H202.773L200.983 646H199.747ZM216.708 646.192C216.189 646.192 215.719 646.094 215.296 645.899C214.873 645.7 214.538 645.414 214.289 645.041C214.041 644.665 213.916 644.21 213.916 643.678C213.916 643.209 214.009 642.829 214.193 642.538C214.378 642.243 214.625 642.012 214.934 641.845C215.243 641.678 215.584 641.554 215.957 641.472C216.333 641.387 216.711 641.32 217.091 641.27C217.588 641.206 217.991 641.158 218.3 641.126C218.613 641.091 218.84 641.032 218.982 640.95C219.128 640.869 219.201 640.727 219.201 640.524V640.482C219.201 639.956 219.057 639.548 218.769 639.256C218.485 638.965 218.054 638.82 217.475 638.82C216.875 638.82 216.404 638.951 216.063 639.214C215.722 639.477 215.483 639.757 215.344 640.055L214.151 639.629C214.364 639.132 214.648 638.745 215.003 638.468C215.362 638.187 215.752 637.992 216.175 637.882C216.601 637.768 217.02 637.712 217.432 637.712C217.695 637.712 217.997 637.744 218.338 637.808C218.682 637.868 219.014 637.994 219.334 638.186C219.657 638.377 219.925 638.667 220.138 639.054C220.351 639.441 220.458 639.96 220.458 640.609V646H219.201V644.892H219.137C219.051 645.07 218.909 645.26 218.71 645.462C218.512 645.664 218.247 645.837 217.917 645.979C217.587 646.121 217.184 646.192 216.708 646.192ZM216.899 645.062C217.397 645.062 217.816 644.965 218.157 644.77C218.501 644.574 218.76 644.322 218.934 644.013C219.112 643.704 219.201 643.379 219.201 643.038V641.888C219.147 641.952 219.03 642.01 218.849 642.064C218.671 642.113 218.465 642.158 218.231 642.197C218 642.232 217.775 642.264 217.555 642.293C217.338 642.317 217.162 642.339 217.027 642.357C216.701 642.399 216.395 642.468 216.111 642.564C215.831 642.657 215.603 642.797 215.429 642.985C215.259 643.17 215.174 643.422 215.174 643.741C215.174 644.178 215.335 644.509 215.658 644.732C215.985 644.952 216.399 645.062 216.899 645.062ZM226.076 646.17C225.309 646.17 224.648 645.989 224.094 645.627C223.54 645.265 223.114 644.766 222.816 644.13C222.518 643.495 222.369 642.768 222.369 641.952C222.369 641.121 222.521 640.387 222.827 639.752C223.136 639.113 223.565 638.614 224.116 638.255C224.67 637.893 225.316 637.712 226.055 637.712C226.63 637.712 227.148 637.818 227.61 638.031C228.072 638.244 228.45 638.543 228.745 638.926C229.039 639.31 229.222 639.757 229.293 640.268H228.036C227.94 639.896 227.727 639.565 227.397 639.278C227.07 638.987 226.63 638.841 226.076 638.841C225.586 638.841 225.156 638.969 224.787 639.224C224.421 639.477 224.135 639.833 223.929 640.295C223.727 640.753 223.626 641.291 223.626 641.909C223.626 642.541 223.725 643.092 223.924 643.56C224.126 644.029 224.411 644.393 224.776 644.652C225.146 644.912 225.579 645.041 226.076 645.041C226.403 645.041 226.699 644.984 226.966 644.871C227.232 644.757 227.457 644.594 227.642 644.381C227.827 644.168 227.958 643.912 228.036 643.614H229.293C229.222 644.097 229.047 644.532 228.766 644.919C228.489 645.302 228.121 645.608 227.663 645.835C227.209 646.059 226.68 646.17 226.076 646.17ZM234.455 646.17C233.688 646.17 233.027 645.989 232.473 645.627C231.919 645.265 231.493 644.766 231.195 644.13C230.897 643.495 230.748 642.768 230.748 641.952C230.748 641.121 230.9 640.387 231.206 639.752C231.515 639.113 231.944 638.614 232.495 638.255C233.049 637.893 233.695 637.712 234.434 637.712C235.009 637.712 235.527 637.818 235.989 638.031C236.451 638.244 236.829 638.543 237.124 638.926C237.418 639.31 237.601 639.757 237.672 640.268H236.415C236.319 639.896 236.106 639.565 235.776 639.278C235.449 638.987 235.009 638.841 234.455 638.841C233.965 638.841 233.535 638.969 233.166 639.224C232.8 639.477 232.514 639.833 232.308 640.295C232.106 640.753 232.005 641.291 232.005 641.909C232.005 642.541 232.104 643.092 232.303 643.56C232.505 644.029 232.789 644.393 233.155 644.652C233.525 644.912 233.958 645.041 234.455 645.041C234.782 645.041 235.078 644.984 235.344 644.871C235.611 644.757 235.836 644.594 236.021 644.381C236.206 644.168 236.337 643.912 236.415 643.614H237.672C237.601 644.097 237.425 644.532 237.145 644.919C236.868 645.302 236.5 645.608 236.042 645.835C235.588 646.059 235.059 646.17 234.455 646.17ZM242.834 646.17C242.095 646.17 241.447 645.995 240.89 645.643C240.336 645.292 239.902 644.8 239.59 644.168C239.281 643.536 239.126 642.797 239.126 641.952C239.126 641.099 239.281 640.355 239.59 639.72C239.902 639.084 240.336 638.591 240.89 638.239C241.447 637.887 242.095 637.712 242.834 637.712C243.572 637.712 244.219 637.887 244.773 638.239C245.33 638.591 245.763 639.084 246.072 639.72C246.385 640.355 246.541 641.099 246.541 641.952C246.541 642.797 246.385 643.536 246.072 644.168C245.763 644.8 245.33 645.292 244.773 645.643C244.219 645.995 243.572 646.17 242.834 646.17ZM242.834 645.041C243.395 645.041 243.857 644.897 244.219 644.61C244.581 644.322 244.849 643.944 245.023 643.475C245.197 643.006 245.284 642.499 245.284 641.952C245.284 641.405 245.197 640.895 245.023 640.423C244.849 639.951 244.581 639.569 244.219 639.278C243.857 638.987 243.395 638.841 242.834 638.841C242.273 638.841 241.811 638.987 241.449 639.278C241.087 639.569 240.819 639.951 240.645 640.423C240.471 640.895 240.384 641.405 240.384 641.952C240.384 642.499 240.471 643.006 240.645 643.475C240.819 643.944 241.087 644.322 241.449 644.61C241.811 644.897 242.273 645.041 242.834 645.041ZM253.616 642.655V637.818H254.873V646H253.616V644.615H253.531C253.339 645.031 253.041 645.384 252.636 645.675C252.231 645.963 251.72 646.107 251.102 646.107C250.591 646.107 250.136 645.995 249.739 645.771C249.341 645.544 249.028 645.203 248.801 644.748C248.574 644.29 248.46 643.713 248.46 643.017V637.818H249.717V642.932C249.717 643.528 249.884 644.004 250.218 644.359C250.555 644.714 250.985 644.892 251.507 644.892C251.82 644.892 252.137 644.812 252.46 644.652C252.787 644.493 253.061 644.248 253.281 643.917C253.505 643.587 253.616 643.166 253.616 642.655ZM258.433 641.078V646H257.176V637.818H258.39V639.097H258.497C258.689 638.681 258.98 638.347 259.371 638.095C259.761 637.839 260.265 637.712 260.883 637.712C261.437 637.712 261.922 637.825 262.338 638.053C262.753 638.276 263.076 638.617 263.307 639.075C263.538 639.53 263.653 640.105 263.653 640.801V646H262.396V640.886C262.396 640.244 262.229 639.743 261.895 639.384C261.562 639.022 261.104 638.841 260.521 638.841C260.12 638.841 259.761 638.928 259.445 639.102C259.133 639.276 258.886 639.53 258.705 639.864C258.524 640.197 258.433 640.602 258.433 641.078ZM269.509 637.818V638.884H265.269V637.818H269.509ZM266.504 635.858H267.761V643.656C267.761 644.011 267.813 644.278 267.916 644.455C268.022 644.629 268.157 644.746 268.321 644.807C268.488 644.864 268.663 644.892 268.848 644.892C268.987 644.892 269.1 644.885 269.189 644.871C269.278 644.853 269.349 644.839 269.402 644.828L269.658 645.957C269.573 645.989 269.454 646.021 269.301 646.053C269.148 646.089 268.955 646.107 268.72 646.107C268.365 646.107 268.017 646.03 267.676 645.877C267.339 645.725 267.058 645.492 266.835 645.18C266.614 644.867 266.504 644.473 266.504 643.997V635.858Z" fill="white"/>
<path d="M126.5 652.5H271.5" stroke="white"/>
<rect x="121" y="484" width="149" height="30" rx="10" fill="#B86E13"/>
<path d="M176.409 504V492.364H177.818V502.75H183.227V504H176.409ZM188.773 504.182C187.985 504.182 187.294 503.994 186.699 503.619C186.108 503.244 185.646 502.72 185.312 502.045C184.983 501.371 184.818 500.583 184.818 499.682C184.818 498.773 184.983 497.979 185.312 497.301C185.646 496.623 186.108 496.097 186.699 495.722C187.294 495.347 187.985 495.159 188.773 495.159C189.561 495.159 190.25 495.347 190.841 495.722C191.436 496.097 191.898 496.623 192.227 497.301C192.561 497.979 192.727 498.773 192.727 499.682C192.727 500.583 192.561 501.371 192.227 502.045C191.898 502.72 191.436 503.244 190.841 503.619C190.25 503.994 189.561 504.182 188.773 504.182ZM188.773 502.977C189.371 502.977 189.864 502.824 190.25 502.517C190.636 502.21 190.922 501.807 191.108 501.307C191.294 500.807 191.386 500.265 191.386 499.682C191.386 499.098 191.294 498.555 191.108 498.051C190.922 497.547 190.636 497.14 190.25 496.83C189.864 496.519 189.371 496.364 188.773 496.364C188.174 496.364 187.682 496.519 187.295 496.83C186.909 497.14 186.623 497.547 186.438 498.051C186.252 498.555 186.159 499.098 186.159 499.682C186.159 500.265 186.252 500.807 186.438 501.307C186.623 501.807 186.909 502.21 187.295 502.517C187.682 502.824 188.174 502.977 188.773 502.977ZM198.297 507.455C197.649 507.455 197.092 507.371 196.626 507.205C196.161 507.042 195.772 506.826 195.462 506.557C195.155 506.292 194.911 506.008 194.729 505.705L195.797 504.955C195.918 505.114 196.071 505.295 196.257 505.5C196.443 505.708 196.696 505.888 197.018 506.04C197.344 506.195 197.77 506.273 198.297 506.273C199.001 506.273 199.583 506.102 200.041 505.761C200.5 505.42 200.729 504.886 200.729 504.159V502.386H200.615C200.517 502.545 200.376 502.742 200.195 502.977C200.017 503.208 199.759 503.415 199.422 503.597C199.089 503.775 198.638 503.864 198.07 503.864C197.365 503.864 196.732 503.697 196.172 503.364C195.615 503.03 195.174 502.545 194.848 501.909C194.526 501.273 194.365 500.5 194.365 499.591C194.365 498.697 194.522 497.919 194.837 497.256C195.151 496.589 195.589 496.074 196.149 495.71C196.71 495.343 197.357 495.159 198.092 495.159C198.661 495.159 199.111 495.254 199.445 495.443C199.782 495.629 200.039 495.841 200.217 496.08C200.399 496.314 200.539 496.508 200.638 496.659H200.774V495.273H202.07V504.25C202.07 505 201.899 505.61 201.558 506.08C201.221 506.553 200.767 506.9 200.195 507.119C199.626 507.343 198.994 507.455 198.297 507.455ZM198.251 502.659C198.789 502.659 199.244 502.536 199.615 502.29C199.986 502.044 200.268 501.689 200.462 501.227C200.655 500.765 200.751 500.212 200.751 499.568C200.751 498.939 200.657 498.384 200.467 497.903C200.278 497.422 199.998 497.045 199.626 496.773C199.255 496.5 198.797 496.364 198.251 496.364C197.683 496.364 197.21 496.508 196.831 496.795C196.456 497.083 196.174 497.47 195.984 497.955C195.799 498.439 195.706 498.977 195.706 499.568C195.706 500.174 195.801 500.71 195.99 501.176C196.183 501.638 196.467 502.002 196.842 502.267C197.221 502.528 197.691 502.659 198.251 502.659ZM204.524 504V495.273H205.865V504H204.524ZM205.206 493.818C204.945 493.818 204.719 493.729 204.53 493.551C204.344 493.373 204.251 493.159 204.251 492.909C204.251 492.659 204.344 492.445 204.53 492.267C204.719 492.089 204.945 492 205.206 492C205.467 492 205.691 492.089 205.876 492.267C206.066 492.445 206.161 492.659 206.161 492.909C206.161 493.159 206.066 493.373 205.876 493.551C205.691 493.729 205.467 493.818 205.206 493.818ZM209.662 498.75V504H208.321V495.273H209.616V496.636H209.73C209.935 496.193 210.245 495.837 210.662 495.568C211.079 495.295 211.616 495.159 212.276 495.159C212.866 495.159 213.384 495.28 213.827 495.523C214.27 495.761 214.615 496.125 214.861 496.614C215.107 497.098 215.23 497.712 215.23 498.455V504H213.889V498.545C213.889 497.86 213.711 497.326 213.355 496.943C212.999 496.557 212.51 496.364 211.889 496.364C211.461 496.364 211.079 496.456 210.741 496.642C210.408 496.828 210.145 497.098 209.952 497.455C209.759 497.811 209.662 498.242 209.662 498.75Z" fill="black"/>
</svg>
